<?xml version="1.0" encoding="utf-8"?>
<!-- Generator: Adobe Illustrator 15.0.0, SVG Export Plug-In . SVG Version: 6.00 Build 0)  -->
<!DOCTYPE svg PUBLIC "-//W3C//DTD SVG 1.1//EN" "http://www.w3.org/Graphics/SVG/1.1/DTD/svg11.dtd">
<svg version="1.1" id="Слой_1" xmlns="http://www.w3.org/2000/svg" xmlns:xlink="http://www.w3.org/1999/xlink" x="0px" y="0px"
	 width="124.8818px" height="16.1089px" viewBox="0 0 124.8818 16.1089" enable-background="new 0 0 124.8818 16.1089"
	 xml:space="preserve">
<g>
	<defs>
		<rect id="SVGID_1_" width="124.8818" height="16.1089"/>
	</defs>
	<clipPath id="SVGID_2_">
		<use xlink:href="#SVGID_1_"  overflow="visible"/>
	</clipPath>
	<path clip-path="url(#SVGID_2_)" fill="#005195" d="M48.2974-0.0005c0.4839,0.0537,0.9692,0.104,1.4531,0.1597
		c2.4111,0.2783,4.7158,0.8843,6.749,2.27c1.6299,1.1133,2.752,2.5923,3.126,4.5732c0.3838,2.0342-0.1909,3.7988-1.5391,5.3271
		c-1.4048,1.5918-3.2271,2.4941-5.2349,3.0586c-1.4692,0.4141-2.9712,0.6104-4.4971,0.6729
		c-2.7432,0.1133-5.4209-0.1953-7.979-1.2334c-1.8071-0.7344-3.375-1.8037-4.4111-3.5068c-1.5659-2.5762-1.187-5.6187,0.9229-7.7744
		c1.5542-1.5889,3.479-2.4849,5.6074-2.9482c1.1709-0.2559,2.3779-0.3486,3.5679-0.5176c0.1357-0.019,0.27-0.0532,0.4038-0.0811
		H48.2974z M47.5786,13.2622c0.2847-0.0195,0.6938-0.041,1.1006-0.0781c1.4331-0.1299,2.7813-0.5156,3.9644-1.3633
		c2.085-1.4961,2.6606-4.0713,1.3589-6.0952c-0.7002-1.0894-1.7271-1.771-2.917-2.2144c-1.8423-0.687-3.7412-0.7998-5.668-0.4761
		c-1.2212,0.2051-2.3892,0.5801-3.397,1.3311c-1.5151,1.1304-2.189,2.6211-1.8369,4.5093c0.2856,1.5371,1.208,2.6035,2.5566,3.334
		C44.2124,13.0063,45.8135,13.2144,47.5786,13.2622"/>
	<path clip-path="url(#SVGID_2_)" fill="#005195" d="M13.729,0c0.5317,0.0527,1.064,0.1011,1.5947,0.1606
		c2.3179,0.2593,4.5723,0.7422,6.585,1.9971c0.9023,0.561,1.7139,1.2319,2.312,2.1279c0.0449,0.0684,0.0889,0.1382,0.1309,0.208
		c0.0171,0.0293,0.0264,0.0635,0.0591,0.1431c-0.2607,0.0439-0.5049,0.0933-0.751,0.123c-1.5078,0.1841-3.0161,0.3672-4.5259,0.5381
		c-0.0938,0.0112-0.228-0.0469-0.293-0.1191c-1.416-1.564-3.2549-2.104-5.2813-2.251C11.769,2.7979,10.0337,3.0068,8.3579,3.645
		C7.085,4.1299,6.0107,4.876,5.375,6.126c-0.9614,1.8877-0.4194,4.2114,1.2837,5.4761c1.1831,0.8789,2.5332,1.3516,3.9902,1.5098
		c1.5757,0.1699,3.1548,0.167,4.7148-0.1445c1.5142-0.3047,2.835-0.9551,3.7432-2.2744c0.0566-0.084,0.1797-0.1719,0.2729-0.1729
		c1.6421-0.0098,3.2837-0.0078,4.9258-0.0068c0.0933,0,0.1851,0.0078,0.3613,0.0156c-0.0981,0.2549-0.1641,0.4824-0.2681,0.6904
		c-0.54,1.0762-1.3711,1.8877-2.3604,2.5537c-1.5718,1.0576-3.3198,1.6533-5.1709,1.9766
		c-1.7588,0.3096-3.5371,0.4014-5.3169,0.3428C9.1099,16.0112,6.686,15.77,4.4468,14.686c-2.1777-1.0537-3.6948-2.6895-4.251-5.1064
		C0.1157,9.23,0.0649,8.873,0,8.519c0-0.3291,0-0.6572,0-0.9863C0.064,7.2158,0.1157,6.896,0.1938,6.582
		c0.5317-2.1631,1.877-3.689,3.79-4.7402c2.127-1.168,4.4541-1.585,6.8408-1.7529C11.1597,0.0649,11.4937,0.0298,11.8276,0H13.729z"
		/>
	<path clip-path="url(#SVGID_2_)" fill="#005195" d="M82.917,15.5952h-5.0195c-0.0107-0.1553-0.0332-0.3135-0.0332-0.4707
		c-0.002-3.7412-0.001-7.4834-0.001-11.2256c-0.001-0.5322-0.002-0.5332-0.542-0.5332c-2.2871,0-4.5742,0-6.8613,0
		c-0.1396,0-0.2773,0-0.4854,0c0.0781-0.9639,0.1533-1.8887,0.2305-2.832h20.3584c0.0752,0.9302,0.1484,1.8574,0.2266,2.832
		c-0.1533,0-0.29,0-0.4277,0c-2.335,0-4.6689,0.0083-7.0029-0.0078c-0.3555-0.002-0.4521,0.0938-0.4512,0.4512
		c0.0137,3.7656,0.0088,7.5313,0.0088,11.2969C82.917,15.2573,82.917,15.4067,82.917,15.5952"/>
	<path clip-path="url(#SVGID_2_)" fill="#005195" d="M101.4736,0.5127c1.7344,0,3.4697-0.0034,5.2041,0.0068
		c0.1113,0,0.248,0.0737,0.3262,0.1567c1.9307,2.0654,3.8545,4.1362,5.7764,6.208c0.1182,0.1274,0.2109,0.2764,0.291,0.3833
		c2.002-2.103,4.0029-4.1929,5.9863-6.3013c0.3018-0.3208,0.5947-0.4756,1.0518-0.4668c1.5596,0.0317,3.1201,0.0122,4.7725,0.0122
		c-0.1357,0.1436-0.2217,0.2407-0.3125,0.333c-2.8564,2.8516-5.7109,5.7056-8.5742,8.5503
		c-0.2402,0.2393-0.3525,0.4766-0.3486,0.8242c0.0186,1.6309,0.0078,3.2627,0.0078,4.8936v0.4189
		c-0.1465,0.0117-0.2705,0.0283-0.3945,0.0283c-1.4189,0.002-2.8389-0.0088-4.2588,0.0098
		c-0.3398,0.0049-0.4082-0.1211-0.4053-0.4277c0.0127-1.6426-0.001-3.2852,0.0117-4.9287c0.002-0.3027-0.085-0.5234-0.3018-0.7412
		c-2.874-2.8677-5.7393-5.7437-8.6094-8.6147c-0.0898-0.0898-0.2119-0.146-0.3184-0.2178
		C101.4092,0.5977,101.4414,0.5547,101.4736,0.5127"/>
</g>
</svg>
