<?xml version="1.0" encoding="utf-8"?>
<!-- Generator: Adobe Illustrator 15.0.0, SVG Export Plug-In . SVG Version: 6.00 Build 0)  -->
<!DOCTYPE svg PUBLIC "-//W3C//DTD SVG 1.1//EN" "http://www.w3.org/Graphics/SVG/1.1/DTD/svg11.dtd">
<svg version="1.1" id="Слой_1" xmlns="http://www.w3.org/2000/svg" xmlns:xlink="http://www.w3.org/1999/xlink" x="0px" y="0px"
	 width="142.6279px" height="34.1045px" viewBox="0 0 142.6279 34.1045" enable-background="new 0 0 142.6279 34.1045"
	 xml:space="preserve">
<g>
	<defs>
		<rect id="SVGID_1_" y="0.0005" width="142.6279" height="34.104"/>
	</defs>
	<clipPath id="SVGID_2_">
		<use xlink:href="#SVGID_1_"  overflow="visible"/>
	</clipPath>
	<path clip-path="url(#SVGID_2_)" fill="#492A71" d="M29.249,10.4165c-1.8291,2.4663-3.6548,4.9272-5.5161,7.436
		c-1.6367-2.5107-3.251-4.9849-4.8638-7.46c-0.0283,0.0049-0.0571,0.0112-0.085,0.0161c-0.0464,0.4761-0.0933,0.9517-0.1372,1.4277
		c-0.2031,2.1953-0.624,4.3472-1.3062,6.4419c-0.5088,1.5635-1.418,2.8203-2.9507,3.5313c-1.3682,0.6357-2.7891,0.291-3.7012-0.9199
		c-0.3418-0.4541-0.5928-0.9756-0.8911-1.4746c2.0054-0.9873,2.9351-2.7173,3.624-4.6006c0.9502-2.5957,1.4072-5.2881,1.2603-8.0566
		c-0.042-0.7803-0.2163-1.562-0.4102-2.3232c-0.1938-0.7607-0.605-1.4248-1.2222-1.9731c0.5464-0.731,1.2813-1.0947,2.1333-1.252
		c2.0557-0.3779,3.6519,0.3633,4.7979,2.0684c1.2559,1.8677,2.4683,3.7666,3.7002,5.6519c0.1138,0.1748,0.231,0.3491,0.3779,0.5708
		c0.1299-0.1699,0.2397-0.3091,0.3438-0.4517c1.4834-2.0332,2.9351-4.0894,4.4561-6.0933c1.3721-1.8101,3.5352-2.332,5.5781-1.415
		c0.373,0.168,0.6992,0.4409,1.0859,0.6909c-1.4971,1.252-1.811,2.936-1.9858,4.6289c-0.3413,3.3071-0.083,6.5752,0.9268,9.7593
		c0.6973,2.2007,1.7783,4.1587,3.666,5.5854c1.1812,0.8926,2.4961,1.4473,3.9692,1.6221c0.061,0.0078,0.1211,0.0215,0.2261,0.04
		c-0.5991,1.3008-1.458,2.3193-2.708,2.9648c-2.3394,1.208-5.2192,0.6543-7.0874-1.3213c-1.3428-1.4209-2.0708-3.1543-2.5508-5.0078
		c-0.667-2.5732-0.7842-5.1992-0.7319-7.8403C29.2612,11.9277,29.249,11.1914,29.249,10.4165"/>
	<path clip-path="url(#SVGID_2_)" fill="#492A71" d="M76.9746,9.8516c0-0.1401,0-0.2803,0-0.4209
		c0.0059-2.188,0.0039-4.377,0.0176-6.5664c0.0088-1.4878,0.8389-2.5249,2.2197-2.8076c1.5078-0.3101,3.0615,0.8887,3.1182,2.4287
		c0.0293,0.7773,0.0117,1.5552,0.0117,2.333c0,4.2861-0.0029,8.5713,0.002,12.8569c0.001,0.3804,0.0469,0.7622,0.0908,1.1401
		c0.1055,0.9189,0.5938,1.585,1.3955,2.0254c-1.3154,1.9658-5.1943,1.5293-6.4912-1.1289c-0.623,1.3154-1.7139,2.0518-3.082,2.2617
		c-2.8037,0.4297-4.9458-0.6416-5.9976-3.3369c-1.0884-2.7852-1.1133-5.5894,0.1836-8.3164
		c0.8652-1.8169,2.3213-2.8428,4.4009-2.7607c1.5889,0.062,2.8164,0.855,3.8174,2.0439c0.0762,0.0898,0.1494,0.1821,0.2227,0.2729
		C76.9141,9.8687,76.9453,9.8594,76.9746,9.8516 M76.6436,14.8794c-0.04-0.9639-0.126-1.9199-0.6328-2.7769
		c-0.4336-0.7349-1.0723-1.0771-1.8008-0.936c-0.7012,0.1362-1.1445,0.6299-1.3574,1.2588
		c-0.2227,0.6523-0.3789,1.3423-0.4414,2.0283c-0.0898,0.9868,0.0088,1.9741,0.4238,2.8979
		c0.2354,0.5249,0.6006,0.9287,1.1699,1.0996c0.8848,0.2666,1.7295-0.1514,2.1641-1.0669
		C76.5449,16.5913,76.5947,15.7363,76.6436,14.8794"/>
	<path clip-path="url(#SVGID_2_)" fill="#492A71" d="M67.3667,20.8486c-0.915,1.0254-2.0103,1.3574-3.3311,1.1602
		c-1.5513-0.2324-2.7988-1.2285-3.1563-2.6553c-0.0786-0.3154-0.1216-0.6484-0.124-0.9746
		c-0.0107-1.9771-0.001-3.9551-0.0078-5.9331c-0.0029-0.8423-0.5078-1.4302-1.2358-1.374
		c-0.3022,0.0229-0.6533,0.1738-0.8691,0.3828c-0.5332,0.52-0.833,1.1909-0.8389,1.9443c-0.0181,2.0039-0.0049,4.0078-0.0073,6.0122
		c-0.001,1.542-1.0908,2.6465-2.5908,2.6318c-1.4697-0.0146-2.52-1.0977-2.5229-2.6211c-0.0059-2.7563-0.019-5.5122,0.0059-8.2671
		c0.0122-1.251-0.3188-2.2861-1.5098-2.9263c0.896-1.0518,2.019-1.3799,3.312-1.1548c1.895,0.3301,3.0791,1.3931,3.3159,3.4448
		c0.1631-0.2197,0.2778-0.376,0.394-0.5298c0.729-0.9663,1.603-1.7593,2.77-2.144c2.2749-0.751,4.2241-0.0698,4.7397,2.749
		c0.29,1.583,0.1553,3.1802,0.147,4.772c-0.0039,0.9229-0.0059,1.8462,0.0054,2.7681
		C65.8765,19.2969,66.2217,20.2881,67.3667,20.8486"/>
	<path clip-path="url(#SVGID_2_)" fill="#492A71" d="M36.5181,14.7524c-0.0044-4.0601,3.2271-7.2959,7.293-7.3008
		c4.0488-0.0063,7.3247,3.2437,7.3379,7.2788c0.0142,4.0332-3.293,7.3428-7.335,7.3428
		C39.7837,22.0742,36.5229,18.8018,36.5181,14.7524 M46.063,14.8203c-0.0229-0.0059-0.0469-0.0127-0.0703-0.019
		c-0.041-0.5107-0.0557-1.0259-0.1289-1.5327c-0.1108-0.7603-0.3198-1.4941-0.8091-2.1123
		c-0.6699-0.8467-1.6855-0.8789-2.3496-0.0269c-0.2842,0.3643-0.499,0.8101-0.6382,1.2529
		c-0.418,1.3311-0.4038,2.6973-0.1992,4.0649c0.1011,0.6694,0.2773,1.3164,0.6904,1.8682c0.6548,0.875,1.8169,0.9287,2.5117,0.0879
		c0.2451-0.2959,0.4629-0.6626,0.5493-1.0308C45.814,16.5327,45.9199,15.6724,46.063,14.8203"/>
	<path clip-path="url(#SVGID_2_)" fill="#492A71" d="M119.0508,21.8164c-0.1602-0.7324-0.042-1.4033,0.1338-2.0635
		c0.6162-2.3027,1.8906-4.1597,3.8604-5.5034c1.042-0.7109,2.1387-1.3442,3.2109-2.0122c0.1045-0.0649,0.209-0.1309,0.4092-0.2578
		c-0.2432-0.0112-0.3682-0.021-0.4951-0.021c-1.4482-0.0049-2.8984-0.0029-4.3486-0.0142c-0.9316-0.0068-1.7227-0.5698-1.9639-1.376
		c-0.3223-1.0791,0.4072-2.2529,1.5459-2.4712c0.2695-0.0508,0.5488-0.0679,0.8242-0.0688c2.7031-0.0039,5.4053-0.0049,8.1064-0.001
		c0.8066,0.001,1.5195-0.1802,2.0137-1.0537c0.2305,0.3687,0.4736,0.6587,0.6074,0.9927c0.4795,1.188,0.2813,2.3213-0.3662,3.395
		c-0.6934,1.146-1.6709,2.0303-2.6846,2.876c-1.4756,1.23-2.9619,2.4482-4.5293,3.7422c2.3076-0.0952,4.6133,0.3838,6.6641-1.0532
		c0.4902,0.519,0.6543,1.1479,0.6592,1.812c0.0049,0.8525-0.249,1.6377-0.793,2.3066c-0.8516,1.0479-2.0615,1.3779-3.375,0.9092
		c-0.3447-0.1221-0.6875-0.2764-0.9922-0.4775c-2.3564-1.5508-4.7891-1.4043-7.2666-0.3535
		c-0.2051,0.0869-0.4043,0.1924-0.5977,0.3027C119.4795,21.5342,119.2949,21.6611,119.0508,21.8164"/>
	<path clip-path="url(#SVGID_2_)" fill="#492A71" d="M110.6309,16.2549c0.3076,0.8398,0.8311,1.4502,1.5752,1.877
		c0.6426,0.3701,1.3486,0.5283,2.082,0.5225c1.3496-0.0107,2.6846-0.1123,3.9229-0.9873c-0.0625,0.2939-0.0918,0.5088-0.1563,0.7129
		c-0.5938,1.9053-1.8916,3.0361-3.8193,3.4902c-3,0.708-6.1172-0.5088-7.7227-3.0225c-2.0176-3.1597-1.2637-8.5127,2.6318-10.5518
		c1.75-0.916,3.582-0.9502,5.4502-0.4741c1.3789,0.3521,2.6387,0.9282,3.5049,2.1211c0.7979,1.0972,0.9521,2.3208,0.5723,3.604
		c-0.3193,1.0801-1.127,1.73-2.1543,2.0229c-0.9658,0.2749-1.9717,0.4399-2.9707,0.5552c-0.8867,0.103-1.7891,0.0688-2.6836,0.0977
		C110.8008,16.2251,110.7402,16.2388,110.6309,16.2549 M110.3252,13.9497c0.6025,0,1.1514,0.0161,1.6992-0.0039
		c0.8809-0.0308,1.7236-0.7798,1.8818-1.645c0.1797-0.9878-0.2939-1.7539-1.1934-1.8867c-0.6357-0.0933-1.085,0.251-1.4482,0.7148
		C110.6318,11.939,110.4873,12.916,110.3252,13.9497"/>
	<path clip-path="url(#SVGID_2_)" fill="#492A71" d="M89.041,16.3145c0.373,0.9961,1.0557,1.7393,2.0732,2.0449
		c1.8398,0.5537,3.6367,0.4063,5.3213-0.5918c0.0322-0.019,0.0713-0.0278,0.1484-0.0581c-0.1475,0.9878-0.5313,1.8335-1.1641,2.564
		c-0.8809,1.0176-2.041,1.5176-3.3379,1.7031c-2.4834,0.3545-4.6455-0.3203-6.4014-2.1367
		c-1.1641-1.2031-1.7354-2.6782-1.8359-4.3403c-0.1172-1.9438,0.2861-3.7539,1.4893-5.3169
		c1.6104-2.0947,3.7813-2.8809,6.373-2.5947c1.3105,0.144,2.5479,0.52,3.6504,1.2676c1.5195,1.0293,2.1777,2.6851,1.7734,4.436
		c-0.2383,1.0332-0.8975,1.7021-1.833,2.1323c-1.0713,0.4907-2.2188,0.6489-3.376,0.708c-0.9453,0.0479-1.8945,0.0098-2.8408,0.0098
		C89.0664,16.1987,89.0537,16.2568,89.041,16.3145 M88.7275,13.9277c0.1006,0.0288,0.1611,0.062,0.2217,0.061
		c0.4609-0.0083,0.9219-0.019,1.3809-0.0381c0.9521-0.0381,1.7627-0.7212,1.9619-1.6479c0.1631-0.7559-0.1016-1.4038-0.7041-1.73
		c-0.6143-0.332-1.2695-0.2021-1.8066,0.4009C89.0361,11.8115,88.8721,12.8599,88.7275,13.9277"/>
	<path clip-path="url(#SVGID_2_)" fill="#492A71" d="M105.4932,20.8535c-0.6631,0.7393-1.4355,1.1797-2.3945,1.2129
		c-0.8564,0.0303-1.6719-0.1729-2.4248-0.5918c-1.3457-0.7471-2.0049-1.9316-2.0195-3.4351
		c-0.0352-3.48-0.0205-6.9619-0.0234-10.4429c-0.002-1.6743-0.0166-3.3491,0.0098-5.0239c0.0176-1.0562,0.5566-1.833,1.4971-2.2861
		c0.9561-0.46,1.9033-0.3618,2.7607,0.2661c0.8105,0.5947,1.0859,1.4438,1.084,2.4229c-0.0117,4.4971-0.0127,8.9932-0.0146,13.4902
		c0,0.5669,0.0098,1.1328,0.0225,1.7002C104.0146,19.3135,104.3682,20.2871,105.4932,20.8535"/>
	<path clip-path="url(#SVGID_2_)" fill="#C8202A" d="M15.0029,22.9854c-0.5298,0.5742-1.0439,1.165-1.5928,1.7197
		c-2.043,2.0615-4.5352,3.0273-7.4214,2.8965c-2.084-0.0947-3.8789-0.8672-5.1187-2.625c-1.0391-1.4727-1.1362-3.0684-0.353-4.6748
		c0.7759-1.5928,2.103-2.4663,3.8677-2.5093c1.6924-0.041,2.9551,0.8306,3.8921,2.189c0.313,0.4541,0.5781,0.9434,0.833,1.4336
		c1.3203,2.5293,3.854,2.4854,5.623,1.5928c0.0659-0.0322,0.1289-0.0713,0.1929-0.1074
		C14.9521,22.9287,14.9771,22.957,15.0029,22.9854"/>
	<path clip-path="url(#SVGID_2_)" fill="#C8202A" d="M127.7197,22.9375c0.8848,0.4609,1.8154,0.6826,2.8105,0.5967
		c1.1494-0.0996,2.0527-0.6309,2.6787-1.5967c0.3223-0.4961,0.5957-1.0244,0.8916-1.5361c0.707-1.2256,1.6973-2.1152,3.082-2.4868
		c2.2334-0.6001,4.6074,0.8335,5.2656,3.1548c0.5703,2.0137-0.2344,4.0586-2.1172,5.3486
		c-1.5176,1.0381-3.2227,1.3281-5.0117,1.1699C132.0332,27.2969,129.623,25.5313,127.7197,22.9375"/>
	<path clip-path="url(#SVGID_2_)" fill="#492A71" d="M112.4033,5.6279c-1.3047,0-2.6094,0.002-3.9141-0.001
		c-0.9492-0.002-1.7402-0.7598-1.751-1.6709c-0.0107-0.9199,0.7949-1.7148,1.7568-1.7158c2.5967-0.0039,5.1924-0.0054,7.7891,0.001
		c0.8525,0.001,1.6006,0.6709,1.7168,1.5088c0.1035,0.7393-0.4287,1.5649-1.1807,1.8071c-0.1709,0.0552-0.3613,0.0669-0.542,0.0679
		C114.9863,5.6309,113.6953,5.6279,112.4033,5.6279"/>
	<path clip-path="url(#SVGID_2_)" fill="#492A71" d="M87.2197,28.5811c0.041-0.1309,0.0742-0.2275,0.1006-0.3242
		c0.1494-0.5391,0.6934-0.9629,1.1865-0.9238c0.6152,0.0488,1.1484,0.5371,1.1582,1.1494c0.0234,1.4775,0.0195,2.9541,0.002,4.4316
		c-0.0068,0.5186-0.4102,0.9805-0.876,1.1025c-0.5176,0.1357-1.0166-0.0674-1.333-0.543c-0.0508-0.0752-0.0967-0.1504-0.1582-0.25
		c-0.5898,0.6885-1.3223,0.9053-2.1768,0.7617c-1.1172-0.1885-1.6436-0.9609-1.917-1.9639
		c-0.2705-0.9902-0.2588-1.9844,0.1064-2.9492c0.6465-1.7061,2.4492-2.0498,3.6973-0.7178
		C87.0713,28.4209,87.1328,28.4873,87.2197,28.5811 M87.1787,30.7998c-0.1123-0.4043-0.166-0.8438-0.3535-1.2188
		c-0.3135-0.6279-1.0391-0.6152-1.3584,0.0117c-0.3994,0.7822-0.3779,1.5977-0.0391,2.3965c0.124,0.293,0.3721,0.4697,0.7129,0.4717
		c0.3545,0.002,0.625-0.167,0.7402-0.4863C87.0117,31.6113,87.0742,31.2227,87.1787,30.7998"/>
	<path clip-path="url(#SVGID_2_)" fill="#492A71" d="M116.7051,28.6357c0.0645-0.2314,0.0938-0.3701,0.1426-0.502
		c0.1846-0.4912,0.7451-0.8584,1.2012-0.793c0.6279,0.0898,1.0879,0.543,1.0947,1.1533c0.0176,1.4629,0.0146,2.9248,0.002,4.3867
		c-0.0049,0.5488-0.3838,1.0146-0.8691,1.1377c-0.5186,0.1299-1.0176-0.0752-1.3301-0.5488
		c-0.043-0.0654-0.0781-0.1357-0.0967-0.167c-0.3867,0.2178-0.7402,0.5088-1.1455,0.6279
		c-1.2109,0.3555-2.3105-0.1865-2.8105-1.3477c-0.4814-1.1211-0.5244-2.2744-0.1182-3.4258
		c0.6318-1.791,2.4248-2.1631,3.7383-0.7852C116.5762,28.4365,116.6201,28.5176,116.7051,28.6357 M114.6074,30.8057
		c0.1104,0.4209,0.1826,0.8213,0.3223,1.1953c0.1133,0.3027,0.3789,0.4609,0.7168,0.46c0.3389,0,0.5898-0.166,0.7188-0.4629
		c0.3467-0.7998,0.3662-1.6182-0.0381-2.3936c-0.1143-0.2168-0.4424-0.4521-0.665-0.4463
		c-0.2441,0.0068-0.5762,0.2314-0.6982,0.4541C114.7705,29.9678,114.7207,30.3994,114.6074,30.8057"/>
	<path clip-path="url(#SVGID_2_)" fill="#492A71" d="M108.1992,29.1328c0.2549-0.2725,0.4199-0.5195,0.6475-0.6777
		c0.3291-0.2266,0.6836-0.4756,1.0615-0.5625c1.0557-0.2432,1.7402,0.252,1.8291,1.3857c0.0957,1.2314,0.0889,2.4727,0.084,3.71
		c-0.0029,0.6035-0.5811,1.1182-1.1357,1.1055c-0.625-0.0146-1.1191-0.5322-1.1221-1.1895
		c-0.0059-0.9229-0.0029-1.8447,0.001-2.7666c0.002-0.3408-0.0693-0.6582-0.4365-0.752c-0.3955-0.1025-0.6182,0.1787-0.7539,0.4902
		c-0.0967,0.2236-0.1602,0.4775-0.167,0.7197c-0.0205,0.7627-0.0029,1.5273-0.0088,2.292
		c-0.0039,0.6514-0.5098,1.1943-1.1143,1.2061c-0.6191,0.0107-1.1514-0.5342-1.1543-1.208c-0.0068-1.4102-0.0068-2.8203,0-4.2305
		c0.0039-0.6621,0.5107-1.1396,1.165-1.126c0.6357,0.0137,1.0957,0.4902,1.1045,1.1455
		C108.2002,28.8008,108.1992,28.9258,108.1992,29.1328"/>
	<path clip-path="url(#SVGID_2_)" fill="#492A71" d="M78.6973,28.9424c0.2305-0.1855,0.4912-0.3867,0.7441-0.5996
		c0.4219-0.3564,0.9131-0.5195,1.457-0.5107c0.7676,0.0137,1.2793,0.5469,1.335,1.5225c0.0693,1.1943,0.0742,2.3945,0.0703,3.5928
		c-0.0029,0.6338-0.5615,1.1582-1.1367,1.1465c-0.6396-0.0137-1.1162-0.5342-1.1182-1.2305c-0.002-0.8828,0.002-1.7656,0.002-2.6494
		c-0.002-0.1172,0.0293-0.2607-0.0254-0.3486c-0.1123-0.1787-0.249-0.4189-0.4189-0.4619c-0.167-0.043-0.4746,0.0732-0.5674,0.2178
		c-0.1748,0.2744-0.3174,0.6143-0.3389,0.9355c-0.0469,0.7617-0.0117,1.5273-0.0156,2.292
		c-0.0029,0.6816-0.5029,1.2334-1.1191,1.2451c-0.6348,0.0107-1.1494-0.5439-1.1504-1.248c-0.002-1.3701-0.002-2.7412,0-4.1113
		c0.001-0.7129,0.457-1.2002,1.124-1.2051c0.6631-0.0059,1.1367,0.4854,1.1475,1.1855
		C78.6875,28.8281,78.6973,28.9414,78.6973,28.9424"/>
	<path clip-path="url(#SVGID_2_)" fill="#492A71" d="M55.2725,29.0352c0.2949-0.2734,0.5293-0.5908,0.8423-0.7559
		c0.4058-0.2139,0.8667-0.3799,1.3198-0.4297c0.562-0.0635,0.9932,0.248,1.1758,0.7979c0.1113,0.333,0.2002,0.6875,0.2104,1.0361
		c0.0308,1.0801,0.0278,2.1602,0.0229,3.2402c-0.0029,0.6436-0.5083,1.165-1.0981,1.1709c-0.6201,0.0049-1.127-0.5107-1.1328-1.1748
		c-0.0093-0.8818,0-1.7646-0.0034-2.6475c0-0.1436,0.0181-0.3125-0.0479-0.4248c-0.104-0.1787-0.252-0.415-0.4199-0.4502
		c-0.1699-0.0361-0.4712,0.0889-0.562,0.2373c-0.1699,0.2773-0.3032,0.6191-0.3218,0.9424
		c-0.0464,0.7607-0.0112,1.5273-0.0181,2.291c-0.0044,0.5039-0.2251,0.8848-0.686,1.1104
		c-0.4141,0.2012-0.8262,0.1436-1.1333-0.1631c-0.2061-0.2061-0.4087-0.5254-0.416-0.7988c-0.04-1.4883-0.0269-2.9775-0.0156-4.4668
		c0.0029-0.5313,0.4326-0.9541,0.9746-1.0098c0.5894-0.0596,1.1123,0.2744,1.2324,0.8105
		C55.2466,28.5752,55.2485,28.8115,55.2725,29.0352"/>
	<path clip-path="url(#SVGID_2_)" fill="#492A71" d="M101.9766,34.0547c-1.8252,0.0029-3.2607-1.4297-3.2607-3.2549
		c0.001-1.8232,1.4355-3.251,3.2656-3.249c1.8018,0.001,3.2305,1.4248,3.2432,3.2344
		C105.2354,32.6025,103.7959,34.0518,101.9766,34.0547 M102.9932,30.8193c-0.0889-0.4316-0.1523-0.8721-0.2783-1.2949
		c-0.1006-0.3398-0.335-0.6221-0.7246-0.627c-0.3906-0.0049-0.6152,0.2803-0.7402,0.6133
		c-0.3262,0.8672-0.3242,1.7451-0.0107,2.6152c0.1221,0.3418,0.3506,0.582,0.7559,0.5781c0.4072-0.0029,0.6387-0.2559,0.7393-0.5986
		C102.8555,31.6963,102.9072,31.2656,102.9932,30.8193"/>
	<path clip-path="url(#SVGID_2_)" fill="#492A71" d="M66.4204,31.4238c0.4639,1.1689,1.6372,1.4297,3.3438,0.7949
		c-0.0249,0.1357-0.0298,0.2471-0.0669,0.3467c-0.2837,0.7676-0.8467,1.207-1.627,1.4072c-1.6641,0.4258-3.416-0.5654-3.8389-2.1836
		c-0.4819-1.8398,0.4741-3.6631,2.1709-4.1113c1.04-0.2744,2.0122-0.0645,2.897,0.5137c0.666,0.4355,0.9429,1.1973,0.7559,1.9707
		c-0.1099,0.4541-0.3936,0.8164-0.8379,0.9199c-0.6968,0.1631-1.415,0.2393-2.126,0.3379
		C66.8906,31.4482,66.6802,31.4238,66.4204,31.4238 M66.2124,30.3867c0.8652,0.2295,1.478-0.0205,1.667-0.6064
		c0.1162-0.3604,0.0078-0.6934-0.2769-0.8555c-0.291-0.165-0.6582-0.1143-0.8579,0.2227
		C66.5195,29.5273,66.3892,29.9629,66.2124,30.3867"/>
	<path clip-path="url(#SVGID_2_)" fill="#492A71" d="M123.1357,33.5898c-0.5176,0.5527-1.1045,0.6055-1.751,0.3672
		c-0.7041-0.2588-1.1191-0.7734-1.1279-1.5107c-0.0273-2.3828-0.0195-4.7666-0.0088-7.1494
		c0.0039-0.5449,0.5557-1.0498,1.0908-1.0586c0.6025-0.0107,1.1533,0.5195,1.166,1.1572c0.0156,0.8154,0.0049,1.6328,0.0049,2.4492
		c0,1.4619,0.0059,2.9229-0.0029,4.3848C122.5039,32.7822,122.5967,33.2793,123.1357,33.5898"/>
	<path clip-path="url(#SVGID_2_)" fill="#492A71" d="M48.8804,24.7432c0.4482-0.5068,0.9893-0.5977,1.5894-0.4199
		c0.6221,0.1826,1.0669,0.5625,1.228,1.2119c0.0527,0.2148,0.0767,0.4424,0.0776,0.665c0.0063,2.2246,0.0093,4.4492,0.0044,6.6748
		c-0.002,0.627-0.4424,1.1299-1.0283,1.2148c-0.4658,0.0674-1.0288-0.3018-1.1841-0.7988
		c-0.0488-0.1592-0.0547-0.3359-0.0547-0.5049c-0.0029-2.2256-0.0029-4.4502-0.002-6.6748
		C49.5107,25.5625,49.4136,25.0586,48.8804,24.7432"/>
	<path clip-path="url(#SVGID_2_)" fill="#492A71" d="M91.0566,29.0156c-0.3848-0.04-0.7715-0.0176-0.7441-0.5322
		c0.0234-0.4482,0.3359-0.4736,0.7393-0.459c0-0.2627-0.002-0.5059,0.001-0.749c0.0078-0.6504,0.5156-1.1982,1.1152-1.2051
		c0.6172-0.0068,1.1484,0.5469,1.1553,1.207c0.002,0.2236,0,0.4463,0,0.7441c0.2676,0,0.5107-0.001,0.7529,0
		c0.4814,0.0029,0.6592,0.1279,0.6689,0.4688c0.0117,0.3604-0.167,0.4883-0.6807,0.4932c-0.1973,0.002-0.3945,0.0049-0.5918,0.0137
		c-0.0361,0.001-0.0723,0.0264-0.1318,0.0508c0,0.9258-0.0449,1.8594,0.0156,2.7881c0.0381,0.5693,0.4932,0.8691,1.0293,1.0107
		c0.1113,0.0293,0.2256,0.043,0.3428,0.0645c-0.4541,1.2354-1.9775,1.5166-2.998,0.5723c-0.4492-0.415-0.6729-0.9316-0.6738-1.5439
		C91.0557,30.9795,91.0566,30.0186,91.0566,29.0156"/>
	<path clip-path="url(#SVGID_2_)" fill="#492A71" d="M62.4663,28.0225c0.312,0,0.5986,0.0068,0.8848-0.002
		c0.332-0.0098,0.4961,0.1641,0.5039,0.4727c0.0093,0.3135-0.1499,0.4951-0.4819,0.4883c-0.0259-0.001-0.0527,0.001-0.0791,0.002
		c-0.8486,0.0283-0.8486,0.0283-0.8486,0.8945c0,0.5146-0.0024,1.0283,0.001,1.543c0.0049,0.8789,0.3638,1.2988,1.231,1.4512
		c0.0508,0.0088,0.0996,0.0244,0.1509,0.0371c-0.2568,0.8076-1.209,1.3115-2.0542,1.0977
		c-0.9209-0.2334-1.5811-1.0684-1.5869-2.0176c-0.0059-0.8838-0.0059-1.7666-0.0068-2.6504c0-0.1748,0.0161-0.3613-0.2461-0.3535
		c-0.3389,0.0117-0.5322-0.1484-0.5229-0.4912c0.0098-0.3438,0.2251-0.4805,0.5527-0.4727c0.0513,0.002,0.1021-0.0166,0.2144-0.0371
		c0-0.2568-0.0063-0.5156,0.001-0.7744c0.0171-0.6045,0.4639-1.083,1.0518-1.1348c0.5474-0.0479,1.1094,0.4131,1.186,0.999
		C62.457,27.3701,62.4502,27.6729,62.4663,28.0225"/>
	<path clip-path="url(#SVGID_2_)" fill="#492A71" d="M73.0908,28.8428c0.2549-0.2822,0.4639-0.5508,0.7109-0.7793
		c0.3789-0.3516,0.9971-0.4092,1.4385-0.1699c0.4424,0.2402,0.6787,0.8027,0.5928,1.4043
		c-0.0791,0.5547-0.4277,0.9834-0.8916,1.0928c-0.5703,0.1367-0.8672-0.0518-1.0391-0.6074
		c-0.0537-0.1768-0.2031-0.3242-0.3086-0.4854c-0.1484,0.1533-0.3486,0.2832-0.4316,0.4658
		c-0.0918,0.2061-0.1035,0.459-0.1064,0.6934c-0.0127,0.8164,0.0049,1.6338-0.0098,2.4512
		c-0.0098,0.5889-0.3887,1.0469-0.9316,1.1738c-0.4424,0.1035-1.0029-0.167-1.2109-0.6211
		c-0.0791-0.1719-0.1079-0.3799-0.1089-0.5723c-0.0093-1.3701-0.0063-2.7402-0.0039-4.1104c0.001-0.6621,0.4077-1.167,0.9829-1.2275
		c0.6357-0.0654,1.1299,0.3359,1.2646,1.0303C73.0527,28.6553,73.0684,28.7275,73.0908,28.8428"/>
	<path clip-path="url(#SVGID_2_)" fill="#492A71" d="M97.9219,31.0693c0,0.6309,0.0029,1.2627-0.001,1.8945
		c-0.0039,0.5957-0.4209,1.0332-1.0234,1.082c-0.6104,0.0488-1.125-0.3066-1.1846-0.9004c-0.0615-0.5996-0.04-1.207-0.0449-1.8125
		c-0.0068-0.71-0.0068-1.4199-0.001-2.1299c0.0059-0.6914,0.4873-1.1758,1.1572-1.1729c0.6367,0.0029,1.0879,0.4902,1.0977,1.1846
		c0,0.0264,0,0.0527,0,0.0791C97.9219,29.8857,97.9219,30.4775,97.9219,31.0693"/>
	<path clip-path="url(#SVGID_2_)" fill="#492A71" d="M96.7861,27.3057c-0.6191-0.0059-1.0889-0.4824-1.0889-1.1045
		c0-0.6494,0.4707-1.1133,1.123-1.1074c0.6191,0.0049,1.0947,0.4844,1.0957,1.0996C97.917,26.8223,97.418,27.3115,96.7861,27.3057"
		/>
</g>
</svg>
