<?xml version="1.0" encoding="utf-8"?>
<!-- Generator: Adobe Illustrator 15.0.0, SVG Export Plug-In . SVG Version: 6.00 Build 0)  -->
<!DOCTYPE svg PUBLIC "-//W3C//DTD SVG 1.1//EN" "http://www.w3.org/Graphics/SVG/1.1/DTD/svg11.dtd">
<svg version="1.1" id="Слой_1" xmlns="http://www.w3.org/2000/svg" xmlns:xlink="http://www.w3.org/1999/xlink" x="0px" y="0px"
	 width="105.9941px" height="30.6958px" viewBox="0 0 105.9941 30.6958" enable-background="new 0 0 105.9941 30.6958"
	 xml:space="preserve">
<g>
	<defs>
		<rect id="SVGID_1_" width="105.9941" height="30.6958"/>
	</defs>
	<clipPath id="SVGID_2_">
		<use xlink:href="#SVGID_1_"  overflow="visible"/>
	</clipPath>
	<path clip-path="url(#SVGID_2_)" d="M9.4897,10.5137c-0.2671,0.3721-0.5049,0.77-0.8047,1.1128
		c-2.7842,3.1821-3.3569,7.7422-1.4292,11.4707c1.9263,3.7246,6.04,5.9199,10.2021,5.4424c4.125-0.4717,7.5571-3.4238,8.624-7.5205
		c0.2588-0.9961,0.3667-2.0576,0.374-3.0889c0.0347-5.4902,0.0156-10.9814,0.0156-16.4717c0-0.4199,0-0.8398,0-1.3408h5.979
		c0.042,0.1362,0.124,0.2749,0.124,0.415c-0.0088,6.2241,0.1304,12.4541-0.0859,18.6709c-0.1919,5.4961-2.9019,8.8418-8.21,10.3164
		c-6.019,1.6729-12.0938,1.6279-17.9961-0.5654C1.835,27.3022-0.2261,23.7231,0.02,18.6919c0.1729-3.561,3.0557-7,6.8159-8.0791
		c0.7661-0.2192,1.5708-0.3003,2.3579-0.4453C9.293,10.2827,9.3911,10.3989,9.4897,10.5137"/>
	<path clip-path="url(#SVGID_2_)" d="M50.7876,24.4692h-4.105V4.2178h4.0591v6.0127c1.1807,0,2.2471-0.0249,3.312,0.0063
		c1.6348,0.0488,2.9775,1.2026,3.0059,2.7827c0.0664,3.7817,0.0215,7.5649,0.0215,11.4624c-0.8086,0-1.5762,0.0889-2.3154-0.0205
		c-1.1855-0.1729-1.8232-1.0098-1.8311-2.2988c-0.0171-2.7051-0.0088-5.4102,0.002-8.1152
		c0.0039-0.8076,0.0132-1.6919-1.0508-1.7158c-1.0742-0.0239-1.0981,0.8472-1.0962,1.665c0.0093,3.0527,0,6.1064-0.002,9.1582
		C50.7876,23.5708,50.7876,23.9858,50.7876,24.4692"/>
	<path clip-path="url(#SVGID_2_)" d="M58.8418,10.2568c2.6553,0,5.2754-0.0732,7.8887,0.0298
		c1.3389,0.0532,2.5488,1.3413,2.5762,2.7363c0.0762,3.7822,0.0264,7.5654,0.0264,11.4639c-0.8213,0-1.5898,0.0859-2.332-0.0186
		c-1.207-0.1719-1.8174-0.9648-1.8281-2.2861c-0.0215-2.5918-0.0078-5.1826-0.0088-7.7734c0-0.27,0.0078-0.542-0.0039-0.812
		c-0.0352-0.7339-0.2881-1.3276-1.1416-1.2969c-0.793,0.0288-0.9951,0.606-0.9951,1.2959c-0.001,2.0879-0.002,4.1763-0.0029,6.2642
		c0,1.501,0,3.001,0,4.5908h-4.1787V10.2568z"/>
	<path clip-path="url(#SVGID_2_)" d="M34.3613,17.3267c0-1.1216-0.0054-2.2427,0.001-3.3633
		c0.0127-2.084,1.0776-3.5322,3.126-3.8149c1.4336-0.1982,2.9438-0.187,4.377,0.0239c1.9287,0.2827,3.0269,1.6919,3.0649,3.6489
		c0.0459,2.3569,0.0449,4.7173,0.001,7.0737c-0.04,2.0996-1.2813,3.5225-3.3789,3.7305c-1.3711,0.1357-2.7861,0.1182-4.1543-0.0537
		c-1.8286-0.2275-2.9888-1.6973-3.0356-3.5332c-0.001-0.0391-0.001-0.0781-0.001-0.1162
		C34.3613,19.7231,34.3613,18.5249,34.3613,17.3267 M40.7021,17.5249c0-1.3115,0.0029-2.6226-0.001-3.9346
		c-0.0029-0.7412-0.2451-1.3262-1.106-1.3032c-0.7783,0.022-1.0522,0.5713-1.0552,1.2593c-0.0132,2.5459-0.0098,5.0918-0.002,7.6377
		c0.002,0.7461,0.3149,1.3242,1.1309,1.3145c0.7632-0.0107,1.0303-0.5674,1.0313-1.2705
		C40.7012,19.9946,40.7002,18.7593,40.7021,17.5249"/>
	<path clip-path="url(#SVGID_2_)" d="M95.4102,24.5366c0-4.6748-0.001-9.1543,0.002-13.6357c0-0.1836,0.0352-0.3687,0.0605-0.6367
		c2.6758,0,5.2959-0.0781,7.9072,0.0317c1.3438,0.0571,2.5352,1.3242,2.5674,2.7422c0.0859,3.7778,0.0283,7.5581,0.0283,11.4634
		c-0.8223,0-1.5898,0.082-2.334-0.0195c-1.2031-0.1621-1.835-0.998-1.8486-2.4063c-0.0234-2.4727,0.0049-4.9453,0.0107-7.4185
		c0.001-0.3101,0.0039-0.6191-0.0029-0.9282c-0.0166-0.7627-0.2109-1.4478-1.1338-1.4219c-0.8545,0.0229-1.0352,0.687-1.0342,1.3989
		c0.001,2.4731,0.0137,4.9458,0.0195,7.4204c0.0029,0.8877,0.0459,1.7813-0.0322,2.6641c-0.0244,0.2646-0.3818,0.6982-0.6094,0.7129
		C97.8652,24.5767,96.7119,24.5366,95.4102,24.5366"/>
	<path clip-path="url(#SVGID_2_)" d="M93.7471,17.3901c0,1.2373,0.0254,2.4756-0.0068,3.7109
		c-0.0469,1.7969-1.1875,3.251-2.9697,3.4561c-1.5186,0.1758-3.0889,0.166-4.6094-0.0029
		c-1.6348-0.1816-2.8311-1.4951-2.8945-3.1465c-0.1016-2.6621-0.0996-5.332-0.0127-7.9951c0.0537-1.644,1.0947-2.9209,2.7285-3.1592
		c1.5801-0.231,3.2412-0.2637,4.8203-0.0459c1.9004,0.2612,2.9092,1.6753,2.9443,3.5889c0.0205,1.1982,0.0039,2.396,0.0039,3.5938
		C93.749,17.3901,93.748,17.3901,93.7471,17.3901 M89.582,17.3062c0-1.1968-0.0059-2.3926,0.002-3.5894
		c0.0049-0.7793-0.1924-1.4302-1.1143-1.4263c-0.8633,0.0039-1.0449,0.6201-1.043,1.3569c0.0088,2.5093,0.0107,5.0181,0,7.5269
		c-0.0029,0.7646,0.2617,1.3457,1.0869,1.3232c0.8096-0.0205,1.0742-0.6211,1.0703-1.3691
		C89.5762,19.855,89.582,18.5806,89.582,17.3062"/>
	<path clip-path="url(#SVGID_2_)" d="M81.4209,15.3281c-0.9707,0-1.9824,0.1069-2.9521-0.0498
		c-0.4209-0.0684-0.8252-0.6353-1.0986-1.064c-0.1602-0.252-0.0098-0.6841-0.0664-1.0229c-0.1318-0.7974-0.9268-1.208-1.5557-0.771
		c-0.959,0.6646-0.5801,1.707-0.4961,2.5679c0.04,0.4121,0.5977,0.9697,1.0322,1.106c0.833,0.2598,1.7559,0.2148,2.623,0.3901
		c1.5811,0.3198,2.4805,1.3589,2.6523,2.9429c0.3838,3.5664-1.1807,5.3037-4.7832,5.3086c-0.6953,0.001-1.3955,0.0313-2.085-0.0371
		c-2.417-0.2344-3.666-1.6211-3.6836-4.0371c-0.0029-0.418-0.001-0.8359-0.001-1.3867c1.1152,0,2.1582-0.0938,3.168,0.0479
		c0.377,0.0537,0.7012,0.6357,0.9961,1.0176c0.0938,0.1211,0.0234,0.376,0.0117,0.5674c-0.0479,0.8125,0.124,1.5664,1.0801,1.585
		c1.001,0.0176,1.0967-0.7764,1.0703-1.5684c-0.0127-0.3857-0.0078-0.7725-0.0039-1.1592c0.0098-0.7373-0.332-1.1592-1.0791-1.2363
		c-0.6533-0.0674-1.3047-0.1484-1.957-0.2168c-2.1221-0.2207-3.2617-1.4609-3.2861-3.5767
		c-0.0381-3.3604,1.2969-4.7153,4.6533-4.7231c0.541-0.001,1.082-0.0049,1.623,0.002
		C80.4277,10.0522,82.0469,12.0781,81.4209,15.3281"/>
	<path clip-path="url(#SVGID_2_)" d="M23.3062,23.3931c-0.208,0.1924-0.394,0.4189-0.6289,0.5713
		c-1.9409,1.2588-3.8818,2.5205-5.8501,3.7373c-0.2578,0.1592-0.7607,0.2129-0.999,0.0674
		c-2.0708-1.2695-4.1108-2.5918-6.1479-3.916c-0.188-0.123-0.2949-0.3721-0.6411-0.8271c0.999,0,1.7124,0.0215,2.4233-0.0049
		c2.0239-0.0713,3.5698-1.334,4.1338-3.2744c0.0972-0.333,0.4302-0.5977,0.6543-0.8936c0.229,0.2822,0.5757,0.5303,0.667,0.8516
		c0.562,1.9863,2.1318,3.2568,4.2227,3.3213c0.6782,0.0205,1.3584,0.0039,2.0371,0.0039
		C23.2202,23.1509,23.2632,23.272,23.3062,23.3931"/>
	<path clip-path="url(#SVGID_2_)" fill="#EA1D4B" d="M9.2393,13.3809c0.27-0.2197,0.5234-0.4658,0.8145-0.6548
		c1.814-1.1758,3.6226-2.3608,5.4668-3.4878c0.3271-0.2002,0.9312-0.335,1.207-0.168c2.1128,1.2788,4.1768,2.6387,6.25,3.9829
		c0.1128,0.0728,0.1689,0.2339,0.438,0.627c-0.7949,0-1.374-0.0049-1.9531,0.001c-2.3818,0.0259-3.8931,1.1938-4.582,3.4805
		c-0.0791,0.2646-0.3789,0.4619-0.5757,0.6895c-0.2163-0.2061-0.5474-0.373-0.6313-0.623c-0.8569-2.5391-2.209-3.5391-4.8818-3.5479
		c-0.4619-0.001-0.9238,0-1.3872,0C9.3496,13.5801,9.2944,13.481,9.2393,13.3809"/>
	<path clip-path="url(#SVGID_2_)" d="M8.0034,6.6621c1.3516,0.209,2.48,0.417,3.6157,0.54c0.3579,0.0391,0.791-0.0698,1.0952-0.2607
		c0.2456-0.1553,0.5029-0.5562,0.4697-0.8101c-0.0317-0.248-0.396-0.5752-0.6689-0.6421C12,5.3643,11.4453,5.3911,10.9072,5.3745
		C9.188,5.3203,8.2261,4.5244,8.1362,3.0713c-0.0918-1.481,0.9229-2.7769,2.4688-2.9941c1.5142-0.2129,2.9863,0.0103,4.4263,0.7529
		c-0.0972,0.5742-0.1899,1.125-0.272,1.605c-1.123-0.1978-2.1689-0.4819-3.2231-0.5176c-0.4277-0.0142-0.874,0.5146-1.311,0.7969
		c0.416,0.2407,0.812,0.542,1.2573,0.7021c0.3086,0.1108,0.688,0.0156,1.0337,0.0327c1.6582,0.0791,2.6621,0.9253,2.792,2.3442
		c0.145,1.5879-0.7739,3.0537-2.3311,3.1997c-1.4277,0.1333-2.9277,0.0249-4.333-0.2729C7.4761,8.4722,8.374,7.3501,8.0034,6.6621"
		/>
	<path clip-path="url(#SVGID_2_)" d="M24.3027,0.3257v1.8354c-1.022-0.0474-2.0078-0.1772-2.9829-0.1172
		c-1.6289,0.0991-2.4951,1.062-2.499,2.6021c-0.0049,1.5029,0.8042,2.418,2.3662,2.6157c0.4917,0.062,0.999,0.042,1.4956,0.0132
		c0.4961-0.0298,0.9902-0.1182,1.5723-0.1919v1.7798c-2.7969,0.8833-5.5,0.3491-6.8042-1.3477
		c-1.1479-1.4932-1.3027-3.729-0.2417-5.3311C18.9707-0.4771,21.5977-0.0293,24.3027,0.3257"/>
</g>
</svg>
