<?xml version="1.0" encoding="utf-8"?>
<!-- Generator: Adobe Illustrator 15.0.0, SVG Export Plug-In . SVG Version: 6.00 Build 0)  -->
<!DOCTYPE svg PUBLIC "-//W3C//DTD SVG 1.1//EN" "http://www.w3.org/Graphics/SVG/1.1/DTD/svg11.dtd">
<svg version="1.1" id="Слой_1" xmlns="http://www.w3.org/2000/svg" xmlns:xlink="http://www.w3.org/1999/xlink" x="0px" y="0px"
	 width="84.5947px" height="47.0889px" viewBox="0 0 84.5947 47.0889" enable-background="new 0 0 84.5947 47.0889"
	 xml:space="preserve">
<g>
	<defs>
		<rect id="SVGID_1_" width="84.5947" height="47.0889"/>
	</defs>
	<clipPath id="SVGID_2_">
		<use xlink:href="#SVGID_1_"  overflow="visible"/>
	</clipPath>
	<path clip-path="url(#SVGID_2_)" fill="#EE3624" d="M42.2813,47.0811c-3.7783,0.042-7.5386-0.2227-11.2754-0.8018
		c-5.6582-0.8779-11.1279-2.3799-16.3042-4.8613c-3.7129-1.7803-7.1328-3.9893-9.9648-7.0176
		c-2.0742-2.2188-3.6611-4.7246-4.3623-7.7148c-0.855-3.6445-0.2178-7.0684,1.625-10.2886c1.5273-2.668,3.6401-4.812,6.063-6.668
		c3.3462-2.561,7.0732-4.4131,11.0103-5.8628c3.707-1.3652,7.5229-2.314,11.4189-2.9434c5.0591-0.8169,10.1509-1.0698,15.269-0.8447
		c4.6543,0.2051,9.248,0.832,13.7695,1.959c4.5684,1.1392,8.96,2.7397,13.0586,5.084c3.2646,1.8672,6.2178,4.1172,8.5498,7.106
		c1.6338,2.0972,2.8008,4.415,3.2559,7.0591c0.498,2.8975,0.0566,5.6611-1.1982,8.3037c-1.2666,2.6689-3.1514,4.8525-5.373,6.7627
		c-2.8594,2.4609-6.0986,4.3066-9.5439,5.8066c-4.0068,1.7461-8.1807,2.9434-12.4707,3.7471
		c-3.5703,0.6689-7.1729,1.0732-10.8057,1.1709C44.0967,47.1006,43.1885,47.0811,42.2813,47.0811 M42.1201,45.0088
		c2.7705,0.0156,5.3682-0.0771,7.9473-0.415c2.2822-0.2988,4.5645-0.625,6.8242-1.0547c3.2109-0.6104,6.335-1.5527,9.374-2.7646
		c3.3086-1.3203,6.4453-2.9531,9.2588-5.1592c2.3174-1.8154,4.3037-3.918,5.6289-6.5811c1.123-2.2559,1.5586-4.6357,1.2021-7.1353
		c-0.3418-2.394-1.3721-4.498-2.8281-6.4048c-1.7637-2.3081-3.9648-4.1279-6.3975-5.6802
		c-3.3994-2.1689-7.0801-3.7148-10.9238-4.8921c-3.126-0.958-6.3076-1.6729-9.5508-2.0859
		c-1.875-0.2378-3.7559-0.4487-5.6406-0.5859c-2.5479-0.1851-5.1021-0.1948-7.6567-0.0938
		C36.4688,2.269,33.5967,2.54,30.7427,2.9961c-2.9819,0.4771-5.9219,1.1489-8.8027,2.062
		c-3.7891,1.2012-7.4185,2.7549-10.7563,4.9341c-2.5229,1.6479-4.7871,3.5811-6.5337,6.0659
		c-1.4932,2.124-2.4253,4.4561-2.5313,7.0708c-0.084,2.0879,0.3979,4.0625,1.3291,5.9268c1.3291,2.6631,3.3188,4.7637,5.6367,6.5752
		c3.2881,2.5684,6.9883,4.3682,10.8931,5.7695c4.2471,1.5234,8.6294,2.4873,13.0991,3.0488
		C36.1348,44.834,39.2056,45.0391,42.1201,45.0088"/>
	<path clip-path="url(#SVGID_2_)" fill="#EE3624" d="M21.9087,15.1768v15.4805h-3.0479v-6.6357h-6.7051v6.6357H9.1216V15.1675
		h3.0283c0,0.1572,0,0.2979,0,0.4399c0,1.8481,0.0049,3.6963-0.0063,5.5439c-0.002,0.2852,0.064,0.3853,0.3711,0.3833
		c1.9932-0.0151,3.9868-0.0083,5.98-0.0083c0.0991,0,0.1992,0,0.3359,0v-6.3496H21.9087z"/>
	<path clip-path="url(#SVGID_2_)" fill="#EE3624" d="M49.4648,15.1616h2.8516v9.0581c0.0225,0.0088,0.0469,0.0176,0.0703,0.0283
		c0.1025-0.124,0.208-0.2476,0.3096-0.3735c1.1211-1.396,2.2451-2.791,3.3604-4.1929c0.1318-0.166,0.2627-0.2319,0.4756-0.23
		c1.0186,0.0117,2.0352,0.0049,3.1221,0.0049c-0.1113,0.1431-0.1855,0.2461-0.2676,0.3433
		c-1.2158,1.4365-2.4229,2.8789-3.6523,4.3018c-0.2109,0.2441-0.1768,0.3818-0.002,0.6143c1.418,1.875,2.8223,3.7598,4.2295,5.6416
		c0.0654,0.0869,0.1211,0.1797,0.2061,0.3037c-0.1348,0.0107-0.2295,0.0225-0.3242,0.0225
		c-0.9639,0.001-1.9268-0.0068-2.8896,0.0059c-0.2402,0.0039-0.3848-0.0713-0.5215-0.2676
		c-1.2744-1.8271-2.5586-3.6465-3.8398-5.4678c-0.0645-0.0908-0.1338-0.1777-0.2578-0.3418v6.0469h-2.8701V15.1616z"/>
	<path clip-path="url(#SVGID_2_)" fill="#EE3624" d="M70.9404,25.834H62.626c-0.0576,1.6484,0.917,2.7656,2.2998,2.9639
		c0.9648,0.1396,1.8535-0.0049,2.5859-0.707c0.1045-0.0986,0.2217-0.2109,0.2676-0.3398c0.1143-0.3213,0.3281-0.3779,0.6416-0.3682
		c0.7266,0.0244,1.4541,0.0088,2.2207,0.0088c-0.2412,0.915-0.6855,1.6709-1.3594,2.291c-0.668,0.6143-1.4648,0.9814-2.3457,1.166
		c-1.123,0.2334-2.2461,0.2227-3.3535-0.1055c-1.6279-0.4824-2.793-1.501-3.3965-3.0889c-0.7266-1.9131-0.6953-3.8271,0.291-5.645
		c0.9766-1.7969,2.5527-2.7041,4.5811-2.8281c1.7266-0.106,3.2354,0.3799,4.3936,1.7192c0.8633,0.9985,1.2803,2.1929,1.416,3.4893
		C70.916,24.8525,70.916,25.3203,70.9404,25.834 M67.9883,23.8882c0.0137-1.666-1.1377-2.7129-2.8525-2.627
		c-1.4219,0.0718-2.6494,1.3569-2.4932,2.627H67.9883z"/>
	<path clip-path="url(#SVGID_2_)" fill="#EE3624" d="M34.833,25.8281h-8.2793c0.0112,2.0791,1.373,3.1689,3.2603,2.9961
		c0.895-0.082,1.6279-0.4609,2.0488-1.3115c0.0293-0.0596,0.1343-0.1162,0.2041-0.1162c0.8281-0.0078,1.6548-0.0049,2.5239-0.0049
		c-0.2539,0.9258-0.6919,1.7031-1.3931,2.3145c-1.272,1.1113-2.7979,1.3916-4.4219,1.2656
		c-1.4229-0.1094-2.6719-0.6299-3.6489-1.7041c-1.0933-1.2021-1.4839-2.6621-1.4673-4.2422
		c0.0181-1.7407,0.5752-3.2798,1.9023-4.4648c3.168-2.8315,8.0459-1.333,9.0698,2.7793
		C34.8311,24.1387,34.8979,24.9492,34.833,25.8281 M26.5898,23.8809h5.356c-0.064-1.7251-1.1558-2.7202-2.8691-2.6182
		C27.4287,21.3608,26.5928,22.6528,26.5898,23.8809"/>
	<path clip-path="url(#SVGID_2_)" fill="#EE3624" d="M46.9395,30.6631h-2.877c0-0.1465,0-0.2764,0-0.4072
		c0-2.0059,0.0039-4.0117-0.0039-6.0166c-0.001-0.3677-0.0195-0.7417-0.085-1.1025c-0.249-1.3511-1.1738-1.9644-2.5483-1.7173
		c-1.104,0.1982-1.729,0.8872-1.875,2.0991C39.5,23.9395,39.479,24.3652,39.4771,24.79c-0.0078,1.8252-0.0029,3.6514-0.0029,5.4775
		v0.3896h-2.8579V19.4756h2.6909v1.5029c0.0249,0.0078,0.0513,0.0171,0.0762,0.0249c0.0591-0.0708,0.1211-0.1387,0.1758-0.2129
		c0.77-1.02,1.7949-1.5781,3.0688-1.605c0.5869-0.0132,1.1934,0.0269,1.7637,0.1611c1.4326,0.3369,2.1641,1.3491,2.4014,2.7461
		c0.0898,0.5269,0.1348,1.0679,0.1396,1.603c0.0146,2.2065,0.0068,4.4136,0.0068,6.6206
		C46.9395,30.4258,46.9395,30.5342,46.9395,30.6631"/>
	<rect x="72.6582" y="15.1699" clip-path="url(#SVGID_2_)" fill="#EE3624" width="2.8281" height="15.501"/>
</g>
</svg>
