<?xml version="1.0" encoding="utf-8"?>
<!-- Generator: Adobe Illustrator 16.0.0, SVG Export Plug-In . SVG Version: 6.00 Build 0)  -->
<!DOCTYPE svg PUBLIC "-//W3C//DTD SVG 1.1//EN" "http://www.w3.org/Graphics/SVG/1.1/DTD/svg11.dtd">
<svg version="1.1" id="Layer_1" xmlns="http://www.w3.org/2000/svg" xmlns:xlink="http://www.w3.org/1999/xlink" x="0px" y="0px"
	 width="143.0889px" height="18.8623px" viewBox="0 0 143.0889 18.8623" enable-background="new 0 0 143.0889 18.8623"
	 xml:space="preserve">
<polygon fill="#251D5D" points="39.0635,2.6655 42.0796,2.6655 41.9272,4.8501 38.9102,4.8501 "/>
<g>
	<defs>
		<rect id="SVGID_1_" y="0.0005" width="143.0889" height="18.8618"/>
	</defs>
	<clipPath id="SVGID_2_">
		<use xlink:href="#SVGID_1_"  overflow="visible"/>
	</clipPath>
	<path clip-path="url(#SVGID_2_)" fill="#251D5D" d="M122.5381,13.7598h-0.0342c-0.6826,0.6338-1.3311,1.0977-2.5645,1.0977
		c-2,0-2.8389-1.1396-2.8389-2.6309c0-1.6807,1.7227-2.7607,4.7822-2.7607h1.0068c0.0508-0.7397,0.3086-1.96-0.959-1.96
		c-0.8965,0-1.1162,0.855-1.1348,1.2671h-2.9062c0.0664-1.1001,0.542-1.8359,1.4248-2.2222
		c0.9033-0.4048,2.0039-0.5059,2.9443-0.5059c1.7129,0,3.8174,0.854,3.6748,2.9468l-0.2373,4.0581
		c-0.0244,0.3545-0.0293,0.7227,0.0176,1.7324h-3.0127L122.5381,13.7598 M121.1533,13.1836c1.4902,0,1.5859-1.3848,1.665-2.5098
		c-0.6748,0-1.3086-0.0352-1.7627,0.1816c-0.4844,0.2354-0.8486,0.6406-0.8896,1.2295
		C120.123,12.6895,120.5459,13.1836,121.1533,13.1836"/>
	<polygon clip-path="url(#SVGID_2_)" fill="#251D5D" points="132.6982,14.791 133.5469,2.665 136.7412,2.665 135.8916,14.791 	"/>
	<path clip-path="url(#SVGID_2_)" fill="#251D5D" d="M80.7021,7.5815h0.0332c0.8193-1.0537,1.7627-1.2319,2.8027-1.2319
		l-0.1885,2.708c-0.2148-0.0171-0.4336-0.0171-0.6523-0.0171c-2.1064,0-2.1699,1.2075-2.248,2.6021l-0.1895,3.1494h-3.2764
		l0.4375-6.2705c0.0527-0.7559,0.0723-1.2607,0.0508-2.1919h3.123L80.7021,7.5815"/>
	<polygon clip-path="url(#SVGID_2_)" fill="#251D5D" points="83.3037,14.791 84.1533,2.665 87.2432,2.665 86.3945,14.791 	"/>
	<path clip-path="url(#SVGID_2_)" fill="#251D5D" d="M58.4058,2.6641h3.166l-0.3394,4.834h0.061
		c0.6421-0.7559,1.5303-1.3882,2.6699-1.3882c2.5884,0,3.5854,2.2783,3.4453,4.3364c-0.1431,2.0898-1.2349,4.4668-4.126,4.4668
		c-0.9731,0-1.9209-0.5371-2.3589-1.1641h-0.0674l-0.189,1.0332h-3.1099L58.4058,2.6641 M60.9385,10.6797
		c-0.0488,1.0312,0.21,2.4863,1.3662,2.4863c1.4717,0,1.834-1.4639,1.8877-2.6377c0.0483-1.0352-0.1567-2.5732-1.4038-2.5693
		C61.1958,7.9629,60.9917,9.5591,60.9385,10.6797"/>
	<path clip-path="url(#SVGID_2_)" fill="#251D5D" d="M70.8379,11.1133c-0.0942,1.166,0.1738,2.1084,1.3672,2.1084
		c0.8916,0,1.4521-0.5947,1.4521-1.1455h2.959c-0.0664,1.0264-0.7832,1.8262-1.6221,2.2969
		c-0.7725,0.4707-1.6582,0.5547-2.6074,0.5547c-3.4458,0-4.7778-1.4307-4.5659-4.6367c0.1768-2.6729,2.3301-4.2534,4.8677-4.2124
		c3.3955,0.0537,4.4873,2.0518,4.1631,5.0347H70.8379 M73.9102,9.5195c0.0312-0.4531-0.0713-0.9082-0.2988-1.2612
		c-0.2285-0.3511-0.5732-0.5708-1.0625-0.5371c-1.1133,0.0503-1.4092,0.8403-1.561,1.7983H73.9102z"/>
	<polygon clip-path="url(#SVGID_2_)" fill="#251D5D" points="26.4951,2.6655 30.0479,2.6655 29.1968,14.7861 25.644,14.7861 	"/>
	<polygon clip-path="url(#SVGID_2_)" fill="#251D5D" points="33.98,2.6655 29.7339,8.0522 33.5181,14.7861 37.7739,14.7861 
		33.5308,7.8755 37.9961,2.6655 	"/>
	<polygon clip-path="url(#SVGID_2_)" fill="#251D5D" points="38.77,6.3311 41.7861,6.3311 41.1943,14.7891 38.1772,14.7891 	"/>
	<path clip-path="url(#SVGID_2_)" fill="#251D5D" d="M45.6025,6.3296l-0.0015,1.1431h0.0342
		c0.9409-1.2329,2.2368-1.3428,3.0342-1.3428c1.1509,0,2.3301,0.6367,2.5679,1.4917c0.6519-1.0098,1.8159-1.5098,3.1001-1.543
		c1.8438,0,3.127,1.1812,2.9937,3.0532l-0.4009,5.6572h-3.2451l0.3521-4.9683c0.0439-0.8052-0.021-1.7192-1.082-1.7192
		c-1.5527,0-1.4917,1.7373-1.5088,1.8389l-0.333,4.8506h-3.2539l0.3599-4.9702c0.0151-0.8262-0.0918-1.7192-1.1221-1.7192
		c-1.6396,0-1.605,1.7373-1.603,1.8389l-0.3369,4.8525h-3.3472l0.5884-8.4624L45.6025,6.3296"/>
	<polygon clip-path="url(#SVGID_2_)" fill="#251D5D" points="91.3428,18.8623 88.4072,18.8623 90.2988,14.9297 87.1992,6.3335 
		90.7979,6.3335 92.1973,11.5811 94.416,6.3335 97.3867,6.3335 	"/>
	<polygon clip-path="url(#SVGID_2_)" fill="#251D5D" points="97.6973,8.0332 101.7871,8.0332 100.4805,10.6807 96.3896,10.6807 	"/>
	<path clip-path="url(#SVGID_2_)" fill="#251D5D" d="M108.3516,2.3433c2.5,0,5.0527,1.0918,4.9414,4.126h-3.4424
		c0-0.7959-0.4619-1.7012-1.6279-1.7012c-1.165,0-2.5342,0.8691-2.7773,3.3853c-0.2402,2.5176,0.0762,4.4238,2.1104,4.4238
		c1.7588,0,2.1104-1.5176,2.1475-1.8145h3.4141c0,1.3535-1.1201,4.1465-5.7461,4.1465c-4.8867,0-5.7539-3.5537-5.3486-6.8672
		C102.3643,5.27,104.3369,2.3433,108.3516,2.3433"/>
	<polygon clip-path="url(#SVGID_2_)" fill="#251D5D" points="113.3574,14.791 114.208,2.665 117.2979,2.665 116.4502,14.791 	"/>
	<path clip-path="url(#SVGID_2_)" fill="#251D5D" d="M129.9658,7.5815H130c0.8193-1.0537,1.7637-1.2319,2.8223-1.2319l-0.1895,2.708
		c-0.2344-0.0171-0.4531-0.0171-0.6709-0.0171c-2.1035,0-2.1689,1.2075-2.249,2.6021l-0.1885,3.1494h-3.2764l0.4365-6.2705
		c0.0547-0.7559,0.0723-1.2607,0.0527-2.1919h3.1221L129.9658,7.5815"/>
	<polygon clip-path="url(#SVGID_2_)" fill="#251D5D" points="136.4443,10.0684 139.4629,6.3101 143.0879,6.3101 139.8359,9.8818 
		142.917,14.7686 138.9912,14.7686 	"/>
	<path clip-path="url(#SVGID_2_)" fill="#251D5D" d="M0,8.8076c0,4.8672,4.5288,8.8096,10.1167,8.8096
		c5.585,0,10.1152-3.9424,10.1152-8.8096c0-4.8638-4.5303-8.8081-10.1152-8.8081C4.5166-0.0005,0,3.9438,0,8.8076 M10.1187,16.8066
		c-5.1519,0-9.3091-3.5723-9.3091-7.999c0-4.4258,4.1572-7.998,9.3091-7.998c5.1514,0,9.3071,3.5723,9.3071,7.998
		C19.4258,13.2344,15.27,16.8066,10.1187,16.8066"/>
	<path clip-path="url(#SVGID_2_)" fill="#251D5D" d="M7.9712,14.7842v-2.4551c-0.207,0.1416-0.7197,0.5449-1.7778,0.5449H2.0352
		V9.4565h2.5659c0.6431,0,0.6831-0.3833,0.6831-0.498c0-0.9873-1.6948-2.354-3.5767-3.771l5.042-0.0103
		c0.3066,0.2271,0.792,0.5723,1.2246,1.0581V2.6455h4.2861v3.5898c0.4321-0.4858,0.916-0.8311,1.2241-1.0581l5.042,0.0103
		c-1.8809,1.417-3.5762,2.7837-3.5762,3.771c0,0.1147,0.041,0.498,0.6821,0.498h2.5649v3.4175h-4.1558
		c-1.0581,0-1.5713-0.4033-1.7783-0.5449v2.4551H7.9712 M11.4224,13.9443v-3.8887c0.728,1.625,2.0107,1.9844,3.0518,1.9844h2.8892
		v-1.7451h-2.0229c-1.042,0-1.3672-0.7734-1.3672-1.2173c0-1.0771,0.8721-1.8994,2.1743-3.0493h-2.3042
		c-0.998,0.6533-1.9697,1.688-2.418,2.8511V3.4966H8.8081v5.3828C8.3613,7.7163,7.3862,6.6816,6.3892,6.0283H4.0864
		c1.3008,1.1499,2.1738,1.9722,2.1738,3.0493c0,0.4438-0.3262,1.2173-1.3682,1.2173h-2.021V12.04h2.8882
		c1.041,0,2.3242-0.3594,3.0508-1.9844v3.8887H11.4224z"/>
</g>
</svg>
