<?xml version="1.0" encoding="utf-8"?>
<!-- Generator: Adobe Illustrator 15.0.0, SVG Export Plug-In . SVG Version: 6.00 Build 0)  -->
<!DOCTYPE svg PUBLIC "-//W3C//DTD SVG 1.1//EN" "http://www.w3.org/Graphics/SVG/1.1/DTD/svg11.dtd">
<svg version="1.1" id="Слой_1" xmlns="http://www.w3.org/2000/svg" xmlns:xlink="http://www.w3.org/1999/xlink" x="0px" y="0px"
	 width="95.9961px" height="21.0635px" viewBox="0 0 95.9961 21.0635" enable-background="new 0 0 95.9961 21.0635"
	 xml:space="preserve">
<g>
	<defs>
		<rect id="SVGID_1_" y="0.0005" width="95.9961" height="21.063"/>
	</defs>
	<clipPath id="SVGID_2_">
		<use xlink:href="#SVGID_1_"  overflow="visible"/>
	</clipPath>
	<path clip-path="url(#SVGID_2_)" d="M23.4028,21.0635c-4.9541,0.0049-8.3569-3.7666-9.1777-7.6699
		c-0.6011-2.8555-0.3394-5.6504,0.9946-8.2725c1.4634-2.8721,3.77-4.6729,7.02-5.0522c3.9014-0.4526,7.2134,1.3394,9.1172,4.813
		c1.1509,2.0991,1.5669,4.3423,1.3921,6.7139c-0.1001,1.3604-0.3462,2.6924-0.937,3.9258
		c-1.4082,2.9404-3.6553,4.8359-6.9253,5.3936C24.3979,20.998,23.8979,21.0146,23.4028,21.0635 M30.4971,11.2813
		c-0.001-2.874-0.603-4.9033-2.0112-6.6543c-2.1509-2.6738-5.7979-3.3081-8.5459-1.4727c-1.7559,1.1719-2.8442,2.8237-3.3521,4.8638
		c-0.8159,3.2769-0.2939,6.2515,2.0239,8.8032c2.3472,2.584,6.1021,2.8516,8.812,0.6309
		C29.5737,15.6914,30.5098,13.375,30.4971,11.2813"/>
	<path clip-path="url(#SVGID_2_)" d="M37.3525,19.6387h-1.9448V2.9609c0.1797-0.0117,0.3667-0.0337,0.5537-0.0347
		c2.7554-0.0093,5.5103-0.0181,8.2642-0.022c2.335-0.0044,4.1025,1.4536,4.5156,3.7549c0.207,1.1558,0.251,2.3149-0.2959,3.4097
		c-0.4092,0.8174-1.1069,1.3677-1.8135,1.8999c-0.3521,0.2666-0.728,0.499-1.1353,0.7754c1.3779,2.2979,2.7573,4.5967,4.1821,6.9727
		c-0.8213,0-1.5625,0.0068-2.3022-0.0098c-0.0928-0.0029-0.2109-0.123-0.269-0.2178c-1.2446-2.0566-2.498-4.1084-3.7109-6.1836
		c-0.2671-0.4541-0.5298-0.6582-1.0869-0.6396c-1.48,0.0488-2.9629,0.0166-4.4438,0.0166c-0.1499,0-0.3003,0-0.5132,0V19.6387z
		 M37.3794,4.9199v5.665c0.0591,0.02,0.084,0.0361,0.1104,0.0361c2.2417,0.0029,4.4839,0.0322,6.7261-0.0039
		c1.3809-0.022,2.291-0.8472,2.52-2.1851c0.0576-0.3379,0.0249-0.6899,0.0386-1.0352c0.0562-1.3921-1.4429-2.5049-2.5176-2.4639
		c-1.437,0.0542-2.8784-0.0049-4.3184-0.0122C39.0977,4.917,38.2554,4.9199,37.3794,4.9199"/>
	<path clip-path="url(#SVGID_2_)" d="M65.6201,19.7588c0.4492-1.0693,0.8809-2.0967,1.3096-3.125
		c1.5703-3.7705,3.1377-7.5435,4.708-11.3145c0.291-0.7002,0.5996-1.395,0.8818-2.0981c0.0811-0.1997,0.1914-0.2607,0.4004-0.2568
		c0.6641,0.0142,1.3291,0.019,1.9932-0.001c0.2773-0.0093,0.4121,0.0737,0.5205,0.3369c0.9824,2.3569,1.9824,4.7061,2.9746,7.0591
		c1.2861,3.0508,2.5693,6.1025,3.8545,9.1553c0.0254,0.0605,0.0459,0.124,0.0986,0.2666c-0.7588,0-1.4678,0.0127-2.1758-0.0146
		c-0.0947-0.0029-0.21-0.1982-0.2666-0.3262c-0.5303-1.1982-1.0576-2.3984-1.5625-3.6084
		c-0.1094-0.2607-0.2451-0.3408-0.5215-0.3398c-2.5742,0.0107-5.1494,0.0098-7.7236,0.001c-0.2871-0.001-0.4277,0.0732-0.542,0.3604
		c-0.499,1.2422-1.0322,2.4707-1.5674,3.6982c-0.042,0.0947-0.1982,0.1953-0.3027,0.1982
		C67.0244,19.7686,66.3477,19.7588,65.6201,19.7588 M73.9756,5.3511c-1.1074,2.7192-2.1748,5.3384-3.25,7.9751h6.5283
		C76.1631,10.6714,75.0889,8.0591,73.9756,5.3511"/>
	<polygon clip-path="url(#SVGID_2_)" points="64.5332,17.9004 64.5332,19.6934 52.2559,19.6934 52.2559,2.9536 64.5166,2.9536 
		64.5166,4.7168 54.3574,4.7168 54.3574,10.1777 62.04,10.1777 62.04,12.001 54.3584,12.001 54.3584,17.9004 	"/>
	<polygon clip-path="url(#SVGID_2_)" points="83.5068,2.8232 85.4775,2.8232 85.4775,17.9053 95.9961,17.9053 95.9961,19.8047 
		83.5068,19.8047 	"/>
	<polygon clip-path="url(#SVGID_2_)" points="0,2.8267 1.855,2.8267 1.855,17.7119 12.4678,17.7119 12.4678,19.5596 0,19.5596 	"/>
	<path clip-path="url(#SVGID_2_)" d="M12.8516,2.8638c-0.2632,0.623-0.4888,1.167-0.7212,1.708
		c-0.5439,1.2656-1.0996,2.5269-1.6289,3.7988c-0.1221,0.291-0.2817,0.394-0.5879,0.3672c-0.2988-0.0273-0.603-0.0063-0.9668-0.0063
		c0.2979-0.936,0.5767-1.8228,0.8618-2.707c0.2998-0.9307,0.6172-1.856,0.9009-2.792c0.0869-0.2866,0.2183-0.3906,0.519-0.376
		C11.7368,2.8813,12.2466,2.8638,12.8516,2.8638"/>
	<path clip-path="url(#SVGID_2_)" d="M61.8584,0.2979c-1.5547,0.6812-3.1094,1.3623-4.6641,2.0439
		c-0.0215-0.0269-0.0439-0.0537-0.0664-0.0796c0.4746-0.6504,0.9434-1.3022,1.4287-1.9434C58.6064,0.252,58.75,0.231,58.8506,0.23
		c0.9951-0.0059,1.9902-0.0039,2.9844-0.0039C61.8438,0.25,61.8506,0.2739,61.8584,0.2979"/>
</g>
</svg>
