<?xml version="1.0" encoding="utf-8"?>
<!-- Generator: Adobe Illustrator 15.0.0, SVG Export Plug-In . SVG Version: 6.00 Build 0)  -->
<!DOCTYPE svg PUBLIC "-//W3C//DTD SVG 1.1//EN" "http://www.w3.org/Graphics/SVG/1.1/DTD/svg11.dtd">
<svg version="1.1" id="Слой_1" xmlns="http://www.w3.org/2000/svg" xmlns:xlink="http://www.w3.org/1999/xlink" x="0px" y="0px"
	 width="85.8223px" height="36.3838px" viewBox="0 0 85.8223 36.3838" enable-background="new 0 0 85.8223 36.3838"
	 xml:space="preserve">
<g>
	<defs>
		<rect id="SVGID_1_" width="85.8223" height="36.3838"/>
	</defs>
	<clipPath id="SVGID_2_">
		<use xlink:href="#SVGID_1_"  overflow="visible"/>
	</clipPath>
	<path clip-path="url(#SVGID_2_)" d="M50.1719,36.1035H45.707V24.3066h-5.7974v11.7988H35.459
		c-0.0039-0.083-0.0112-0.1641-0.0112-0.2461c0-9.9531,0.002-19.9053-0.002-29.8584c-0.001-1.1821,0.2041-2.3052,0.8691-3.3062
		c0.7661-1.1558,1.8857-1.8198,3.1792-2.2227c1.396-0.436,2.8267-0.541,4.2803-0.4321c1.25,0.0928,2.457,0.3491,3.5752,0.937
		c1.6152,0.8501,2.5381,2.1851,2.7539,3.999c0.0449,0.374,0.0654,0.7539,0.0654,1.1318c0.0029,9.8901,0.0029,19.7808,0.0029,29.6724
		V36.1035z M45.7002,20.083c0-0.1104,0-0.1943,0-0.2783c0-1.6768,0-3.3535,0-5.0298c0-2.7358,0.0029-5.4707-0.001-8.207
		c-0.001-1.0879-0.5576-1.8228-1.5898-2.1147c-0.7578-0.2129-1.5283-0.2329-2.2935-0.0742
		c-1.3369,0.2759-1.9131,1.0049-1.9141,2.3721c0,4.3428,0,8.686,0,13.0283c0,0.0977,0,0.1953,0,0.3037H45.7002z"/>
	<path clip-path="url(#SVGID_2_)" d="M11.0669,21.9004c0.5732,0.3477,1.0698,0.7354,1.4712,1.2354
		c0.686,0.8555,1.0356,1.8574,1.1987,2.9199c0.2759,1.7949,0.2451,3.5869-0.2217,5.3506c-0.3833,1.4463-1.0684,2.7119-2.3052,3.6162
		c-0.876,0.6416-1.8711,1.0137-2.9463,1.0391c-2.1616,0.0527-4.3247,0.04-6.4878,0.0518C1.1899,36.1162,0.604,36.1143,0,36.1143
		V9.0366c0.0747-0.0039,0.1558-0.0127,0.2368-0.0127c2.4409-0.0015,4.8833-0.0024,7.3242,0c1.2207,0,2.376,0.25,3.4077,0.9346
		c1.1533,0.7651,1.8604,1.8584,2.2383,3.165c0.5508,1.9082,0.5859,3.835,0.0767,5.7583c-0.3096,1.1758-0.9756,2.1211-1.9688,2.8301
		C11.2407,21.7646,11.1699,21.8223,11.0669,21.9004 M4.4619,31.9043c0.0669,0.0078,0.1118,0.0166,0.1572,0.0166
		c0.7798,0.001,1.5596,0.0068,2.3398-0.0039c0.2368-0.0029,0.48-0.0303,0.708-0.0908c0.8101-0.2188,1.2188-0.8271,1.4468-1.5771
		c0.3213-1.0576,0.3481-2.1465,0.248-3.2344c-0.041-0.4385-0.147-0.8838-0.2998-1.2988c-0.2871-0.7813-0.8491-1.2959-1.6992-1.3779
		c-0.605-0.0586-1.2178-0.0352-1.8267-0.043c-0.353-0.0049-0.707-0.001-1.0742-0.001V31.9043z M4.4619,20.0723
		c0.0571,0.0088,0.1021,0.0195,0.146,0.0195c0.7651,0.001,1.5288,0.001,2.2939-0.0029c0.1221-0.001,0.2471-0.0107,0.3672-0.0381
		c0.8301-0.1885,1.293-0.7642,1.5688-1.521c0.2959-0.814,0.3208-1.6602,0.2588-2.5122c-0.042-0.564-0.1406-1.1167-0.3916-1.6309
		c-0.3784-0.772-0.9902-1.1782-1.8594-1.1763c-0.7256,0.0015-1.4517,0-2.1777,0.0015c-0.0659,0-0.1333,0.0088-0.2061,0.0137V20.0723
		z"/>
	<path clip-path="url(#SVGID_2_)" d="M28.7715,21.8672c0.4082,0.3213,0.8281,0.6025,1.188,0.9453
		c0.708,0.6758,1.0054,1.5635,1.123,2.5059c0.0801,0.6338,0.1172,1.2773,0.1191,1.916c0.0107,2.8594,0.002,5.7178,0,8.5771
		c0,0.0908,0,0.1816,0,0.2881h-4.5059c0-0.0947,0-0.1914,0-0.2881c-0.001-2.8037,0.0029-5.6094-0.0093-8.4141
		c-0.002-0.6914-0.1191-1.3691-0.4341-1.9951c-0.3657-0.7275-0.9487-1.1133-1.7769-1.1084c-0.7788,0.0029-1.5591,0-2.3618,0v11.8018
		h-4.4521V9.0356c0.082-0.0044,0.1631-0.0122,0.2451-0.0122c2.4331-0.001,4.8667-0.001,7.3008,0
		c1.2461,0,2.4229,0.2549,3.4683,0.9683c1.1416,0.7788,1.833,1.8838,2.1987,3.1919c0.5229,1.8647,0.5601,3.7461,0.0801,5.627
		c-0.3081,1.2129-0.9771,2.1875-1.998,2.917C28.8887,21.7764,28.8237,21.8281,28.7715,21.8672 M22.1206,13.2173v6.8569
		c0.0508,0.0068,0.0879,0.0176,0.125,0.0176c0.8042-0.001,1.6069-0.0029,2.4102-0.0068c0.0918-0.002,0.1851-0.0137,0.2749-0.0332
		c0.7817-0.1777,1.2661-0.6982,1.522-1.4185c0.4751-1.3398,0.46-2.6987-0.002-4.0366c-0.269-0.7793-0.8223-1.3154-1.6729-1.3672
		C23.9014,13.1753,23.0186,13.2173,22.1206,13.2173"/>
	<path clip-path="url(#SVGID_2_)" d="M54.6084,9.0322c0.1211-0.0063,0.2129-0.0151,0.3047-0.0151
		c1.291-0.0029,2.5811-0.0039,3.8721-0.0059c0.3027,0,0.3027,0.001,0.3027,0.2979c0.001,6.9238,0.001,13.8481,0.002,20.772
		c0,1.2822,0.7393,2.0264,2.0342,2.0566c0.4766,0.0127,0.9424-0.0303,1.377-0.2402c0.6279-0.3037,0.9961-0.7871,1.0166-1.5049
		c0.0029-0.1152,0.0049-0.2314,0.0049-0.3477c0.001-6.8926,0.001-13.7861,0.001-20.6787c0-0.1064,0-0.2134,0-0.3374h4.4746
		c0,0.0991,0,0.1963,0,0.292c0,7.1479-0.0166,14.2964,0.0088,21.4438c0.0078,2.3574-1.0635,3.9707-3.1904,4.8662
		c-2.5859,1.0889-5.165,1.0059-7.6592-0.3076c-1.2764-0.6729-2.1328-1.7178-2.4258-3.1611
		c-0.0791-0.3916-0.1191-0.7959-0.1201-1.1953c-0.0059-7.2324-0.0039-14.4658-0.0029-21.6987
		C54.6084,9.2002,54.6084,9.1309,54.6084,9.0322"/>
	<path clip-path="url(#SVGID_2_)" d="M76.9082,36.1016H72.46c-0.0039-0.082-0.0107-0.1641-0.0107-0.2451
		c-0.001-7.2334,0.0049-14.4658-0.0039-21.6982c-0.002-2.0449,0.9082-3.5469,2.7129-4.438c2.709-1.3379,5.4521-1.3091,8.1318,0.104
		c1.4248,0.75,2.2852,1.9517,2.4902,3.5757c0.0352,0.2754,0.04,0.5552,0.041,0.833c0.002,7.1938,0.001,14.3882,0.001,21.5825
		c0,0.0898,0,0.1797,0,0.2832h-4.4648v-0.2881c0-6.9463-0.0078-13.8936,0.0068-20.8403c0.002-1.1802-0.7451-1.7749-1.6934-1.938
		c-0.4785-0.083-0.9531-0.0591-1.4209,0.0811c-0.8809,0.2646-1.3408,0.875-1.3408,1.7949c-0.002,2.751-0.001,5.502-0.001,8.252
		c0,4.2119,0,8.4229,0,12.6338C76.9082,35.8916,76.9082,35.9902,76.9082,36.1016"/>
</g>
</svg>
