<?xml version="1.0" encoding="utf-8"?>
<!-- Generator: Adobe Illustrator 16.0.0, SVG Export Plug-In . SVG Version: 6.00 Build 0)  -->
<!DOCTYPE svg PUBLIC "-//W3C//DTD SVG 1.1//EN" "http://www.w3.org/Graphics/SVG/1.1/DTD/svg11.dtd">
<svg version="1.1" id="Layer_1" xmlns="http://www.w3.org/2000/svg" xmlns:xlink="http://www.w3.org/1999/xlink" x="0px" y="0px"
	 width="111.625px" height="59.7422px" viewBox="0 0 111.625 59.7422" enable-background="new 0 0 111.625 59.7422"
	 xml:space="preserve">
<g>
	<defs>
		<rect id="SVGID_1_" width="111.625" height="59.7422"/>
	</defs>
	<clipPath id="SVGID_2_">
		<use xlink:href="#SVGID_1_"  overflow="visible"/>
	</clipPath>
	<g clip-path="url(#SVGID_2_)">
		<defs>
			<rect id="SVGID_3_" width="111.625" height="59.7422"/>
		</defs>
		<clipPath id="SVGID_4_">
			<use xlink:href="#SVGID_3_"  overflow="visible"/>
		</clipPath>
		<path clip-path="url(#SVGID_4_)" fill="#C2B59B" d="M66.8906,57.5283c-1.7275,0-3.9932-0.8076-4.043-3.2676h8.6406
			c0.0947-3.4375-2.0957-5.9375-5.2998-5.9375c-3.5078,0-5.8867,2.373-5.8867,5.6367c0,3.2666,2.3457,5.6729,6.5225,5.7793
			c2.1113,0.0527,3.332-0.7598,4.3086-1.3906l-0.0029-1.9785C71.1299,56.3701,68.6514,57.5283,66.8906,57.5283 M66.1611,50.3301
			c1.5371,0,2.8428,1.3193,2.8428,2.1016h-6.0352C62.9688,51.5488,64.1611,50.3301,66.1611,50.3301"/>
		<path clip-path="url(#SVGID_4_)" fill="#C2B59B" d="M34.6055,44.0801v-0.0684h-3.9751v0.0684
			c0.4951,0.293,0.6157,1.1309,0.6431,1.9766v11.1689c-0.0239,0.873-0.1421,1.7637-0.6431,2.0527v0.0664h3.9751v-0.0664
			c-0.498-0.3037-0.6182-1.1973-0.6401-2.0664V46.1631C33.9873,45.2861,34.1074,44.3848,34.6055,44.0801"/>
		<path clip-path="url(#SVGID_4_)" fill="#C2B59B" d="M54.9492,51.2568c1.5508-0.3086,3.4727-1.2158,3.4727-3.5859
			c0-2.2266-1.8408-3.6709-5.5396-3.6709l-1.4229,0.0127v-0.001h-3.9751v0.0684c0.4902,0.292,0.6128,1.1318,0.6421,1.9756v11.1719
			c-0.0239,0.8701-0.144,1.7617-0.6421,2.0498v0.0684h3.9751v-0.0029l2.229-0.0029c3.4111,0,5.8896-1.2373,5.8896-4.3701
			C59.5781,51.8965,56.417,51.2783,54.9492,51.2568 M50.8164,46.1924c0.001-0.0957,0.0059-0.1904,0.0112-0.2871
			c0.377-0.0234,0.7207-0.0596,1.0996-0.0596c2.853,0,3.7534,0.6836,3.7534,2.0928c0,1.9658-2.123,2.3994-4.2012,2.3994
			c-0.207,0-0.2549,0-0.6631-0.0342V46.1924z M53.1094,57.3672c-0.8789,0-1.4551-0.0391-2.293-0.1768V52.375
			c0.3052-0.0352,0.6421-0.0547,0.9189-0.0547c2.7002,0,4.9717,0.2715,4.9717,2.6494
			C56.707,56.4072,55.8281,57.3672,53.1094,57.3672"/>
		<path clip-path="url(#SVGID_4_)" fill="#C2B59B" d="M79.043,48.5898v0.0693c0.3682,0.29,0.1582,1.1191-0.1494,1.9561
			l-2.1924,5.4102l-3.0137-7.4355h-2.7324l0.0039,0.0693c0.6094,0.292,0.498,1.1299,0.8672,1.9736l2.6689,6.5928
			c0.7178,1.6699,2.7529,2.1191,2.7529,2.1191h0.1191l4.3584-10.7549H79.043z"/>
		<path clip-path="url(#SVGID_4_)" fill="#C2B59B" d="M46.0928,57.2119l0.0049-5.0332c-0.0278-0.8096-0.1421-1.6436-0.5713-2.2559
			c-0.7417-1.0908-2.2266-1.5986-3.5249-1.5986c-1.4648,0-2.0938,0.0703-3.1738,1.0039l-0.0078,0.0176l-0.5991-0.0205l-2.748-0.7266
			v0.0713c0.4922,0.291,0.6157,1.1279,0.6421,1.9727v6.582c-0.0239,0.8721-0.1421,1.7646-0.6421,2.0527v0.0684h3.9741v-0.0684
			c-0.5-0.3018-0.6162-1.1953-0.6421-2.0654l0.0078-4.9482c0.0791-1.1221,0.6821-2.2061,2.166-2.2061
			c1.835,0,2.4053,0.9443,2.4263,3.207v3.96c-0.0254,0.8721-0.146,1.7646-0.644,2.0527v0.0684h3.9771v-0.0684
			C46.2368,58.9756,46.1187,58.082,46.0928,57.2119"/>
		<path clip-path="url(#SVGID_4_)" fill="#341D0C" d="M62.3701,53.9297h8.6367c0.0947-3.4326-2.0947-5.9355-5.2988-5.9355
			c-3.5078,0-5.8877,2.373-5.8877,5.6387s2.3896,5.7646,6.5215,5.7773c2.0449,0.0078,3.3281-0.6914,4.3096-1.3203l0.001-2.0127
			c0,0-2.1455,1.1934-4.2412,1.124C64.5723,57.1387,62.416,56.3936,62.3701,53.9297 M65.6816,50.001
			c1.5322,0,2.8389,1.3193,2.8389,2.1045h-6.0312C62.4893,51.2197,63.6816,50.001,65.6816,50.001"/>
		<path clip-path="url(#SVGID_4_)" fill="#341D0C" d="M34.1265,43.752v-0.0684h-3.9751v0.0684
			c0.4922,0.292,0.6162,1.1299,0.6431,1.9756v11.1699c-0.0239,0.8721-0.1431,1.7646-0.6431,2.0508v0.0703h3.9751v-0.0703
			c-0.502-0.2998-0.6191-1.1953-0.6431-2.0615V45.834C33.5073,44.959,33.6245,44.0547,34.1265,43.752"/>
		<path clip-path="url(#SVGID_4_)" fill="#341D0C" d="M54.4707,50.9297c1.5488-0.3096,3.4688-1.2168,3.4688-3.5869
			c0-2.2266-1.8389-3.6699-5.5396-3.6699l-1.4219,0.0107H47.002v0.0684c0.4922,0.293,0.6147,1.1299,0.644,1.9756v11.1719
			c-0.0259,0.8701-0.144,1.7637-0.644,2.0488v0.0703h3.9761v-0.002l2.2319-0.0049c3.4072,0,5.8887-1.2373,5.8887-4.3711
			C59.0986,51.5684,55.9365,50.9492,54.4707,50.9297 M50.3359,45.8652c0.0029-0.0957,0.0078-0.1924,0.0132-0.29
			c0.375-0.0205,0.7188-0.0596,1.0996-0.0596c2.8511,0,3.7515,0.6855,3.7515,2.0928c0,1.9678-2.1211,2.4014-4.2031,2.4014
			c-0.2051,0-0.25,0-0.6611-0.0342V45.8652z M52.6289,57.0391c-0.8789,0-1.4512-0.041-2.293-0.1768v-4.8154
			c0.3052-0.0352,0.6401-0.0557,0.9189-0.0557c2.7002,0,4.9717,0.2715,4.9717,2.6494
			C56.2266,56.0791,55.3496,57.0391,52.6289,57.0391"/>
		<path clip-path="url(#SVGID_4_)" fill="#341D0C" d="M78.5645,48.2607l-0.0029,0.0713c0.3711,0.29,0.1641,1.1172-0.1494,1.957
			l-2.1934,5.4092l-3.0107-7.4375h-3.3027v0.0713c0.6123,0.292,1.0713,1.1299,1.4414,1.9756l2.6689,6.5908
			c0.7197,1.668,2.7539,2.1191,2.7539,2.1191h0.1191l4.3555-10.7568H78.5645z"/>
		<path clip-path="url(#SVGID_4_)" fill="#341D0C" d="M45.6152,56.8857l0.0049-5.0352c-0.0288-0.8096-0.144-1.6426-0.5737-2.2539
			c-0.7402-1.0928-2.2271-1.6006-3.5264-1.6006c-1.4658,0-2.0908,0.0693-3.1719,1.0039l-0.0107,0.0166l0.002-0.7471h-3.3472v0.0713
			c0.4902,0.29,0.6152,1.1279,0.6421,1.9736v6.584c-0.0259,0.8711-0.1421,1.7637-0.6421,2.0508v0.0684h3.9722v-0.0684
			c-0.4961-0.3018-0.6162-1.1963-0.6382-2.0635l0.0059-4.9482c0.0791-1.125,0.6821-2.2061,2.166-2.2061
			c1.835,0,2.4033,0.9404,2.4253,3.2041v3.9629c-0.0239,0.8711-0.1411,1.7637-0.6411,2.0508v0.0684h3.9731v-0.0684
			C45.7573,58.6475,45.6382,57.7529,45.6152,56.8857"/>
		<path clip-path="url(#SVGID_4_)" fill="#C2B59B" d="M24.0391,51.2568c1.5493-0.3086,3.4702-1.2158,3.4702-3.5859
			c0-2.2266-1.8369-3.6709-5.5381-3.6709l-1.4248,0.0127v-0.001h-3.9761v0.0684c0.4917,0.292,0.6157,1.1318,0.644,1.9756v4.3789
			c-1.5894,0.0518-3.042,0.248-4.3613,0.5479l-2.835-7.001H6.8442l0.0132,0.0303H6.6343l0.002,0.0684
			c0.373,0.292,0.1567,1.1318-0.1562,1.9756L1.9531,57.2275c-0.3779,0.8701-0.8579,1.7617-1.4731,2.0498v0.0684h3.3032
			c0.0498-0.085,1.0151-1.7246,3.2178-3.3936c1.125-0.8506,2.5703-1.7031,4.3862-2.3398l1.4531,3.585
			c0.3311,0.8701,0.5737,1.7627,0.189,2.0508v0.0703h3.1987l-2.5649-6.335c1.0781-0.2246,2.2593-0.373,3.5513-0.4199v4.6641
			c-0.0264,0.8701-0.1421,1.7617-0.644,2.0498v0.0684h3.9761v-0.0029l2.2319-0.0029c3.4097,0,5.8887-1.2373,5.8887-4.3701
			C28.667,51.8965,25.5054,51.2783,24.0391,51.2568 M5.9023,54.1133l2.8467-7.0195l1.8403,4.5469
			C8.689,52.3174,7.1362,53.2051,5.9023,54.1133 M19.9053,46.1924c0.0039-0.0947,0.0068-0.1904,0.0127-0.2871
			c0.374-0.0234,0.7212-0.0596,1.1001-0.0596c2.8501,0,3.7529,0.6836,3.7529,2.0928c0,1.9658-2.124,2.3994-4.2036,2.3994
			c-0.2021,0-0.2544,0-0.6621-0.0342V46.1924z M22.1973,57.3672c-0.876,0-1.4512-0.0391-2.292-0.1768V52.375
			c0.3047-0.0352,0.6411-0.0547,0.9199-0.0547c2.7012,0,4.9702,0.2715,4.9702,2.6494
			C25.7954,56.4072,24.9194,57.3672,22.1973,57.3672"/>
		<path clip-path="url(#SVGID_4_)" fill="#D2232A" d="M23.5581,50.9297c1.5532-0.3096,3.4722-1.2168,3.4722-3.5869
			c0-2.2266-1.8379-3.6699-5.541-3.6699l-1.4219,0.0107h-3.9741v0.0684c0.4917,0.293,0.6128,1.1299,0.6392,1.9756v4.3799
			c-1.5532,0.0469-2.979,0.2383-4.2744,0.5283l-2.8169-6.9521H6.1543l0.0029,0.0684c0.373,0.293,0.1567,1.1299-0.1582,1.9756
			L1.4741,56.8994C1.0952,57.7695,0.6162,58.6631,0,58.9482v0.0703h3.3062C3.354,58.9307,4.3193,57.2939,6.52,55.624
			c1.1133-0.8418,2.5371-1.6807,4.3281-2.3164l1.457,3.5918c0.3271,0.8701,0.5688,1.7637,0.187,2.0488l-0.002,0.0703h3.3608
			l-2.582-6.3799c1.0552-0.2158,2.2051-0.3574,3.4634-0.4014v4.6621c-0.021,0.8701-0.1421,1.7637-0.6392,2.0488v0.0703h3.9741
			v-0.002l2.23-0.0049c3.4116,0,5.8906-1.2373,5.8906-4.3711C28.188,51.5684,25.0273,50.9492,23.5581,50.9297 M5.4233,53.7852
			l2.8101-6.9326l1.8159,4.4795C8.1763,52.0068,6.644,52.8867,5.4233,53.7852 M19.4253,45.8652
			c0.001-0.0957,0.0049-0.1924,0.0127-0.29c0.375-0.0205,0.7212-0.0596,1.0981-0.0596c2.853,0,3.7529,0.6855,3.7529,2.0928
			c0,1.9707-2.123,2.4014-4.2007,2.4014c-0.2051,0-0.252,0-0.6631-0.0342V45.8652z M21.7183,57.0391
			c-0.877,0-1.4512-0.041-2.293-0.1768v-4.8154c0.3057-0.0352,0.6401-0.0557,0.9209-0.0557c2.7012,0,4.9722,0.2715,4.9722,2.6494
			C25.3184,56.0791,24.439,57.0391,21.7183,57.0391"/>
		<path clip-path="url(#SVGID_4_)" fill="#FFFFFF" d="M87.7393,33.2998c0,0,2.5557-2.6572,3.251-2.73
			c0.2207-0.021,0.3174,0.3569,0.0625,0.7778c-0.0625,0.1143,0.0117,0.2607,0.4326-0.1797
			c0.4209-0.4414,1.2861-1.7954,0.1367-2.4575c-0.9502-0.5449-1.8955-0.252-1.8955-0.252s-0.9268-1.563-3.4531-0.356
			c-1.8135,0.8672-2.5586,1.0601-4.1777,1.125c-1.9473,0.0742-5.6953-0.6812-10.3496-5.5947l-8.3516-2.7305
			c0,0-8.8857-4.5078-12.6797-9.2949c-0.147-0.3076,0.6113,4.606,7.3047,9.1772c0.0215,0.042-6.2666-2.165-10.6333-6.7002
			c-0.103-0.126,1.0186,4.1313,6.522,7.1123c-0.0923,0.0229-4.4351-1.0361-7.7432-3.585c-0.021-0.02,0.9478,3.7808,7.4961,5.4819
			c0.042,0.02-3.937-0.6934-7.3892-2.1421c-0.2959-0.231,1.895,2.9189,6.7998,3.8638c0,0-1.23-0.123-2.4556-0.3359
			c-0.9692-0.168-2.8623-0.6157-2.8623-0.6157s0.4131,1.2397,5.1719,2.1909l-3.7266-0.4692c0,0,0.188,1.1304,5.3887,1.9922
			c-0.1479,0.1147-2.1909-0.1162-3.7588-0.6631c0,0,0.3789,1.1782,4.001,2.248c0.6631,0.1899,1.4844,0.3252,2.4307,0.3462
			c0.041,0,2.3594,2.4248,3.4736,2.8252c0.3369,0.125,0.4326,0.0059,0.5674,0.0938c0.127,0.0811,0.0566,0.168,0.2441,0.3047
			c0.1885,0.1367,0.3174-0.0254,0.498,0.0771c0.1973,0.1123,0.1064,0.2383,0.3262,0.3672c0.2207,0.1309,0.3975-0.0674,0.5654,0.0381
			c0.1699,0.1045,0.0791,0.3125,0.3135,0.4375c0.2324,0.126,0.4365-0.0801,0.6455,0.0381c0.2139,0.124,0.041,0.3242,0.3477,0.4814
			c0.3047,0.1562,0.4209-0.0127,0.6523,0.0996c0.2217,0.1084,0.0527,0.333,0.3896,0.501c0.335,0.1689,0.5254-0.0762,0.7051,0.0713
			c0.1787,0.1445,0.1523,0.3799,0.5039,0.6699c0.3682,0.3057,1.1104,0.7529,1.7158,1.0098c0,0-6.8994,0.9707-9.9316,1.915
			c-0.0264,0.5088,0.543,1.1562,1.6426,1.6172c0.2266,0.0986,1.3955,0.5684,2.4424,0.6201c0,0.0137-2.9746,1.2969-3.4902,1.9512
			c0.0918,0.127,1.0371,0.8203,5.1592,0.0684c0,0.0137-2.4482,1.5547-2.9277,2.29c0.0322,0.0635,2.3809,0.9824,5.0684-0.541
			c0,0.0137-0.7354,0.7305-0.9619,1.3877c-0.0098,0.0342,1.7588,0.0293,3.0117-1.0459c-0.0127,0.0273-0.2656,1.2471,1.4902-0.1396
			c0,0.0244,0.7236,0.7471,3.3662-2.8516c0.3477-0.4961,0.7061-1.0195,1.0156-1.7061c1.0879-0.1709,2.4277-0.4053,3.6191-0.7764
			c0.0264,0.0127,0.8564,0.2852,1.6689,0.2217c0.8213-0.0605,0.5127,0.1846,1.2998,0.3252
			c0.5879,0.1045,0.7422-0.1006,1.0596-0.0703c0.2949,0.0264,0.3281,0.208,0.8652,0.2676c0.4844,0.0566,0.6572-0.1094,1.04-0.0195
			c0.4463,0.1045,0.8232,0.4512,2.8662,0.6758c1.8359,0.2012,3.0449-0.1064,3.6182-0.5254
			c-0.0127,0.0137,3.1865,0.4824,3.6729-0.5381c0,0,3.2949,0.3799,3.1797-0.4766c0.1768-0.0215,4.4355,0.7559,5.1523-0.5752
			c0.0127-0.0127-2.4775-0.377-2.2734-0.4541c0.4395,0,5.7803,0.9209,6.96-0.6982c-0.4902-0.0293-3.9639-0.5986-3.916-0.6289
			c0.0664-0.042,6.4717,0.7949,7.5684-1.375c-0.2305-0.0205-5.1455-0.1895-5.2109-0.3086
			c-0.0391-0.0547,5.7803,0.2881,6.1367-1.9453c-0.3545,0.0635-3.0283,0.3223-5.916,0.168
			c0.0869-0.1289,5.5918-0.5176,6.1406-3.1489c-0.2529-0.0049-2.748,1.9702-10.8652,1.4448
			c-0.9551-0.043-3.2012-0.5352-5.8955,0.3252c-2.7373,0.8193-4.4775,0.5166-4.5176,0.5166
			C90.3027,32.4932,88.7373,32.1729,87.7393,33.2998"/>
	</g>
	<g clip-path="url(#SVGID_2_)">
		<defs>
			<path id="SVGID_5_" d="M71.9746,36.0938c-0.2881,0.0449-10.8711,1.6309-13.3008,2.4092c-0.0488,0.0166-0.124,0.04-0.167,0.0566
				c-0.0039,0.084,0.0791,0.4004,0.4082,0.6719c0.835,0.7236,2.8809,1.418,4.082,1.2715c-0.042,0.0254-2.2598,1.1084-2.9814,1.502
				c-0.7197,0.3984-0.9258,0.5957-0.9258,0.5957s0.6865,0.6943,5.5703-0.1689c-0.165,0.084-3.126,2.1367-3.2793,2.4639
				c0.0225,0.0879,2.5684,0.9736,5.543-1.0791c0.0293,0.0039-0.6016,0.6035-1.0977,1.2422
				c-0.1221,0.1572-0.2344,0.3252-0.3154,0.4531c-0.0938,0.1494-0.1035,0.2002-0.1035,0.2002s-0.0039,0.0049,0.0332,0.0049
				c0.0234,0,0.0566-0.002,0.0918-0.0049c0.417-0.0225,1.6689-0.1846,2.9297-1.2676c-0.0635,0.1094-0.5439,1.5,1.2764-0.0068
				c0.0283,0.0488,0.4609,0.6865,2.501-1.8086c1.9971-2.498,1.8613-3.1543,1.8613-3.1543l-2.1182-3.3809H71.9746z"/>
		</defs>
		<clipPath id="SVGID_6_">
			<use xlink:href="#SVGID_5_"  overflow="visible"/>
		</clipPath>
		
			<radialGradient id="SVGID_7_" cx="0" cy="59.7422" r="1" gradientTransform="matrix(30.6865 0 0 30.6067 89.6406 -1791.7084)" gradientUnits="userSpaceOnUse">
			<stop  offset="0" style="stop-color:#FFFAC2"/>
			<stop  offset="0.0385" style="stop-color:#FFF200"/>
			<stop  offset="0.146" style="stop-color:#FFED00"/>
			<stop  offset="0.2665" style="stop-color:#FFE300"/>
			<stop  offset="0.3927" style="stop-color:#FFD323"/>
			<stop  offset="0.4945" style="stop-color:#FEC233"/>
			<stop  offset="0.5406" style="stop-color:#F8982D"/>
			<stop  offset="0.6374" style="stop-color:#ED1C24"/>
			<stop  offset="0.6813" style="stop-color:#CA2B25"/>
			<stop  offset="0.8571" style="stop-color:#3C2415"/>
			<stop  offset="1" style="stop-color:#3C2415"/>
		</radialGradient>
		<rect x="58.5029" y="36.0938" clip-path="url(#SVGID_6_)" fill="url(#SVGID_7_)" width="15.7334" height="9.8506"/>
	</g>
	<g clip-path="url(#SVGID_2_)">
		<defs>
			<path id="SVGID_8_" d="M63.4111,44.3271h0.002H63.4111z M60.7285,38.9141c-0.0322,0.0166,1.6475,1.1543,4.1328,1.042
				c-0.7881,0.4844-3.6035,1.9004-3.9141,2.2471c0.1445,0.0918,3.3896-0.165,5.4209-0.5674
				c-0.8076,0.7246-2.333,1.9639-2.9551,2.6914c0.0371-0.0264,1.8311,0.0664,4.6211-1.6543
				c-0.4092,1.084-1.5723,2.4072-1.5723,2.4072s1.6816-0.5879,2.8369-1.8936c-0.0557,0.0928-1.0479,2.2949,1.1338,0.1113
				c-0.002,0.1133,0.0615,1.1592,2.0986-1.6035c1.5859-2.2949,0.9648-2.9707,0.9648-2.9707l-1.1895-2.3828
				C72.3066,36.3408,62.5215,38.2734,60.7285,38.9141"/>
		</defs>
		<clipPath id="SVGID_9_">
			<use xlink:href="#SVGID_8_"  overflow="visible"/>
		</clipPath>
		
			<radialGradient id="SVGID_10_" cx="0" cy="59.7422" r="1" gradientTransform="matrix(37.8923 0 0 37.7939 47.4062 -2217.3018)" gradientUnits="userSpaceOnUse">
			<stop  offset="0" style="stop-color:#C1272D"/>
			<stop  offset="0.0055" style="stop-color:#C1272D"/>
			<stop  offset="0.1031" style="stop-color:#BD262C"/>
			<stop  offset="0.197" style="stop-color:#B52429"/>
			<stop  offset="0.2894" style="stop-color:#A92125"/>
			<stop  offset="0.3805" style="stop-color:#991C1F"/>
			<stop  offset="0.3867" style="stop-color:#971B1E"/>
			<stop  offset="0.4368" style="stop-color:#911D1E"/>
			<stop  offset="0.5108" style="stop-color:#801F1C"/>
			<stop  offset="0.5997" style="stop-color:#661E1A"/>
			<stop  offset="0.6994" style="stop-color:#461714"/>
			<stop  offset="0.7348" style="stop-color:#3A1310"/>
			<stop  offset="1" style="stop-color:#3A1310"/>
		</radialGradient>
		<rect x="60.6963" y="36.3408" clip-path="url(#SVGID_9_)" fill="url(#SVGID_10_)" width="13.4209" height="9.1406"/>
	</g>
	<g clip-path="url(#SVGID_2_)">
		<defs>
			<rect id="SVGID_11_" width="111.625" height="59.7422"/>
		</defs>
		<clipPath id="SVGID_12_">
			<use xlink:href="#SVGID_11_"  overflow="visible"/>
		</clipPath>
		<path clip-path="url(#SVGID_12_)" fill="#BE1E2D" d="M100.5146,33.4414c0,0,8.792-0.5469,10.876-2.9629
			C111.3906,30.4785,110.7168,33.4824,100.5146,33.4414"/>
	</g>
	<g clip-path="url(#SVGID_2_)">
		<defs>
			<path id="SVGID_13_" d="M86.9746,32.9893c-1.5645,1.6055-10.3506,5.2773-11.001,5.7871l1.3555,0.1816
				c0.3867,0.2764,1.1318,0.3848,1.4502,0.4043c0.3135,0.0166,0.377,0.0234,0.499,0.0117c0.126-0.0088,0.2256-0.0146,0.4043-0.0303
				c0.1797-0.0156,0.2773,0,0.3945,0.0781c0.2979,0.2002,0.4229,0.2715,0.792,0.3047c0.2227,0.0195,0.3975-0.0205,0.5479-0.0586
				c0.1973-0.0508,0.3467-0.0996,0.5-0.0225c0.4561,0.2402,0.9062,0.2852,1.4082,0.1953c0.1631-0.0293,0.3066-0.0312,0.46,0.0391
				c0.5527,0.2568,1.1924,0.415,1.792,0.5264c0.3281,0.0615,0.7148,0.1279,1.2168,0.1621c0.498,0.0371,0.7529,0.0293,1.5586-0.0156
				c0.8066-0.042,1.5332-0.3359,1.4053-0.3916c-2-0.1973-2.6299-0.7412-2.374-0.6797c4.8545,1.2031,6.2666,0.3896,6.0479,0.2725
				c-2.4902-0.5361-3.0205-0.9229-2.9326-0.959c4.0771,1.1289,6.4229,0.7344,6.1533,0.5449
				c-2.1475-0.5703-4.3916-1.6641-4.3916-1.6641c5.8066,1.8643,8.252,1.5596,9.1465,1.2549
				c0.3506-0.1182,0.4619-0.2363,0.4453-0.2266c-5.5557-0.7861-6.501-1.7256-6.501-1.7627
				c6.5518,1.6572,9.3955,1.2969,10.5254,0.9355c0.4756-0.1523,0.6504-0.3037,0.666-0.3037
				c-7.1094-1.0078-7.207-1.4424-7.3154-1.4834c9.5518,1.8545,11.0586-0.5312,11.0039-0.5332
				c-5.2734-0.0752-8.3643-0.7109-8.8896-0.7979c9.165,0.8877,9.8418-1.3789,9.8418-1.3789c-2.543,0.3555-6.6934,0.127-9.376-0.04
				c-2.7852-0.207-3.8008-0.1562-7.7012,0.3574c-7.2549,0.9883-7.1357-0.665-7.1309-0.708H86.9746z"/>
		</defs>
		<clipPath id="SVGID_14_">
			<use xlink:href="#SVGID_13_"  overflow="visible"/>
		</clipPath>
		
			<linearGradient id="SVGID_15_" gradientUnits="userSpaceOnUse" x1="0" y1="59.7422" x2="1" y2="59.7422" gradientTransform="matrix(35.2101 0 0 35.2101 75.9688 -2066.6917)">
			<stop  offset="0" style="stop-color:#971B1E"/>
			<stop  offset="0.0055" style="stop-color:#971B1E"/>
			<stop  offset="0.1768" style="stop-color:#C1272D"/>
			<stop  offset="0.453" style="stop-color:#F7941D"/>
			<stop  offset="0.4735" style="stop-color:#F8991D"/>
			<stop  offset="0.6484" style="stop-color:#FEBE10"/>
			<stop  offset="0.8007" style="stop-color:#FFD900"/>
			<stop  offset="0.923" style="stop-color:#FFEA00"/>
			<stop  offset="1" style="stop-color:#FFF200"/>
		</linearGradient>
		<rect x="75.9736" y="32.9893" clip-path="url(#SVGID_14_)" fill="url(#SVGID_15_)" width="35.21" height="7.6953"/>
	</g>
	<g clip-path="url(#SVGID_2_)">
		<defs>
			<path id="SVGID_16_" d="M100.5439,38.7041h0.0049c0.001,0,0.001-0.002,0-0.002
				C100.5488,38.7021,100.5449,38.7021,100.5439,38.7041 M76.9102,38.1875l5.498,0.9727c3.3828,1.4814,6.7451,1.1953,6.4941,1.0889
				c-2.5293-0.3906-3.3008-1.583-2.9268-1.418c4.4355,1.3721,7.0693,1.1113,6.8691,1.0059
				c-3.2832-0.6465-3.0654-1.5225-3.1631-1.5684c2.1006,0.8916,6.0918,1.1729,5.8457,0.9932
				c-3.8613-1.083-4.0059-1.998-4.0059-1.998c6.0137,1.6064,8.2334,1.5361,8.8389,1.4668c0.1094-0.0117,0.167-0.0244,0.1836-0.0264
				c-5.9268-0.8467-6.4668-2.3467-6.4668-2.3799c6.4355,1.5146,9.792,1.4102,10.9102,1.3076
				c0.2812-0.0264,0.4219-0.0527,0.4316-0.0527c-7.1914-0.6553-7.5049-1.9805-7.6045-2.0176
				c6.3701,1.1875,10.9893,0.2002,10.9375,0.1982c-7.5371-0.0967-9.3125-1.3789-9.4141-1.4219
				c7.2822,0.7275,10.3135-0.582,10.3135-0.582c-1.3291,0.2949-7.9062-0.2969-10.3721-0.4521
				c-2.5703-0.1895-2.2617-0.0986-5.8555,0.373c-5.3379,0.5195-6.4199-0.5176-6.4199-0.5176
				C86.4336,33.7539,78.4258,37.0029,76.9102,38.1875"/>
		</defs>
		<clipPath id="SVGID_17_">
			<use xlink:href="#SVGID_16_"  overflow="visible"/>
		</clipPath>
		
			<linearGradient id="SVGID_18_" gradientUnits="userSpaceOnUse" x1="0" y1="59.7422" x2="1" y2="59.7422" gradientTransform="matrix(26.3681 -6.7124 6.7124 26.3681 -323.2338 -1534.4672)">
			<stop  offset="0" style="stop-color:#971B1E"/>
			<stop  offset="0.0055" style="stop-color:#971B1E"/>
			<stop  offset="0.1768" style="stop-color:#C1272D"/>
			<stop  offset="0.453" style="stop-color:#F7941D"/>
			<stop  offset="0.4735" style="stop-color:#F8991D"/>
			<stop  offset="0.6484" style="stop-color:#FEBE10"/>
			<stop  offset="0.8007" style="stop-color:#FFD900"/>
			<stop  offset="0.923" style="stop-color:#FFEA00"/>
			<stop  offset="1" style="stop-color:#FFF200"/>
		</linearGradient>
		<polygon clip-path="url(#SVGID_17_)" fill="url(#SVGID_18_)" points="78.9023,48.4688 111.4502,40.1826 107.6582,25.2866 
			75.1104,33.5723 		"/>
	</g>
	<g clip-path="url(#SVGID_2_)">
		<defs>
			<rect id="SVGID_19_" width="111.625" height="59.7422"/>
		</defs>
		<clipPath id="SVGID_20_">
			<use xlink:href="#SVGID_19_"  overflow="visible"/>
		</clipPath>
		<path clip-path="url(#SVGID_20_)" fill="#BE1E2D" d="M99.2275,36.0908c0,0,8.3076,0.8672,11.0068-0.5303
			C110.2344,35.5605,108.9268,37.9277,99.2275,36.0908"/>
		<path clip-path="url(#SVGID_20_)" fill="#BE1E2D" d="M95.3525,36.9414c0,0,8.0986,1.5439,11.1924,0.6318
			C106.4863,37.5732,104.9756,39.4258,95.3525,36.9414"/>
		<path clip-path="url(#SVGID_20_)" fill="#BE1E2D" d="M92.2607,37.6748c0,0,6.7363,1.8623,9.5918,1.0293
			C101.8525,38.7041,100.3867,40.3242,92.2607,37.6748"/>
		<path clip-path="url(#SVGID_20_)" fill="#BE1E2D" d="M101.3408,34.7598c0,0,8.751,1.001,9.8438-1.3789
			C111.1846,33.3809,109.1543,35.001,101.3408,34.7598"/>
	</g>
	<g clip-path="url(#SVGID_2_)">
		<defs>
			<path id="SVGID_21_" d="M46.5249,18.0913c0.001,0.002,0.001,0.002,0.0029,0.0029
				C46.5259,18.0933,46.5259,18.0933,46.5249,18.0913z M60.707,21.9243c-0.418-0.1353-8.124-2.063-13.0122-7.2949
				c0.021,0.0439,2.707,5.7476,8.7642,7.2417c-0.3584-0.063-5.4478-0.4951-9.9312-3.7769c0.1294,0.1172,1.9351,4.1929,9.8413,5.3262
				c0,0-3.6699,0.4258-9.5923-2.063c0.1123,0.0796,3.4233,3.5688,9.2319,3.5737c0,0-3.3706,0.4438-7.8169-0.8101
				c-0.1299,0.0942,3.2749,2.0752,7.9321,2.0342c0.0527,0.0049-1.5312,0.479-6.5298-0.3599
				c-0.207,0.0127,2.6855,1.6729,7.1108,1.7407c0.0527,0.0039-2.0181,0.8188-5.5029-0.3521
				c-0.1421,0.062,2.7856,2.126,6.1572,2.1162l0.5771,0.5337c0,0,2.3145,2.4248,3.2412,2.3203
				c0.1445-0.0156,0.3271,0.042,0.3701,0.1826c0.0303,0.0898,0.0674,0.1455,0.1543,0.1914c0.0703,0.0381,0.1387,0.0244,0.21,0.0137
				c0.0723-0.0117,0.1514-0.0215,0.2451,0.0205c0.2051,0.0928,0.1445,0.2344,0.2539,0.3281c0.1201,0.1064,0.291,0.1143,0.4404,0.083
				c0.252-0.0537,0.3408,0.1738,0.4219,0.334c0.0762,0.1514,0.2705,0.1943,0.5146,0.1182c0.1328-0.043,0.2871,0.0303,0.3564,0.1699
				c0.0586,0.1152,0.0576,0.2617,0.1621,0.3506c0.1094,0.0947,0.2783,0.1143,0.417,0.0879c0.1035-0.0186,0.2422-0.0225,0.3262,0.043
				c0.1084,0.0811,0.123,0.2412,0.1846,0.3428c0.0625,0.1045,0.2002,0.2705,0.6738,0.1953
				c0.2783-0.0381,0.3789,0.2207,0.4766,0.4414c0.1318,0.3027,0.7471,0.6768,0.9482,0.8057
				c0.3633,0.2314,1.1895,0.6357,1.4668,0.7324L69.4932,36.5h0.0127c0,0,1.667,0.6289-1.5127,3.2178
				c0.5498,0.9414,11.0391,0.8682,17.0605-4.3184c0.4883-0.4209,1.0439-1.0225,1.5664-1.502
				c0.0078-0.0762,0.1357-3.8125-0.584-5.4761c0,0-6.5625,4.1841-14.1494-4.563c-0.1523-0.0903-0.6533-0.04-1.2695,0.0088
				c-1.0176,0.082-2.3379,0.1641-2.8867-0.374c0,0-12.6992-6.0269-16.6514-11.1538C51.0791,12.3394,53.1558,18.3472,60.707,21.9243"
				/>
		</defs>
		<clipPath id="SVGID_22_">
			<use xlink:href="#SVGID_21_"  overflow="visible"/>
		</clipPath>
		
			<radialGradient id="SVGID_23_" cx="0" cy="59.7422" r="1" gradientTransform="matrix(56.7261 0 0 56.5786 99.1875 -3363.7625)" gradientUnits="userSpaceOnUse">
			<stop  offset="0" style="stop-color:#FFFAC2"/>
			<stop  offset="0.0385" style="stop-color:#FFF200"/>
			<stop  offset="0.146" style="stop-color:#FFED00"/>
			<stop  offset="0.2665" style="stop-color:#FFE300"/>
			<stop  offset="0.3927" style="stop-color:#FFD323"/>
			<stop  offset="0.4945" style="stop-color:#FEC233"/>
			<stop  offset="0.5406" style="stop-color:#F8982D"/>
			<stop  offset="0.6374" style="stop-color:#ED1C24"/>
			<stop  offset="0.6813" style="stop-color:#CA2B25"/>
			<stop  offset="0.8571" style="stop-color:#3C2415"/>
			<stop  offset="1" style="stop-color:#3C2415"/>
		</radialGradient>
		<rect x="46.5249" y="12.3394" clip-path="url(#SVGID_22_)" fill="url(#SVGID_23_)" width="40.231" height="28.3198"/>
	</g>
	<g clip-path="url(#SVGID_2_)">
		<defs>
			<path id="SVGID_24_" d="M80.8926,34.083c-2.6348,3.2051-10.6426,4.9189-11.2207,5.0342
				c0.5615,0.0312,0.4395,0.2344,0.4395,0.2344c0.1426,0.501-0.0498,0.6729-0.0498,0.6729c1.0947-0.002,1.7383-0.4639,1.9883-0.6133
				c0.0625,0.3418,0.0332,0.7441,0.0332,0.7441c9.3359-0.6982,13.3271-5.0967,13.3271-5.0967l-1.2041,0.5195
				c-0.2627,0.1201-0.0156-0.0635-0.0156-0.0635l0.7568-0.7773l-1.0713,0.2988l0.6719-0.6436l-2.1904,0.4814l0.96-1.2188
				L80.8926,34.083z"/>
		</defs>
		<clipPath id="SVGID_25_">
			<use xlink:href="#SVGID_24_"  overflow="visible"/>
		</clipPath>
		
			<linearGradient id="SVGID_26_" gradientUnits="userSpaceOnUse" x1="0" y1="59.7422" x2="1" y2="59.7422" gradientTransform="matrix(19.0417 -7.6592 7.6592 19.0417 -389.1382 -1097.0316)">
			<stop  offset="0" style="stop-color:#971B1E"/>
			<stop  offset="0.0055" style="stop-color:#971B1E"/>
			<stop  offset="0.1768" style="stop-color:#C1272D"/>
			<stop  offset="0.453" style="stop-color:#F7941D"/>
			<stop  offset="0.4735" style="stop-color:#F8991D"/>
			<stop  offset="0.6484" style="stop-color:#FEBE10"/>
			<stop  offset="0.8007" style="stop-color:#FFD900"/>
			<stop  offset="0.923" style="stop-color:#FFEA00"/>
			<stop  offset="1" style="stop-color:#FFF200"/>
		</linearGradient>
		<polygon clip-path="url(#SVGID_25_)" fill="url(#SVGID_26_)" points="71.8633,45.6035 87.6602,39.25 83.2188,28.2065 
			67.4219,34.5605 		"/>
	</g>
	<g clip-path="url(#SVGID_2_)">
		<defs>
			<rect id="SVGID_27_" width="111.625" height="59.7422"/>
		</defs>
		<clipPath id="SVGID_28_">
			<use xlink:href="#SVGID_27_"  overflow="visible"/>
		</clipPath>
		<path clip-path="url(#SVGID_28_)" fill="#FFFFFF" d="M89.6738,28.8896c0,0-0.8789-2.0308-4.3008-0.104
			c0.0137,0,0.5898-0.2529,0.748-0.1211c0.0146-0.0278-0.6064,0.0933-1.7012,0.8901c0,0,0.2803-0.084,0.3242,0
			c0.0146-0.0142-1.2061,0.7832-3.4385,0.7012c0-0.0151,0.1904,0.166,1.1465,0.2188c0.0117,0-0.8828,0.3779-2.3359,0.126
			c-0.0098,0,0.0576,0.3271,0.8799,0.4951c0-0.0127-0.876,0.2461-1.5869,0.2305c0,0.0205,0.1807,0.2402,1.168,0.293
			c0.0127,0-0.376,0.3252-1.2422,0.5664c0,0,0.5186,0.1494,1.9922-0.2412c0.0107,0-0.6865,0.4727-1.8232,1.0195
			c0,0.0088,0.6123,0.084,1.834-0.1475c0,0.0117-0.1807,0.2744-0.9482,0.6514c0.0098,0,0.6533,0.0205,1.4531-0.2002
			c0-0.0098-0.2832,0.4111-1.0732,0.8936c0.0205-0.0117,0.6299,0.0098,2.4102-0.4219c0.0098,0-0.749,0.998-1.0225,1.25
			c0.0225-0.0303,0.9072-0.1553,1.6553-0.3779c0.293-0.0723,0.7021-0.2197,0.3135,0.126c-0.3916,0.3467-0.4111,0.4092-0.4111,0.4092
			s0.6953-0.1572,0.958-0.2715c0.0117,0-0.5576,0.6924-0.8604,0.8701c0.0283,0.0107,0.9023-0.1885,1.3652-0.4619
			c0.0117,0,0.0723,0.4619,0.3066,0.6201c-0.0098,0,1.2422-1.7734,2.2549-2.6045c0.6504-0.7666,2.1562-2.1836,2.2715-2.4551
			C90.3467,30.1807,89.7373,29.0366,89.6738,28.8896"/>
		<path clip-path="url(#SVGID_28_)" d="M87.2539,29.0791c0,0-0.0811,0.4878,0.9238,0.2988c0,0-0.7686,0.3271-1.0879-0.1729
			c0,0-0.2881-0.0171-0.5703,0.0669C86.5195,29.272,86.8848,29.1143,87.2539,29.0791"/>
		<path clip-path="url(#SVGID_28_)" d="M87.2793,28.9902c0,0,0.335-0.2427,0.9434-0.0239c0.0469,0.0161,0.0352,0.0361,0.084,0.0552
			c0.0244,0.0088,0.0596,0.0098,0.083,0.0137c0.0635,0.0132,0.125,0.0181,0.1895,0.021c0.0635,0.0054,0.1143,0.0034,0.1758-0.0029
			c0.0508-0.0078,0.1084-0.0376,0.1045-0.0938c-0.001-0.0859-0.0723-0.1499-0.1436-0.188
			c-0.0938-0.0503-0.1914-0.0381-0.1914-0.0381s0.0713,0.041,0.1045,0.0869c0.0518,0.0723,0.0195,0.1543-0.3018,0.043
			C88.3271,28.8633,87.377,28.4805,87.2793,28.9902"/>
		<path clip-path="url(#SVGID_28_)" d="M88.3555,29.1025c0,0.1421-0.2051,0.2559-0.458,0.2559c-0.25,0-0.4561-0.1138-0.4561-0.2559
			s0.2061-0.2559,0.4561-0.2559C88.1504,28.8467,88.3555,28.9604,88.3555,29.1025"/>
		<path clip-path="url(#SVGID_28_)" fill="#FFF200" d="M88.2227,29.0854c0,0.104-0.1367,0.189-0.3047,0.189
			s-0.3057-0.085-0.3057-0.189s0.1377-0.189,0.3057-0.189S88.2227,28.9814,88.2227,29.0854"/>
		<path clip-path="url(#SVGID_28_)" d="M88.082,29.085c0,0.0557-0.0723,0.1021-0.1641,0.1021s-0.167-0.0464-0.167-0.1021
			c0-0.0562,0.0752-0.1021,0.167-0.1021S88.082,29.0288,88.082,29.085"/>
		<path clip-path="url(#SVGID_28_)" d="M87.957,28.8599c0,0,0.1172,0.1641,0.2637,0.208c0.1455,0.0439,0.002-0.1851,0.002-0.1851
			L87.957,28.8599z"/>
		<path clip-path="url(#SVGID_28_)" fill="#A7A9AC" d="M86.459,28.2251c-0.3877,0.1572-0.7646,0.3389-1.1426,0.5181
			c-0.4736,0.2251-1.2236,0.4248-1.2959,0.4473c0.0186-0.0073,0.832-0.1323,1.4639-0.4224c0.166-0.0767,0.3389-0.145,0.5059-0.2139
			c0.3057-0.126,0.6133-0.2441,0.9258-0.3472c0.5615-0.1841,1.2842-0.1968,1.8428,0.126c0.3477,0.1992,0.4443,0.4902,0.4473,0.52
			c0,0.0029,0.0029,0.0181,0.0029,0.0181c0.1289-0.0898,0.3574-0.1597,0.4658-0.1738c-0.0371-0.0312-0.0293-0.0371-0.0664-0.0669
			c-0.2969-0.3882-0.7178-0.6704-1.2021-0.7402c-0.4346-0.0581-0.8916-0.0098-1.3105,0.1143
			C86.8818,28.0674,86.666,28.1401,86.459,28.2251"/>
		<g opacity="0.55" clip-path="url(#SVGID_28_)">
			<g>
				<defs>
					<rect id="SVGID_29_" x="80.2412" y="26.7671" width="12.75" height="12.5835"/>
				</defs>
				<clipPath id="SVGID_30_">
					<use xlink:href="#SVGID_29_"  overflow="visible"/>
				</clipPath>
				<g clip-path="url(#SVGID_30_)">
					<defs>
						<path id="SVGID_31_" d="M86.1982,31.4512c0.5654-0.1514,1.1777,0.0381,0.9229,0.3281
							c-0.1592,0.1777-1.1572,0.5518-1.4463,0.6777c0.9551-0.2129,0.8379,0.1426,0.0645,0.4668
							c-0.3613,0.1982-1.708,0.623-1.9121,0.6914c-0.0117,0.0078,0.2021-0.0293,0.4492-0.0654
							c0.374-0.0547,0.8223-0.1094,0.6631-0.0127c-0.5137,0.3066-1.2881,0.7041-2.2754,1.1377v0.001
							c0.0469-0.0059,1.0068-0.1396,2.0703-0.5332c0.1846-0.0723,0.0391,0.1182-0.125,0.3096
							c-0.165,0.1875-0.3525,0.376-0.2559,0.3086c0.7725-0.1299,0.8838-0.292,0.8896-0.2646
							c-0.2178,0.2852-0.6172,0.708-0.8271,0.8867c0.1797-0.0469,0.585-0.1846,1.1123-0.4434
							c-0.041,0.0947-0.1797,0.4844-0.0557,0.6611c0.0244,0.0342,0.5156-0.8496,1.2012-1.4922
							c0.4932-0.4902,0.9629-0.9863,1.7842-1.7871c0.6582-0.5801,1.3184-1.2832,2.1113-1.7822
							c-0.0195-0.0469-0.4404-0.0078-0.9346,0.0312c-0.7012,0.0566-1.5508,0.1128-1.5781-0.0894
							C88.0566,30.481,87.3115,30.9814,86.1982,31.4512"/>
					</defs>
					<clipPath id="SVGID_32_">
						<use xlink:href="#SVGID_31_"  overflow="visible"/>
					</clipPath>
					
						<linearGradient id="SVGID_33_" gradientUnits="userSpaceOnUse" x1="0" y1="59.7422" x2="1" y2="59.7422" gradientTransform="matrix(9.5633 -6.6943 6.6943 9.5633 -316.1538 -536.2872)">
						<stop  offset="0" style="stop-color:#F4F5F5"/>
						<stop  offset="1" style="stop-color:#000000"/>
					</linearGradient>
					<polygon clip-path="url(#SVGID_32_)" fill="url(#SVGID_33_)" points="85.2637,39.3486 92.9902,33.9404 87.9697,26.7676 
						80.2422,32.1758 					"/>
				</g>
			</g>
		</g>
	</g>
	<g clip-path="url(#SVGID_2_)">
		<defs>
			<path id="SVGID_34_" d="M89.1533,28.8042c-0.2344,0.1978-0.2324,0.9492-0.5098,1.2397
				c-0.2764,0.2891-1.0918,0.1143-1.2764,0.4395c-0.4053,0.7588,1.1904,0.5254,2.3721,0.2148
				c0.5498-0.1221,0.1162,0.3652,0.1162,0.3652c0.0684-0.0566,0.1914-0.1553,0.1914-0.1553
				c0.0713-0.0508,0.1455-0.1025,0.2158-0.1514c0.1367-0.0898,0.2744-0.1807,0.417-0.2515c0.0811-0.042,0.167-0.0732,0.2549-0.0864
				c0.0527-0.0068,0.1592-0.0298,0.2051-0.0039c0.4697,0.2383,0.0234,0.8408,0.041,0.873c0.3691-0.2744,1.2715-1.4399,0.5645-2.2319
				c-0.3311-0.373-0.8809-0.4858-1.3887-0.4858C89.7822,28.5703,89.2578,28.7153,89.1533,28.8042"/>
		</defs>
		<clipPath id="SVGID_35_">
			<use xlink:href="#SVGID_34_"  overflow="visible"/>
		</clipPath>
		
			<linearGradient id="SVGID_36_" gradientUnits="userSpaceOnUse" x1="0" y1="59.7422" x2="1" y2="59.7422" gradientTransform="matrix(7.8536 -1.22 1.22 7.8536 13.31 -438.7187)">
			<stop  offset="0" style="stop-color:#FFF200"/>
			<stop  offset="0.116" style="stop-color:#FFF200"/>
			<stop  offset="0.2402" style="stop-color:#FFE900"/>
			<stop  offset="0.4383" style="stop-color:#FFD900"/>
			<stop  offset="0.6856" style="stop-color:#FEBE10"/>
			<stop  offset="0.97" style="stop-color:#F8981D"/>
			<stop  offset="1" style="stop-color:#F7941E"/>
		</linearGradient>
		<polygon clip-path="url(#SVGID_35_)" fill="url(#SVGID_36_)" points="87.0918,32.1211 92.8643,31.2246 92.3223,27.7373 
			86.5498,28.6343 		"/>
	</g>
	<g clip-path="url(#SVGID_2_)">
		<defs>
			<path id="SVGID_37_" d="M90.084,30.2241c-0.2832,0.061-0.5654,0.1201-0.8496,0.1592c-0.1973,0.0249-0.3994,0.0518-0.5977,0.0537
				c-0.1973,0-0.4141,0-0.6094,0.0439c-0.0596,0.0122-0.3086,0.0684-0.1719,0.1602c0.0938,0.062,0.2646,0.0381,0.3701,0.0293
				c0.1455-0.0151,0.2852-0.0435,0.4346-0.0654c0.1055-0.0137,0.2109-0.0288,0.3174-0.0488
				c0.1182-0.0249,0.2363-0.0479,0.3584-0.0708c0.2021-0.042,0.4043-0.0771,0.6094-0.1162c0.3555-0.0659,0.7344-0.124,1.084,0.0103
				c0.1338,0.0527,0.2783,0.0776,0.3262,0.3237c0.0107-0.085,0.0078-0.2397-0.1318-0.3809
				c-0.1494-0.1592-0.3994-0.1851-0.5947-0.1851C90.4424,30.1372,90.2627,30.186,90.084,30.2241"/>
		</defs>
		<clipPath id="SVGID_38_">
			<use xlink:href="#SVGID_37_"  overflow="visible"/>
		</clipPath>
		
			<linearGradient id="SVGID_39_" gradientUnits="userSpaceOnUse" x1="0" y1="59.7422" x2="1" y2="59.7422" gradientTransform="matrix(3.4509 -0.5598 0.5598 3.4509 54.3878 -175.4656)">
			<stop  offset="0" style="stop-color:#F7941E"/>
			<stop  offset="0.1966" style="stop-color:#F78F1E"/>
			<stop  offset="0.4751" style="stop-color:#F58220"/>
			<stop  offset="0.8011" style="stop-color:#F36C21"/>
			<stop  offset="0.8784" style="stop-color:#F26522"/>
			<stop  offset="0.9823" style="stop-color:#F26522"/>
			<stop  offset="1" style="stop-color:#F26522"/>
		</linearGradient>
		<polygon clip-path="url(#SVGID_38_)" fill="url(#SVGID_39_)" points="87.8125,31.2793 91.4551,30.6885 91.2725,29.5605 
			87.6299,30.1519 		"/>
	</g>
	<g clip-path="url(#SVGID_2_)">
		<defs>
			<rect id="SVGID_40_" width="111.625" height="59.7422"/>
		</defs>
		<clipPath id="SVGID_41_">
			<use xlink:href="#SVGID_40_"  overflow="visible"/>
		</clipPath>
		<path clip-path="url(#SVGID_41_)" fill="#FFFFFF" d="M89.8018,28.9829c0.0596,0.0474,0.0098,0.2061-0.1035,0.311
			c-0.1113,0.104-0.2549,0.1499-0.3174,0.104c-0.0615-0.043-0.0293-0.1948,0.082-0.2988
			C89.5752,28.9951,89.7373,28.9399,89.8018,28.9829"/>
		<path clip-path="url(#SVGID_41_)" fill="#603913" d="M89.792,28.9604c0.0625,0.0439,0.0234,0.167-0.0889,0.271
			c-0.1094,0.1021-0.2529,0.1499-0.3174,0.104c-0.0615-0.0439-0.0225-0.167,0.0898-0.269
			C89.5869,28.9624,89.7275,28.9136,89.792,28.9604"/>
		<path clip-path="url(#SVGID_41_)" fill="#FFFFFF" d="M89.8887,28.7559c0,0,1.335-0.3452,1.7051,0.644
			C91.6094,29.418,91.3525,28.7988,89.8887,28.7559"/>
	</g>
	<g clip-path="url(#SVGID_2_)">
		<defs>
			<path id="SVGID_42_" d="M111.3984,30.478c-0.0732,0.0371-2.3799,1.2026-5.6709,1.3481
				c-0.1787,0.0068-0.3555,0.0156-0.5322,0.0244c-0.834,0.0381-1.668,0.0625-2.5,0.0664c-0.9346,0.002-1.8457-0.0527-2.8145-0.1377
				c-0.4473-0.0361-0.8955-0.0947-1.3457-0.1035c-0.6436-0.0127-1.2861,0.0234-1.916,0.124
				c-0.6543,0.1035-1.2695,0.3076-1.9082,0.4678c-1.3037,0.3252-2.7285,0.6123-4.0801,0.4492
				c-2.1074-0.252-2.7207,0.6465-2.7207,0.6465c0.5527,0.21,1.1533,0.3213,1.9453,0.376c0.3896,0.0312,1.667,0.0537,3.1367-0.084
				c1.0508-0.0947,1.8281-0.2783,2.6172-0.4199c0.5049-0.0879,0.9199-0.1318,1.4316-0.1934
				c0.4238-0.0547,0.9355-0.0615,1.3613-0.0508c0.4971,0.0117,1.3994,0.1123,2.4072,0.1562
				c0.7695,0.0303,1.7236-0.0234,2.5195-0.0732c0.5898-0.0361,2.2725-0.2988,2.7764-0.3838
				c0.1396-0.0225,4.7441-0.9229,5.2939-2.2124H111.3984z"/>
		</defs>
		<clipPath id="SVGID_43_">
			<use xlink:href="#SVGID_42_"  overflow="visible"/>
		</clipPath>
		
			<linearGradient id="SVGID_44_" gradientUnits="userSpaceOnUse" x1="0.001" y1="59.7432" x2="1.001" y2="59.7432" gradientTransform="matrix(23.489 0 0 23.489 87.9062 -1371.1514)">
			<stop  offset="0" style="stop-color:#FBFBFB"/>
			<stop  offset="0.0055" style="stop-color:#FBFBFB"/>
			<stop  offset="0.0335" style="stop-color:#F8F8F8"/>
			<stop  offset="0.4546" style="stop-color:#D7D8DA"/>
			<stop  offset="0.7914" style="stop-color:#C3C5C7"/>
			<stop  offset="1" style="stop-color:#BCBEC0"/>
		</linearGradient>
		<rect x="87.9102" y="30.478" clip-path="url(#SVGID_43_)" fill="url(#SVGID_44_)" width="23.4893" height="3.3149"/>
	</g>
	<g clip-path="url(#SVGID_2_)">
		<defs>
			<rect id="SVGID_45_" width="111.625" height="59.7422"/>
		</defs>
		<clipPath id="SVGID_46_">
			<use xlink:href="#SVGID_45_"  overflow="visible"/>
		</clipPath>
		<path clip-path="url(#SVGID_46_)" fill="#A7A9AC" d="M87.9014,33.3623c0,0,0.6143-0.8975,2.7227-0.6436
			c1.3477,0.1621,2.7764-0.126,4.0801-0.4531c0.6387-0.1572,1.2568-0.3623,1.9062-0.4658c0.6328-0.1016,1.2754-0.1377,1.915-0.125
			c0.4541,0.0098,0.8994,0.0674,1.3506,0.1074c0.9678,0.082,1.876,0.1387,2.8125,0.1357c0.834-0.0068,1.666-0.0283,2.4961-0.0684
			c0.1816-0.0068,0.3584-0.0176,0.5391-0.0234c-0.0098,0.3389-0.7754,0.418-1.0205,0.459c-0.5049,0.083-1.1006,0.0967-1.6934,0.1055
			c-0.7686,0.0166-1.54,0.0303-2.3105-0.0029c-0.75-0.0312-1.5-0.1182-2.25-0.1396c-0.4277-0.0107-0.8555,0-1.2764,0.0547
			c-0.5117,0.0615-1.0166,0.1582-1.5244,0.2471c-0.7842,0.1396-1.5156,0.3926-2.5664,0.4893
			c-1.0508,0.1006-1.7529,0.1006-2.543-0.0117C89.7549,32.9141,88.8125,32.8994,87.9014,33.3623"/>
		<g clip-path="url(#SVGID_46_)">
			<g>
				<defs>
					<rect id="SVGID_47_" x="56.1143" y="17.4146" width="26.1289" height="21.4702"/>
				</defs>
				<clipPath id="SVGID_48_">
					<use xlink:href="#SVGID_47_"  overflow="visible"/>
				</clipPath>
				<g clip-path="url(#SVGID_48_)">
					<defs>
						<path id="SVGID_49_" d="M60.7988,22.876c-0.4453,0.146-0.917,0.4072-1.2344,0.813c-0.3564,0.4512-0.6279,1.1582-0.6416,2.0225
							v0.1235c0.0078,0.6074,0.1455,1.2832,0.4707,1.998c0.4023,0.873,1.2266,1.8901,2.376,2.96
							c0.5928,0.5508,1.2998,1.1318,2.1484,1.7139c0.5078,0.3516,1.3057,0.7217,1.915,1.0947c0,0,8.9482-1.541,12.3154-0.9111
							c1.1455,0.2158,1.1963,0.6787,1.1963,0.6787s0.0879-0.5664-0.8701-1.4902c-0.6309-0.6143-1.7031-1.4897-2.9785-2.2979
							c-0.9922-0.624-1.8125-1.271-2.9941-2.0156c-0.1367-0.0864-6.4092-4.8672-10.4756-4.8672
							C61.5889,22.6982,61.1748,22.7534,60.7988,22.876"/>
					</defs>
					<clipPath id="SVGID_50_">
						<use xlink:href="#SVGID_49_"  overflow="visible"/>
					</clipPath>
					
						<linearGradient id="SVGID_51_" gradientUnits="userSpaceOnUse" x1="0" y1="59.7422" x2="1" y2="59.7422" gradientTransform="matrix(28.3269 7.8598 -7.8598 28.3269 530.3252 -1666.5056)">
						<stop  offset="0" style="stop-color:#C1272D"/>
						<stop  offset="0.0055" style="stop-color:#C1272D"/>
						<stop  offset="0.0574" style="stop-color:#CF4E2B"/>
						<stop  offset="0.1179" style="stop-color:#DF6D27"/>
						<stop  offset="0.1738" style="stop-color:#EB8223"/>
						<stop  offset="0.2228" style="stop-color:#F38F20"/>
						<stop  offset="0.2597" style="stop-color:#F7941E"/>
						<stop  offset="0.3679" style="stop-color:#FCAF17"/>
						<stop  offset="0.4817" style="stop-color:#FFC70A"/>
						<stop  offset="0.5997" style="stop-color:#FFD900"/>
						<stop  offset="0.7221" style="stop-color:#FFE500"/>
						<stop  offset="0.8516" style="stop-color:#FFEE00"/>
						<stop  offset="1" style="stop-color:#FFF200"/>
					</linearGradient>
					<polygon clip-path="url(#SVGID_50_)" fill="url(#SVGID_51_)" points="56.1143,32.8223 77.9668,38.8848 82.2422,23.4775 
						60.3887,17.4141 					"/>
				</g>
			</g>
		</g>
	</g>
	<g clip-path="url(#SVGID_2_)">
		<defs>
			<path id="SVGID_52_" d="M51.6748,25.229h0.002H51.6748z M62.415,22.3711c0,0.022-4.7109,0.0083-12.1021-4.8428
				c0.021,0.043,3.1899,3.5181,8.4507,4.7378c-0.0303-0.002-0.1338,0.0103-0.3115,0.021c-0.9531,0.064-4.0239,0.1279-8.8203-1.9102
				c0.0439,0.021,1.8804,2.0161,9.0205,3.0874c0.0195-0.0063-0.2461,0.0938-0.7822,0.1948c-1.21,0.229-3.7861,0.4531-7.521-0.5518
				c0.041,0.0229,2.085,1.3086,7.894,1.6436c0,0.022-2.292,0.9814-6.5664,0.478c0.0791,0.0122,2.1265,0.728,6.5898,0.769
				c0.04,0-1.8555,0.7993-5.2866,0.6304c0.0859,0.085,3.144,0.7568,5.5239,0.6729c0.0195,0.02-1.4785,1.2041-4.1958,0.9287
				c0,0.0244,1.7876,0.7524,3.8091,0.582c0.0439,0.041,2.2656,2.8022,3.5645,2.6714c0.1963,0,0.3076,0.1084,0.3818,0.2471
				c0.0811,0.1514,0.1768,0.2041,0.3926,0.21c0.041,0.001,0.0781,0,0.1104-0.0029c0.1504-0.0068,0.2383-0.0166,0.3545,0.1973
				c0.126,0.2246,0.124,0.2598,0.4629,0.2676c0.3262,0.0127,0.3906,0.1357,0.4648,0.2578c0.127,0.2119,0.2412,0.3232,0.5049,0.3037
				c0.2734,0,0.4141,0.084,0.5098,0.2568c0.0957,0.1738,0.4189,0.5811,0.9697,0.3809c0,0-6.2129-3.8105-6.7178-7.0845
				c-0.1699-1.2051-0.084-3.8779,3.1152-3.6411c3.2012,0.2393,7.4443,2.9272,7.7109,3.1221c0.0146,0.0161-3.6973-3.793-3.6973-3.793
				s-6.4014-1.2891-13.4253-7.521C52.8188,14.7471,55.7383,19.2642,62.415,22.3711"/>
		</defs>
		<clipPath id="SVGID_53_">
			<use xlink:href="#SVGID_52_"  overflow="visible"/>
		</clipPath>
		
			<linearGradient id="SVGID_54_" gradientUnits="userSpaceOnUse" x1="0" y1="59.7422" x2="1" y2="59.7422" gradientTransform="matrix(20.3233 0 0 20.3233 49.625 -1189.9136)">
			<stop  offset="0" style="stop-color:#3C2415"/>
			<stop  offset="0.0387" style="stop-color:#3C2415"/>
			<stop  offset="0.1547" style="stop-color:#A73324"/>
			<stop  offset="0.2762" style="stop-color:#CA2B25"/>
			<stop  offset="0.5414" style="stop-color:#ED1C24"/>
			<stop  offset="0.9503" style="stop-color:#FEC233"/>
			<stop  offset="1" style="stop-color:#FFF200"/>
		</linearGradient>
		<rect x="49.6318" y="14.6841" clip-path="url(#SVGID_53_)" fill="url(#SVGID_54_)" width="20.3242" height="19.1177"/>
	</g>
	<g clip-path="url(#SVGID_2_)">
		<defs>
			<rect id="SVGID_55_" width="111.625" height="59.7422"/>
		</defs>
		<clipPath id="SVGID_56_">
			<use xlink:href="#SVGID_55_"  overflow="visible"/>
		</clipPath>
		<g clip-path="url(#SVGID_56_)">
			<g>
				<defs>
					<rect id="SVGID_57_" x="62.6729" y="22.9233" width="12.5293" height="13.6108"/>
				</defs>
				<clipPath id="SVGID_58_">
					<use xlink:href="#SVGID_57_"  overflow="visible"/>
				</clipPath>
				<g clip-path="url(#SVGID_58_)">
					<defs>
						<path id="SVGID_59_" d="M62.6748,22.9253c0.1504,0.1157,7.8438,6.0908,6.5234,13.6079h0.0068
							c0.2441-0.0283,5.916-0.7158,5.9971-4.2383v-0.1436c-0.0234-1.0078-0.4961-2.2402-1.6582-3.7451
							c0,0-6.3877-4.9102-10.8584-5.481H62.6748z"/>
					</defs>
					<clipPath id="SVGID_60_">
						<use xlink:href="#SVGID_59_"  overflow="visible"/>
					</clipPath>
					
						<linearGradient id="SVGID_61_" gradientUnits="userSpaceOnUse" x1="0" y1="59.7422" x2="1" y2="59.7422" gradientTransform="matrix(12.5291 0 0 12.5291 62.6719 -718.7906)">
						<stop  offset="0" style="stop-color:#971B1E"/>
						<stop  offset="0.0055" style="stop-color:#971B1E"/>
						<stop  offset="0.1768" style="stop-color:#C1272D"/>
						<stop  offset="0.453" style="stop-color:#F7931E"/>
						<stop  offset="0.5298" style="stop-color:#F8991D"/>
						<stop  offset="0.6533" style="stop-color:#FBAA19"/>
						<stop  offset="0.8079" style="stop-color:#FFC70A"/>
						<stop  offset="0.9862" style="stop-color:#FFED00"/>
						<stop  offset="1" style="stop-color:#FFF200"/>
					</linearGradient>
					<rect x="62.6748" y="22.9253" clip-path="url(#SVGID_60_)" fill="url(#SVGID_61_)" width="12.5273" height="13.6079"/>
				</g>
			</g>
		</g>
		<path clip-path="url(#SVGID_56_)" fill="#FFFFFF" d="M55.6045,11.0332c0,0-2.3301,2.2388,8.4512,10.668
			c3.6221,2.7998,10.584,8.624,15.1299,8.5669c1.04-0.0552,1.4502-0.3452-0.084-0.8682c-1.4395-0.4897-5.2207-2.3379-7.1445-5.501
			c-0.2949-0.6431-1.7393-1.0371-4.0264-2.562C67.9307,21.3369,58.5811,15.793,55.6045,11.0332"/>
	</g>
	<g clip-path="url(#SVGID_2_)">
		<defs>
			<path id="SVGID_62_" d="M55.8193,12.605c0.3457,0.998,1.5107,3.0244,4.7539,5.7681c4.3799,3.7041,9.1602,7.3662,11.6289,8.9111
				c2.4688,1.5439,5.2012,2.502,6.5791,2.6152c0.8604-0.0024-0.6758-0.5464-0.6758-0.5464s-2.0137-0.6187-5.0693-3.0181
				c-0.2021-0.1616-0.6152-0.5659-1.1338-1.0996c-0.3428-0.356-0.6387-0.9062-1.9805-1.771
				c-0.873-0.5591-1.2178-0.7983-2.1631-1.4561c-1.4766-1.0273-10.2324-6.8232-11.6768-9.7153
				c-0.0977-0.166-0.415-0.6226-0.4473-0.8306C55.624,11.4692,55.6279,12.0581,55.8193,12.605"/>
		</defs>
		<clipPath id="SVGID_63_">
			<use xlink:href="#SVGID_62_"  overflow="visible"/>
		</clipPath>
		
			<linearGradient id="SVGID_64_" gradientUnits="userSpaceOnUse" x1="0" y1="59.7422" x2="1" y2="59.7422" gradientTransform="matrix(1.829 -2.4876 2.4876 1.829 -83.0884 -85.7241)">
			<stop  offset="0" style="stop-color:#FFFFFF"/>
			<stop  offset="0.0055" style="stop-color:#FFFFFF"/>
			<stop  offset="0.0118" style="stop-color:#FFFFFF"/>
			<stop  offset="0.0497" style="stop-color:#FFFFFF"/>
			<stop  offset="0.1447" style="stop-color:#F3F3F4"/>
			<stop  offset="0.5106" style="stop-color:#D5D6D8"/>
			<stop  offset="0.8087" style="stop-color:#C3C4C7"/>
			<stop  offset="1" style="stop-color:#BCBEC0"/>
		</linearGradient>
		<polygon clip-path="url(#SVGID_63_)" fill="url(#SVGID_64_)" points="71.2139,41.3613 88.4414,17.9316 64.0518,-0.0005 
			46.8247,23.4297 		"/>
	</g>
	<g clip-path="url(#SVGID_2_)">
		<defs>
			<path id="SVGID_65_" d="M87.2686,30.7637c0.0049,0.2412,0.3789,0.2979,0.7803,0.2793c0.5176-0.0234,1.1064-0.2051,1.1064-0.2051
				c-2.0342,0.3145-1.7646-0.3857-1.7646-0.3857C87.2988,30.5439,87.2666,30.647,87.2686,30.7637"/>
		</defs>
		<clipPath id="SVGID_66_">
			<use xlink:href="#SVGID_65_"  overflow="visible"/>
		</clipPath>
		
			<linearGradient id="SVGID_67_" gradientUnits="userSpaceOnUse" x1="0" y1="59.7422" x2="1" y2="59.7422" gradientTransform="matrix(4.27 -0.6927 0.6927 4.27 45.6221 -224.114)">
			<stop  offset="0" style="stop-color:#F7941E"/>
			<stop  offset="0.1966" style="stop-color:#F78F1E"/>
			<stop  offset="0.4751" style="stop-color:#F58220"/>
			<stop  offset="0.8011" style="stop-color:#F36C21"/>
			<stop  offset="0.8784" style="stop-color:#F26522"/>
			<stop  offset="0.9823" style="stop-color:#F26522"/>
			<stop  offset="1" style="stop-color:#F26522"/>
		</linearGradient>
		<polygon clip-path="url(#SVGID_66_)" fill="url(#SVGID_67_)" points="87.1729,31.4736 89.2656,31.1338 89.1025,30.1309 
			87.0107,30.4702 		"/>
	</g>
	<g clip-path="url(#SVGID_2_)">
		<defs>
			<path id="SVGID_68_" d="M69.3105,39.6553c0,0-0.2129,0.3115-0.1523,0.6699c0.0078,0.0391-0.0225,0.7832,1.4395,0.4102
				c0.4287-0.1113,0.4746-0.0908,0.9922-0.293c0.5781-0.2295,0.4463-0.9346,0.4463-0.9346
				C69.6748,40.6689,69.3105,39.6553,69.3105,39.6553"/>
		</defs>
		<clipPath id="SVGID_69_">
			<use xlink:href="#SVGID_68_"  overflow="visible"/>
		</clipPath>
		
			<linearGradient id="SVGID_70_" gradientUnits="userSpaceOnUse" x1="0" y1="59.7422" x2="1" y2="59.7422" gradientTransform="matrix(9.8357 -2.2191 2.2191 9.8357 -66.831 -546.1921)">
			<stop  offset="0" style="stop-color:#971B1E"/>
			<stop  offset="0.0055" style="stop-color:#971B1E"/>
			<stop  offset="0.1768" style="stop-color:#C1272D"/>
			<stop  offset="0.453" style="stop-color:#F7941D"/>
			<stop  offset="0.4735" style="stop-color:#F8991D"/>
			<stop  offset="0.6484" style="stop-color:#FEBE10"/>
			<stop  offset="0.8007" style="stop-color:#FFD900"/>
			<stop  offset="0.923" style="stop-color:#FFEA00"/>
			<stop  offset="1" style="stop-color:#FFF200"/>
		</linearGradient>
		<polygon clip-path="url(#SVGID_69_)" fill="url(#SVGID_70_)" points="69.2471,41.7676 72.5117,41.0303 72.0195,38.8486 
			68.7549,39.5859 		"/>
	</g>
	<g clip-path="url(#SVGID_2_)">
		<defs>
			<path id="SVGID_71_" d="M69.5684,39.2471c-0.3887,0.3037-1.7051,0.6455-1.7275,0.6416c0.0078-0.1523-0.3584-0.1904-0.75,0.0889
				c-0.4883,0.3613,0.3164,0.5996,0.3164,0.5996c0.1035,0.5986,1.1855,0.2012,1.3457,0.1201
				c0.2451-0.1289,0.7139-0.3271,1.0283-0.54c0.4824-0.4033,0.3389-0.7637,0.3389-0.7637s-0.1104-0.2178-0.3271-0.2178
				C69.7275,39.1758,69.6533,39.1963,69.5684,39.2471"/>
		</defs>
		<clipPath id="SVGID_72_">
			<use xlink:href="#SVGID_71_"  overflow="visible"/>
		</clipPath>
		
			<linearGradient id="SVGID_73_" gradientUnits="userSpaceOnUse" x1="0" y1="59.7422" x2="1" y2="59.7422" gradientTransform="matrix(10.0577 -2.2692 2.2692 10.0577 -69.8938 -560.0671)">
			<stop  offset="0" style="stop-color:#971B1E"/>
			<stop  offset="0.0055" style="stop-color:#971B1E"/>
			<stop  offset="0.1768" style="stop-color:#C1272D"/>
			<stop  offset="0.453" style="stop-color:#F7941D"/>
			<stop  offset="0.4735" style="stop-color:#F8991D"/>
			<stop  offset="0.6484" style="stop-color:#FEBE10"/>
			<stop  offset="0.8007" style="stop-color:#FFD900"/>
			<stop  offset="0.923" style="stop-color:#FFEA00"/>
			<stop  offset="1" style="stop-color:#FFF200"/>
		</linearGradient>
		<polygon clip-path="url(#SVGID_72_)" fill="url(#SVGID_73_)" points="66.7803,41.9619 70.6934,41.0791 70.0869,38.3906 
			66.1738,39.2734 		"/>
	</g>
	<g clip-path="url(#SVGID_2_)">
		<defs>
			<rect id="SVGID_74_" width="111.625" height="59.7422"/>
		</defs>
		<clipPath id="SVGID_75_">
			<use xlink:href="#SVGID_74_"  overflow="visible"/>
		</clipPath>
		<path clip-path="url(#SVGID_75_)" fill="#270A00" d="M72.0791,39.1543c-0.9434,0.6699-1.8281,0.6055-1.8477,0.627
			c0.0361-0.0361,0.0518-0.1426,0.0615-0.1914c0.0107-0.0615,0.0088-0.123-0.002-0.1846c-0.0674-0.374-0.4873-0.3516-0.7578-0.2461
			c-0.1152,0.0439-0.2236,0.1074-0.3262,0.1758c-0.4424,0.293-1.4092,0.4102-1.4219,0.4033
			c-0.0078-0.2715-0.5664,0.0303-0.5518,0.0156c-0.3936-0.1406-0.0225-0.5391-0.0225-0.5391
			c-0.999,0.2266-0.4258,0.8379-0.4258,0.833c-0.127,0.1406,0.0898,0.3281,0.1113,0.3154c0.0498,0.334,0.4834,0.375,0.4688,0.375
			c0.1709,0.3232,0.7021,0.3203,0.9844,0.2246c0.2158-0.0713,0.75-0.3008,0.7949-0.3066c0.2598,0.4111,1.0625,0.2715,1.334,0.2197
			c0.4395-0.0889,0.874-0.1836,1.2734-0.3945C72.416,40.127,72.1553,39.2285,72.0791,39.1543 M71.0859,40.5449
			c-0.0967,0.0215-0.3525-0.043-0.3848-0.2441c0.0078,0-0.1729,0.1826,0.0723,0.3213c-0.0049,0.0156-0.3682,0.0918-0.5498,0.1035
			c-0.0293,0.0137-0.3438-0.0264-0.3223-0.2646c-0.0068-0.0078-0.2129,0.1104-0.0264,0.2939c0,0-0.5234,0.0791-0.6387-0.2939
			c0.0068-0.0225-0.3682,0.1396-0.3877,0.1465c-0.0215,0.0059-0.2314,0.0098-0.2314-0.124c0,0.0078-0.1484,0.1211,0,0.2217
			c0,0-0.7871,0.3057-0.8057-0.0488c-0.0088-0.0078,1.0215-0.2031,1.9697-0.875c-0.0059-0.0078-0.6035,0.3223-0.9062,0.3916
			c-0.0596,0.0156-0.3711-0.0557-0.3643-0.2588c0-0.0205-0.2695,0.1338,0.085,0.3545l-0.1787,0.0703l-0.1885,0.0576
			c0,0-0.3271-0.0117-0.3672-0.2627c-0.0078,0-0.2314,0.1943,0.1074,0.3477c0,0-0.6094,0.2549-0.8965-0.1729
			c-0.1055-0.1611,0.1045-0.3447,0.2812-0.415c0.1748-0.0713,0.4238-0.1152,0.3867,0.0732
			c0.0156-0.0068,1.2197-0.2354,1.7754-0.5615c0.3447-0.2051,0.79,0.0674,0.3076,0.7119c-0.0127,0.0146,0.9199,0.1641,2.1348-0.5137
			C71.958,39.6113,72.167,40.293,71.0859,40.5449"/>
		<path clip-path="url(#SVGID_75_)" d="M69.2607,40.3057c0,0,0.0518,0.0859,0.3467-0.0381c0-0.0049-0.2441,0.0088-0.2988-0.1465
			C69.3086,40.1172,69.1914,40.2354,69.2607,40.3057"/>
		<path clip-path="url(#SVGID_75_)" fill="#FFFFFF" d="M87.376,33.6064c0,0,2.0371,1.0645,8.5342-0.1191
			c0,0,1.3359-0.252,2.8818-0.1699c0,0,4.2451,0.4023,7.8008-0.7285c0,0-3.8213,0.7148-6.873,0.4775
			c0,0-2.0869-0.2988-3.8096,0.0967c0,0-5.7441,1.1357-8.1982,0.1221L87.376,33.6064z"/>
		<path clip-path="url(#SVGID_75_)" fill="#A7A9AC" d="M55.6348,11.4619c0,0,2.835,4.9409,15.4951,12.0532
			c0.2871,0.147,0.5605,0.3438,0.7295,0.624c0.1963,0.3286,0.3672,0.6626,0.5928,0.9736c0.374,0.5171,0.8105,0.9951,1.2627,1.4414
			c0.5107,0.502,1.0615,0.9609,1.6416,1.3789c0.3721,0.2661,0.9014,0.5601,1.3037,0.7808c-0.0293,0-2.8086-1.1108-5.5303-4.2188
			c-0.5566-0.5981-2.5605-1.7803-2.6689-1.8481C68.3877,22.5991,56.4248,14.8188,55.6348,11.4619"/>
	</g>
</g>
</svg>
