<?xml version="1.0" encoding="utf-8"?>
<!-- Generator: Adobe Illustrator 15.0.0, SVG Export Plug-In . SVG Version: 6.00 Build 0)  -->
<!DOCTYPE svg PUBLIC "-//W3C//DTD SVG 1.1//EN" "http://www.w3.org/Graphics/SVG/1.1/DTD/svg11.dtd">
<svg version="1.1" id="Слой_1" xmlns="http://www.w3.org/2000/svg" xmlns:xlink="http://www.w3.org/1999/xlink" x="0px" y="0px"
	 width="129.5459px" height="28.1001px" viewBox="0 0 129.5459 28.1001" enable-background="new 0 0 129.5459 28.1001"
	 xml:space="preserve">
<g>
	<defs>
		<rect id="SVGID_1_" width="129.5459" height="28.1001"/>
	</defs>
	<clipPath id="SVGID_2_">
		<use xlink:href="#SVGID_1_"  overflow="visible"/>
	</clipPath>
	<path clip-path="url(#SVGID_2_)" fill="#AE9835" d="M39.4805,3.7856c0.2388-0.8369,0.4551-1.6968,0.7461-2.5308
		c0.0557-0.1611,0.4038-0.3091,0.6187-0.311c1.9272-0.0239,3.855,0.002,5.7832-0.0259c0.4829-0.0073,0.7021,0.2168,0.9019,0.5996
		c0.9663,1.8452,1.9492,3.6831,2.9312,5.52c0.1421,0.2671,0.313,0.5181,0.5562,0.918c0.9468-1.7778,1.939-3.3486,2.6377-5.0405
		c0.6621-1.603,1.6021-2.2432,3.3433-2.02c1.3247,0.1699,2.689,0.0488,4.0356,0.0259c0.4722-0.0073,0.748,0.1318,0.832,0.623
		c0.0542,0.3091,0.1763,0.605,0.2632,0.9087c0.334,1.1772,0.332,1.1743-0.687,1.7529c-0.75,0.4263-0.8579,1.1494-0.8579,1.9131
		c-0.002,4.6211-0.002,9.2422-0.002,13.8633c0,0.5547-0.0283,1.1123,0.0107,1.6641c0.0732,1.0479,0.1563,2.1094,1.5322,2.4287
		c-0.2422,0.8662-0.4351,1.6797-0.7153,2.4619c-0.0679,0.1914-0.4199,0.3945-0.6445,0.3984
		c-1.9014,0.0303-3.8032,0.0176-5.7041,0.0166c-0.0791,0-0.2144,0.0225-0.229-0.0098c-0.3184-0.6846-0.668-1.3604-0.9063-2.0723
		c-0.0869-0.2598,0.0459-0.6357,0.1743-0.9141c0.2529-0.5479,0.813-1.0596,0.8247-1.5967c0.0781-3.3779,0.04-6.7588,0.0361-10.1392
		c0-0.0708-0.0488-0.1411-0.1509-0.415c-1.2939,2.189-2.5151,4.2563-3.8242,6.4722c-1.2808-2.1699-2.499-4.2329-3.7168-6.2959
		c-0.0752,0.0137-0.1514,0.0288-0.2261,0.0439c-0.0293,0.2627-0.082,0.5259-0.083,0.7891c-0.0059,2.957-0.0239,5.915,0.0078,8.8721
		c0.0103,0.8867,0.04,1.8184,1.002,2.3379c0.1172,0.0625,0.1533,0.2979,0.1992,0.46c0.0181,0.0635-0.0449,0.1465-0.0649,0.2227
		c-0.5679,2.2461-0.5679,2.2461-2.9121,2.2461c-1.2939,0-2.5879-0.0156-3.8818,0.0088c-0.4702,0.0098-0.7202-0.1221-0.8301-0.6123
		c-0.1772-0.7871-0.4282-1.5586-0.6602-2.3799c1.3511-0.3496,1.5332-1.3154,1.5313-2.418
		c-0.0103-4.9912-0.0044-9.9824-0.0044-14.9736C41.3472,4.5728,41.3433,4.5679,39.4805,3.7856 M50.9966,9.9019
		c-0.2241-0.4019-0.354-0.627-0.4751-0.856c-1.1631-2.188-2.3081-4.3882-3.5073-6.5562c-0.1689-0.3071-0.5977-0.647-0.9209-0.6621
		c-1.501-0.0698-3.0078-0.019-4.5117-0.0376c-0.543-0.0073-0.7134,0.2949-0.8452,0.7466c-0.126,0.4341-0.1128,0.709,0.3442,0.9644
		c0.7417,0.415,1.1128,1.1099,1.1128,1.9678c0.001,5.5972-0.0039,11.1938-0.0107,16.7915c-0.001,0.8057-0.2725,1.5234-0.916,2.0166
		c-0.5273,0.4023-0.25,0.8242-0.0723,1.1836c0.1152,0.2324,0.4629,0.4844,0.7148,0.4922c1.3984,0.0469,2.7983,0.04,4.1973,0.0078
		c0.2651-0.0059,0.6631-0.1348,0.7588-0.3262c0.1943-0.3867,0.3691-0.7754,0.0581-1.3105
		c-0.4058-0.6982-0.7739-1.5391-0.7871-2.3242c-0.0747-4.3545-0.0366-8.7119-0.0337-13.0679c0-0.1587,0.0278-0.3179,0.0566-0.6128
		c1.6333,2.772,3.188,5.4102,4.8291,8.1953c1.6401-2.7861,3.1631-5.3745,4.687-7.9624c0.1543,4.4512,0.147,8.8325,0.1592,13.2134
		c0.0029,0.9756-0.1602,1.8535-0.7861,2.667c-0.1978,0.2559-0.062,0.8418,0.0591,1.2334c0.0488,0.1611,0.46,0.292,0.709,0.2969
		c1.3989,0.0283,2.7988,0.0322,4.1968-0.0039c0.2563-0.0068,0.646-0.1807,0.729-0.3799c0.1523-0.3633,0.4604-0.7842-0.0396-1.207
		c-0.7324-0.6211-0.9683-1.499-0.9702-2.4199c-0.0112-5.4121-0.0039-10.8237-0.0068-16.2368c0-0.939,0.3408-1.7202,1.1489-2.2061
		c0.4819-0.2891,0.4561-0.604,0.334-1.0581c-0.124-0.457-0.353-0.6621-0.8291-0.6577c-1.479,0.0117-2.959-0.0342-4.4341,0.0317
		c-0.335,0.0151-0.7651,0.3159-0.958,0.6123c-0.4751,0.7246-0.8369,1.5229-1.2451,2.292
		C52.8545,6.4019,51.9663,8.0747,50.9966,9.9019"/>
	<path clip-path="url(#SVGID_2_)" fill="#AE9835" d="M108.0938,16.5952c0,1.998-0.0557,3.9756,0.04,5.9453
		c0.0234,0.4873,0.5439,0.9453,0.8232,1.4258c0.1035,0.1768,0.1709,0.377,0.2441,0.5693c0.0156,0.043-0.0088,0.1045-0.0215,0.1553
		c-0.5146,2.2617-0.5146,2.2617-2.8262,2.2617c-1.3193,0-2.6396-0.0146-3.958,0.0078c-0.4648,0.0088-0.7402-0.1143-0.8545-0.6006
		c-0.1729-0.7373-0.3965-1.4629-0.6182-2.2568c1.2783-0.3828,1.4453-1.3311,1.4404-2.4473
		c-0.0244-5.2246-0.0098-10.4507-0.0107-15.6758c0-1.3179-0.1416-1.4961-1.333-2.0103c-0.1826-0.0776-0.2617-0.4038-0.377-0.6206
		c-0.0156-0.0303,0.043-0.0933,0.0557-0.144c0.5889-2.269,0.5889-2.269,2.958-2.2671c2.1113,0.001,4.2246-0.062,6.333,0.0181
		c2.4551,0.0928,4.752,0.686,6.4512,2.6587c1.0342,1.2031,1.6074,2.6211,1.6113,4.1909c0.0039,1.2793-0.0771,2.583-0.335,3.8311
		c-0.2959,1.4331-1.1416,2.6021-2.3965,3.4121c-0.3643,0.2349-0.5156,0.4497-0.3379,0.895c0.7959,2.0068,1.54,4.0352,2.3545,6.0352
		c0.4541,1.1152,1.1846,1.999,2.5859,2.2324c-0.1846,0.8281-0.3359,1.6182-0.5547,2.3887c-0.043,0.1533-0.3408,0.334-0.5244,0.3359
		c-1.7402,0.0254-3.4834,0.042-5.2236-0.0137c-0.2529-0.0088-0.6045-0.3662-0.7227-0.6426
		c-1.3066-3.0508-2.5791-6.1162-3.8535-9.1807C108.8799,16.7026,108.7227,16.3521,108.0938,16.5952 M106.1484,1.6167
		c-0.0059,0.061-0.0117,0.1221-0.0176,0.1831c-1.1875,0-2.376,0.0151-3.5625-0.0068c-0.5322-0.0103-0.6582,0.3408-0.7666,0.7319
		c-0.1006,0.3652-0.1621,0.6792,0.2822,0.936c0.9072,0.5249,1.2412,1.396,1.2422,2.4082c0.002,5.3037,0.0088,10.6089-0.0088,15.9126
		c-0.0029,0.9639-0.2617,1.8428-0.9512,2.6074c-0.2148,0.2383-0.166,0.8105-0.0752,1.1914c0.042,0.1787,0.4658,0.3701,0.7227,0.377
		c1.3184,0.0381,2.6396,0.043,3.957,0.001c0.3398-0.0098,0.8203-0.1328,0.9756-0.3721c0.2725-0.4238,0.3721-0.9238-0.1025-1.4287
		c-0.3164-0.3369-0.5469-0.8828-0.5674-1.3467c-0.1025-2.2617-0.123-4.5283-0.1611-6.792
		c-0.0029-0.1416,0.0879-0.4023,0.1533-0.4082c0.5996-0.0527,1.2139-0.1338,1.8008-0.0479
		c0.2305,0.0342,0.4727,0.4385,0.5938,0.7246c1.2744,3.0078,2.5146,6.0303,3.8008,9.0342c0.1172,0.2725,0.4746,0.6113,0.7334,0.624
		c1.3164,0.0635,2.6387,0.0488,3.957,0.0068c0.2012-0.0068,0.5176-0.2754,0.5586-0.4697c0.0488-0.2383-0.0547-0.6523-0.2344-0.7676
		c-0.9521-0.6143-1.5957-1.4648-2.002-2.4883c-0.8779-2.2021-1.7012-4.4238-2.582-6.625c-0.209-0.522-0.0596-0.7393,0.4063-0.9673
		c1.1377-0.5547,2.0264-1.4351,2.3564-2.645c0.3271-1.2017,0.543-2.4727,0.5527-3.7148c0.0234-3.0469-1.748-5.3838-4.7246-5.998
		C110.415,1.8501,108.2627,1.8228,106.1484,1.6167"/>
	<path clip-path="url(#SVGID_2_)" fill="#AE9835" d="M16.3413,3.3555c0,1.7393-0.022,3.479,0.0122,5.2168
		c0.0117,0.6055-0.145,0.8662-0.793,0.8374c-0.9751-0.043-1.9551-0.043-2.9302,0.001c-0.6621,0.0288-0.8691-0.2681-0.9292-0.873
		c-0.0596-0.5981-0.1919-1.1953-0.355-1.7749c-0.2637-0.9453-0.8608-1.5591-1.8809-1.666c-0.9751-0.103-1.7417,0.2466-2.1328,1.2739
		c-0.4341,1.1431-0.793,2.354-0.9292,3.564c-0.3369,2.9917-0.3501,6.0005,0.1401,8.9829c0.144,0.8711,0.4429,1.7305,0.7808,2.5498
		c0.2813,0.6816,0.8071,1.1865,1.6333,1.1719c0.874-0.0146,1.498-0.4482,1.8896-1.2139c0.1191-0.2314,0.2651-0.4922,0.2612-0.7363
		c-0.0151-1.0732,0.647-1.0957,1.4531-1.0625c1.1597,0.0469,2.3228,0.0283,3.4839,0.0049c0.4829-0.0098,0.646,0.1738,0.6489,0.6494
		c0.0293,3.668-2.6289,7.7344-7.3638,7.8174c-3.6133,0.0635-6.2153-1.541-7.6973-4.8545c-0.937-2.0928-1.3037-4.3115-1.5059-6.5811
		c-0.2642-2.9629-0.1299-5.895,0.5132-8.793c0.4746-2.1392,1.3208-4.1182,2.9067-5.7012c2.1401-2.1357,5.2349-2.7568,8.0249-1.5811
		c0.7681,0.3242,1.3931,0.2251,2.1641-0.1089c0.6421-0.2778,1.481-0.1172,2.2319-0.1021c0.0752,0.001,0.2002,0.3398,0.2051,0.5249
		c0.022,0.8184,0.0103,1.6372,0.0103,2.4551C16.2354,3.3564,16.2886,3.3564,16.3413,3.3555 M5.1772,13.9663
		c0.0649-0.0059,0.1304-0.0117,0.1943-0.019c0-0.7388-0.021-1.479,0.0059-2.2168c0.0288-0.7622,0.0078-1.5449,0.1821-2.2778
		c0.3066-1.2959,0.6509-2.6001,1.1606-3.8242c0.353-0.8491,1.1343-1.3608,2.1401-1.396c1.8901-0.0659,2.8652,0.6611,3.4209,2.5898
		c0.519,1.7993,0.5181,1.7783,2.4341,1.7334c0.541-0.0132,0.6631-0.2183,0.6572-0.708c-0.0239-1.9272-0.0073-3.855-0.0273-5.7832
		c-0.0098-0.9258-0.4546-1.2139-1.2646-0.7632c-0.9883,0.5493-1.8892,0.4741-2.937,0.0854
		C8.9404,0.5684,6.7915,0.7393,4.8604,2.2227C3.0752,3.5933,2.2012,5.5225,1.6172,7.6143c-0.8506,3.0474-0.7388,6.1714-0.584,9.2739
		c0.103,2.0488,0.5073,4.0752,1.373,5.9717c1.563,3.4229,4.2729,4.6934,7.501,4.3301c3.2124-0.3633,5.3242-2.6006,5.8232-5.8643
		c0.083-0.54-0.0293-0.7344-0.5723-0.7148c-0.606,0.0225-1.2188,0.0518-1.8198-0.0078c-0.8291-0.0801-1.3091,0.1211-1.6289,1.0098
		c-0.4302,1.1924-1.3652,1.8789-2.7339,1.8975c-1.3594,0.0186-2.063-0.8027-2.5791-1.8711
		c-0.249-0.5166-0.4639-1.0811-0.5381-1.6436C5.5952,17.9907,5.3994,15.9761,5.1772,13.9663"/>
	<path clip-path="url(#SVGID_2_)" fill="#AE9835" d="M38.6553,23.9849c-0.1636,0.8428-0.3169,1.5879-0.4536,2.3359
		c-0.084,0.4639-0.3203,0.6484-0.814,0.6426c-1.9004-0.0264-3.8022,0.0078-5.7021-0.0342c-0.2461-0.0049-0.5723-0.2764-0.708-0.5117
		c-0.1919-0.3311-0.2329-0.748-0.3521-1.124c-0.1792-0.5625-0.3647-1.0605,0.3149-1.5146c0.23-0.1533,0.2603-0.7783,0.2012-1.1611
		c-0.1309-0.8545-0.4009-1.6865-0.562-2.5391c-0.0889-0.4678-0.3262-0.5898-0.7632-0.582c-1.2139,0.0186-2.4287,0.0195-3.6431,0
		c-0.4126-0.0078-0.626,0.123-0.71,0.54c-0.1987,0.9805-0.4751,1.9463-0.6211,2.9326c-0.0439,0.2979,0.1431,0.7793,0.3833,0.9375
		c0.4419,0.2949,0.4058,0.5938,0.2959,0.999c-0.5571,2.0459-0.5532,2.0469-2.6821,2.0469c-1.3999,0-2.7988-0.0117-4.1978,0.0068
		c-0.4683,0.0068-0.748-0.0957-0.7793-0.6348c-0.022-0.3877-0.1567-0.7695-0.2378-1.1553c-0.1392-0.6572-0.3491-1.251,0.5771-1.6465
		c0.3887-0.166,0.6328-0.8789,0.7749-1.3896c1.2432-4.4893,2.4521-8.9873,3.6621-13.4854c0.2939-1.0918,0.5688-2.189,0.8247-3.29
		c0.1343-0.5757-0.0508-1.0146-0.5107-1.458c-0.8301-0.7979,0.1719-1.5659,0.1899-2.3687c0.0088-0.4189,0.292-0.606,0.7549-0.6021
		c2.7461,0.019,5.4922,0.0181,8.2368,0.001c0.459-0.0029,0.6763,0.1621,0.7534,0.604c0.0537,0.3081,0.1729,0.606,0.2598,0.9087
		c0.1821,0.6382,0.4883,1.2305-0.3169,1.7822c-0.2739,0.188-0.3423,0.9531-0.23,1.3818c1.4448,5.5239,2.937,11.0352,4.4238,16.5469
		C37.2544,23.0073,37.6943,23.7036,38.6553,23.9849 M28.0083,1.7959c-1.1079,0-2.2178-0.0239-3.3247,0.0171
		c-0.2671,0.0103-0.6973,0.1802-0.7539,0.3672c-0.123,0.4048-0.2192,0.9678-0.0283,1.2891c0.4473,0.752,0.6411,1.4736,0.4121,2.3228
		c-1.5469,5.7393-3.0762,11.4819-4.647,17.2144c-0.1382,0.5059-0.4409,1.0527-0.833,1.3809
		c-0.5151,0.4297-0.3218,0.876-0.1748,1.2627c0.082,0.2178,0.5137,0.415,0.7949,0.4258c1.2646,0.0459,2.5327,0.0439,3.7988,0.0068
		c0.3579-0.0117,0.8843-0.0947,1.0293-0.3301c0.2695-0.4424,0.396-0.9639-0.0112-1.5391c-0.272-0.3857-0.3838-1.0107-0.311-1.4883
		c0.187-1.2178,0.4912-2.4219,0.8169-3.6133c0.0649-0.2373,0.4331-0.5498,0.6699-0.5566c1.7144-0.0479,3.4302-0.0166,5.145-0.0313
		c0.4272-0.0039,0.5923,0.165,0.6763,0.5801c0.2139,1.0557,0.521,2.0938,0.7168,3.1523c0.144,0.7764,0.1841,1.5469-0.377,2.2578
		c-0.4238,0.5361,0.104,1.5625,0.7681,1.5732c1.4512,0.0205,2.9028,0.0234,4.354-0.0137c0.2202-0.0059,0.584-0.2295,0.6211-0.4072
		c0.0757-0.3643,0.0728-0.8076-0.0742-1.1406c-0.2681-0.6055-0.814-1.1143-0.9849-1.7344
		c-1.541-5.5781-3.0352-11.1694-4.519-16.7632c-0.2339-0.8833-0.188-1.7363,0.3809-2.5654c0.2021-0.293,0.0762-0.8906-0.0557-1.2988
		c-0.0601-0.186-0.4941-0.3428-0.7642-0.3521C30.2266,1.7729,29.1167,1.7959,28.0083,1.7959"/>
	<path clip-path="url(#SVGID_2_)" fill="#AE9835" d="M99.9434,23.9741c-0.1826,0.8682-0.3252,1.6953-0.5488,2.499
		c-0.0547,0.1973-0.3711,0.4541-0.5713,0.458c-1.9795,0.0342-3.9609,0.0225-5.9414,0.0176c-0.1279,0-0.3408-0.0039-0.3701-0.0693
		c-0.2168-0.5-0.4307-1.0068-0.5811-1.5303c-0.1426-0.502-0.4512-1.0146,0.209-1.4814c0.2422-0.1709,0.3701-0.708,0.3213-1.0449
		c-0.1367-0.9346-0.3564-1.8623-0.627-2.7676c-0.0693-0.2314-0.4424-0.5166-0.6865-0.5273
		c-1.2383-0.0537-2.4824-0.0547-3.7207,0.001c-0.2402,0.0107-0.6035,0.3096-0.6738,0.5469c-0.2705,0.9053-0.502,1.833-0.626,2.7676
		c-0.0459,0.3477,0.1416,0.8643,0.4053,1.084c0.3652,0.3027,0.3848,0.5723,0.2861,0.9473
		c-0.5439,2.0781-0.5439,2.0781-2.7441,2.0781c-1.3467,0-2.6943-0.0342-4.0391,0.0156c-0.6064,0.0225-0.8662-0.1904-0.9277-0.7656
		c-0.0332-0.3125-0.1279-0.6162-0.1914-0.9248c-0.1484-0.7168-0.3516-1.3887,0.6221-1.7988c0.335-0.1396,0.5479-0.752,0.6689-1.1895
		c1.4248-5.1748,2.8232-10.3579,4.2227-15.541c0.1357-0.5054,0.25-1.02,0.3262-1.5381c0.082-0.5601-0.0684-1.0381-0.6064-1.3491
		c-0.1289-0.0747-0.2881-0.2988-0.2607-0.4131c0.1777-0.7407,0.373-1.4829,0.6377-2.1958c0.0605-0.1621,0.418-0.2988,0.6406-0.3013
		c2.7461-0.0195,5.4922-0.0059,8.2383-0.0195c0.4463-0.0024,0.6797,0.1489,0.7686,0.5967c0.0859,0.438,0.2178,0.8691,0.3682,1.29
		c0.1797,0.5059,0.1729,0.8359-0.3027,1.2788c-0.3291,0.3071-0.4639,1.0952-0.3379,1.5781
		c1.4375,5.5273,2.9385,11.0361,4.4307,16.5479C98.5557,23.0503,98.9932,23.7192,99.9434,23.9741 M89.333,1.7944
		c-1.082,0-2.166-0.0303-3.2461,0.0181c-0.3174,0.0151-0.7803,0.168-0.9014,0.4009c-0.2109,0.4028-0.4189,0.8799,0.0215,1.3828
		c0.4805,0.5532,0.623,1.2412,0.4199,1.9961c-1.5684,5.8442-3.1113,11.6953-4.7002,17.5332
		c-0.1299,0.4775-0.457,0.9893-0.8428,1.2891c-0.5234,0.4063-0.2969,0.8301-0.1543,1.1904c0.0898,0.2275,0.4873,0.459,0.7539,0.4688
		c1.3711,0.0469,2.7451,0.0332,4.1172,0.0176c0.8662-0.0098,1.3428-0.9434,0.8271-1.668c-0.4404-0.6182-0.4824-1.2783-0.3467-1.9609
		c0.2217-1.1084,0.5117-2.2031,0.7402-3.3086c0.0996-0.4795,0.3369-0.6406,0.8193-0.6338c1.6367,0.0234,3.2734,0.0264,4.9102-0.001
		c0.5371-0.0088,0.7344,0.207,0.8311,0.7109c0.1914,1.0068,0.4463,2.001,0.6758,3c0.1826,0.7979,0.1787,1.5381-0.3516,2.252
		c-0.4551,0.6143,0.0527,1.5967,0.7969,1.6064c1.4248,0.0195,2.8506,0.0273,4.2744-0.0146c0.2412-0.0078,0.6309-0.251,0.6758-0.4473
		c0.0781-0.3486,0.0303-0.7842-0.1182-1.1133c-0.2549-0.5596-0.7705-1.0264-0.9287-1.6006
		c-1.5381-5.5781-3.0283-11.1694-4.5205-16.7593c-0.251-0.9409-0.2676-1.8447,0.3926-2.6958
		c0.4951-0.6382-0.083-1.6489-0.8984-1.6592C91.498,1.7852,90.415,1.7954,89.333,1.7944"/>
	<path clip-path="url(#SVGID_2_)" fill="#AE9835" d="M64.2148,24.0894c1.377-0.417,1.4883-1.4629,1.4912-2.5166
		c0.0156-4.9346,0.0068-9.8696,0.0078-14.8057c0-0.3433,0.0205-0.686,0.0059-1.0293c-0.0361-0.8979-0.4229-1.4761-1.2656-1.6919
		c-0.5059-0.1299-0.6152-0.2842-0.4849-0.8032c0.5737-2.3018,0.5547-2.3057,2.9409-2.3047c1.9531,0.001,3.9121-0.0972,5.8564,0.0337
		c1.3477,0.0903,2.7373,0.3223,3.9961,0.791c2.9307,1.0923,4.3398,3.418,4.5107,6.458c0.0664,1.1904-0.0605,2.4351-0.3496,3.5933
		c-0.6865,2.7471-2.9668,4.5244-6.001,4.835c-0.9658,0.0996-1.9404,0.1436-2.9131,0.165c-0.5059,0.0098-0.7021,0.1836-0.6934,0.6992
		c0.0234,1.5293-0.0146,3.0615,0.0244,4.5918c0.0205,0.7754,0.1914,1.5195,0.9951,1.9297c0.1094,0.0566,0.1445,0.2822,0.1855,0.4365
		c0.0156,0.0635-0.0498,0.1465-0.0693,0.2227c-0.5908,2.2588-0.5908,2.2588-2.9033,2.2588c-1.293,0-2.5869-0.0205-3.8799,0.0117
		c-0.4775,0.0117-0.7339-0.1416-0.8481-0.6045C64.6411,25.6235,64.4321,24.895,64.2148,24.0894 M69.1768,1.6128
		c-0.0059,0.061-0.0117,0.1221-0.0176,0.1831c-1.0566,0-2.1113,0.0098-3.167-0.0049c-0.4951-0.0073-0.75,0.166-0.8838,0.6831
		c-0.1245,0.4746-0.1313,0.7617,0.3418,1.042c0.7871,0.4668,1.126,1.2256,1.126,2.1328c0,5.436-0.002,10.8721-0.0039,16.3076
		c0,0.9336-0.2285,1.793-0.9619,2.4141c-0.4951,0.418-0.2061,0.8428-0.0391,1.2041c0.0938,0.2021,0.4707,0.377,0.7256,0.3828
		c1.3711,0.0371,2.7441,0.0381,4.1152,0.002c0.2871-0.0078,0.7627-0.1738,0.8115-0.3574c0.1084-0.4043,0.0693-0.8828-0.0381-1.2979
		c-0.1807-0.6963-0.6299-1.3574-0.668-2.0479c-0.1016-1.8428-0.0313-3.6934-0.0576-5.54c-0.0078-0.5332,0.1543-0.7461,0.7207-0.748
		c1.0781-0.0039,2.1611-0.0361,3.2324-0.1514c1.5928-0.1709,3.0967-0.6035,4.2832-1.79c1.1953-1.1948,1.5488-2.6968,1.6787-4.311
		c0.292-3.6309-1.1641-6.5601-4.8672-7.418C73.4551,1.8228,71.291,1.8257,69.1768,1.6128"/>
	<path clip-path="url(#SVGID_2_)" fill="#AE9835" d="M120.5654,3.8745c0.2549-0.9282,0.4443-1.7461,0.7207-2.5342
		c0.0674-0.189,0.4238-0.3901,0.6514-0.3931c2.1377-0.0298,4.2754-0.0317,6.4141,0.0039c0.2246,0.0039,0.5576,0.2593,0.6455,0.4771
		c0.2451,0.6069,0.4297,1.2471,0.5449,1.8911c0.0352,0.1978-0.1748,0.5752-0.3623,0.6538
		c-0.9609,0.4053-1.2666,0.7793-1.2656,1.7622c0.002,5.1211,0.001,10.2417,0.0146,15.3638c0.001,0.5498,0.0313,1.1123,0.1504,1.6465
		c0.0811,0.3643,0.2529,0.8418,0.5361,1.0049c0.6279,0.3604,0.5361,0.7842,0.3818,1.3242c-0.5352,1.876-0.5244,1.8789-2.4902,1.8779
		c-1.3457,0-2.6924-0.0146-4.0381,0.0078c-0.4746,0.0078-0.7188-0.1426-0.8232-0.6299c-0.1543-0.7158-0.3828-1.415-0.5879-2.1523
		c1.0664-0.4941,1.2471-1.3945,1.2471-2.3906c0.001-5.3857-0.0107-10.7705,0.0186-16.1553
		C122.3291,4.4741,121.6396,4.0723,120.5654,3.8745 M125.1904,1.7983c-0.8447,0-1.6904,0.0132-2.5342-0.0049
		c-0.5-0.0112-0.6768,0.2646-0.7998,0.6948c-0.1191,0.415-0.1875,0.7251,0.2881,0.9902c0.7617,0.4238,1.0586,1.1387,1.0381,1.9956
		c-0.0146,0.5542-0.0371,1.1084-0.0361,1.6611c0.0049,4.751,0.0127,9.5029,0.0225,14.2539c0.002,1.0908-0.0586,2.1357-0.8115,3.0605
		c-0.1973,0.2412-0.0498,0.8418,0.0762,1.2324c0.0508,0.1582,0.4658,0.2764,0.7178,0.2813c1.3193,0.0273,2.6396,0.0313,3.959-0.0029
		c0.2588-0.0068,0.6768-0.1641,0.7354-0.3438c0.1221-0.3799,0.2246-0.9424,0.0313-1.2109
		c-0.5527-0.7715-0.8057-1.5938-0.8066-2.5088c-0.0098-5.4639-0.0049-10.9277-0.0146-16.3916
		c-0.002-0.8608,0.2998-1.5762,1.0352-2.0059c0.5107-0.2983,0.4053-0.6284,0.3047-1.062c-0.1104-0.4731-0.3594-0.6553-0.8301-0.645
		C126.7744,1.8091,125.9824,1.7974,125.1904,1.7983"/>
	<path clip-path="url(#SVGID_2_)" fill="#AE9835" d="M107.1064,8.6836c0-0.9487-0.0293-1.8989,0.0215-2.8447
		c0.0117-0.2241,0.2939-0.6201,0.4512-0.6201c1.0215,0.002,2.0723-0.04,3.0566,0.1802c1.8652,0.417,2.707,1.854,2.5166,3.9736
		c-0.1455,1.5991-1.3701,2.7163-3.1699,2.8364c-0.7617,0.0498-1.5283,0-2.292,0.021c-0.4531,0.0127-0.5986-0.189-0.5908-0.6201
		C107.1191,10.6348,107.1064,9.6597,107.1064,8.6836 M108.0791,8.7129c0,0.2627,0,0.5259,0,0.7891
		c0.001,2.1606,0.0244,2.1797,2.2227,1.7437c1.3271-0.2627,1.9346-0.9639,2.0137-2.3237c0.0732-1.2832-0.5938-2.3379-1.7803-2.6519
		c-0.6006-0.1592-1.2432-0.1563-1.8672-0.2173c-0.4424-0.043-0.6064,0.1738-0.5928,0.6079
		C108.0947,7.3438,108.0801,8.0288,108.0791,8.7129"/>
	<path clip-path="url(#SVGID_2_)" fill="#AE9835" d="M30.4067,15.313h-4.7881c0.7451-3.2222,1.4692-6.3511,2.1934-9.48l0.3999-0.001
		C28.938,8.9688,29.6636,12.105,30.4067,15.313 M29.2549,14.3486c-0.3789-1.6538-0.7441-3.25-1.1099-4.8457
		c-0.0874,0-0.1753,0-0.2632,0c-0.3662,1.5889-0.7329,3.1768-1.1182,4.8457H29.2549z"/>
	<path clip-path="url(#SVGID_2_)" fill="#AE9835" d="M89.4688,5.6978c0.7578,3.2822,1.4834,6.4243,2.2354,9.6836
		c-1.5088,0-2.8955,0.0146-4.2813-0.0225c-0.1494-0.0039-0.4404-0.3418-0.4121-0.4678c0.666-2.9683,1.3652-5.9282,2.0654-8.8882
		C89.0908,5.9458,89.1914,5.9102,89.4688,5.6978 M90.5596,14.4092c-0.3994-1.7212-0.7666-3.311-1.1357-4.9014
		c-0.0918,0.0054-0.1826,0.0093-0.2734,0.0142c-0.3594,1.5942-0.7188,3.189-1.0908,4.8442c0.3652,0.021,0.5449,0.0396,0.7256,0.042
		C89.3076,14.4121,89.8301,14.4092,90.5596,14.4092"/>
	<path clip-path="url(#SVGID_2_)" fill="#AE9835" d="M70.4678,8.7988c0.001-0.9751,0.0127-1.9512-0.0039-2.9258
		c-0.0078-0.46,0.1426-0.7051,0.6377-0.6543c0.7822,0.0801,1.5869,0.061,2.3447,0.2451c1.8174,0.4409,2.9512,1.999,2.749,3.6318
		c-0.2842,2.2842-1.4609,3.4111-3.7441,3.4253c-2.3877,0.0137-1.9326,0.374-1.9824-1.9019
		C70.4561,10.0127,70.4668,9.4058,70.4678,8.7988 M71.3232,8.894c0,0.3418,0,0.6841,0,1.0259c0,1.9258,0.1582,2.0498,2.0566,1.5762
		c0.9043-0.2271,1.5488-0.7344,1.8027-1.6763c0.5967-2.209-1.2139-4.1001-3.4795-3.5981c-0.1582,0.0352-0.3496,0.3481-0.3613,0.542
		C71.2988,7.4717,71.3252,8.1841,71.3232,8.894"/>
</g>
</svg>
