<?xml version="1.0" encoding="utf-8"?>
<!-- Generator: Adobe Illustrator 15.0.0, SVG Export Plug-In . SVG Version: 6.00 Build 0)  -->
<!DOCTYPE svg PUBLIC "-//W3C//DTD SVG 1.1//EN" "http://www.w3.org/Graphics/SVG/1.1/DTD/svg11.dtd">
<svg version="1.1" id="Слой_1" xmlns="http://www.w3.org/2000/svg" xmlns:xlink="http://www.w3.org/1999/xlink" x="0px" y="0px"
	 width="150.3662px" height="19.3755px" viewBox="0 0 150.3662 19.3755" enable-background="new 0 0 150.3662 19.3755"
	 xml:space="preserve">
<g>
	<defs>
		<rect id="SVGID_1_" y="0.0005" width="150.3662" height="19.375"/>
	</defs>
	<clipPath id="SVGID_2_">
		<use xlink:href="#SVGID_1_"  overflow="visible"/>
	</clipPath>
	<path clip-path="url(#SVGID_2_)" fill="#0678BE" d="M0,7.1284c0.1021-0.4722,0.187-0.9482,0.3091-1.415
		c0.7979-3.0469,3.1611-5.1401,6.291-5.5449c0.7568-0.0981,1.5249-0.145,2.2881-0.1553c1.7246-0.022,3.4497-0.0068,5.1748-0.0068
		h0.4678c-0.459,2.0342-0.9077,4.02-1.3647,6.0371c-0.1538,0-0.292,0-0.4312,0c-1.5068,0.0029-3.0146,0.002-4.5229,0.0107
		C7.5078,6.0596,6.873,6.2446,6.415,6.8271C5.8911,7.4956,6.021,8.4043,6.7529,8.8394c0.292,0.1738,0.668,0.2788,1.0093,0.2861
		c1.3789,0.0317,2.7588,0.0127,4.1396,0.0127c0.1641,0,0.3281,0,0.5542,0c-0.1563,0.7114-0.2988,1.3779-0.4492,2.0439
		c-0.2759,1.2314-0.5659,2.459-0.8286,3.6943c-0.0713,0.334-0.207,0.4443-0.5581,0.4346c-1.4292-0.0342-2.8579,0.0527-4.2803-0.2041
		c-3.23-0.584-5.4849-2.7852-6.1021-6.0146C0.147,8.6182,0.0791,8.1416,0,7.6655C0,7.4863,0,7.3076,0,7.1284"/>
	<path clip-path="url(#SVGID_2_)" fill="#0678BE" d="M16.0698,0.0117c2.0771,0.0068,4.1284-0.1602,6.0962,0.5771
		c2.8462,1.0669,4.457,3.1748,4.9521,6.1079c0.5576,3.3149-1.8003,6.9814-5.0732,8.0752c-1.0498,0.3516-2.1338,0.5088-3.2349,0.5234
		c-0.3618,0.0039-0.5039,0.1006-0.5791,0.458c-0.2339,1.1221-0.5078,2.2373-0.769,3.3545c-0.02,0.0859-0.0547,0.168-0.0889,0.2676
		h-5.7109c0.166-0.7393,0.3247-1.4541,0.4888-2.168c0.5811-2.5342,1.1733-5.0654,1.7383-7.603
		c0.083-0.3706,0.231-0.479,0.6021-0.4746c1.6216,0.021,3.2446,0.0137,4.8667,0.0068c0.8711-0.0039,1.4653-0.4922,1.6123-1.3301
		C21,7.6299,20.9819,7.4175,20.9102,7.2559c-0.3833-0.8652-1.1133-1.189-2.0073-1.2002c-1.2388-0.0151-2.478-0.0088-3.7168-0.0122
		c-0.1392-0.001-0.2778,0-0.4683,0C15.1709,4.0186,15.6162,2.0356,16.0698,0.0117"/>
	<path clip-path="url(#SVGID_2_)" d="M111.252,8.2476c0.5947-1.1221,1.2002-2.2388,1.7803-3.3691
		c0.1563-0.3057,0.333-0.4448,0.6963-0.4277c0.7617,0.0327,1.5254,0.0098,2.3418,0.0098c-0.1816,0.77-0.3506,1.4844-0.5186,2.1982
		c-0.3008,1.2739-0.6123,2.5449-0.8955,3.8232c-0.0547,0.2451-0.1563,0.3057-0.3838,0.2998
		c-0.457-0.0127-0.9131-0.0039-1.4219-0.0039c0.166-0.7354,0.3223-1.4253,0.4775-2.1152c0.1533-0.6802,0.3057-1.3608,0.4023-2.0732
		c-0.0605,0.1074-0.123,0.2124-0.1816,0.3193c-0.6543,1.1948-1.3135,2.3877-1.957,3.5898c-0.1123,0.21-0.2383,0.2949-0.4746,0.2842
		c-0.3818-0.0186-0.7676-0.0244-1.1494,0.001c-0.3047,0.0195-0.3877-0.0908-0.3975-0.3877
		c-0.0459-1.2622-0.1152-2.5244-0.1807-3.8774c-0.0654,0.1489-0.1074,0.2183-0.127,0.2939
		c-0.3105,1.2183-0.6221,2.437-0.9258,3.6577c-0.0518,0.2119-0.1348,0.3271-0.3838,0.3135
		c-0.3936-0.0225-0.7881-0.0059-1.2568-0.0059c0.1221-0.5313,0.2305-1.019,0.3457-1.5063c0.3545-1.5098,0.709-3.019,1.0762-4.5249
		c0.0254-0.1069,0.1465-0.271,0.2266-0.2729c0.8525-0.02,1.7051-0.0122,2.5869-0.0122c0.0781,1.2852,0.1543,2.5293,0.2305,3.7729
		C111.1914,8.2388,111.2217,8.2437,111.252,8.2476"/>
	<path clip-path="url(#SVGID_2_)" d="M41.0586,10.9927c-0.4531-0.0615-0.917-0.0811-1.356-0.1953
		c-1.5591-0.4082-2.2817-1.6694-1.8521-3.2266c0.4712-1.7051,1.7163-2.5981,3.335-3.0381c1.0713-0.291,2.1479-0.2637,3.186,0.1782
		c1.252,0.5342,1.7959,1.4302,1.3232,3C45.0396,9.8828,43.4458,10.9458,41.0586,10.9927 M41.3315,9.4707
		c0.2383-0.0327,0.4819-0.043,0.7134-0.1021c0.9639-0.2446,1.3867-0.959,1.5947-1.8608c0.167-0.7271-0.208-1.3979-0.9199-1.6118
		c-1.125-0.3369-2.4399,0.4551-2.7881,1.667C39.6338,8.603,40.2217,9.5698,41.3315,9.4707"/>
	<path clip-path="url(#SVGID_2_)" d="M124.4561,7.002c0.0889,1.1089-0.4561,1.9946-1.3076,2.7261
		c-1.3477,1.1582-2.9346,1.4512-4.623,1.1104c-1.7861-0.3594-2.5635-1.9976-1.8584-3.7524c0.3145-0.7842,0.8545-1.3862,1.5605-1.833
		c1.4219-0.8979,2.9482-1.1611,4.5654-0.6411C124.0186,5.0068,124.457,5.6489,124.4561,7.002 M120.1055,9.4648
		c1.2236,0.082,1.9707-0.9482,2.1777-1.7461c0.2402-0.9199-0.2324-1.6958-1.1182-1.874c-1.1797-0.2378-2.6035,0.917-2.626,2.127
		c-0.0146,0.771,0.2549,1.2192,0.8896,1.4131C119.6426,9.4497,119.8799,9.4399,120.1055,9.4648"/>
	<path clip-path="url(#SVGID_2_)" d="M59.4722,4.6494c-0.0791,0.521-0.1504,0.9951-0.229,1.5142
		c-0.543-0.105-1.0591-0.2412-1.583-0.2988c-1.1821-0.1323-2.2319,0.1387-2.9883,1.1377c-0.3569,0.4712-0.4517,1.022-0.3799,1.5962
		c0.0498,0.4019,0.2969,0.7241,0.6772,0.7979c0.4897,0.0952,1.002,0.083,1.5049,0.0869c0.0889,0.001,0.2227-0.1279,0.2578-0.2246
		c0.084-0.2354,0.1221-0.4863,0.186-0.7681c-0.2739-0.0181-0.5078-0.0332-0.771-0.0503c0.082-0.3979,0.145-0.771,0.2432-1.1338
		c0.0249-0.0898,0.1606-0.2109,0.2471-0.2129c0.8667-0.0161,1.7329-0.0103,2.6646-0.0103c-0.1196,0.5459-0.23,1.0503-0.3408,1.5532
		c-0.1289,0.583-0.2471,1.1699-0.3999,1.7456c-0.0332,0.125-0.187,0.293-0.3042,0.3105c-1.2749,0.1836-2.5518,0.3643-3.8457,0.1973
		c-1.6069-0.208-2.5142-1.5073-2.1582-3.1138c0.4072-1.833,1.6841-2.7739,3.3911-3.251c1.0361-0.2886,2.0728-0.1567,3.1069,0.0244
		C58.9741,4.5884,59.2002,4.6128,59.4722,4.6494"/>
	<path clip-path="url(#SVGID_2_)" d="M90.7764,10.7769c0.7031-0.9541,1.3506-1.8364,2.001-2.7163
		c0.8193-1.1089,1.6445-2.2129,2.458-3.3262c0.1514-0.2065,0.3184-0.2886,0.5762-0.2798c0.5615,0.019,1.125,0.0259,1.6865-0.002
		c0.3418-0.0171,0.4619,0.0679,0.5273,0.4351c0.3525,1.9497,0.748,3.8911,1.1406,5.8872c-0.6719,0-1.3564,0.0078-2.04-0.0127
		c-0.0703-0.002-0.1787-0.1543-0.1973-0.252c-0.0938-0.4995-0.1641-1.0039-0.248-1.5405c-0.7588,0-1.5107-0.0083-2.2617,0.0088
		c-0.0947,0.0029-0.2109,0.1201-0.2764,0.2139c-0.3145,0.4482-0.6084,0.9121-0.9277,1.3579
		c-0.0723,0.1016-0.21,0.2129-0.3203,0.2158C92.2197,10.7866,91.5449,10.7769,90.7764,10.7769 M96.3037,5.9165
		c-0.4297,0.5962-0.8008,1.1089-1.1992,1.6592h1.4473C96.4717,7.0366,96.3945,6.5225,96.3037,5.9165"/>
	<path clip-path="url(#SVGID_2_)" d="M67.5518,10.7495h-2.207c-0.0811-0.4819-0.1792-0.9658-0.2393-1.4541
		c-0.0308-0.2588-0.1318-0.3398-0.3877-0.333c-0.6133,0.0171-1.2271-0.0068-1.8394,0.0161
		c-0.1348,0.0049-0.3101,0.1021-0.3916,0.2119c-0.3184,0.4302-0.6162,0.877-0.9004,1.3306c-0.125,0.1982-0.272,0.2666-0.501,0.2617
		c-0.623-0.0137-1.2456-0.0049-1.9268-0.0049c0.063-0.1221,0.0908-0.1992,0.1377-0.2627c1.4302-1.9414,2.8594-3.8848,4.3013-5.8184
		c0.0889-0.1191,0.2798-0.2202,0.4277-0.2261c0.6504-0.0239,1.3022-0.0049,1.9541-0.0142c0.1973-0.002,0.291,0.0513,0.334,0.2622
		c0.397,1.9429,0.8071,3.8828,1.2119,5.8228C67.5366,10.5913,67.5386,10.6411,67.5518,10.7495 M64.9307,7.5815
		c-0.1099-0.5571-0.21-1.0698-0.3281-1.666c-0.4067,0.5923-0.7607,1.1079-1.145,1.666H64.9307z"/>
	<path clip-path="url(#SVGID_2_)" d="M74.3213,10.7046c0.48-2.0024,0.9531-3.9912,1.4424-5.9771
		c0.0264-0.106,0.1826-0.2554,0.2793-0.2554c1.6865-0.0137,3.3711-0.0078,5.0557-0.0039c0.0244,0,0.0479,0.0171,0.124,0.0474
		c-0.0977,0.3926-0.1855,0.7979-0.3105,1.1909c-0.0225,0.0659-0.207,0.1118-0.3174,0.1128
		c-0.8809,0.0093-1.7617,0.0142-2.6416-0.001c-0.2734-0.0039-0.4277,0.0479-0.4551,0.355
		c-0.0186,0.2329-0.1035,0.4609-0.1699,0.7329h2.7598c-0.0898,0.48-0.1729,0.918-0.2598,1.3779h-2.8037
		c-0.0918,0.3633-0.1768,0.7031-0.2773,1.103h3.2822c-0.0811,0.4321-0.1387,0.8071-0.2305,1.1719
		c-0.0225,0.0879-0.1631,0.208-0.25,0.208c-1.71,0.0098-3.4209,0.0029-5.1309-0.0029C74.397,10.7642,74.376,10.7397,74.3213,10.7046
		"/>
	<path clip-path="url(#SVGID_2_)" d="M146.7158,5.8252c-0.0889,0.3682-0.1719,0.708-0.2617,1.082h2.7725
		c-0.0947,0.4741-0.1807,0.9111-0.2715,1.3701h-2.8008c-0.0889,0.3691-0.1738,0.7188-0.2734,1.123h3.3467
		c-0.1074,0.4277-0.1924,0.8091-0.3057,1.1812c-0.0234,0.0801-0.1465,0.1855-0.2246,0.1865c-1.71,0.0068-3.4209,0.001-5.1318-0.0039
		c-0.0215,0-0.042-0.0234-0.0938-0.0537c0.4863-2.064,0.9746-4.1372,1.4668-6.2241h5.4277
		c-0.1172,0.459-0.2266,0.8848-0.3408,1.3389H146.7158z"/>
	<path clip-path="url(#SVGID_2_)" d="M143.8984,4.4604c-0.2764,0.3657-0.5068,0.6509-0.7178,0.9497
		c-1.1865,1.6763-2.375,3.353-3.5508,5.0376c-0.1709,0.2451-0.3574,0.3496-0.6602,0.3379
		c-0.5869-0.0254-1.1758-0.0137-1.7627-0.0049c-0.1973,0.0029-0.3184-0.0449-0.3291-0.2656
		c-0.0801-1.6387-0.5469-3.207-0.877-4.8008c-0.0811-0.394-0.1123-0.7988-0.1699-1.23h2.1865
		c0.1865,1.522,0.3721,3.0352,0.5664,4.6157c0.1035-0.1387,0.1797-0.231,0.2451-0.3296c0.877-1.332,1.7588-2.6611,2.6221-4.0024
		c0.1504-0.2349,0.3115-0.3228,0.5859-0.314C142.623,4.4741,143.209,4.4604,143.8984,4.4604"/>
	<path clip-path="url(#SVGID_2_)" d="M87.7383,8.5894c-0.1611,0.6333-0.334,1.2554-0.4727,1.8838
		c-0.0518,0.2344-0.1426,0.3164-0.3809,0.3096c-0.5303-0.0166-1.0625-0.0049-1.6445-0.0049
		c0.2744-0.9824,0.5322-1.9072,0.791-2.8335c0.2969-1.063,0.5898-2.1279,0.9023-3.188c0.0332-0.1147,0.1738-0.2837,0.2627-0.2817
		c1.2598,0.0259,2.5303-0.0073,3.7764,0.145c1.3779,0.168,1.7568,0.939,1.1895,2.313c-0.3115,0.7549-0.9707,1.1621-1.7236,1.3228
		c-0.8174,0.1743-1.6602,0.2192-2.4922,0.3203C87.8848,8.5835,87.8213,8.5845,87.7383,8.5894 M88.2227,7.3423
		c0.6826,0.0684,1.2979,0.0601,1.7803-0.4497c0.3594-0.3789,0.3525-0.9731-0.0645-1.147c-0.3613-0.1509-0.7842-0.1572-1.1826-0.2119
		c-0.0459-0.0063-0.1396,0.0747-0.1523,0.1299C88.4707,6.2144,88.3506,6.7695,88.2227,7.3423"/>
	<path clip-path="url(#SVGID_2_)" d="M36.9233,9.3184c-0.1401,0.4268-0.2813,0.8706-0.437,1.3101
		c-0.0244,0.0684-0.1123,0.1523-0.1802,0.1631c-0.9741,0.1436-1.9551,0.2783-2.9282,0.0449
		C31.7373,10.4399,30.978,9.061,31.48,7.3901c0.4673-1.5552,1.6221-2.3818,3.1089-2.8271c1.0845-0.3247,2.1621-0.2188,3.2681,0.0352
		c-0.0537,0.48-0.1069,0.9429-0.166,1.4639c-0.4019-0.0718-0.7837-0.1367-1.1641-0.208c-1.3735-0.2568-2.8027,0.6504-3.0708,1.9531
		c-0.1748,0.8472,0.4102,1.7148,1.3159,1.6401C35.479,9.3892,36.188,9.3613,36.9233,9.3184"/>
	<path clip-path="url(#SVGID_2_)" d="M70.1895,5.8198h-2.0405c0.0869-0.4204,0.1489-0.8091,0.2607-1.1831
		c0.0249-0.085,0.2241-0.168,0.3442-0.1689c1.52-0.0112,3.0386-0.0073,4.5586-0.0073c0.4453,0,0.8901,0,1.4033,0
		c-0.127,0.478-0.2422,0.9111-0.3613,1.3613h-2.042c-0.2109,0.875-0.417,1.7368-0.624,2.5977
		c-0.166,0.6924-0.3247,1.3862-0.5049,2.0742c-0.0278,0.1074-0.1499,0.2656-0.2329,0.2686
		c-0.6108,0.0244-1.2222,0.0137-1.897,0.0137C69.4336,9.1157,69.8047,7.4995,70.1895,5.8198"/>
	<path clip-path="url(#SVGID_2_)" d="M102.7344,9.3921h3.0127c-0.1094,0.4312-0.1953,0.811-0.3066,1.1816
		c-0.0254,0.082-0.1436,0.1934-0.2188,0.1934c-1.6328,0.0107-3.2656,0.0088-4.9619,0.0088
		c0.1221-0.5449,0.2305-1.0488,0.3496-1.5508c0.3506-1.4839,0.7129-2.9648,1.0518-4.4521c0.0527-0.231,0.126-0.3237,0.3691-0.3179
		c0.585,0.0151,1.1709,0.0049,1.8369,0.0049C103.4863,6.1182,103.1162,7.729,102.7344,9.3921"/>
	<path clip-path="url(#SVGID_2_)" d="M128.333,4.4609c-0.3857,1.6772-0.7559,3.2813-1.1367,4.9351h3.0117
		c-0.0967,0.4819-0.1826,0.9111-0.2725,1.3564h-5.1504c0.1475-0.6255,0.2852-1.2153,0.4248-1.8057
		c0.3291-1.397,0.6563-2.7959,0.998-4.1899c0.0283-0.1128,0.1631-0.2788,0.2539-0.2827
		C127.0605,4.4492,127.6582,4.4609,128.333,4.4609"/>
	<path clip-path="url(#SVGID_2_)" d="M49.707,4.4604c-0.377,1.665-0.7407,3.271-1.1167,4.9316h2.9839
		c-0.106,0.4473-0.1899,0.8413-0.2998,1.2285c-0.019,0.0674-0.145,0.1484-0.2222,0.1494c-1.6069,0.0078-3.2148,0.0059-4.876,0.0059
		c0.1851-0.8076,0.3569-1.5708,0.5352-2.3315c0.2778-1.189,0.5669-2.375,0.834-3.5659c0.0679-0.3052,0.1768-0.4512,0.5239-0.4272
		C48.5903,4.4863,49.1143,4.4604,49.707,4.4604"/>
	<path clip-path="url(#SVGID_2_)" d="M131.2764,10.7749c0.4854-2.0576,0.9561-4.0327,1.4141-6.0117
		c0.0518-0.228,0.1377-0.3149,0.3779-0.3081c0.5586,0.0161,1.1201,0.0049,1.7344,0.0049c-0.0293,0.1753-0.0459,0.3184-0.0781,0.457
		c-0.4355,1.854-0.8691,3.709-1.3145,5.561c-0.0264,0.1104-0.1396,0.2813-0.2188,0.2842
		C132.5713,10.7856,131.9492,10.7749,131.2764,10.7749"/>
	<path clip-path="url(#SVGID_2_)" d="M81.3916,8.9683c0.1025-0.415,0.1885-0.7964,0.2949-1.1714
		c0.0176-0.0586,0.1279-0.1299,0.1963-0.1299c0.8145-0.0098,1.6279-0.0059,2.4961-0.0059c-0.1143,0.416-0.209,0.7939-0.3281,1.1631
		c-0.0205,0.0649-0.1416,0.1367-0.2168,0.1377C83.0332,8.9722,82.2314,8.9683,81.3916,8.9683"/>
</g>
</svg>
