<?xml version="1.0" encoding="utf-8"?>
<!-- Generator: Adobe Illustrator 15.0.0, SVG Export Plug-In . SVG Version: 6.00 Build 0)  -->
<!DOCTYPE svg PUBLIC "-//W3C//DTD SVG 1.1//EN" "http://www.w3.org/Graphics/SVG/1.1/DTD/svg11.dtd">
<svg version="1.1" id="Слой_1" xmlns="http://www.w3.org/2000/svg" xmlns:xlink="http://www.w3.org/1999/xlink" x="0px" y="0px"
	 width="129.5264px" height="23.4727px" viewBox="0 0 129.5264 23.4727" enable-background="new 0 0 129.5264 23.4727"
	 xml:space="preserve">
<g>
	<defs>
		<rect id="SVGID_1_" y="-0.0005" width="129.5264" height="23.4731"/>
	</defs>
	<clipPath id="SVGID_2_">
		<use xlink:href="#SVGID_1_"  overflow="visible"/>
	</clipPath>
	<path clip-path="url(#SVGID_2_)" fill="#ED1C24" d="M66.5293,14.7451c-0.0977-0.4697-0.1953-0.9395-0.3154-1.5186
		c-0.7578,0-1.5508,0.0713-2.3228-0.0244c-0.5898-0.0732-1.2559-0.2324-1.6958-0.5908c-0.3682-0.3003-0.6772-0.98-0.6011-1.4209
		c0.062-0.3613,0.7349-0.8833,1.126-0.8721c1.103,0.0288,2.1997,0.2949,3.3179,0.4707c-0.1543-0.356-0.3857-0.8887-0.6152-1.416
		c1.1914-0.9058,1.4805-0.8296,1.791,0.5303c0.1504,0.6592,0.1963,1.3418,0.3057,2.1328c0.7607-0.0967,1.4834-0.189,2.2852-0.291
		c-1.3623-3.187-1.3242-6.1748,0.8115-8.9248c1.3926-1.793,3.1006-2.7471,4.6543-2.6401c-0.1885,1.6919-0.5049,3.3823-0.5293,5.0752
		c-0.0254,1.6787,0.2432,3.3628,0.3994,5.252c1.8096-1.334,3.2158-3.082,5.4971-3.4883c-0.4346,1.0654-0.9297,1.9121-1.1221,2.8242
		c-0.3896,1.8521,0.75,3.3911,2.2715,3.2622c1.0928-0.0928,2.1309-1.7222,1.6621-2.6763c-0.0918-0.188-0.4453-0.3159-0.6934-0.3481
		c-0.9854-0.125-1.8047-0.5166-1.8525-1.5898c-0.0176-0.4028,0.4092-1.062,0.7832-1.2021c1.0088-0.3779,1.6865,0.2803,2.21,1.085
		c0.1338,0.207,0.249,0.4282,0.4072,0.7041c0.3926-0.1021,0.7656-0.2026,1.1406-0.2959c0.8408-0.21,1.1816-0.6621,1.1865-1.6079
		c0.0068-1.458,0.1904-2.9272,0.4375-4.3682c0.1025-0.6021,0.4395-1.2881,0.8936-1.6729c0.4883-0.4141,1.3115-0.8071,1.8535-0.6709
		c0.4463,0.1118,0.9365,0.9868,0.9883,1.562c0.1611,1.769-0.2813,3.5107-1.4375,4.8438c-1.2734,1.4683-0.7773,3.0503-0.6719,4.6821
		c0.5527-0.9458,1.0957-1.8979,1.6641-2.834c0.2412-0.3979,0.4668-0.8599,0.8242-1.1182c0.3662-0.2617,0.9648-0.522,1.3164-0.3911
		c0.3467,0.1284,0.6973,0.7344,0.7246,1.1523c0.0908,1.355,0.0332,2.7188,0.2793,4.1934c0.583-0.9077,1.1699-1.8115,1.748-2.7217
		c0.4043-0.6367,0.708-1.3696,1.2236-1.895c0.3975-0.4058,1.0879-0.7969,1.5879-0.7319c0.3262,0.042,0.7109,0.8892,0.7793,1.4131
		c0.125,0.9531,0.0361,1.9351,0.2197,2.9883c0.4688-0.8013,0.9238-1.6104,1.4092-2.4004c0.3574-0.5786,0.6768-1.2188,1.1641-1.667
		c0.3057-0.2808,0.9482-0.4336,1.334-0.311c0.3096,0.0981,0.6279,0.688,0.6494,1.0752c0.0762,1.4312,0.0303,2.8682,0.0303,4.3032
		c0.1152,0.0557,0.2305,0.1123,0.3457,0.1699c1.1416-1.9199,2.2832-3.8413,3.4795-5.855c0.5059,0.9526,0.9824,1.855,1.5,2.833
		c1.7236-1.2622,3.3408-2.645,5.5645-2.6733c-0.4102,1.0439-0.9004,1.9292-1.0967,2.876c-0.3496,1.668,0.7139,3.1631,2.082,3.1543
		c1.209-0.0068,2.3389-1.5552,1.9336-2.6929c-0.0605-0.1724-0.3379-0.3184-0.543-0.3765c-0.2705-0.0757-0.6641,0.0562-0.8379-0.0947
		c-0.4561-0.3931-0.9707-0.835-1.166-1.3672c-0.1182-0.3198,0.2617-1.165,0.5166-1.209c0.5674-0.0977,1.251,0.0459,1.7822,0.3062
		c0.4063,0.1978,0.6514,0.7251,1.0508,1.2061c0.5586-0.396,1.0645-0.8701,1.6611-1.147c0.6094-0.2832,1.4092-0.6509,1.9346-0.459
		c0.4043,0.1489,0.6318,1.0869,0.7266,1.7061c0.1211,0.791,0.0293,1.6138,0.2598,2.4746c0.458-0.8276,0.9072-1.6616,1.3779-2.4829
		c0.2324-0.4048,0.4258-0.8921,0.7764-1.1528c0.4453-0.3311,1.083-0.7109,1.5439-0.6162c0.3574,0.0742,0.7607,0.8232,0.8125,1.3071
		c0.1201,1.1392,0.043,2.3003,0.0459,3.4521c0,0.2837,0,0.5679,0,1.1284c0.7188-0.5918,1.2637-1.0415,1.8096-1.4917
		c0.1064,0.1001,0.2119,0.2002,0.3184,0.3003c-0.5186,1.0361-0.9492,2.1689-2.0713,2.7666
		c-0.9131,0.4863-1.8652-0.0205-2.0098-1.0752c-0.1416-1.0254-0.0898-2.0776-0.1172-3.1187
		c-0.0098-0.3828-0.002-0.7681-0.002-1.1519c-0.0918-0.0332-0.1855-0.0669-0.2773-0.1001
		c-0.4336,0.7891-0.8799,1.5723-1.2988,2.3691c-0.4502,0.8589-0.8047,1.7788-1.3457,2.5728
		c-0.2246,0.3281-0.8281,0.5313-1.2559,0.5264c-0.1953-0.002-0.5283-0.6377-0.5488-1c-0.0684-1.2563-0.0225-2.519-0.0303-3.7793
		c-0.002-0.3809-0.0332-0.7617-0.0508-1.1548c-1.4785,0.2959-2.0791,0.9639-2.1133,2.249c-0.0596,2.2212-1.3711,3.7104-3.3193,3.77
		c-1.8564,0.0557-3.2031-1.0039-3.3945-2.8701c-0.1035-1.002,0.0869-2.0342,0.1533-3.2241
		c-0.7373,0.5742-1.5313,1.1279-2.2314,1.7832c-0.1729,0.1621-0.0039,0.6587-0.0498,0.9927
		c-0.1191,0.8574-0.1094,1.7842-0.4541,2.5439c-0.3545,0.7793-1.2344,1.0361-2.043,0.625c-0.8477-0.4287-0.7031-1.248-0.4922-1.999
		c0.0762-0.2695,0.2129-0.5586,0.4082-0.7529c0.7061-0.7007,0.3877-1.2588-0.1875-1.8618
		c-0.7607,1.1431-1.4844,2.2549-2.2373,3.3481c-0.2627,0.3828-0.5332,0.8262-0.9131,1.043
		c-0.3936,0.2236-0.9678,0.3555-1.3789,0.2373c-0.2607-0.0752-0.5049-0.6758-0.5205-1.0508
		c-0.0596-1.4248-0.0244-2.8535-0.2715-4.3877c-0.2012,0.2983-0.4297,0.5811-0.5986,0.896
		c-0.6299,1.1699-1.2451,2.3472-1.8545,3.5269c-0.3193,0.6172-0.6113,1.3184-1.4824,1.126
		c-0.8906-0.1953-0.5391-0.9785-0.5576-1.5254c-0.0459-1.2744-0.0156-2.5513-0.0156-3.8271
		c-0.0889-0.0264-0.1787-0.0522-0.2676-0.0771c-0.1621,0.1978-0.3418,0.3828-0.4824,0.5947
		c-0.9121,1.3794-1.7666,2.7998-2.7529,4.123c-0.2822,0.3789-1.0068,0.7373-1.3994,0.6299
		c-0.334-0.0898-0.6494-0.8516-0.6826-1.3369c-0.0918-1.3408-0.0322-2.6919-0.0322-4.0386c-0.1104-0.0352-0.2217-0.0703-0.332-0.104
		c-0.6328,1.1318-1.2695,2.2617-1.8945,3.3984c-0.2773,0.5029-0.4502,1.0898-0.8174,1.5098
		c-0.2803,0.3193-0.793,0.4375-1.2012,0.6455c-0.1699-0.3525-0.4697-0.7012-0.4844-1.0605
		c-0.0566-1.3926-0.0234-2.7896-0.0234-4.2793c-0.7607,0.2388-1.4023,0.4399-2.0313,0.6377
		c0.0908,3.3496-1.7178,4.8398-3.791,4.7451c-2.124-0.0977-2.9033-1.3057-3.1387-5.1099c-1.2881,1.0278-2.5459,1.834-2.2783,3.8882
		c0.3379,2.5898-0.1006,5.1709-1.3398,7.5332c-0.3281,0.627-0.7227,1.3018-1.2705,1.7061
		c-0.4912,0.3623-1.3193,0.6406-1.8408,0.4717c-0.4336-0.1396-0.8203-0.9561-0.9111-1.5244
		c-0.3613-2.2285,0.415-4.2393,1.3799-6.2031c0.2285-0.4619,0.5635-1.2266,0.3691-1.4736c-0.5576-0.71-1.0352-1.7339-2.2637-1.5176
		c-0.2461,0.043-0.5039,0.0205-0.7549,0.043c-0.7852,0.0684-1.5029,0.1816-1.4531,1.2666c0.0127,0.3008-0.25,0.6143-0.3877,0.9219
		C66.7646,14.7744,66.6475,14.7588,66.5293,14.7451 M74.2969,0.9595c-1.5107,0.4116-2.8164,2.1016-3.292,4.437
		c-0.583,2.8647-0.3721,5.5957,1.8252,7.9434c0.2607-0.5996,0.416-1.2075,0.4023-1.8125c-0.042-1.8911-0.3398-3.7979-0.1709-5.666
		C73.21,4.2241,73.8555,2.6313,74.2969,0.9595 M73.5781,13.7646c-1.584,2.1768-2.6465,4.2617-2.5371,6.7441
		c0.0215,0.4775,0.4824,0.9365,0.7402,1.4033c0.4512-0.29,0.9277-0.5488,1.3418-0.8848c0.1729-0.1396,0.2266-0.4395,0.3135-0.6729
		C74.2021,18.2568,74.0742,16.1406,73.5781,13.7646 M88.5859,6.3623c1.2334-1.8271,1.5303-4.2021,0.6895-5.2622
		C88.1738,2.7881,88.5654,4.603,88.5859,6.3623 M65.6514,12.3765c0.04-0.0723,0.0801-0.145,0.1191-0.2173
		c-0.4092-0.313-0.7793-0.7388-1.2422-0.8989c-0.3423-0.1191-0.8042,0.1099-1.2134,0.1851c0.2842,0.3101,0.5161,0.769,0.8672,0.8931
		C64.6201,12.4941,65.1572,12.3765,65.6514,12.3765"/>
	<path clip-path="url(#SVGID_2_)" fill="#ED1C24" d="M53.9341,11.564c0.6411-1.123,1.2559-2.2612,1.937-3.3589
		c0.2358-0.3804,0.582-0.7544,0.9678-0.9683c0.8081-0.4468,1.5952,0.041,1.6382,1.0161c0.0542,1.186,0.0142,2.376,0.0249,3.564
		c0.0029,0.3398,0.0449,0.6802,0.0884,1.2847c0.7197-0.6064,1.25-1.0527,1.8657-1.5708c0.0942,1.187-1.1919,3.0405-2.0762,3.2241
		c-1.0518,0.2178-1.7778-0.3213-1.8057-1.4092c-0.0332-1.3486-0.0083-2.6987-0.0083-4.0488c-0.104-0.0322-0.207-0.064-0.311-0.0962
		c-0.355,0.627-0.7227,1.2471-1.0596,1.8833c-0.5034,0.9517-0.9121,1.9639-1.5054,2.8535
		c-0.2646,0.3965-0.8809,0.5576-1.3379,0.8252c-0.1812-0.4131-0.4941-0.8184-0.5181-1.2422
		c-0.0708-1.2197-0.0127-2.4468-0.0327-3.6704c-0.0063-0.373-0.0991-0.7451-0.1543-1.1372
		c-1.6147,0.4878-1.9819,0.9351-2.0317,2.3618c-0.0723,2.0532-1.4121,3.5972-3.208,3.6987
		c-2.6089,0.1484-4.3003-2.2246-3.5249-4.9526c0.0879-0.3071,0.2065-0.606,0.1436-1.1367
		c-0.7798,0.6025-1.5815,1.1816-2.3218,1.8306c-0.1279,0.1123-0.0229,0.5244,0.019,0.79c0.1758,1.0962,0.3042,2.248-0.7061,2.9668
		c-0.4648,0.3311-1.313,0.4756-1.8369,0.2861c-0.7212-0.2598-0.749-1.0674-0.4873-1.7725c0.124-0.3335,0.2603-0.6963,0.4951-0.9473
		c0.624-0.667,0.3892-1.1919-0.2461-1.8091c-0.5459,0.8359-1.062,1.6401-1.5938,2.4341c-0.3198,0.4775-0.6592,0.9434-0.999,1.4072
		c-0.4482,0.6104-1.0708,1.2344-1.7759,0.8057c-0.436-0.2646-0.667-1.1025-0.7212-1.707c-0.1089-1.2109-0.0327-2.438-0.0327-3.9937
		c-0.3472,0.4766-0.5444,0.6919-0.6782,0.9409c-0.73,1.3618-1.396,2.7607-2.1948,4.0801c-0.2251,0.3711-0.8271,0.5146-1.2563,0.7627
		c-0.208-0.4043-0.5728-0.7998-0.5947-1.2139c-0.0752-1.3892-0.0293-2.7852-0.2432-4.2642
		c-0.1729,0.2349-0.355,0.4619-0.5151,0.7041c-0.9106,1.3809-1.7729,2.7983-2.7549,4.1265
		c-0.2607,0.3525-0.958,0.6807-1.3237,0.5732c-0.356-0.1035-0.7393-0.7676-0.77-1.21c-0.0981-1.3867-0.0361-2.7856-0.2891-4.2856
		c-0.3633,0.6211-0.7402,1.2339-1.084,1.8647c-0.5669,1.041-1.063,2.125-1.6982,3.1211c-0.1958,0.3076-0.7598,0.54-1.1348,0.5137
		c-0.207-0.0137-0.5142-0.6309-0.5303-0.9863c-0.061-1.3984-0.0249-2.8013-0.0249-4.3081
		c-0.7339,0.2427-1.3628,0.4507-1.9688,0.6509c-0.2661,3.2227-1.2993,4.7021-3.4053,4.6973
		c-0.7432-0.001-1.6211-0.1982-2.1899-0.6309c-0.5752-0.4385-0.978-1.2363-1.2051-1.9565C8.731,11.4409,8.8169,10.627,8.7559,9.71
		c-1.2275,1.0161-2.4756,1.6948-2.209,3.6309c0.353,2.5596-0.084,5.1055-1.2319,7.4521c-0.3848,0.7871-0.9341,1.5527-1.5767,2.1436
		c-1.0723,0.9863-2.27,0.5605-2.5684-0.8613c-0.3926-1.8721,0.0942-3.6416,0.8242-5.3486c0.3379-0.79,0.7661-1.541,1.207-2.417
		C0.1353,11.459-0.9888,8.0488,0.9819,4.0869C2.0439,1.9526,3.7402,0.4541,6.5161,0C5.8213,3.5469,5.7393,6.9438,6.4053,10.4448
		c1.7329-1.3208,3.1089-3.0161,5.2749-3.3701c-0.3662,1.1201-0.8413,2.126-1.0029,3.1802c-0.2212,1.436,0.644,2.6875,1.7207,2.8408
		c1.521,0.2158,2.4531-1.0127,2.1572-2.9087c-0.4028-0.0713-0.9199-0.019-1.2222-0.248c-0.498-0.3779-0.9941-0.8833-1.2178-1.4443
		c-0.1113-0.2798,0.3618-1.1338,0.604-1.1479c0.6138-0.0347,1.25,0.2461,1.8687,0.4302c0.1152,0.0342,0.2124,0.1958,0.2773,0.3198
		c0.332,0.625,0.6279,1.1479,1.5459,0.7964c0.9038-0.3472,1.3901-0.73,1.3569-1.8374c-0.04-1.3477,0.1069-2.7339,0.4111-4.0479
		c0.1831-0.792,0.71-1.584,1.2891-2.1719c0.3438-0.3491,1.1699-0.5239,1.6328-0.3623c0.397,0.1392,0.7759,0.8462,0.8359,1.3423
		c0.228,1.856-0.208,3.6719-1.4038,5.0601c-1.272,1.4761-0.811,3.0527-0.7031,4.7051c0.501-0.8442,0.9951-1.6934,1.5059-2.5313
		c0.2803-0.46,0.5132-0.9907,0.9072-1.3262c0.3667-0.312,0.9917-0.646,1.3691-0.5298c0.354,0.1079,0.7017,0.77,0.7559,1.2241
		c0.1182,0.9951,0.0439,2.0117,0.0552,3.02c0.0029,0.3149,0.0269,0.6309,0.2539,1.061c0.2769-0.417,0.563-0.8301,0.8311-1.2529
		c0.6729-1.0645,1.2637-2.1904,2.0386-3.1733c0.3662-0.4648,1.0791-0.916,1.6323-0.9131c0.7949,0.0063,0.834,0.8521,0.8491,1.5093
		c0.02,0.9277,0.0049,1.8569,0.249,2.8877c0.3525-0.6206,0.6929-1.251,1.063-1.8618c0.4087-0.6758,0.7686-1.4058,1.2979-1.9761
		c0.3149-0.3389,0.9497-0.6177,1.374-0.543c0.3257,0.0581,0.7188,0.687,0.7778,1.104c0.1333,0.9551,0.083,1.9351,0.1001,2.9063
		c0.0088,0.4497,0.002,0.9009,0.002,1.3521c0.1152,0.043,0.23,0.0859,0.3452,0.1289c1.1099-1.8789,2.2188-3.7593,3.3906-5.7441
		c0.499,0.936,0.9761,1.8301,1.5083,2.8262c1.7051-1.2432,3.3018-2.6084,5.7646-2.6792c-0.2666,0.4189-0.4097,0.6729-0.5806,0.9063
		c-0.7583,1.0347-0.8501,2.208-0.6182,3.4028c0.2319,1.1953,1.1548,1.8574,2.2358,1.7227c0.9233-0.1133,1.6113-0.9775,1.6489-2.0928
		c0.0093-0.2808-0.0269-0.564-0.0449-0.9087c-1.1128-0.1172-2.4067-0.0493-2.5127-1.5654C46,8.127,46.3921,7.4268,46.7451,7.3027
		c1.3052-0.4561,1.937,0.5342,2.6147,1.603c0.623-0.437,1.1841-0.9448,1.8394-1.2529c0.5708-0.27,1.3467-0.5698,1.8477-0.3779
		c0.3765,0.145,0.5762,1.0361,0.6475,1.6201c0.105,0.8721,0.0269,1.7666,0.0269,2.6528
		C53.792,11.5527,53.8633,11.5576,53.9341,11.564 M5.623,0.6938c-2.2368,1.1279-3.0898,2.9019-3.5107,4.897
		c-0.5894,2.7969-0.23,5.4351,1.6548,7.7803c0.7651-0.5371,0.729-1.1611,0.6938-1.8774c-0.104-2.168-0.2656-4.353-0.1011-6.5078
		C4.4619,3.6431,5.1162,2.3418,5.623,0.6938 M4.7573,13.834c-1.3252,1.5947-2.1123,3.2305-2.4434,5.0781
		c-0.1128,0.6279-0.1948,1.2939-0.0977,1.9131c0.061,0.3906,0.4229,0.9404,0.752,1.0254c0.314,0.0801,0.7847-0.3145,1.1357-0.5693
		c0.186-0.1348,0.2939-0.4043,0.3872-0.6348C5.3711,18.4795,5.2803,16.2734,4.7573,13.834 M20.5703,1.2139
		c-1.1602,1.5869-0.9443,3.3872-0.8101,5.1768C20.7651,4.791,21.2222,3.0977,20.5703,1.2139"/>
</g>
</svg>
