<?xml version="1.0" encoding="utf-8"?>
<!-- Generator: Adobe Illustrator 15.0.0, SVG Export Plug-In . SVG Version: 6.00 Build 0)  -->
<!DOCTYPE svg PUBLIC "-//W3C//DTD SVG 1.1//EN" "http://www.w3.org/Graphics/SVG/1.1/DTD/svg11.dtd">
<svg version="1.1" id="Слой_1" xmlns="http://www.w3.org/2000/svg" xmlns:xlink="http://www.w3.org/1999/xlink" x="0px" y="0px"
	 width="95.8379px" height="13.4878px" viewBox="0 0 95.8379 13.4878" enable-background="new 0 0 95.8379 13.4878"
	 xml:space="preserve">
<g>
	<defs>
		<rect id="SVGID_1_" width="95.8369" height="13.4878"/>
	</defs>
	<clipPath id="SVGID_2_">
		<use xlink:href="#SVGID_1_"  overflow="visible"/>
	</clipPath>
	<path clip-path="url(#SVGID_2_)" fill-rule="evenodd" clip-rule="evenodd" fill="#473E92" d="M44.0391,13.4878
		c3.7241,0,6.7432-3.0186,6.7432-6.7432C50.7822,3.021,47.7632,0,44.0391,0s-6.7441,3.021-6.7441,6.7446
		C37.2949,10.4692,40.3149,13.4878,44.0391,13.4878 M22.3779,6.7949c0-4.1973-2.2651-6.228-5.9619-6.228h-4.8291v12.5205h4.8643
		C20.0459,13.0874,22.3779,10.8228,22.3779,6.7949 M16.416,10.7573h-1.998V2.8989h2.0332c1.9648,0.166,3.1299,1.1641,3.1299,3.8276
		C19.5811,9.6577,18.416,10.6235,16.416,10.7573 M10.0889,9.7241C10.1558,8.0269,9.2729,6.939,7.79,6.395
		c1.2471-0.459,2.0669-1.3994,2.0332-2.7314c-0.0684-2.5977-2.8311-3.1309-4.229-3.0967H0v12.5205h5.7271
		C8.0239,13.2222,9.9888,11.6567,10.0889,9.7241 M2.73,2.9976h2.665c0.9321-0.0317,1.6631,0.2661,1.6968,1.1313
		C7.125,4.9956,6.3271,5.5288,5.395,5.4297H2.73V2.9976z M2.73,10.7573V7.6587h2.7642c0.9038-0.1328,1.7969,0.6016,1.7969,1.5
		c0,1.0645-0.896,1.7559-1.8311,1.5986H2.73z M89.0947,13.4878c3.7246,0,6.7432-3.0186,6.7432-6.7432
		C95.8379,3.021,92.8193,0,89.0947,0c-3.7256,0-6.7441,3.021-6.7441,6.7446C82.3506,10.4692,85.3691,13.4878,89.0947,13.4878
		 M74.0762,13.4878c3.7236,0,6.7432-3.0186,6.7432-6.7432C80.8193,3.021,77.7998,0,74.0762,0c-3.7256,0-6.7432,3.021-6.7432,6.7446
		C67.333,10.4692,70.3506,13.4878,74.0762,13.4878 M26.7378,7.9604h5.6963V5.8276h-5.6963V2.8989h6.4941v-2.332h-9.3218v12.5205
		h2.8276V7.9604z M59.0566,13.4878c3.7246,0,6.7432-3.0186,6.7432-6.7432C65.7998,3.021,62.7813,0,59.0566,0
		s-6.7422,3.021-6.7422,6.7446C52.3145,10.4692,55.332,13.4878,59.0566,13.4878"/>
</g>
</svg>
