<?xml version="1.0" encoding="utf-8"?>
<!-- Generator: Adobe Illustrator 15.0.0, SVG Export Plug-In . SVG Version: 6.00 Build 0)  -->
<!DOCTYPE svg PUBLIC "-//W3C//DTD SVG 1.1//EN" "http://www.w3.org/Graphics/SVG/1.1/DTD/svg11.dtd">
<svg version="1.1" id="Слой_1" xmlns="http://www.w3.org/2000/svg" xmlns:xlink="http://www.w3.org/1999/xlink" x="0px" y="0px"
	 width="107.9736px" height="43.6963px" viewBox="0 0 107.9736 43.6963" enable-background="new 0 0 107.9736 43.6963"
	 xml:space="preserve">
<g>
	<defs>
		<rect id="SVGID_1_" y="0.0005" width="107.9736" height="43.6958"/>
	</defs>
	<clipPath id="SVGID_2_">
		<use xlink:href="#SVGID_1_"  overflow="visible"/>
	</clipPath>
	<path clip-path="url(#SVGID_2_)" fill="#0F6936" d="M95.3936,30.9775c-0.3389,0.5234-0.6357,1.0117-0.9619,1.4785
		c-1.4551,2.0801-3.3652,3.6182-5.6523,4.6992c-2.4756,1.1699-5.0889,1.8408-7.8057,2.1289
		c-1.9922,0.2109-3.9834,0.1895-5.9775,0.0098c-2.6445-0.2354-5.2471-0.7266-7.8506-1.2197
		c-2.6113-0.4961-5.2197-1.0137-7.8389-1.4688c-2.46-0.4277-4.9316-0.8262-7.4419-0.7041c-3.0142,0.1475-5.998,0.4932-8.8232,1.6572
		c-3.4438,1.4189-6.5718,3.3252-9.1978,5.998c-0.1689,0.1729-0.2891,0.1738-0.4932,0.0654
		c-3.2559-1.7217-6.5181-3.4355-9.7769-5.1523c-0.271-0.1426-0.54-0.291-0.8511-0.46c0.2788-0.209,0.5322-0.4072,0.7939-0.5938
		c2.7432-1.9502,5.6309-3.6533,8.6763-5.0908c2.752-1.2979,5.6157-2.2432,8.6079-2.8086c2.2637-0.4277,4.541-0.6064,6.8438-0.5361
		c3.873,0.1172,7.6846,0.668,11.4229,1.6777c2.0322,0.5488,4.0381,1.1953,6.0625,1.7764c2.8975,0.8311,5.791,1.6875,8.708,2.4473
		c2.6709,0.6953,5.3916,1.1123,8.168,1.04c2.5947-0.0684,5.1416-0.4238,7.5518-1.4414c1.6846-0.7109,3.1943-1.6943,4.2275-3.2471
		c0.334-0.501,0.5332-1.0977,0.7441-1.6699c0.083-0.2246,0.1602-0.3047,0.3936-0.2979c0.3066,0.0088,0.6143-0.0205,0.9209-0.0439
		c0.1582-0.0127,0.2236,0.0537,0.2354,0.2051c0.124,1.7559,1.7275,2.9883,3.5547,2.9258c1.5674-0.0537,2.7324-1.1973,2.7529-2.7617
		c0.0137-1.127-0.0029-2.2559-0.0127-3.3828c-0.0039-0.4316-0.3291-0.6221-0.7139-0.4209c-0.126,0.0664-0.2402,0.1572-0.3535,0.2451
		c-1.5732,1.2383-3.2939,1.3594-5.125,0.6924c-1.248-0.4531-2.0801-1.3389-2.5527-2.5439
		c-0.8896-2.2642-0.8438-4.5171,0.3535-6.6592c0.8213-1.4692,2.0479-2.502,3.7451-2.8452c1.0947-0.2207,2.1924-0.1479,3.2266,0.2939
		c0.4014,0.1724,0.7539,0.4751,1.1064,0.7471c0.2559,0.1982,0.4551,0.1699,0.5654-0.1318c0.249-0.6899,0.249-0.6929,0.9688-0.6938
		c1.3008-0.0034,2.6025-0.0024,3.9043-0.0054c0.2002-0.001,0.3994-0.0088,0.4521,0.2529c0.0742,0.3853-0.0293,0.6553-0.3115,0.7441
		c-0.2031,0.0649-0.416,0.104-0.625,0.1499c-0.502,0.1123-0.6455,0.2891-0.6465,0.8091c-0.0068,4.0581-0.0088,8.1157-0.0205,12.1753
		c-0.0029,0.9121-0.0459,1.8242-0.4346,2.6768c-0.5908,1.2969-1.5811,2.1465-2.9326,2.5693
		c-1.7764,0.5547-3.5205,0.4795-5.1729-0.4209c-1.0391-0.5674-1.7559-1.457-2.2559-2.5244
		C95.5049,31.2178,95.459,31.1172,95.3936,30.9775 M102.3809,20.5034h-0.0029c0-0.3989,0.0088-0.7988-0.002-1.1982
		c-0.0176-0.5537-0.2158-1.0469-0.6084-1.4346c-1.3184-1.3062-3.6055-1.2241-4.5527,1.0088
		c-0.4023,0.9478-0.4883,1.9639-0.3711,2.9858c0.168,1.4766,1.4082,2.5342,2.8428,2.4512c1.5264-0.0879,2.6768-1.2695,2.6934-2.769
		C102.3838,21.1992,102.3809,20.8516,102.3809,20.5034"/>
	<path clip-path="url(#SVGID_2_)" fill="#0F6936" d="M30.0669,0.0479c-2.4209,3.3569-4.7959,6.6523-7.1948,9.979
		c-0.1299-0.1099-0.2529-0.21-0.373-0.314c-1.8101-1.5811-3.9531-2.2808-6.3047-2.0469c-4.5933,0.4561-7.5313,3.1069-9.1191,7.3281
		c-0.7231,1.9209-0.791,3.9341-0.522,5.9639c0.3911,2.96,1.6338,5.498,3.7729,7.5703c2.0908,2.0254,4.6001,3.2227,7.4888,3.6475
		c2.167,0.3193,4.2651,0.123,6.2949-0.6973c1.4751-0.5957,2.7744-1.4863,4.0132-2.4707c0.0562-0.0449,0.106-0.0967,0.165-0.1367
		c0.2129-0.1455,0.4238-0.1602,0.605,0.0449c0.1748,0.1973,0.1392,0.4004-0.04,0.5723c-0.4941,0.4756-0.9707,0.9736-1.4961,1.4121
		c-2.3359,1.9482-5.022,3.1396-8.0317,3.5586c-3.3003,0.46-6.4683-0.0205-9.4609-1.5049c-2.6401-1.3096-4.876-3.1182-6.6191-5.5078
		c-1.5-2.0596-2.479-4.3428-2.937-6.8525c-0.3101-1.6929-0.3862-3.3979-0.228-5.106c0.252-2.7056,0.9941-5.2749,2.2422-7.6968
		C3.6831,5.1509,5.46,2.8311,7.6113,0.79c0.7837-0.7441,0.7769-0.751,1.8467-0.751c6.731,0.0029,13.4629,0.0059,20.1953,0.0088
		C29.7651,0.0479,29.877,0.0479,30.0669,0.0479"/>
	<path clip-path="url(#SVGID_2_)" fill="#0F6936" d="M80.4854,16.7017c0.7793-0.5063,1.5322-0.998,2.2871-1.4854
		c0.6992-0.4497,1.4385-0.769,2.2939-0.7578c0.8496,0.0098,1.3975,0.4468,1.7324,1.1919c0.0781,0.1772,0.1182,0.3711,0.1953,0.5493
		c0.1035,0.2378,0.2822,0.3857,0.5566,0.3267c0.2764-0.0601,0.3936-0.2827,0.3633-0.5869c-0.0283-0.2842-0.043-0.5708-0.0479-0.856
		c-0.0166-1.0269,1.2236-2.0381,2.293-1.2798c0.375,0.2656,0.7461,0.542,1.1387,0.7798c0.6953,0.4219,1.4502-0.0161,1.4941-0.8359
		c0.0449-0.8223-0.4209-1.3569-0.9873-1.8433c-0.1016-0.0859-0.2158-0.1587-0.3066-0.2549
		c-0.1592-0.1699-0.1738-0.3682-0.0527-0.5649c0.1211-0.1958,0.3076-0.2939,0.5244-0.2012c0.2412,0.104,0.4814,0.23,0.6904,0.3901
		c0.9492,0.7251,1.3838,1.7241,1.4629,2.8901c0.0742,1.0991-0.1807,2.1108-0.8574,3.001c-0.8506,1.1201-1.9551,1.3281-3.1563,0.5879
		c-0.1924-0.1182-0.3789-0.2432-0.5732-0.3579c-0.6777-0.4009-1.4658,0.1812-1.4561,0.8589
		c0.0342,2.3252,0.0098,4.6519,0.0088,6.978c0,0.5967,0.2373,0.8467,0.8398,0.9033c0.1113,0.0107,0.2227,0.0342,0.335,0.0449
		c0.2969,0.0303,0.4336,0.1963,0.4297,0.4912c-0.0029,0.1709-0.001,0.3428-0.001,0.5313h-5.4688c0-0.3799,0.001-0.7451,0-1.1104
		c-0.0049-2.6436-0.0088-5.2871-0.0186-7.9302c-0.001-0.2129-0.0039-0.437-0.0654-0.6372c-0.1406-0.4448-0.7334-0.728-1.2412-0.6079
		c-0.167,0.04-0.332,0.1079-0.4824,0.1909c-0.3311,0.1841-0.6455,0.396-0.9766,0.5791c-0.4756,0.2622-0.8145,0.5488-0.8906,1.1802
		c-0.1074,0.8716-0.7559,1.4766-1.3867,2.042c-1.0098,0.9058-2.2354,1.3799-3.5303,1.6987
		c-0.3857,0.0947-0.7793,0.1543-1.2266,0.2422c0.0859,0.2461,0.1436,0.4824,0.2471,0.6973
		c0.6504,1.3447,2.0498,2.0566,3.5967,1.8291c1.124-0.166,2.0654-0.6865,2.8604-1.4922c0.1211-0.1221,0.3301-0.2432,0.4844-0.2275
		c0.2842,0.0293,0.3789,0.3301,0.2256,0.6309c-0.3857,0.7607-0.918,1.4023-1.5957,1.9209
		c-1.3271,1.0176-2.8359,1.3359-4.4805,1.2197c-2.8369-0.2002-4.6777-2.2627-5.2695-4.5596
		c-0.0273-0.1045-0.0996-0.2505-0.1846-0.2798c-0.917-0.313-1.8398-0.606-2.792-0.915c-0.0049,0.0869-0.0156,0.1934-0.0166,0.3003
		c-0.0078,0.6548,0.0195,1.3125-0.0254,1.9658c-0.125,1.8271-1.5361,3.1719-3.3701,3.209
		c-1.1152,0.0225-2.2334,0.0205-3.3496-0.0098c-1.9697-0.0537-3.291-1.4385-3.293-3.4219
		c-0.0039-5.1855-0.0059-10.3701-0.0088-15.5542c0-0.6499-0.1289-0.7939-0.7842-0.8789c-0.0908-0.0112-0.1826-0.0322-0.2744-0.0342
		C56.1211,7.2437,56,7.1206,56.0088,6.8657c0.0059-0.1812,0.001-0.3633,0.001-0.5581h5.2764c0,0.1396,0,0.2598,0,0.3799
		c0.001,5.5332,0.0283,11.0659-0.0127,16.5986c-0.0117,1.5996,1.0479,2.0391,2.3125,1.8896
		c0.8281-0.0996,1.2686-0.5059,1.3779-1.1426c0.0225-0.1299,0.0195-0.2646,0.0195-0.3975c0-1.0454-0.0078-2.0903,0.0029-3.1362
		c0.002-0.2368-0.0635-0.3999-0.2588-0.543c-0.3789-0.2788-0.7412-0.5811-1.1094-0.875c-0.2695-0.2148-0.4482-0.498-0.4531-0.8398
		c-0.0146-1.105-0.0059-2.2104-0.0059-3.3433h4.2871c0,0.125,0,0.2441,0,0.3633c0.002,1.4136,0.0127,2.8276,0.001,4.2417
		c-0.002,0.272,0.0723,0.4502,0.3213,0.5562c0.7217,0.3081,1.4414,0.6201,2.166,0.9238c0.0898,0.0381,0.1934,0.043,0.2676,0.0581
		c0.1338-0.644,0.2344-1.2681,0.3955-1.875c0.6836-2.5718,2.7861-4.125,5.1943-4.4712c0.7939-0.1138,1.5723-0.0479,2.3438,0.1494
		c0.9824,0.251,1.7334,0.8066,2.2393,1.6899C80.4004,16.5776,80.4307,16.6187,80.4854,16.7017 M74.0928,20.7314
		c0,0.1538-0.0234,0.312,0.0098,0.458c0.0156,0.0723,0.1426,0.1738,0.2119,0.1689c0.9297-0.0737,1.8203-0.3091,2.5957-0.8418
		c0.7402-0.5083,1.2773-1.1709,1.4072-2.103c0.1025-0.7329-0.2227-1.3232-0.8574-1.5c-0.9834-0.2749-2.0215,0.1191-2.5596,0.9941
		C74.3691,18.7715,74.1055,19.7183,74.0928,20.7314"/>
	<path clip-path="url(#SVGID_2_)" fill="#0F6936" d="M29.0859,22.4565c-0.7456,0.6392-1.4048,1.2378-2.0996,1.7915
		c-0.9292,0.7383-1.8643,1.4727-2.8384,2.1484c-0.5669,0.3916-1.1929,0.7129-1.9077,0.8027
		c-0.9302,0.1182-1.3989-0.1465-1.7354-1.0225c-0.0327-0.0859-0.0596-0.1748-0.1016-0.2559
		c-0.187-0.3604-0.6353-0.4424-0.936-0.1748c-0.0229,0.0205-0.0474,0.041-0.0649,0.0654c-1.2095,1.5918-2.8574,1.5986-4.5034,1.0557
		c-2.2681-0.749-3.563-2.4111-3.8906-4.7969c-0.187-1.3618-0.1353-2.6997,0.439-3.9736c0.8628-1.9189,2.3247-3.0864,4.417-3.396
		c1.479-0.2192,2.8496,0.0737,4.0557,1.0059c0.3394,0.2617,0.6582,0.1699,0.791-0.2441c0.2192-0.6851,0.144-0.7271,1.0762-0.7241
		c1.0249,0.0024,2.0498,0.001,3.0742,0.0054c0.3926,0.001,0.4868,0.0957,0.5,0.4868c0.0156,0.4502-0.0933,0.5889-0.4805,0.6221
		c-0.1016,0.0088-0.2026,0.0249-0.3037,0.042c-0.4639,0.0728-0.6079,0.2407-0.6079,0.7178c-0.001,1.4551-0.001,2.9102-0.001,4.3652
		c0,0.6357-0.001,1.271,0.001,1.9063c0.002,0.7334,0.395,1.0547,1.1118,0.8809c0.2432-0.0596,0.4912-0.1582,0.6992-0.2969
		c1.145-0.7627,2.2207-1.6152,3.1797-2.6045c0.0991-0.103,0.1689-0.2798,0.1709-0.4238c0.0151-1.0352,0.0083-2.0698,0.0083-3.105
		c0-0.0718,0.001-0.144-0.0093-0.2148c-0.0938-0.7183-0.6128-1.0151-1.2778-0.7344c-0.333,0.1411-0.5171,0.0811-0.6528-0.2119
		c-0.0952-0.2051-0.04-0.376,0.1147-0.5278c0.7939-0.7769,1.7793-1.0229,2.8462-0.9712c0.5518,0.0273,1.0679,0.2222,1.4409,0.6641
		c0.1489,0.1772,0.2729,0.3813,0.377,0.5894c0.1812,0.3628,0.4199,0.4136,0.7231,0.1338c0.3379-0.313,0.6519-0.6592,1.022-0.9282
		c1.4688-1.0649,4.1831-0.3989,4.5898,1.667c0.207,1.0493,0.0869,2.0513-0.7837,2.812c-0.6851,0.5991-1.9204,0.6689-2.6831,0.1772
		c-0.6123-0.395-0.979-1.251-0.4941-1.978c0.145-0.2183,0.1602-0.4492-0.0249-0.6499c-0.1992-0.2163-0.4448-0.1934-0.6738-0.0571
		c-0.437,0.2588-0.6914,0.6621-0.707,1.1572c-0.0381,1.188-0.041,2.376-0.0503,3.564c-0.0068,1.0454-0.0039,2.0903-0.0039,3.1362
		c-0.001,0.749,0.1641,0.9395,0.8989,1.0469c0.4453,0.0635,0.6929,0.5605,0.4609,0.9541c-0.0439,0.0742-0.1826,0.1328-0.2778,0.1328
		c-1.5171,0.0098-3.0332,0.0068-4.5498,0.0107c-0.249,0.001-0.3423-0.1074-0.3403-0.3555c0.0073-1.291,0.002-2.582,0.002-3.873
		C29.0859,22.7676,29.0859,22.6577,29.0859,22.4565 M20.126,20.5825c-0.0117-0.001-0.0239-0.002-0.0347-0.002
		c0-0.3081,0.0049-0.6152-0.0024-0.9219c-0.0107-0.5234-0.1226-1.0122-0.4688-1.4282c-0.8491-1.0259-2.8691-1.4878-4.0332,0.1611
		c-0.8179,1.1587-0.9487,2.4971-0.6597,3.8511c0.2617,1.23,1.292,1.9946,2.5088,1.9819c1.2383-0.0117,2.332-0.8564,2.5752-2.0542
		C20.1152,21.6543,20.0913,21.1123,20.126,20.5825"/>
	<path clip-path="url(#SVGID_2_)" fill="#0F6936" d="M38.0376,6.2739h5.3613c0,0.1509,0,0.2817,0,0.4116
		c0,5.6353-0.0024,11.269,0.001,16.9043c0,0.2549,0.0186,0.5107,0.0518,0.7637c0.062,0.4824,0.3691,0.7676,0.812,0.9023
		c0.396,0.1201,0.812-0.0449,1.061-0.3789c0.29-0.3896,0.3008-0.792,0.0552-1.2021c-0.084-0.1396-0.1851-0.2695-0.2871-0.417
		c0.251-0.3037,0.5981-0.4395,0.9829-0.4648c0.0752-0.0059,0.2012,0.1318,0.2368,0.2285c0.4863,1.3369,1.6743,2.1846,3.0913,2.1123
		c0.4238-0.0225,0.8647-0.1699,1.251-0.3564c0.5581-0.2686,0.7808-0.7842,0.7661-1.3975c-0.0151-0.6094-0.2031-1.1133-0.793-1.4131
		c-0.7383-0.377-1.4673-0.7729-2.188-1.1802c-0.3203-0.1797-0.624-0.394-0.916-0.6167c-1.0103-0.772-1.1333-1.8184-0.8594-2.959
		c0.2891-1.2041,1.0552-1.9644,2.2593-2.2529c0.3247-0.0781,0.6699-0.0981,1.0059-0.0991c1.895-0.0083,3.791-0.0029,5.6855-0.001
		c0.1006,0.001,0.1992,0.0088,0.3516,0.0171c-0.5117,1.124-1.0049,2.209-1.5205,3.3408c-0.6226-0.5698-1.3726-0.7842-2.1504-0.918
		c-0.5322-0.0908-1.0591-0.085-1.561,0.1577c-0.4053,0.1963-0.7031,0.478-0.7021,0.9561c0.001,0.4761,0.2471,0.8193,0.6768,1.0103
		c0.9072,0.4028,1.8174,0.7988,2.7305,1.187c2.2534,0.957,2.7056,3.9233,0.8374,5.5249c-0.8125,0.6973-1.7607,1.0137-2.8257,1.0107
		c-2.6738-0.0059-5.3481,0.0039-8.022-0.0205c-2.2822-0.0225-3.8921-1.6592-3.896-3.9404
		c-0.0088-5.0508-0.0068-10.1016-0.0098-15.1528c0-0.5728-0.1792-0.7969-0.7031-0.769C37.9878,7.3066,37.9438,7.0186,38.0376,6.2739
		"/>
	<path clip-path="url(#SVGID_2_)" fill="#0F6936" d="M84.1309,0.2505c0.041,0,0.0869-0.0122,0.1221,0.002
		c0.624,0.248,1.1826,0.0308,1.7705-0.1851c0.6377-0.2349,1.168,0.1719,1.2041,0.855c0.0166,0.2959,0.0059,0.5942,0.0137,0.8911
		c0.0088,0.3481,0.2012,0.582,0.4658,0.5771c0.2432-0.0044,0.4111-0.2041,0.4307-0.5361c0.0195-0.3271,0.0254-0.6553,0.0361-0.9819
		c0.0195-0.5884,0.5244-0.9819,1.0928-0.8452c0.1582,0.0391,0.3154,0.0933,0.4619,0.1641c0.3936,0.1919,0.7773,0.2349,1.2129,0.0972
		c0.5684-0.1821,1.1729,0.103,1.4678,0.6187c0.3076,0.5391,0.2295,1.1611-0.2744,1.6191c-0.3379,0.3071-0.4385,0.6782-0.4688,1.0918
		c-0.0654,0.9302-0.7129,1.29-1.5371,0.8481c-0.252-0.1348-0.499-0.2827-0.7559-0.4077c-0.2559-0.125-0.4893-0.0571-0.6104,0.1538
		c-0.1318,0.229-0.0645,0.4688,0.1904,0.6309c0.2754,0.1753,0.5605,0.3369,0.8398,0.5093c0.5693,0.3521,0.6357,1.0171,0.1484,1.4717
		c-0.082,0.0771-0.1719,0.1479-0.2676,0.2061c-0.377,0.231-0.6006,0.5522-0.7168,0.9873c-0.2021,0.7578-0.8721,1.1357-1.6104,0.9478
		c-0.457-0.1147-0.7725-0.4199-0.8828-0.8579c-0.1357-0.5381-0.4492-0.8901-0.8936-1.188C85.1104,6.6113,85,6.2295,85.2109,5.7822
		c0.0742-0.1567,0.2119-0.3008,0.3555-0.4028c0.2734-0.1968,0.5752-0.354,0.8584-0.5381c0.2666-0.1729,0.334-0.3999,0.2061-0.625
		c-0.125-0.2188-0.373-0.2871-0.6367-0.1538c-0.2832,0.1421-0.5537,0.3081-0.835,0.4561c-0.6836,0.3608-1.333,0.0308-1.4111-0.7319
		c-0.0537-0.52-0.1738-0.9722-0.5801-1.3662c-0.4014-0.3892-0.4814-0.918-0.2246-1.4492
		C83.1807,0.4785,83.6006,0.2686,84.1309,0.2505"/>
</g>
</svg>
