<?xml version="1.0" encoding="utf-8"?>
<!-- Generator: Adobe Illustrator 15.0.0, SVG Export Plug-In . SVG Version: 6.00 Build 0)  -->
<!DOCTYPE svg PUBLIC "-//W3C//DTD SVG 1.1//EN" "http://www.w3.org/Graphics/SVG/1.1/DTD/svg11.dtd">
<svg version="1.1" id="Слой_1" xmlns="http://www.w3.org/2000/svg" xmlns:xlink="http://www.w3.org/1999/xlink" x="0px" y="0px"
	 width="58.4678px" height="64.6924px" viewBox="0 0 58.4678 64.6924" enable-background="new 0 0 58.4678 64.6924"
	 xml:space="preserve">
<g>
	<defs>
		<rect id="SVGID_1_" y="-0.0005" width="58.4678" height="64.6929"/>
	</defs>
	<clipPath id="SVGID_2_">
		<use xlink:href="#SVGID_1_"  overflow="visible"/>
	</clipPath>
	<path clip-path="url(#SVGID_2_)" fill="#250671" d="M47.0947,13.228c0.2324,1.6909,2.7939,3.9697,3.4893,3.916
		c0.4639,0,0.6406-2.208,0.6406-3.916c0-0.98,0.0537-1.7461-0.4629-1.9243C49.9424,12.9609,47.7891,13.2988,47.0947,13.228
		 M47.2373,12.48c1.8506,0,3.543-1.478,3.543-2.7783c0-0.605-0.2852-1.1025-1.0156-1.1919c0.124,0.1602,0.1777,0.2852,0.1777,0.5693
		c0,0.979-1.4941,2.0659-3.1152,2.0659c-0.5879,0-0.7656,0.4077-0.7656,0.6221C46.0615,12.2661,46.543,12.48,47.2373,12.48
		 M46.8457,10.4678c-0.25,0-0.6064,0-0.8018-0.3921c-0.1611-0.3198-0.1064-0.8359-0.4092-1.0679
		c0.3027,0.0889,0.623,0.0889,0.8721,0.0889c0.8018,0,1.5674-0.5508,2.1543-0.5508c0.3916,0,0.5156,0.249,0.5156,0.4971
		C49.1768,9.8267,47.5938,10.4678,46.8457,10.4678 M7.0205,24.4248c0.604,0,0.479-3.7031,1.459-3.7031
		c0.2324,0,0.3032,0.2324,0.3032,0.5161c0,0.8369-0.4102,2.0649-0.4102,2.7422c0,0.3379,0.0894,0.4448,0.249,0.4448
		c0.4282,0,1.1753-4.0771,1.9063-4.0771c0.231,0,0.3379,0.2324,0.3379,0.4644c0,0.854-1.0859,3.3101-1.0859,4.0049
		c0,0.106,0.0361,0.1948,0.124,0.1948c0.4458,0,1.3359-1.9229,1.6211-2.8838c0.1597-0.498,0.374-0.7651,0.5688-0.7651
		c0.1777,0,0.3379,0.1963,0.3379,0.605c0,0.9619-0.8892,3.2222-1.6729,4.7363c-0.605,1.1748-1.5493,2.8657-1.5493,3.8096
		c0,0.48,0.0903,0.979,0.7832,1.584c-1.1392-0.0708-1.6021-0.1777-2.0298-1.0679c-1.9043,3.7915,3.5078,3.4194,1.6567,6.7827
		c-0.3379-0.6045-3.0088-1.2285-3.0088-4.7524c0-3.0454,2.6709-4.8252,2.6709-6.0894c0-0.249-0.0898-0.4629-0.3208-0.6587
		c-0.5884-0.498-0.6055-0.9082-1.0693-0.9082c-0.3379,0-0.7471,0.7842-0.3198,1.4771c0.1421,0.2319,0.2671,0.374,0.2671,0.5879
		c0,0.499-0.7832,1.833-1.335,1.833c-0.5522,0-0.979-1.3701-0.979-3.5767c0-1.959,0.4438-3.9351,0.9966-3.9351
		c0.1602,0,0.2144,0.1069,0.2144,0.25c0,0.231-0.0723,0.6929-0.0723,1.4771C6.6636,24.354,6.8599,24.4248,7.0205,24.4248
		 M34.2939,6.9248c0.2852,0,0.3379,0.6953,0.3916,1.104c0.0352,0.2129,0.0713,0.231,0.1602,0.231
		c0.2139,0,0.5518-0.8188,0.7832-0.8188c0.3389,0,1.2471,0.9448,2.7598,0.9448c2.1533,0,4.1836-1.5137,4.1836-4.1841
		c0-2.583-1.8164-4.0957-4.3252-4.0957c-1.1934,0-2.0664,0.5879-2.5293,0.5879C35.4326,0.7109,35.0059,0,34.792,0
		c-0.0889,0-0.1787,0.1768-0.1787,0.48c0,0.1958,0,0.8198-0.2139,0.8198c-0.4258,0-2.082-1.23-2.082-0.7837
		c0,0.4097,1.1045,1.6558,1.1045,1.9756c0,0.3203-1.0859,0.623-1.0859,0.8364c0,0.3916,1.1572,0.4639,1.1572,0.9619
		s-1.2129,0.8896-1.2129,1.2637c0,0.3042,1.2129,0.0894,1.2129,0.4644c0,0.373-0.8906,1.6187-0.8906,1.9756
		c0,0.0894,0.0186,0.0894,0.0889,0.0894C33.0293,8.083,34.0449,6.9248,34.2939,6.9248 M11.4526,33.2378
		c-0.0181-0.356,0.2319-0.6948,0.606-0.73c0.373-0.0537,0.7119,0.231,0.7471,0.605c0.0361,0.374-0.2319,0.6948-0.606,0.7485
		C11.8267,33.8799,11.4888,33.6108,11.4526,33.2378 M9.4775,33.79c0.0713,0.6055,0.6401,1.0664,1.2813,0.9961
		c0.231-0.0195,0.4458-0.0889,0.5879-0.1797c0.1421,0.5713,0.5859,0.9277,1.2451,0.8555c0.6597-0.0527,1.123-0.6055,1.0508-1.2617
		c0-0.1797-0.0527-0.2852-0.106-0.4102l0.125-0.0186c0.6221-0.0703,1.103-0.6406,1.0493-1.2637
		c-0.0713-0.6411-0.6582-1.104-1.2642-1.0508c-0.231,0.0537-0.4272,0.124-0.5688,0.249c-0.1611-0.5342-0.624-0.9609-1.2822-0.8901
		c-0.623,0.0361-1.105,0.6411-1.0332,1.2988c0,0.0903,0.0352,0.2329,0.0894,0.3569l-0.124,0.0171
		C9.9038,32.5791,9.4238,33.0947,9.4775,33.79 M49.1416,1.1387c0,0.25,0.1953,0.4453,0.4453,0.4453
		c0.249,0,0.4443-0.1953,0.4443-0.4453c0-0.249-0.1953-0.4448-0.4443-0.4448C49.3369,0.6938,49.1416,0.8896,49.1416,1.1387
		 M39.209,18.0161c0,0.4097,0.3379,0.7476,0.7461,0.7476s0.748-0.3379,0.748-0.7476c0-0.4082-0.3398-0.748-0.748-0.748
		S39.209,17.6079,39.209,18.0161 M39.2607,20.2588c0,0.4629,0.375,0.8369,0.8359,0.8369c0.4629,0,0.8369-0.374,0.8369-0.8369
		c0-0.4619-0.374-0.835-0.8369-0.835C39.6357,19.4238,39.2607,19.7969,39.2607,20.2588 M36.6963,21.772
		c0,0.6768,0.5527,1.229,1.2295,1.229c0.6758,0,1.2275-0.5522,1.2275-1.229c0-0.6763-0.5518-1.228-1.2275-1.228
		C37.249,20.5439,36.6963,21.0957,36.6963,21.772 M37.3555,19.2627c0,0.3921,0.3213,0.7124,0.7119,0.7124
		c0.3926,0,0.7129-0.3203,0.7129-0.7124c0-0.3906-0.3203-0.7119-0.7129-0.7119C37.6768,18.5508,37.3555,18.8721,37.3555,19.2627
		 M35.0225,20.687c0,0.3921,0.3213,0.7109,0.7129,0.7109c0.3926,0,0.7119-0.3188,0.7119-0.7109s-0.3193-0.7119-0.7119-0.7119
		C35.3438,19.9751,35.0225,20.2949,35.0225,20.687 M36.8574,16.521c0,0.623,0.5166,1.1387,1.1406,1.1387
		c0.6221,0,1.1377-0.5156,1.1377-1.1387c0-0.624-0.5156-1.1392-1.1377-1.1392C37.374,15.3818,36.8574,15.897,36.8574,16.521
		 M38.1924,14.3311c0,0.375,0.3047,0.6768,0.6777,0.6768c0.374,0,0.6768-0.3018,0.6768-0.6768c0-0.374-0.3027-0.6772-0.6768-0.6772
		C38.4971,13.6538,38.1924,13.957,38.1924,14.3311 M34.9707,16.04c0,0.374,0.3018,0.6777,0.6758,0.6777s0.6777-0.3037,0.6777-0.6777
		s-0.3037-0.6753-0.6777-0.6753S34.9707,15.666,34.9707,16.04 M34.8818,18.354c0,0.606,0.4795,1.0869,1.0859,1.0869
		c0.6045,0,1.0859-0.481,1.0859-1.0869c0-0.604-0.4814-1.0859-1.0859-1.0859C35.3613,17.2681,34.8818,17.75,34.8818,18.354
		 M32.6387,19.4951c0,0.5518,0.4619,1.0137,1.0137,1.0137c0.5527,0,1.0156-0.4619,1.0156-1.0137
		c0-0.5522-0.4629-1.0151-1.0156-1.0151C33.1006,18.48,32.6387,18.9429,32.6387,19.4951 M33.2441,16.9839
		c0,0.3921,0.3193,0.7129,0.7119,0.7129c0.3906,0,0.7119-0.3208,0.7119-0.7129s-0.3213-0.7119-0.7119-0.7119
		C33.5635,16.272,33.2441,16.5918,33.2441,16.9839 M30.876,43.2266c0,0.3906,0.3193,0.71,0.7119,0.71
		c0.3906,0,0.7119-0.3193,0.7119-0.71c0-0.3936-0.3213-0.7129-0.7119-0.7129C31.1953,42.5137,30.876,42.833,30.876,43.2266
		 M11.7207,13.7261c0,0.3906,0.3198,0.7119,0.7109,0.7119c0.3921,0,0.7129-0.3213,0.7129-0.7119
		c0-0.3921-0.3208-0.7124-0.7129-0.7124C12.0405,13.0137,11.7207,13.334,11.7207,13.7261 M10.7949,12.124
		c0,0.3921,0.3198,0.7119,0.7119,0.7119s0.7109-0.3198,0.7109-0.7119s-0.3188-0.7134-0.7109-0.7134S10.7949,11.7319,10.7949,12.124
		 M11.5596,29.6411c0.748,0,1.3711-0.5522,1.3711-1.7803v-1.8159c0-0.6938,0.0532-1.478,0.5161-2.0303
		c-0.0532,0.2324-0.0532,0.4814-0.0532,0.7124c0,1.5317,0.855,2.582,0.855,4.0601c0,0.5508-0.1597,0.854-0.5869,0.854
		c-0.4102,0-0.375-0.374-0.4639-0.374c-0.0713,0-0.1782,0.2319-0.1782,0.48c0,0.375,0.2671,0.9619,1.0151,0.9619
		c0.6411,0,1.1572-0.5869,1.1572-1.2461c0-1.6021-1.2451-3.3818-1.2451-5.0908c0-0.749,0.1938-1.2471,0.355-1.6392
		c0,3.543,3.0088,6.125,3.0088,7.603c0,0.3379-0.25,0.606-0.624,0.606c-0.4077,0-0.605-0.3218-0.605-0.5708
		c0-0.124-0.0181-0.1602-0.0698-0.1602c-0.1079,0-0.4282,0.356-0.4282,0.8188c0,0.5869,0.48,1.2993,1.3701,1.2993
		c1.0151,0,1.5679-0.854,1.5679-1.6201c0-1.8691-3.6499-4.7002-3.6499-7.7261c0-0.5171,0.0879-1.353,0.4629-1.9941
		c-2.3506,1.5122-3.0806,3.5249-3.0806,5.2871c0,1.5308-0.0542,2.2969-0.8364,2.2969c-0.4097,0-0.5156-0.374-0.6587-0.374
		c-0.1069,0-0.1611,0.3213-0.1611,0.4102C10.5977,29.2671,11.0786,29.6411,11.5596,29.6411 M42.4131,11.856
		c0.7822,0,1.3711-0.356,1.3711-0.5703c0-0.0708-0.1074-0.1226-0.3389-0.1226S42.75,11.145,41.8779,11.002
		c-0.748-0.124-1.3184-0.4092-1.5322-0.4092c-0.0713,0-0.1064,0.0352-0.1064,0.0889C40.2393,11.145,41.0938,11.856,42.4131,11.856
		 M38.5313,9.5957c0.2314-0.1426,1.2275,0.0884,2.5273-0.5527c0.1602-0.0879,0.3213-0.123,0.4629-0.123
		c0.624,0,0.4629,0.7109,1.0342,0.7109c0.4453,0,1.0137-0.374,1.3535-0.374c0.5313,0,1.2979,1.6738,1.2979,2.457
		c0,0.9082-1.3691,1.46-2.9902,1.46c-2.3691,0-3.792-2.0649-3.792-3.3999C38.4248,9.666,38.4785,9.6309,38.5313,9.5957
		 M11.9326,36.3525c-0.5859,0.1436-1.5298,1.0684-1.5298,2.5293c0,1.7441,1.8687,4.4326,4.9487,4.4326
		c2.6001,0,3.2402-1.7988,3.2402-3.0098c0-2.6865-1.6563-4.5752-3.8091-4.5752c-1.1748,0-2.2261,0.8545-2.2261,2.1182
		c0,1.1768,0.8901,2.9385,3.0093,2.9385c0.9956,0,1.584-0.7119,1.584-1.5322c0-0.7988-0.73-1.9043-1.7983-1.9043
		c-0.3198,0-0.5518,0.2139-0.5518,0.5537c0,0.4258,0.5879,0.8545,1.3179,0.8545c0.1782,0,0.3198-0.0361,0.3911-0.0723
		c0.0361,0.0547,0.0527,0.1436,0.0527,0.2139c0,0.4082-0.3896,0.6572-0.9956,0.6572c-0.9082,0-1.7803-0.6748-1.7803-1.7441
		c0-0.6406,0.5513-1.1035,1.353-1.1035c1.584,0,2.5278,1.4072,2.5278,2.8115c0,1.2656-0.6948,1.9951-2.1187,1.9951
		C12.6987,41.5156,11.3105,38.9531,11.9326,36.3525 M10.1538,17.002c-0.4102,0.1069-1.2642,0.606-1.2642,1.4951
		c0,0.6406,0.498,1.0508,1.1211,1.0508c0.3208,0,0.5518-0.0718,0.6948-0.1777c-0.499-0.4814-0.6768-1.0161-0.6768-1.5493
		C10.0288,17.4468,10.0815,17.2158,10.1538,17.002 M5.7915,17.251c-0.0176,0.0889-0.0176,0.1787-0.0176,0.2671
		c0,0.8359,0.4448,1.2998,1.0327,1.2998c0.4438,0,0.9609-0.2671,1.4238-0.855c-0.1958,0.0352-0.4277,0.0532-0.6406,0.0532
		C6.9307,18.0161,6.2188,17.8389,5.7915,17.251 M5.1685,18.8359c0,1.3521,0.4082,1.9932,1.1392,1.9932
		c0.5703,0,1.335-0.4092,2.2441-1.1924c-0.6948,0.1602-1.228,0.2671-1.71,0.2671C6.2017,19.9038,5.7017,19.6548,5.1685,18.8359
		 M32.2637,46.7861c0.8555,0,0.8018-0.0713,1.0693-0.0713c0.2666,0,0.2842,0.1611,0.2842,0.2666c0,0.3926-0.8721,0.873-2.4219,0.873
		c-0.9072,0-1.46-0.4805-1.6182-1.0146c-0.8916,0.5703-2.2437,1.0859-3.5786,1.0859c-3.6499,0-4.5767-1.584-5.7148-2.1016
		c-0.873-0.3916-2.208,0.374-4.0771-1.709c0.248,0.0527,0.5869,0.0703,0.854,0.0703c1.6382,0,2.5112-0.7998,2.5112-2.0811
		c0-0.1611-0.0181-0.3398-0.0361-0.499c0.499,0.1953,1.6382,1.0508,1.9053,2.5625c0.0347,0.1787,0.7656,0.3379,1.229,0.3379
		c0.6396,0,1.46-0.2666,1.584-1.3164c2.1367-0.1768,3.5767-1.4424,3.8799-3.0449c0.7661,0.249,1.6367,0.9443,1.8516,1.3008
		c0.3027-0.1074,0.6582-0.1611,1.0684-0.1611c0.5703,0,1.21,0.1064,1.9756,0.3389c0.0361-0.2324,0.0713-0.5176,0.4287-0.5176
		c0.5322,0,0.3906,0.5889,0.5693,0.9268c0.0898,0.1777,0.5332,0.2842,0.5332,0.6416c0,0.3389-0.2852,0.4619-0.4619,0.4619
		c-0.0713,0-0.1602-0.0166-0.2139-0.0342c-0.3564,0.125-0.374,2.6875-1.8701,2.6875c-1.1035,0-2.1182-0.9082-2.5625-2.0479
		c-0.124-0.3379-0.3926-0.5518-0.6416-0.5518c-0.2847,0-0.4448,0.0547-0.7837,0.4277c-0.9609,1.0498-2.562,1.958-4.5381,1.958
		c-0.605,0-1.0859-0.0537-1.2119-0.0537c-0.0703,0-0.0703,0.0186-0.0703,0.0352c0,0.125,0.605,0.6064,1.9233,0.6064
		c3.1318,0,3.897-1.7637,4.396-1.7637c0.0718,0,0.2847,0,0.4087,0.2852c0.7305,1.71,2.3154,2.1016,3.3125,2.1016H32.2637z
		 M22.1528,11.002c1.1738,0,1.709,1.0151,1.709,2.1538c0,0.498-0.1421,1.228-0.373,1.228c-0.2319,0-0.1973-0.4087-0.2319-0.7827
		c-0.0361-0.48-0.125-0.5874-0.2842-0.5874c-0.3027,0-0.499,0.7124-0.499,1.3701c0,0.4102,0.0698,0.873,0.3921,0.873
		c0.1768,0,0.3369-0.0889,0.4438-0.1948c-0.0708,0.8179-0.6758,1.5298-1.5298,1.5298c-1.5669,0-2.1553-1.834-2.333-2.9019
		c-0.9429,0.998-1.8149,1.7271-3.3833,1.7271c-1.46,0-2.1167-1.0669-2.1167-2.083c0-0.3032,0.106-1.0859,0.479-1.0859
		c0.4458,0,0.0527,1.46,0.9258,1.46c0.2144,0,0.606-0.1782,0.8203-0.7651c0.124-0.356,0.1948-0.731,0.1948-1.0508
		c0-0.4814-0.106-0.7832-0.4629-0.7832c-0.3032,0-0.6763,0.231-0.8013,0.355c0.4272-1.2808,1.459-1.9399,2.5991-1.9399
		c1.4072,0,2.1553,1.2471,2.1553,2.6348c0,0.1963-0.0181,0.4102-0.0542,0.605C20.4087,11.7671,21.2446,11.002,22.1528,11.002
		 M17.6836,0.3911c0-0.1074-0.5337-0.2144-1.2637-0.2144c-1.1572,0-0.9961,0.9619-1.8872,0.9619
		c-0.9248,0-0.6938-0.9966-1.8691-0.9966c-0.7129,0-1.3711,0.124-1.3711,0.2847c0,0.2129,0.8364,0.124,0.8364,0.7119
		c0,0.623-1.7974,0.8022-1.7974,1.1753c0,0.124,0.1421,0.1777,0.3203,0.1777c0.3916,0,1.0146-0.1777,1.459-0.1777
		c0.25,0,0.481,0.0527,0.481,0.2852c0,0.4448-0.96,1.2456-0.96,1.6025c0,0.1074,0.0889,0.1421,0.1777,0.1421
		c0.355,0,0.9609-0.9087,1.5313-0.9087c0.9429,0,0.3208,2.0127,0.8359,2.0127c0.5342,0,0.3018-1.9761,1.0679-1.9761
		c0.624,0,1.0869,1.3701,1.5142,1.3701c0.106,0,0.1948-0.0889,0.1948-0.2139c0-0.373-0.5337-1.1392-0.5337-1.6382
		c0-0.3018,0.2129-0.4448,0.4985-0.4448c0.4092,0,0.9624,0.249,1.2642,0.249c0.1069,0,0.2139-0.0352,0.2139-0.1602
		c0-0.4268-1.585-0.8887-1.585-1.4419C16.8115,0.6396,17.6836,0.6396,17.6836,0.3911 M43.0537,35.4453
		c-0.374,0-2.4404,2.7598-3.7744,2.7598c-0.3203,0-0.5889-0.6064-0.5889-1.0684c0-0.25,0.1611-0.4277,0.7324-0.5527
		c3.0605-0.6943,2.3838-2.9902,5-2.9902c1.4424,0,3.0469,0.9805,3.0469,3.1875c0,2.3477-3.3467,5.2695-3.8467,5.2695
		c-0.4092,0-0.8555-0.5889-0.8555-0.9795c0-0.125,0.0537-0.2852,0.4111-0.4287c1.708-0.6768,2.6865-2.2412,2.6865-3.0439
		c0-0.1777-0.0879-0.3555-0.3203-0.3555c-0.3027,0-1.6016,2.9551-3.043,2.9551c-0.998,0-2.0137-0.9082-2.0137-1.334
		c0-0.7129,2.8857-2.0303,2.8857-3.0283C43.374,35.4619,43.1953,35.4453,43.0537,35.4453 M44.9756,34.3418
		c-0.25,0-0.5176,0.1963-0.5176,0.6748c0,0.5352,0.4111,0.873,0.6416,0.9805c0.125,0.0713,0.3213,0.1416,0.5176,0.1416
		c0.5156,0,0.9258-0.1416,0.9258-0.5693C46.543,35.0166,45.7422,34.3418,44.9756,34.3418 M21.8677,2.207
		c0,0.3208,1.1221,1.0146,1.6382,1.0146c0.3027,0,0.3916-0.4097,0.3916-0.8369c0-0.5327-0.2319-0.5508-0.6948-0.5508
		C22.6167,1.834,21.8677,1.9937,21.8677,2.207 M23.7197,5.7319c0-1.0679-2.9189-3.0439-2.9189-3.8452
		c0-0.0347,0-0.0527,0.0171-0.0889c0.2139-0.5879,2.6338-0.998,2.6338-1.478c0-0.2319-0.4258-0.2319-0.6401-0.2319
		c-1.6558,0-4.0767,0.606-4.0767,1.1938c0,0.605,2.1719,2.083,2.1719,2.813c0,0.1953-0.124,0.2671-0.3198,0.2671
		c-0.605,0-1.9243-0.73-2.5464-0.73c-0.2847,0-0.3906,0.1948-0.3906,0.48c0,0.854,1.0127,2.4761,1.0127,2.9551
		c0,0.0542-0.0181,0.125-0.0879,0.125c-0.3208,0-1.834-1.7798-2.3682-1.7798c-0.1948,0-0.2139,0.2656-0.2139,0.6577v0.606
		c0,0.4092-0.0171,0.6582-0.2129,0.6582c-0.4639,0-0.6772-1.3003-1.1221-1.3003c-0.4639,0-0.5522,2.3164-0.9961,2.3164
		c-0.5171,0-0.0718-2.5474-0.5708-2.5474c-0.5522,0-1.1753,1.6924-1.5659,1.6924c-0.1431,0-0.1782-0.1431-0.1782-0.2681
		c0-0.5151,0.3022-1.3511,0.3022-1.8511c0-0.249-0.0713-0.3921-0.2852-0.3921c-0.5522,0-1.7612,0.8921-2.2251,0.8921
		c-0.0708,0-0.1602-0.0361-0.1602-0.1079c0-0.4282,1.9414-1.7803,1.9414-2.3862c0-0.5879-2.6714-0.1958-2.6714-0.8721
		c0-0.5688,1.9053-1.1577,1.9053-1.7451c0-0.5156-2.2622-0.7466-3.1333-0.7466c-1.0518,0-1.6206,0.124-1.6206,0.4258
		c0,0.4639,2.3857,0.606,2.3857,1.0161c0,0.3921-2.4751,1.4409-2.4751,2.0479c0,0.5332,3.4902,0.0342,3.4902,0.5869
		c0,0.604-3.0449,3.2212-3.0449,4.0942c0,0.1968,0.1431,0.2852,0.3379,0.2852c0.9268,0,3.3301-1.7622,3.9878-1.7622
		c0.231,0,0.25,0.2842,0.25,0.5332c0,0.4629-0.1597,1.1748-0.1597,1.6929c0,0.4077,0.106,0.6929,0.4629,0.6929
		c0.6577,0,1.2642-1.1211,1.708-1.1211c0.5698,0,0.231,3.293,1.0869,3.293c0.729,0,1.0313-3.561,1.4951-3.561
		c0.4629,0,0.8369,1.0332,1.2651,1.0332c0.5327,0,0.2837-1.7979,0.8525-1.7979c0.624,0,2.4043,2.1357,3.2051,2.1357
		c0.25,0,0.3394-0.1958,0.3394-0.4448c0-0.9429-1.3174-3.0801-1.3174-3.7559c0-0.1792,0.0522-0.2324,0.248-0.2324
		c0.6953,0,2.7241,0.9624,3.6851,0.9624C23.5225,6.1421,23.7197,5.9639,23.7197,5.7319 M48.0205,26.2227
		c0.2852-0.8896,0.6406-1.5137,1.2266-2.4746c-0.5859-0.3022-2.1348-0.9434-2.1348-1.9932c0-1.229,1.5322-2.189,1.8506-2.189
		c0.1426,0,0.1787,0.125,0.1787,0.356c0,0.6401-0.3027,1.6719-0.3027,2.2241c0,0.498,0.3203,0.979,0.6045,0.979
		c0.3037,0,1.1406-1.0684,1.1406-2.1182c0-1.8867-1.6563-2.4561-2.1709-2.4561c-0.4814,0-1.3545,0.7832-3.4033,0.7832
		c-3.8262,0-4.6992-3.792-4.6992-5.4482c0-0.0718,0.0176-0.0889,0.0352-0.0889c0.0898,0,0.4639,0.4629,1.6738,0.4629
		c0.624,0,1.1943-0.1597,2.1035-0.1597c2.1348,0,3.0791,1.478,4.3965,3.3647c0.7988,0.498,2.7051,1.2988,2.7051,3.5601
		c0,1.9932-2.1191,3.0972-2.6338,5.2339c0.8184-0.0889,1.2979-1.5498,2.1357-1.5498c0.4277,0,0.623,0.3389,0.623,0.8721
		c0,0.7847-0.4453,1.959-1.2998,2.689c0.0176-0.0713,0.0176-0.1602,0.0176-0.2661c0-0.499-0.1963-1.2109-0.7656-1.2109
		c-0.8887,0-1.1738,0.9609-1.6738,1.7617c-0.5156-1.8149-1.21-3.4536-2.4561-4.4497c-1.2627-1.0161-3.4365-0.4639-3.4365-2.3149
		c0-0.498,0.3203-1.21,0.3203-1.7793c0-0.1958-0.0361-0.374-0.1416-0.5156c1.709,0.6387,1.1035,1.7788,2.1543,2.9536
		c0.6572,0.748,2.4746,1.46,3.5254,4.5381c0.0166-0.0869,0.0342-0.3188,0.0342-0.479c0-2.6348-3.4883-5.2158-3.79-6.2837
		c2.0273,0.2319,2.3838,0.73,3.3467,3.3989C47.3789,24.1758,48.0205,25.5469,48.0205,26.2227 M9.7798,11.7139
		c0.0879-0.2852,0.1602-0.6401,0.1602-1.0322c0-0.855-0.3911-2.1538-1.603-2.1538c-0.6943,0-1.1924,0.5513-1.1924,1.21
		C7.1445,11.145,8.5518,11.7139,9.7798,11.7139 M8.2656,16.1997c-0.5869,0-1.2271-0.729-1.2271-1.3867
		c0-0.3569,0.2671-0.8032,0.4609-0.8032c0.0723,0,0.1074,0.0542,0.125,0.1782c0.1074,0.874,0.6772,1.3721,1.2114,1.6201
		c0.0537,0.0356,0.0898,0.0537,0.0898,0.0889C8.9258,16.022,8.5869,16.1997,8.2656,16.1997 M10.3667,14.5278
		c0,0.248-0.1421,0.5698-0.4268,0.5698c-0.6221,0-1.1211-0.9448-1.1211-1.479c0-0.3369,0.1958-0.3726,0.4629-0.3726
		c0.124,0,0.1777,0.0176,0.2671,0.0708c0.1587,0.0889,0.1587,0.4438,0.355,0.7109C10.0107,14.2061,10.3667,14.4019,10.3667,14.5278
		 M9.7437,12.6577c-0.106-0.0181-0.249-0.0181-0.3911-0.0181c-0.5879,0-1.3721,0.1064-2.0649,0.5703
		c-1.5679,1.0151-1.3188,2.6157-1.5679,3.0259c-0.0352,0.0532-0.0532,0.125-0.0532,0.1973c0,0.1587,0.1782,0.3369,0.3384,0.3369
		c0.1426,0,0.2319-0.0352,0.3027-0.0352c0.4282,0,0.9082,0.3032,1.6021,0.3032c0.4102,0,0.8911-0.126,1.4961-0.4282
		c1.2817-0.6411,1.7808-2.2261,1.7808-2.4932c0-0.3379-0.2666-0.2847-0.499-0.605c-0.249-0.373-0.125-0.5146-0.2847-0.73
		C10.2959,12.6938,10.0649,12.6938,9.7437,12.6577 M11.6318,15.5249c-0.3921,0.4609-0.8022,1.2451-0.8022,2.0469
		c0,0.96,0.5879,1.7622,1.4961,1.7622c0.8721,0,1.2822-0.748,1.2822-1.5132C13.6079,16.6279,12.5205,15.791,11.6318,15.5249
		 M7.8208,12.106c0,0-0.5151,0.3921-1.1572,0.3921c-0.7646,0-1.3711-0.5713-1.3711-1.3711c0-0.5522,0.2842-1.1211,0.9443-1.4072
		C6.2188,9.8267,6.2188,9.916,6.2188,10.0229C6.2188,11.0381,6.7896,11.8027,7.8208,12.106 M39.4932,22.4658
		c0-0.355,0.3184-0.6577,0.6758-0.6577c0.3906,0,0.6934,0.3027,0.6934,0.6577c0,0.4092-0.3027,0.6948-0.6934,0.6948
		C39.8115,23.1606,39.4932,22.875,39.4932,22.4658 M39.9551,42.9404c0.0889,0,0.1953,0.0547,0.1953,0.374
		c0,0.3916-0.1777,0.9072-0.8164,1.3164c-0.4463,0.3027-1.0527,0.5518-1.9424,0.5703c0.1426-0.4277,0.249-0.8721,0.249-1.2998
		c0-0.1426-0.0176-0.25-0.0361-0.4082h0.2324C39.2441,43.4932,39.8477,42.9404,39.9551,42.9404 M40.0967,41.1777
		c0.1426-0.125,0.1777-0.3203,0.1777-0.5166V40.252c0-0.5156-0.7813-0.8203-1.8496-0.8203c-1.2998,0-1.9951,0.5879-1.9951,0.8379
		v0.8193c0,0.3379,0.7842,0.6758,1.7461,0.6758C38.9404,41.7646,39.6357,41.5693,40.0967,41.1777 M41.0225,41.374
		c-0.4629,0.3545-1.5469,1.1582-3.3457,1.1582c-0.9619,0-1.3887-0.3037-1.5313-0.3037c-0.1777,0-0.374,0.1787-0.5693,0.4092
		c-0.4277,0.498-0.9795,1.4238-0.9795,2.4385c0,0.7129,0.5518,1.4258,1.584,1.4258c3.3301,0,5.8223-2.084,5.8223-3.7744
		C42.0029,41.7646,41.4326,41.374,41.0225,41.374 M41.6455,26.4009c0,0.4448,0.1436,0.9609,0.5879,0.9609
		c0.374,0,0.6963-0.5688,0.6963-1.1919c0-0.7129-0.126-1.2651-0.126-1.5498c0-0.124,0.0537-0.1772,0.126-0.1772
		c0.2656,0.0181,0.5156,0.7471,0.8008,0.7471c0.3203,0,0.7998-0.5869,0.9951-0.5869c0.0527,0,0.0723,0.0708,0.0723,0.0889
		c0,0.2671-0.4102,0.855-0.4102,1.0859c0,0.1963,1.0332,0.231,1.0332,0.4102c0,0.2671-1.0869,0.2671-1.6016,0.498
		c-0.499,0.2139-0.8018,0.481-0.8018,0.8369s0.3564,0.4268,0.8555,0.4268c1.1914,0,2.0283-0.6406,2.2959-0.6406
		c0.0527,0,0.0889,0.0356,0.0889,0.0889c0,0.1777-0.6064,0.7661-0.6064,1.0327c0,0.3032,1.1055,0.6582,1.0869,0.8364
		c-0.0176,0.0537-0.0889,0.0708-0.2139,0.0708c-0.1943,0-0.498-0.0532-0.7295-0.0532c-0.1436,0-0.2676,0.0171-0.3213,0.0884
		c-0.125,0.144,0.0361,1.0869-0.2129,1.0869c-0.2324,0-0.8379-2.1011-2.207-2.1011c-0.1963,0-0.3389,0.1611-0.3389,0.4282
		c0,0.7119,0.6953,1.5308,1.3535,1.9219c0.3018,0.1968,0.8008,0.3921,0.8008,0.499c0,0.2129-1.1387,0.0181-1.1387,0.373
		c0,0.3208,0.1426,0.8018,0.1426,1.0869c0,0.0889-0.0176,0.1958-0.125,0.1958c-0.2129,0-0.7305-0.98-0.9805-0.98
		c-0.2119,0-0.6748,0.5879-0.8721,0.5879c-0.0527,0-0.0889-0.0527-0.0889-0.1069c0-0.4097,0.6592-1.335,0.6592-2.2427
		c0-0.4272-0.0527-1.353-0.5703-1.353c-0.4268,0-0.9082,0.6758-1.1221,1.353c-0.125,0.3916-0.0352,1.9048-0.3193,1.9048
		c-0.2676,0-0.1973-1.0151-0.5537-1.0151c-0.2646,0-0.834,0.481-1.0303,0.481c-0.0352,0-0.0713-0.0176-0.0713-0.0537
		c0-0.2129,0.5156-0.9072,0.5156-1.0503c0-0.2666-1.1758-0.3027-1.1758-0.5156c0-0.126,0.4629-0.2144,0.8906-0.2852
		c0.9082-0.1611,2.2432-0.8188,2.2432-1.7451c0-1.0317-0.998-1.4771-1.6543-1.9048c-0.3389-0.2129-0.7129-0.3911-0.7129-0.5342
		s0.4287-0.1431,0.6055-0.1431c0.2656,0,0.5332-0.0181,0.5332-0.231c0-0.1611-0.0371-0.48-0.0371-0.73
		c0-0.1777,0.0176-0.3198,0.0898-0.3198c0.2666,0,0.6416,0.8721,0.8203,0.8721c0.2842,0,0.6758-0.7124,0.9434-0.7124
		c0.0879,0,0.124,0.0532,0.124,0.2144C41.9844,25.0117,41.6455,25.7598,41.6455,26.4009 M33.1543,21.186
		c0.1963,1.5117,2.2256,0.7471,2.2256,2.5801c0,0.2666-0.0713,0.6587-0.0713,0.9966c0,0.3921,0.0352,0.73,0.3379,0.73
		s0.374-0.2129,0.374-0.499c0-0.2847-0.0713-0.6396-0.0713-0.8359c0-0.623,0.4453-0.7656,0.7129-0.7656
		c0.6758,0,1.1924,0.6948,2.208,0.6948c-0.2324,1.1392-2.582,0.8359-2.582,2.083c0,0.623,0.623,0.7651,1.0322,0.7651
		c0.373,0,0.498-0.0542,0.498-0.374c0-0.1782-0.0361-0.373-0.0361-0.498c0-0.0723,0.0547-0.1431,0.1436-0.1431
		c0.3916,0,2.3135,1.46,2.3135,1.9048c0,0.4102-2.0283,0.8193-2.6162,0.8193c-0.1777,0-0.2139-0.124-0.2139-0.1953
		c0-0.125,0.3027-0.499,0.3027-0.7129c0-0.1602-0.2666-0.2671-0.9795-0.2671c-0.3379,0-0.5869,0.0361-0.5869,0.3032
		c0,0.481,0.7832,1.0679,0.7832,1.5127c0,0.3564-0.2139,0.5703-0.7832,0.5703c-0.4805,0-1.2109-0.374-1.2109-0.9971
		c0-0.499,0.5176-0.9971,0.5176-1.2998c0-0.0894-0.0723-0.2314-0.2861-0.2314c-0.6592,0-0.8359,1.7441-3.1689,1.9404
		c0.374-0.3374,0.6943-0.7124,0.6943-1.4771c0-0.374-0.0889-0.6772-0.0889-1.0859c0-0.5342,0.249-0.8013,0.6055-0.8013
		c0.6592,0,0.9785,0.9238,1.4053,0.9238c0.2324,0,0.4814-0.2119,0.4814-0.5327c0-1.353-2.5986-1.1572-2.5986-3.062
		C32.4961,22.7158,32.6738,22.0747,33.1543,21.186 M36.5371,32.7568c0,0.249,0.1777,0.4448,0.4268,0.4448
		c0.2852,0,0.4639-0.2485,0.4639-0.5337c0-0.374-0.3389-0.8901-0.6602-0.8901c-0.1416,0-0.0879,0.2129-0.125,0.4448
		C36.626,32.4009,36.5371,32.6138,36.5371,32.7568 M35.6113,30.3887c1.8691,0.3564,2.8857,1.7632,2.8857,3.0801
		c0,0.9092-0.5713,1.7441-1.5684,1.7441c-0.9082,0-1.5674-0.623-1.5674-1.6191c0-0.748,0.5879-1.5317,0.5879-2.2979
		C35.9492,30.9937,35.8604,30.6919,35.6113,30.3887 M33.2441,33.416c0.1777,0.1777,0.2314,0.3555,0.2314,0.5342
		c0,0.2666-0.125,0.5518-0.125,0.8535c0,0.4258,0.3203,0.7998,0.7842,0.7998c0.4971,0,0.8359-0.3906,0.8359-0.8535
		C34.9707,34.0752,34.2754,33.416,33.2441,33.416 M39.1357,32.2759c0.125,0.1958,0.1787,0.3921,0.1787,0.5698
		c0,0.499-0.3379,0.9619-0.3379,1.4785c0,0.5859,0.4463,1.0674,1.1201,1.0674c0.7314,0,1.2295-0.5879,1.2295-1.2813
		C41.3262,33.167,40.4717,32.3647,39.1357,32.2759 M33.6709,31.332c0.8174,0.1069,1.0146,0.3921,1.0146,0.623
		c0,0.3926-0.3555,0.5166-0.6953,0.5166c-0.2471,0-0.5322-0.0527-0.8359-0.0527c-0.3916,0-0.7832,0.0889-1.1035,0.4629
		c0.2295,0.0352,0.5703,0.1948,0.5703,0.5522c0,1.0317-2.8672,0.1768-2.8672,2.8296c0,1.4082,1.4609,2.9365,3.668,2.9365
		c1.1387,0,1.8691-0.3711,1.8691-0.7988c0-0.3389-0.6055-0.1074-0.6055-0.3916c0-0.126,0.2129-0.3564,0.2129-0.5527
		c0-0.0879-0.0703-0.249-0.2129-0.249c-0.3213,0-0.9258,0.5156-2.1543,0.5156c-0.9609,0-1.9043-0.5518-1.9043-1.2998
		c0-0.1602,0.0703-0.25,0.1777-0.25c0.1064,0,0.249,0.0723,0.373,0.0723c0.1084,0,0.125-0.0723,0.125-0.2676s0-0.749,0.3389-0.749
		c0.3369,0,0.9795,1.248,3.4355,1.248c0.8193,0,2.4033-0.1611,2.9902-0.6943c-0.0176,1.959-1.5488,4.54-4.7529,4.54
		c-3.3291,0-5.1089-2.6699-5.1089-5.1279c0-2.7236,2.2251-5.1982,5.27-5.1982c0.7822,0,1.4414,0.2666,1.4414,0.606
		C34.917,31.0659,33.7598,30.7808,33.6709,31.332 M20.7827,13.104c0-0.3042-0.0708-0.374-0.1431-0.374
		c-0.1777,0-0.374,0.2129-0.6577,0.6929c0.0347,0.6411,0.1416,0.9272,0.3188,0.9272C20.4976,14.3501,20.7827,13.7261,20.7827,13.104
		 M18.3428,13.832c0.1968,0,0.4448-0.2134,0.9077-0.728c0.0361-0.2319,0.0361-0.4463,0.0361-0.7129
		c0-0.3574-0.1431-0.749-0.3569-0.749c-0.5332,0-0.7998,1.4258-0.7998,1.7988C18.1299,13.6538,18.2368,13.832,18.3428,13.832
		 M21.2446,15.417c0.4463,0,0.9438-1.709,0.9438-2.7773c0-0.2319-0.0356-0.481-0.1416-0.481c-0.374,0-0.998,1.7622-0.998,2.7251
		C21.0488,15.2568,21.1377,15.417,21.2446,15.417 M16.8828,14.438c0.606,0,1.2998-3.2749,1.2998-3.8271
		c0-0.1431-0.0527-0.249-0.1768-0.249c-0.5532,0-1.3193,3.1143-1.3193,3.8081C16.6865,14.2949,16.7227,14.438,16.8828,14.438
		 M18.8237,15.791c-0.7661,0-0.8013,0.9268-0.8013,2.7949c-0.5698-1.228-1.5137-2.5459-2.6167-2.5459
		c-0.748,0-1.0332,0.498-1.0332,1.3706c0,0.1792,0.0181,0.4463,0.0532,0.6055c0.0898-0.3013,0.374-0.4263,0.731-0.4263
		c0.7661,0,1.6909,0.5859,2.2959,1.3882c-0.6938-0.124-1.3711-0.25-1.9399-0.25c-0.356,0-0.6768,0.0356-0.9438,0.1606
		c-0.5161,0.2314-1.2109,0.9971-1.2109,2.1553c0,0.1777,0.0176,0.3721,0.0537,0.5859c0.623-1.3892,2.2793-2.0098,3.3472-2.0098
		c0.2129,0,0.374,0.0166,0.498,0.0347c-0.5522,0.4971-0.6772,1.3701-0.7119,1.957c-0.0181,0.2852-0.125,0.3032-0.3203,0.3032
		c0,0.5859,0.4619,1.46,0.4619,1.9048c0,0.1602-0.0889,0.3022-0.1777,0.3379c0,0.7832,0.7827,1.353,0.7827,1.8511
		c0,0.125-0.0347,0.2319-0.0879,0.2852c0.0532,0.3208,0.9082,0.873,1.0151,1.104c0.1777,0.374,0.3027,0.4087,0.3911,0.4087
		c0.3018,0,0.7827-0.356,0.7827-0.6758c0-0.1069-0.0889-0.231-0.1587-0.2852c-0.3394-0.249-0.5171-0.7827-0.6592-1.1387
		c-0.125,0-0.2852-0.0713-0.3379-0.25c-0.0723-0.231-0.1069-1.0684-0.249-1.4771c-0.2319-0.0542-0.3379-0.1421-0.3379-0.623
		c0-0.2319,0.1406-1.1401,0.1406-1.46c-0.1069,0-0.249-0.0713-0.249-0.2852c0-0.5679,0.5703-1.0142,0.73-1.7441
		c1.0151,0.748,1.2642,1.5132,1.2642,2.189c0,0.3564-0.0537,0.6943-0.125,1.0151c0.749-0.374,1.8701-0.9258,1.8701-2.0469
		c0-0.6592-0.3032-1.3882-2.3149-1.6729c0.623-0.2319,1.4067-0.356,2.0659-0.356c1.1392,0,1.7979,0.356,1.9409,1.1558
		c0.23-0.355,0.4082-0.7642,0.4082-1.1382c0-0.8726-0.729-1.4419-1.6553-1.4419c-1.0859,0-2.0479,0.5693-3.0811,1.2642
		c0.4644-0.9609,0.7842-1.5313,1.354-1.5313c0.0894,0,0.1782,0.0171,0.2671,0.0352C20.0518,16.5557,19.2505,15.791,18.8237,15.791
		 M7.4648,4.6987c0,0.356-1.353,1.5503-1.833,1.5503c-0.1792,0-0.2319-0.2153-0.2319-0.4092c0-0.3569,0.1597-0.856,0.356-1.0161
		c0.231-0.2139,0.7656-0.3188,1.1748-0.3188C7.1807,4.5049,7.4648,4.5566,7.4648,4.6987 M48.8203,28.626
		c0.8906,0,1.6035,1.1577,1.6035,2.5107c0,1.4424-0.6768,3.0088-1.8857,4.0762c-0.0186-2.4028-2.957-1.6372-2.957-3.3828
		c0-0.7471,0.5332-1.2451,1.1758-1.2451c0.5703,0,1.0146,0.1602,1.3359,0.481c-0.3213-0.3022-0.4824-0.73-0.4824-1.1401
		C47.6104,29.25,48.0391,28.626,48.8203,28.626 M35.6113,10.415c-0.1426-0.2319-0.6768-0.3569-0.9258-0.3569
		c-0.7842,0-1.3164,0.5527-1.4248,1.0508c-0.0703-0.1782-0.124-0.3911-0.124-0.605c0-0.7842,0.5342-1.7441,1.834-1.7441
		c1.1396,0,1.584,0.604,1.7441,0.604c0.1777,0,0.3555-0.1777,0.499-0.1777c0.1953,0,0.1953,0.3027,0.1953,0.5156
		c0,0.7134-0.3203,1.9404-1.1211,2.3862c-0.1426-0.3032-0.4277-0.6401-0.8906-0.855c-0.125-0.0522-0.1777-0.1592-0.1777-0.2661
		C35.2197,10.771,35.3975,10.522,35.6113,10.415 M32.9229,11.7139c0.4639,0.4448,0.873,0.6411,1.3711,0.6411
		c0.1943,0,0.4268-0.0542,0.5518-0.0542c0.1602,0,0.2666,0.0713,0.2666,0.1973c0,0.1958-0.1777,0.5156-0.3916,0.6938
		c0.2139,0.0898,0.4453,0.125,0.6953,0.125c1.0137,0,2.1719-0.6411,2.1719-2.2432c0.2129,0.2842,0.3379,0.8721,0.3379,1.1382
		c0,1.9409-1.4248,2.689-2.7412,2.689c-0.8545,0-1.2832-0.2852-1.3887-0.2852c-0.3379,0-0.3203,0.6763-0.5518,0.6592
		c-0.4102-0.0708-0.7842-0.98-0.7842-1.9409C32.46,12.7637,32.6025,12.1587,32.9229,11.7139 M20.5508,6.5337
		c0,0.6221,2.2251,3.667,2.6519,3.667c0.356,0,0.623-0.6226,0.623-1.1577c0-0.1411-0.0352-0.2832-0.106-0.3911
		c-0.3208-0.4438-2.582-2.2251-3.0801-2.2251C20.5869,6.4268,20.5508,6.48,20.5508,6.5337 M46.2393,5.0728
		c0-1.2627-3.0254-1.584-3.0254-1.8687c0-0.2324,1.6904-0.623,2.5635-0.6411c-1.3369-1.709-3.2393-1.5313-3.2393-1.833
		c0-0.1792,1.4238-0.5352,2.7402-0.5352c1.1035,0,2.1377,0.249,2.1377,1.0869c0,0.4634-0.375,0.9443-0.375,1.6553
		c0,0.3911,0.1963,0.73,0.7129,0.73c0.5518,0,0.6768-0.5879,0.6768-1.2109c0-0.5151-0.0889-0.9082-0.0889-1.1563
		c0-0.749,0.5146-1.2471,1.2451-1.2471c0.6045,0,0.7471,0.2671,1.6377,0.2671c-0.4805,0.2852-0.6592,0.8022-0.6592,1.0503
		c0,0.7485,0.4824,1.2637,0.4824,2.7959c0,2.812-2.6348,3.8101-5.8594,3.8101c-0.8896,0-1.832-0.0723-2.7578-0.2153
		C42.2881,7.7437,42.252,7.708,42.252,7.6201c0-0.2324,1.2646-0.3574,1.2646-1.4961c0-0.4463-0.1426-0.873-0.1426-1.0332
		c0-0.0889,0.0713-0.1431,0.1426-0.1431c0.2676,0,0.7998,1.0342,1.7969,1.0342C45.5811,5.9819,46.2393,5.8931,46.2393,5.0728
		 M49.2471,3.2749c0,1.585-1.1543,2.7949-3.2393,3.1338c0.2314,0.0181,0.4463,0.0181,0.6602,0.0181
		c2.4375,0,3.3281-1.105,3.3281-2.0288C49.9961,3.8809,49.7109,3.418,49.2471,3.2749 M47.5576,17.5898
		c0-0.374-0.9443-0.4102-1.0332-1.4609c-0.0176-0.1602-0.0703-0.4448-0.2666-0.4448c-0.3203,0-0.0723,0.979-0.4277,0.979
		c-0.8203,0-1.0859-1.6011-1.3896-1.6011c-0.0703,0-0.1602,0.0527-0.1602,0.2671c0,0.1958,0.0361,0.3198,0.0361,0.5508
		s-0.0547,0.3921-0.2656,0.3921c-0.4814,0-0.9082-1.1221-1.3184-1.1221c-0.0889,0-0.1768,0.0542-0.1768,0.1421
		c0,0.2148,0.3564,0.605,0.3564,0.8008c0,0.4282-1.1592,0.1963-1.1592,0.5522c0,0.1606,0.1611,0.2148,0.375,0.2148
		c0.374,0,0.9609-0.1611,1.2627-0.1611c0.1787,0,0.4473,0.0361,0.4473,0.2671c0,0.25-0.6426,0.5698-0.6426,0.8022
		c0,0.1069,0.1084,0.1587,0.1953,0.1587c0.4824,0,1.335-0.8359,1.9404-0.8359c0.1074,0,0.375,0.0532,0.375,0.2139
		c0,0.231-0.6064,0.6401-0.6064,0.978c0,0.0903,0.0537,0.1973,0.1611,0.1973c0.3203,0,0.7471-0.8369,1.3525-0.8369
		c0.2324,0,0.5713,0.0889,0.748,0.0889C47.5049,17.7319,47.5576,17.6431,47.5576,17.5898 M34.8096,4.0059
		c0-0.1958-0.6924-0.5708-0.6924-0.7842c0-0.0356,0.0342-0.0537,0.0879-0.0537c0.1943,0,0.5332,0.0708,0.8008,0.0708
		c0.2305,0,0.2666-0.9951,0.4463-0.9951c0.124,0,0.3379,0.9424,0.5342,0.9424c0.2305,0,0.6563-0.2671,0.835-0.2671
		c0.0361,0,0.0713,0.0181,0.0713,0.0527c0,0.126-0.4453,0.6064-0.4453,0.748c0,0.1611,0.998,0.356,0.998,0.5
		c0,0.1782-1.0156,0.1602-1.0156,0.3193c0,0.125,0.374,0.623,0.374,0.7827c0,0.0361-0.0176,0.0542-0.0527,0.0542
		c-0.1436,0-0.6943-0.249-0.8545-0.249c-0.1953,0-0.5166,0.731-0.6768,0.731c-0.0537,0-0.0889-0.0732-0.0889-0.1621l-0.0361-0.7119
		c0-0.0708-0.0352-0.1421-0.124-0.1421c-0.2139,0-0.624-0.0181-0.748-0.0181c-0.0879,0-0.124-0.0181-0.124-0.0527
		C34.0986,4.6279,34.8096,4.1299,34.8096,4.0059 M38.2813,7.3877c-1.2451,0-2.0645-0.624-2.0645-0.9438
		c0-0.1602,0.1074-0.2661,0.249-0.2661c0.3916,0,1.2461,0.604,1.5322,0.604c0.0693,0,0.124-0.0347,0.124-0.1421
		c0-0.3198-0.3037-0.855-0.3037-1.1216c0-0.0703,0.0537-0.124,0.1611-0.124c0.4805,0,1.1934,0.1958,1.5674,0.1958
		c0.125,0,0.1602-0.0718,0.1602-0.1421c0-0.3931-1.1572-1.1577-1.1572-1.3896c0-0.2134,1.4404-0.5332,1.4404-0.8721
		c0-0.356-1.958-0.1069-1.958-0.4453c0-0.249,0.373-0.6768,0.373-0.8706c0-0.0903-0.0693-0.125-0.1943-0.125
		c-0.1611,0-1.0156,0.3379-1.3711,0.3379c-0.1777,0-0.3926-0.0352-0.3926-0.2852c0-0.4092,0.6943-0.855,1.7822-0.855
		c1.7607,0,2.8115,1.2109,2.8115,3.2412C41.041,6.7471,39.2441,7.3877,38.2813,7.3877 M26.2295,38.1875
		c0,0.1592-0.0537,0.3389-0.1958,0.5156c-0.1948-0.3564-0.748-0.5342-0.9961-0.5342c-1.835,0-1.1401,2.6533-3.0991,2.6533
		c-0.8188,0-0.8896-0.1074-1.1919-0.1074c-0.125,0-0.1958,0.0527-0.1958,0.1602c0,0.4629,0.6577,1.6025,2.4917,1.6025
		c1.8354,0,3.5962-1.1221,3.5962-2.5117c0-0.2295-0.0542-0.4795-0.1611-0.7295c0.0723-0.1074,0.25-0.1787,0.4102-0.1787
		c0.2852,0,0.4458,0.3213,0.7119,0.3213c0.2852,0,0.499-0.2139,0.499-0.4971c0-0.2324-0.125-0.3906-0.3398-0.499
		c0.144-0.1055,0.251-0.2852,0.251-0.4795c0-0.3047-0.2148-0.5889-0.5698-0.5889c-0.1611,0-0.2671,0.0547-0.3921,0.1787
		c-0.0352-0.3213-0.2134-0.624-0.5522-0.624c-0.2661,0-0.4619,0.1953-0.4619,0.5C26.0337,37.6533,26.2295,37.8838,26.2295,38.1875
		 M21.4409,38.8643c-0.5342,0-1.3354-0.5703-1.3354-0.8906c0-0.2676,0.25-0.4102,0.4453-0.4102
		c0.4448,0,1.2461,0.5527,1.2461,1.0166C21.7969,38.7031,21.7075,38.8643,21.4409,38.8643 M16.4736,34.874
		c1.4253,0.3555,2.1362,1.123,2.2793,2.0313c0.1416,0.8721,0.3198,1.5859,0.6577,1.9404c0.4463,0.4971,1.3179,0.9424,2.083,0.9424
		c0.6421,0,1.1582-0.2129,1.1582-0.7988c0-0.6426-0.8721-2.084-2.1543-2.084c-0.125,0-0.2847,0.0176-0.4629,0.0176
		c-0.1602,0-0.3921-0.0361-0.5352-0.1611c-0.2847-0.249-0.374-1.584-0.9077-2.3838c-0.5859-0.8911-1.2271-1.1401-2.1001-1.1401
		c-0.623,0-1.3169,0.3379-1.3169,0.8374C15.1748,34.3779,15.3345,34.5898,16.4736,34.874 M25.4106,32.7031
		c0-0.8013-1.6548-0.8193-1.6548-2.0293c0-0.3027,0.1948-0.8188,0.5869-1.3721c0.1602,0.9272,0.5352,1.4072,1.335,1.71
		c1.584,0.5874,1.7988,1.4771,1.7988,2.4224c0,1.6001-1.1221,3.5962-4.0059,3.5962c-2.3149,0-3.9712-2.0664-3.9712-3.8105
		c0-0.481,0.125-1.0146,0.4282-1.0146c0.2671,0,0.356,0.2139,0.5698,0.4268c0.8003,0.8022,1.6733,1.0151,2.936,1.0151
		C24.5747,33.647,25.4106,33.1851,25.4106,32.7031 M25.4819,33.9863c-0.6221,0.249-0.854,0.2305-0.854,0.8525
		c0,0.2324-0.0532,0.5352-0.0532,0.6953c0,0.2139,0.0352,0.3379,0.2852,0.3379c0.6387,0,1.6538-1.0859,1.6538-2.0107
		c0-0.2505-0.1411-0.3564-0.3008-0.3564C26.0698,33.5049,25.9097,33.79,25.4819,33.9863 M19.8027,24.9937
		c0-1.1387,2.707-1.7437,2.707-3.1509c0-0.231-0.0889-0.6387-0.25-0.9429c0.9429,0.5161,1.6377,1.3901,1.6377,2.1011
		c0,1.229-1.2808,1.7979-1.2808,2.563c0,0.8911,1.3701,1.0327,1.3701,2.1367c0,0.9082-1.2993,1.958-1.2993,3.1333
		c0,0.9077,0.6392,1.6548,1.6201,1.7798c-0.3208,0.0723-0.6069,0.125-0.9087,0.125c-1.7983,0-3.6494-1.478-3.6494-3.2397
		c0-0.873,0.374-1.6382,0.9443-2.1899c0.498,0.4268,0.9971,0.7119,1.3159,0.7119c0.2861,0,0.4111-0.1421,0.4111-0.356
		C22.4209,27.0059,19.8027,26.4009,19.8027,24.9937"/>
	<path clip-path="url(#SVGID_2_)" fill="#250671" d="M23.4741,63.082c0.5029,0,1.3682-0.1641,2.0488-1.2549
		c-0.3896-0.8633-0.667-2.6104-0.707-3.2461c-0.1997-3.251,1.0542-6.3105,2.4253-6.3945c1.0049-0.0596,1.8096,0.8926,1.9023,2.4307
		c0.2471,4.0537-1.1035,5.7461-1.7773,7.2031c0.1138,0.5664,1.0718,1.5293,1.9785,1.5293c0.3359,0,0.7393-0.167,0.8408-0.3027
		c-0.0684-0.2334-0.1367-0.5352-0.1367-0.9717c0-2.3477,1.5127-4.3291,2.8203-4.3291c1.041,0,1.6416,1.376,1.6416,2.2852
		c0,1.0703-0.9043,1.9443-2.2461,2.7822c0.2363,0.2334,0.6709,0.4023,1.041,0.4023c1.9121,0,2.917-2.3125,3.6572-4.4297
		c0.1338-0.4023,0.3701-0.9727,0.8369-0.9727c0.8066,0,1.1436,5.3018,2.4834,5.3018c0.5723,0,1.04-1.1758,1.04-2.0781
		c0-0.6719-0.2344-0.7393-0.2344-1.7139c0-1.0723,0.5703-1.9795,1.3428-1.9795c0.4697,0,0.6387,0.4697,0.6387,1.04
		c0,2.1484-1.5439,6.1406-3.8242,6.1406c-1.7139,0-1.5801-2.9541-2.1807-2.9541c-0.6748,0-1.6143,2.9883-4.9346,2.9883
		c-0.5391,0-1.1064-0.2676-1.5762-0.8076c-0.8057,0.54-1.4775,0.7734-2.2495,0.7734c-1.2412,0-1.7778-1.2754-2.2803-1.2754
		c-0.605,0-1.2739,1.3096-3.2886,1.3096c-1.6113,0-1.8794-2.1455-2.4482-2.1455c-0.5039,0-1.2759,2.1455-2.1138,2.1455
		c-1.4121,0-1.7114-3.7236-2.9541-3.7236c-0.9731,0-4.0469,3.7813-4.8823,3.6963c-0.3359-0.0361-0.4756-0.2861-0.4409-0.623
		c0.0474-0.4639,0.4463-1.7061,0.6089-2.2949c0.2725-1.0186,0.52-2.1396,0.6602-2.4951c0.1382-0.3594,0.5122-0.6162,0.8091-0.5879
		c0.1499,0.0137,0.1958,0.2949,0.2432,0.5254c0.168,0.832,0.4058,1.6768,0.6729,1.6768c0.4712,0,2.0278-2.9863,2.9331-2.9863
		c1.1079,0,1.2417,4.6982,2.752,4.6982c0.5029,0,0.874-0.6045,1.208-1.3428c0.0337-1.2432,0.3691-3.0186,1.375-3.0186
		c0.707,0,1.042,1.5752,0.5371,2.9541C21.6963,62.6777,22.769,63.082,23.4741,63.082 M48.5039,59.9287
		c0-0.8389-0.7705-2.0146-1.9121-2.0146c-1.5098,0-2.9834,1.6445-2.9834,3.9258c0,2.0449,1.2715,2.7188,2.5469,2.7188
		c2.2148,0,3.5576-1.8145,4.2607-3.3223c0.3369,1.0059,0.5352,3.3223,1.376,3.3223c0.3359,0,0.5713-0.168,0.9756-1.0752
		c1.0049-2.2471,1.9766-4.8311,3.3203-4.8311c0.502,0,0.2012,0.9063,1.4082,0.9063c0.5713,0,0.9717-0.4688,0.9717-1.0078
		c0-0.7715-0.7031-1.376-1.7773-1.376c-3.1523,0-3.8223,4.7334-4.3271,4.7334c-0.8389,0-0.5713-3.791-1.1748-3.791
		c-0.5371,0-0.8066,0.6377-0.873,0.9375c-0.4375,1.7451-1.6777,4.2637-3.5566,4.2637c-0.4355,0-1.208-0.1699-1.208-0.6055
		C45.5508,62.2422,48.5039,62.1768,48.5039,59.9287 M28.0562,55.5234c-0.0581-0.9365-0.2852-1.3594-0.7871-1.3252
		c-0.6689,0.04-0.9771,2.1406-0.8418,4.3506c0.0869,1.4424,0.3018,1.6631,0.502,1.6504
		C27.2993,60.1768,28.1851,57.6006,28.0562,55.5234 M22.6011,53.5547c-0.0317-0.5391-0.4678-0.9072-1.0381-0.9072
		c-0.6377,0-1.2437,0.6719-1.1738,1.5098c0,0.5029,0.3682,1.0068,1.0068,1.0068C22.1333,55.1641,22.6699,54.3281,22.6011,53.5547
		 M33.0381,60.3975c0-0.5674-0.3037-1.041-0.6719-1.041c-0.3027,0-1.0059,0.3369-1.0059,1.4102
		c0,0.8389,0.3008,1.2402,0.4365,1.4102C32.7686,61.873,33.0381,61.0684,33.0381,60.3975 M46.1553,59.2588
		c0.7051,0,0.9082,0.8359,0.7402,1.3398c-0.1689,0.5029-0.7725,1.0742-1.7129,1.2412
		C44.9814,61.3359,44.8799,59.2588,46.1553,59.2588 M0.0073,59.7949c-0.0342-1.3779,0.0337-2.7529,0.605-4.6982
		c0.3008-1.0391,0.5708-1.4092,1.5088-1.6084c0.7378-0.1357,0.6719,0.6357,0.5049,1.542c-0.3687,2.0117-0.5391,2.9844-0.4028,5.2676
		c0.1309,2.415,1.2407,3.3555,2.4478,3.3555c1.811,0.0332,2.6172-1.4766,2.9521-3.6582c0.2681-1.7441,0.0659-2.585-0.1021-3.1201
		c-0.1001-0.3018-0.3677-0.9736-0.4688-1.4756c-0.1333-1.2754,0.4688-1.8779,0.9736-2.0469
		c0.604-0.1689,0.8403,0.1357,1.0732,0.8408c0.3032,1.0723,0.3369,2.4785,0.2358,4.4912c-0.1338,2.751-1.5098,6.0752-4.9316,6.0059
		C1.4502,64.627,0.1431,62.7129,0.0073,59.7949"/>
</g>
</svg>
