<?xml version="1.0" encoding="utf-8"?>
<!-- Generator: Adobe Illustrator 15.0.0, SVG Export Plug-In . SVG Version: 6.00 Build 0)  -->
<!DOCTYPE svg PUBLIC "-//W3C//DTD SVG 1.1//EN" "http://www.w3.org/Graphics/SVG/1.1/DTD/svg11.dtd">
<svg version="1.1" id="Слой_1" xmlns="http://www.w3.org/2000/svg" xmlns:xlink="http://www.w3.org/1999/xlink" x="0px" y="0px"
	 width="124.9238px" height="22.7314px" viewBox="0 0 124.9238 22.7314" enable-background="new 0 0 124.9238 22.7314"
	 xml:space="preserve">
<g>
	<defs>
		<rect id="SVGID_1_" y="0.0005" width="124.9238" height="22.731"/>
	</defs>
	<clipPath id="SVGID_2_">
		<use xlink:href="#SVGID_1_"  overflow="visible"/>
	</clipPath>
	<path clip-path="url(#SVGID_2_)" fill="#0A77BE" d="M8.2446,0c0.5298,0.061,1.0581,0.1602,1.5889,0.1758
		c1.6338,0.0474,3.2231,0.3223,4.7451,0.9131c3.126,1.2163,4.4458,3.5562,4.5991,6.689c0.0737,1.5142-0.1064,2.9902-0.749,4.3789
		c-1.2773,2.7612-3.5952,4.1421-6.4653,4.6216c-1.4839,0.2471-3.0161,0.2109-4.5278,0.2744
		c-0.8472,0.0352-0.8569,0.0176-0.8589,0.8887c-0.0029,1.1641,0,2.3281-0.001,3.4932c-0.001,0.8672-0.002,0.8682-0.8423,0.8682
		c-1.6641,0.001-3.3281-0.002-4.9917,0.0029c-0.2471,0.001-0.4941,0.0361-0.7422,0.0557c0-7.2871,0-14.5742,0-21.8613
		c0.4292-0.021,0.8579-0.0439,1.2871-0.064c2.02-0.0923,4.041-0.1792,6.061-0.2813C7.5654,0.145,7.7793,0.0537,7.9956,0H8.2446z
		 M6.5757,8.6191c0,1.0806-0.0073,2.1626,0.002,3.2437c0.0137,1.7095-0.1821,1.4331,1.4668,1.4341
		c2.7339,0.002,4.3071-1.2959,4.6831-3.98c0.248-1.7681-0.0498-3.4302-1.6973-4.5098c-0.8359-0.5483-1.7949-0.7393-2.791-0.7441
		C6.5747,4.0527,6.5747,4.0518,6.5757,5.687C6.5757,6.6641,6.5757,7.6421,6.5757,8.6191"/>
	<path clip-path="url(#SVGID_2_)" fill="#0A77BE" d="M94.6924,0.0005c0.4854,0.0601,0.9707,0.1611,1.459,0.1748
		c1.6338,0.0464,3.2246,0.3232,4.748,0.9141c3.1621,1.228,4.4453,3.5981,4.5986,6.6953c0.0742,1.4917-0.1016,2.9517-0.7275,4.3247
		c-1.2744,2.793-3.6055,4.1953-6.5059,4.668c-1.5254,0.249-3.1016,0.2227-4.6553,0.2676c-0.5469,0.0156-0.7324,0.1924-0.7217,0.7305
		c0.0264,1.29-0.0068,2.5811,0.0156,3.8711c0.0088,0.4668-0.1084,0.6738-0.624,0.666c-1.7695-0.0264-3.5391-0.0195-5.3086-0.0029
		c-0.4219,0.0039-0.5938-0.123-0.5938-0.5684c0.0098-6.8701,0.0088-13.7388,0.002-20.6079c0-0.3711,0.082-0.5786,0.5068-0.6011
		c2.1367-0.1089,4.2705-0.2339,6.4043-0.3667c0.3447-0.021,0.6846-0.1089,1.0283-0.165H94.6924z M92.8975,8.6807
		c0,1.3306-0.0156,2.6616,0.0146,3.9917c0.0049,0.2104,0.2012,0.5864,0.3291,0.5952c1.1416,0.0811,2.2832,0.0742,3.3721-0.3809
		c2.0264-0.8462,2.6758-3.0273,2.4502-5.1201c-0.1826-1.6782-1.0137-2.8921-2.6709-3.4004
		c-0.5879-0.1797-1.2197-0.2729-1.835-0.2905c-1.6611-0.0483-1.6611-0.0244-1.6611,1.6108
		C92.8965,6.6846,92.8965,7.6826,92.8975,8.6807"/>
	<path clip-path="url(#SVGID_2_)" fill="#0A77BE" d="M124.9238,15.7402c-0.0742,0.4014-0.1514,0.8008-0.2246,1.2021
		c-0.4658,2.5752-2.0674,4.1357-4.457,4.9941c-1.5029,0.5391-3.0645,0.6973-4.6504,0.7705
		c-2.3877,0.1123-4.7188-0.1729-7.0205-0.7891c-0.5498-0.1475-0.8057-0.3965-0.8633-1.0156
		c-0.1191-1.2949-0.3604-2.5791-0.5527-3.877c1.2783,0.3652,2.4941,0.7754,3.7402,1.0537c1.7451,0.3916,3.5146,0.6768,5.3105,0.3359
		c0.3418-0.0645,0.6904-0.1738,0.998-0.335c1.1592-0.6055,1.4004-2.0908,0.4482-2.9912c-0.3975-0.376-0.9063-0.6719-1.4131-0.8887
		c-1.6426-0.7031-3.3447-1.2764-4.9561-2.043c-2.2305-1.0605-3.4756-2.8726-3.5303-5.3809
		c-0.0586-2.8062,1.3535-4.9238,4.0137-5.8218c1.2412-0.4199,2.5889-0.5283,3.8887-0.7739
		c0.3398-0.0654,0.6826-0.1211,1.0244-0.1802h0.25c0.3633,0.0552,0.7256,0.1221,1.0918,0.165
		c1.4609,0.1699,2.9229,0.3237,4.3818,0.5107c0.1621,0.021,0.416,0.2012,0.4326,0.332c0.1807,1.3872,0.3203,2.7793,0.4775,4.2192
		c-0.1777-0.0449-0.2773-0.0649-0.374-0.0972c-2.1533-0.6958-4.3418-1.0737-6.6172-0.8218
		c-1.0635,0.1167-1.8623,0.6509-2.041,1.4497c-0.1641,0.73,0.3008,1.5342,1.2178,2.0571c0.3232,0.1851,0.666,0.3408,1.0127,0.479
		c1.5078,0.5962,3.0459,1.1201,4.5205,1.7861c1.7939,0.8091,3.1758,2.0518,3.6299,4.0835c0.0889,0.4004,0.1748,0.8018,0.2617,1.2012
		V15.7402z"/>
	<path clip-path="url(#SVGID_2_)" fill="#0A77BE" d="M42.2886,11.4575c0,3.3716-0.0127,6.7437,0.0122,10.1157
		c0.0039,0.5781-0.165,0.7539-0.7432,0.7422c-1.6851-0.0352-3.3716-0.0371-5.0566,0.001c-0.6001,0.0137-0.7334-0.2002-0.7271-0.7559
		c0.0259-2.373-0.0073-4.7471,0.0229-7.1191c0.0078-0.6094-0.1929-0.7822-0.7871-0.7715c-1.9141,0.0322-3.8301,0.0283-5.7441,0.002
		c-0.5469-0.0088-0.7246,0.167-0.7197,0.7139c0.022,2.4141-0.0029,4.8291,0.0181,7.2432c0.0049,0.5088-0.1411,0.6934-0.6689,0.6846
		c-1.748-0.0283-3.4971-0.0234-5.2461-0.002c-0.4673,0.0049-0.6089-0.1602-0.6079-0.6172
		c0.0098-6.8486,0.0088-13.6968,0.001-20.5459c0-0.415,0.1128-0.6011,0.564-0.5972c1.79,0.0181,3.5811,0.022,5.3706-0.001
		c0.4941-0.0059,0.5874,0.209,0.5845,0.6401c-0.0132,2.4351,0.0117,4.8711-0.0181,7.3062
		c-0.0083,0.6318,0.1919,0.8291,0.8208,0.8169c1.894-0.0352,3.7891-0.0313,5.6821-0.002c0.5791,0.0088,0.7549-0.187,0.749-0.7549
		c-0.0239-2.4351,0.0049-4.8711-0.022-7.3062c-0.0063-0.5591,0.1768-0.7119,0.7168-0.7021c1.665,0.0303,3.3311,0.0371,4.9961-0.0029
		c0.6211-0.0151,0.8237,0.146,0.8179,0.7959C42.272,4.7124,42.2886,8.0854,42.2886,11.4575"/>
	<path clip-path="url(#SVGID_2_)" fill="#0A77BE" d="M71.999,18.1777c-0.2988,1.3281-0.5635,2.585-0.8887,3.8252
		c-0.0391,0.1465-0.4219,0.2861-0.6465,0.2871c-2.8516,0.0195-5.7041,0.0127-8.5557,0.0127c-0.708,0-1.417-0.0234-2.124,0.0088
		c-0.4863,0.0215-0.6592-0.1396-0.6514-0.6387c0.0254-1.6025,0.0093-3.2061,0.0093-4.8086c0-5.1631,0-10.3271,0-15.4902
		c0-0.814,0.002-0.8149,0.8311-0.8149c1.603-0.001,3.2065,0,4.8101,0c0.8652,0,0.8662,0.001,0.8662,0.8442
		c0,5.2876,0,10.5757,0,15.8643c0,0.8584,0.002,0.8633,0.8633,0.8652c1.583,0.0039,3.165,0,4.7471,0.0029
		C71.4814,18.1357,71.7021,18.1602,71.999,18.1777"/>
	<path clip-path="url(#SVGID_2_)" fill="#0A77BE" d="M47.4077,11.4312c0-3.3701,0.0132-6.7397-0.0132-10.1089
		c-0.0039-0.6001,0.168-0.7891,0.7739-0.7759c1.7041,0.0381,3.4111,0.0278,5.1162,0.0039c0.4951-0.0068,0.644,0.1602,0.6431,0.647
		c-0.0122,6.8228-0.0122,13.6455,0,20.4678c0.001,0.4883-0.1499,0.6543-0.6431,0.6475c-1.7261-0.0244-3.4531-0.0293-5.1792,0.002
		c-0.5508,0.0098-0.7119-0.165-0.709-0.7109C47.4185,18.2119,47.4077,14.8223,47.4077,11.4312"/>
	<path clip-path="url(#SVGID_2_)" fill="#0A77BE" d="M81.1445,11.4297c0,3.3896-0.0117,6.7803,0.0107,10.1699
		c0.0029,0.541-0.1455,0.7256-0.7031,0.7148c-1.7256-0.0322-3.4521-0.0254-5.1777-0.002c-0.4941,0.0068-0.6445-0.1592-0.6436-0.6465
		c0.0137-6.8223,0.0137-13.6436,0-20.4653c0-0.4839,0.1416-0.6582,0.6396-0.6509c1.7471,0.0249,3.4941,0.0239,5.2412,0
		c0.4932-0.0063,0.6436,0.1587,0.6416,0.647C81.1367,4.6074,81.1445,8.0186,81.1445,11.4297"/>
</g>
</svg>
