<?xml version="1.0" encoding="utf-8"?>
<!-- Generator: Adobe Illustrator 15.0.0, SVG Export Plug-In . SVG Version: 6.00 Build 0)  -->
<!DOCTYPE svg PUBLIC "-//W3C//DTD SVG 1.1//EN" "http://www.w3.org/Graphics/SVG/1.1/DTD/svg11.dtd">
<svg version="1.1" id="Слой_1" xmlns="http://www.w3.org/2000/svg" xmlns:xlink="http://www.w3.org/1999/xlink" x="0px" y="0px"
	 width="90.4404px" height="39.3774px" viewBox="0 0 90.4404 39.3774" enable-background="new 0 0 90.4404 39.3774"
	 xml:space="preserve">
<g>
	<defs>
		<rect id="SVGID_1_" y="0.0005" width="90.4414" height="39.377"/>
	</defs>
	<clipPath id="SVGID_2_">
		<use xlink:href="#SVGID_1_"  overflow="visible"/>
	</clipPath>
	<path clip-path="url(#SVGID_2_)" fill="#3F429A" d="M13.3872,38.8062H0.0005c0.4048-0.3428,0.8647-0.6934,1.2788-1.0908
		c0.585-0.5635,0.9668-1.251,1.209-2.0361c0.9858-3.1963,1.9961-6.3838,2.9951-9.5762c2.0967-6.7017,4.1929-13.4028,6.2881-20.106
		c0.3027-0.9668,0.623-1.9307,0.8877-2.9087c0.2773-1.021-0.0317-1.8779-0.856-2.5459c-0.0239-0.019-0.0488-0.0371-0.1108-0.0854
		c0.1011-0.0098,0.1558-0.021,0.2109-0.021c5.7109,0,11.4219-0.0156,17.1338,0.0083c2.1851,0.0088,4.3003,0.415,6.248,1.4668
		c1.939,1.0469,3.2661,2.5879,3.7583,4.7773c0.2109,0.939,0.231,1.8896,0.127,2.8418c-0.2749,2.5171-1.1382,4.832-2.4751,6.9668
		c-1.6069,2.5649-3.854,4.4106-6.5669,5.7085c-1.9072,0.9121-3.916,1.4873-5.9941,1.8506c-2.1548,0.376-4.3262,0.4619-6.5059,0.4063
		c-0.502-0.0127-1.0039-0.0693-1.5039-0.123c-0.1772-0.0205-0.2461,0.0381-0.2964,0.2012c-0.4736,1.5225-0.9546,3.043-1.4326,4.5645
		c-0.7012,2.2305-1.374,4.4707-2.1123,6.6885C11.8984,36.9478,12.2373,38.1509,13.3872,38.8062 M18.5161,21.6099
		c1.1841-0.0078,2.312-0.252,3.3921-0.7148c1.8223-0.7808,3.188-2.0898,4.27-3.7207c0.9551-1.4399,1.6069-3.019,2.104-4.665
		c0.5361-1.7769,0.9712-3.5732,0.7681-5.4551c-0.082-0.7651-0.2949-1.4888-0.7549-2.1201c-0.7813-1.0708-1.9111-1.4629-3.167-1.5498
		c-0.7803-0.0542-1.5659-0.0239-2.3491-0.0439c-0.2212-0.0059-0.3208,0.0679-0.3892,0.2891
		c-1.418,4.5356-2.8447,9.0688-4.269,13.603c-0.4087,1.2988-0.8159,2.5986-1.2217,3.8999c-0.0879,0.2832-0.084,0.3008,0.21,0.3369
		C17.5771,21.5269,18.0474,21.564,18.5161,21.6099"/>
	<path clip-path="url(#SVGID_2_)" fill="#3F429A" d="M88.8848,6.7095c-0.3115-0.2461-0.6045-0.4858-0.9063-0.7129
		c-1.5771-1.187-3.2881-2.106-5.2197-2.5713c-2.7246-0.6567-5.2686-0.1851-7.6504,1.2529c-1.5518,0.937-2.8604,2.1563-4.0029,3.5513
		c-2.6406,3.2212-4.3975,6.8989-5.584,10.8682c-0.5713,1.9067-1.0625,3.8315-1.3877,5.7964c-0.25,1.5088-0.4033,3.0273-0.332,4.5576
		c0.0703,1.5127,0.3154,2.9902,1.0986,4.3242c0.8555,1.459,2.1455,2.2822,3.7998,2.5586c0.9658,0.1621,1.9277,0.1182,2.8887-0.0488
		c0.1934-0.0342,0.3008-0.1123,0.3643-0.3174c1.4121-4.5215,2.8438-9.0391,4.2461-13.5635
		c0.3721-1.1992-0.0117-2.3203-1.1699-3.0483c-0.1572-0.0991-0.3223-0.1851-0.499-0.2861h14.6807
		c-0.377,0.208-0.8037,0.4121-1.1973,0.667c-0.9414,0.6069-1.5684,1.4653-1.9043,2.5308c-1.0225,3.2422-2.0391,6.4854-3.0586,9.7275
		c-0.4316,1.374-0.8652,2.7471-1.292,4.1221c-0.0547,0.1777-0.1484,0.2842-0.3164,0.3652c-2.4648,1.1846-5.042,2.0254-7.7344,2.4932
		c-0.9893,0.1729-1.9932,0.2813-2.9951,0.3369c-0.9873,0.0566-1.9863,0.0674-2.9727-0.0049
		c-2.6641-0.1943-5.21-0.8555-7.5371-2.2021c-1.8926-1.0947-3.1748-2.7432-4.0537-4.7217c-0.6025-1.3535-0.957-2.7744-1.1709-4.2393
		c-0.2031-1.3877-0.2432-2.7822-0.166-4.1748c0.1973-3.5547,1.0547-6.9526,2.5596-10.1826
		c2.2334-4.793,5.7871-8.3291,10.3828-10.8584c2.2656-1.2456,4.6895-2.0649,7.2373-2.4897
		c1.0664-0.1782,2.1465-0.3022,3.2236-0.3711c1.0742-0.0688,2.1572-0.0918,3.2324-0.041c2.7686,0.1323,5.4873,0.606,8.1465,1.395
		c0.2158,0.064,0.4287,0.1372,0.6465,0.188c0.1992,0.0459,0.2344,0.1323,0.1709,0.3271c-0.3486,1.0737-0.6846,2.1538-1.0254,3.2319
		c-0.1445,0.457-0.2891,0.915-0.4355,1.3721C88.9365,6.5913,88.9131,6.6387,88.8848,6.7095"/>
	<path clip-path="url(#SVGID_2_)" fill="#3F429A" d="M47.8916,30.6763c0.207-0.3584,0.4385-0.707,0.6172-1.0791
		c0.3711-0.7676,0.585-1.5811,0.6123-2.4375c0.0205-0.6719-0.2324-1.2217-0.7373-1.6611c-0.0234-0.0195-0.0459-0.041-0.0684-0.0635
		c-0.0049-0.0039-0.0049-0.0127-0.0088-0.0283h4.7412c-0.0889,0.5664-0.1582,1.1172-0.2646,1.6592
		c-0.4189,2.1172-1.4805,3.8926-2.9277,5.4629c-0.4639,0.5029-0.5029,0.3594,0.0273,0.8867
		c1.1895,1.1826,2.5498,2.1465,3.9658,3.0332c1.4746,0.9229,3.0049,1.7383,4.6416,2.3633c-0.0967,0-0.1924,0-0.2871,0
		c-2.833,0.001-5.665-0.0039-8.498,0.0078c-0.3057,0.001-0.5684-0.0625-0.7988-0.249c-0.7715-0.623-1.541-1.25-2.3066-1.8818
		c-0.2207-0.1826-0.4336-0.377-0.6309-0.585c-0.1436-0.1514-0.2529-0.1396-0.415-0.0273c-1.3047,0.9043-2.6899,1.6621-4.1621,2.2588
		c-1.167,0.4727-2.3667,0.8467-3.623,0.9668c-2.1509,0.207-4.2549,0.0264-6.1636-1.0957c-1.874-1.1025-3.0513-2.7363-3.3901-4.8994
		c-0.4961-3.1621,0.4932-5.8027,2.916-7.9004c1.439-1.2461,3.106-2.0918,4.8701-2.7646c0.8677-0.3301,1.7446-0.6377,2.6216-0.9463
		c0.1685-0.0596,0.2134-0.1455,0.2144-0.3203c0.0029-0.791-0.021-1.585,0.0479-2.3711c0.2202-2.4761,0.8291-4.8257,2.4321-6.8091
		c1.1709-1.4487,2.7261-2.3066,4.5015-2.7598c0.6914-0.1758,1.4229-0.2808,2.1338-0.2739c1.7295,0.019,3.3027,0.52,4.5303,1.8179
		c0.6602,0.6973,1.0293,1.5342,1.1191,2.4961c0.125,1.3228-0.3242,2.4697-1.0693,3.521c-0.9014,1.271-2.0879,2.2368-3.4219,3.0029
		c-1.1875,0.6826-2.4277,1.2744-3.6475,1.9014c-0.3242,0.166-0.6519,0.3232-0.9863,0.4697
		c-0.1655,0.0732-0.2017,0.166-0.1738,0.3428c0.3921,2.4277,1.3486,4.6289,2.668,6.6865c0.2549,0.3975,0.5186,0.792,0.7773,1.1875
		c0.0166,0.0264,0.0322,0.0527,0.0479,0.0801C47.8281,30.6704,47.8594,30.6733,47.8916,30.6763 M43.792,33.8716
		c-0.1343-0.1904-0.2544-0.3584-0.3721-0.5283c-1.7949-2.5879-3.1323-5.3926-3.9819-8.4277
		c-0.0952-0.3389-0.0972-0.3467-0.4214-0.1895c-1.3169,0.6387-2.502,1.4629-3.502,2.5371
		c-1.2417,1.3359-1.9326,2.8682-1.6597,4.7373c0.1489,1.0176,0.5469,1.9092,1.3657,2.5596c1.1919,0.9453,2.5781,1.166,4.041,0.9619
		c1.4873-0.208,2.8701-0.749,4.1953-1.4453C43.564,34.021,43.665,33.9497,43.792,33.8716 M43.813,19.8975
		c0.2437-0.1431,0.4229-0.2329,0.5869-0.3447c1.4419-0.9824,2.6929-2.166,3.7114-3.584c0.6299-0.876,1.1396-1.814,1.2627-2.9092
		c0.1494-1.3271-0.5859-2.0522-1.8857-1.8159c-0.6367,0.1157-1.1387,0.4819-1.5762,0.9331
		c-0.8916,0.918-1.4194,2.0376-1.7661,3.2539c-0.2842,0.9971-0.3872,2.019-0.3994,3.0508
		C43.7417,18.9268,43.7866,19.3735,43.813,19.8975"/>
</g>
</svg>
