<?xml version="1.0" encoding="utf-8"?>
<!-- Generator: Adobe Illustrator 15.0.0, SVG Export Plug-In . SVG Version: 6.00 Build 0)  -->
<!DOCTYPE svg PUBLIC "-//W3C//DTD SVG 1.1//EN" "http://www.w3.org/Graphics/SVG/1.1/DTD/svg11.dtd">
<svg version="1.1" id="Слой_1" xmlns="http://www.w3.org/2000/svg" xmlns:xlink="http://www.w3.org/1999/xlink" x="0px" y="0px"
	 width="159px" height="54px" viewBox="0 0 159 54" enable-background="new 0 0 159 54" xml:space="preserve">
<g>
	<defs>
		<rect id="SVGID_1_" width="159" height="54"/>
	</defs>
	<clipPath id="SVGID_2_">
		<use xlink:href="#SVGID_1_"  overflow="visible"/>
	</clipPath>
	<path clip-path="url(#SVGID_2_)" fill="#ffffff" d="M39.65,52.692c-0.059-0.733-0.681-1.429,0.131-1.821
		c2.594-0.869,4.989,1.44,7.583,0.568l0.071-1.193c2.114,0.365,4.348,0.905,6.607,1.327c4.038-0.416,8.065-0.935,12.068-1.569
		c-0.148-0.426-0.238-0.819,0.148-1.002c1.648-0.415,4.015-0.132,6.45-0.167c0.351-0.092,0.701-0.181,1.045-0.272
		c0.249-0.273,0.277-0.691,0.296-0.949c1.097-0.028,2.081,0.022,2.995,0.093c11.635-3.113,23.441-6.728,36.136-10.978
		c2.617-1.449,5.219-2.921,7.796-3.775c3.86-0.926,8.944-1.155,12.786-1.633c-1.208-3.969,7.596-8.007,5.035-11.778
		c1.245-0.223,2.807-0.493,4.049-0.876c1.23-0.438,2.147-0.957,2.131-1.565c-0.047-1.822,0.207-3.867,1.205-5.932
		c0.5-1.032,1.185-2.068,2.112-3.084c0.928-1.01,2.104-1.986,3.518-3.067c2.296-1.305,6.341-1.102,7.03-2.086
		c1.072-1.562-3.704-1.37-2.624-2.932c-17.851,4.997-35.936,9.248-55.36,11.264c-3.19,1.283-15.979,3.108-29.599,4.255
		c-13.602,1.174-27.985,1.979-33.928,2.005l-1.064,0.122c-6.456,0.218-14.276,1.197-19.562,3.371
		c-2.386,1.194-4.798,2.773-7.179,4.229c1.271,0.534,2.45,1.082,3.48,1.64c-2.585,0.237-5.171,0.476-6.056,1.354
		c-5.224,2.62-1.806,4.195,0.657,6.726c1.667,1.049-0.09,3.206,2.415,4.172c-1.687,0.159-2.537,0.211-4.219,0.447
		c-0.036,1.155,5.087-1.343,4.185,0.756c-1.683-0.27-3.385,0.726-5.052,0.961c0.407,0.758,1.861,0.646,3.223,0.601
		c1.367-0.024,2.627-0.04,2.604,0.762c-0.427,0.238-1.674-0.146-2.824-0.341c-1.143-0.161-2.185-0.122-2.204,0.883
		c-0.005,0.408,1.656,0.175,2.494,0.089c-5.03,1.435-7.507,3.775-2.581,5.138C4.042,48.64,1.652,48.188,0,48.736
		c0.003,0.012,0.012,0.019,0.018,0.028c0.856-0.074,2.375,0.089,3.157-0.013L0.28,49.124c0.195,0.25,0.409,0.491,0.632,0.733
		c0.753,0.122,1.501,0.195,2.252,0.102l-1.918,0.244c0.576,0.56,1.219,1.084,1.905,1.561c2.452,0.889,4.863,2.382,6.079,2.224
		C19.248,53.519,29.462,53.3,39.65,52.692"/>
</g>
</svg>
