<?xml version="1.0" encoding="utf-8"?>
<!-- Generator: Adobe Illustrator 15.0.0, SVG Export Plug-In . SVG Version: 6.00 Build 0)  -->
<!DOCTYPE svg PUBLIC "-//W3C//DTD SVG 1.1//EN" "http://www.w3.org/Graphics/SVG/1.1/DTD/svg11.dtd">
<svg version="1.1" id="Слой_1" xmlns="http://www.w3.org/2000/svg" xmlns:xlink="http://www.w3.org/1999/xlink" x="0px" y="0px"
	 width="217px" height="115px" viewBox="0 0 217 115" enable-background="new 0 0 217 115" xml:space="preserve">
<g>
	<g>
		<g>
			<defs>
				<rect id="SVGID_1_" width="217" height="64"/>
			</defs>
			<clipPath id="SVGID_2_">
				<use xlink:href="#SVGID_1_"  overflow="visible"/>
			</clipPath>
			<path clip-path="url(#SVGID_2_)" fill="#30EAD1" d="M54.1133,62.4502c-0.0796-0.8691-0.9287-1.6924,0.1787-2.1563
				c3.54-1.0313,6.8091,1.7041,10.3491,0.6709l0.0972-1.4121c2.8857,0.4316,5.9346,1.0703,9.0176,1.5693
				c5.5103-0.4912,11.0073-1.1055,16.4707-1.8594c-0.2031-0.502-0.3257-0.9707,0.2017-1.1855
				c2.2495-0.4912,5.479-0.1572,8.8022-0.1973c0.4785-0.1094,0.9565-0.2168,1.4268-0.3242c0.3394-0.3232,0.3789-0.8203,0.4038-1.124
				c1.4976-0.0352,2.8398,0.0254,4.0874,0.1094c15.8789-3.6904,31.9922-7.9717,49.3184-13.0107
				c3.5703-1.7178,7.1221-3.4609,10.6387-4.4756c5.2686-1.0957,12.207-1.3691,17.4502-1.9346
				c-1.6475-4.7031,10.3672-9.4902,6.8721-13.958c1.6992-0.2646,3.8301-0.585,5.5254-1.0386
				c1.6797-0.52,2.9307-1.1343,2.9082-1.8555c-0.0635-2.1602,0.2822-4.584,1.6455-7.0298c0.6816-1.2241,1.6172-2.4512,2.8818-3.6567
				c1.2666-1.1968,2.8721-2.3521,4.8018-3.6338c3.1338-1.5464,8.6543-1.3066,9.5938-2.4736
				c1.4629-1.8516-5.0537-1.6235-3.5801-3.4741c-24.3623,5.9229-49.0449,10.9595-75.5537,13.3491
				c-4.3535,1.5229-21.8086,3.6841-40.3955,5.043c-18.5645,1.3931-38.1934,2.3452-46.3047,2.3765l-1.4526,0.146
				c-8.8115,0.2583-19.4844,1.4175-26.6982,3.9946c-3.2559,1.415-6.5488,3.2871-9.7974,5.0127
				c1.7339,0.6328,3.3433,1.2822,4.7495,1.9424c-3.5278,0.2822-7.0581,0.5635-8.2646,1.6055
				c-7.1294,3.1045-2.4653,4.9707,0.896,7.9697c2.2744,1.2432-0.1226,3.8018,3.2954,4.9453
				c-2.3018,0.1885-3.4629,0.251-5.7573,0.5293c-0.0488,1.3701,6.9419-1.5908,5.7119,0.8945
				c-2.2969-0.3174-4.6201,0.8633-6.8955,1.1406c0.5547,0.8975,2.5405,0.7656,4.3979,0.7119
				c1.8657-0.0273,3.5854-0.0459,3.5537,0.9023c-0.5825,0.2842-2.2847-0.1729-3.855-0.4033
				c-1.5591-0.1904-2.9814-0.1445-3.0073,1.0469c-0.0063,0.4834,2.2607,0.207,3.4033,0.1055
				c-6.8643,1.6992-10.2451,4.4736-3.5225,6.0879c-2.1904,0.2471-5.4531-0.2891-7.707,0.3623
				c0.0044,0.0127,0.0161,0.0195,0.0244,0.0322c1.1675-0.0869,3.2402,0.1074,4.3086-0.0146l-3.9512,0.4414
				c0.2656,0.2969,0.5576,0.582,0.8618,0.8691c1.0283,0.1445,2.0493,0.2314,3.0732,0.1191L1.6997,59.5
				c0.7866,0.6611,1.6636,1.2852,2.6006,1.8516c3.3462,1.0508,6.6367,2.8203,8.2959,2.6338
				C26.269,63.4307,40.209,63.1709,54.1133,62.4502"/>
		</g>
	</g>
</g>
<g>
	<g>
		<defs>
			<rect id="SVGID_3_" y="74" width="81" height="15"/>
		</defs>
		<clipPath id="SVGID_4_">
			<use xlink:href="#SVGID_3_"  overflow="visible"/>
		</clipPath>
		<path clip-path="url(#SVGID_4_)" fill="#FFFFFF" d="M20.1992,88.6367c-0.0298-0.2031-0.3467-0.3965,0.0664-0.5059
			c1.3213-0.2422,2.5415,0.4004,3.8633,0.1582l0.0361-0.332c1.0771,0.1016,2.2153,0.252,3.3657,0.3672
			c2.0571-0.1152,4.1089-0.2578,6.1484-0.4355c-0.0762-0.1172-0.1216-0.2266,0.0752-0.2773
			c0.8394-0.1152,2.0449-0.0371,3.2856-0.0469c0.1787-0.0254,0.3569-0.0488,0.5327-0.0762
			c0.1265-0.0742,0.1411-0.1914,0.1504-0.2617c0.5591-0.0078,1.0601,0.0059,1.5259,0.0254
			c5.9268-0.8652,11.9424-1.8691,18.4092-3.0508c1.332-0.4023,2.6582-0.8105,3.9707-1.0469
			c1.9668-0.2578,4.5566-0.3223,6.5137-0.4551c-0.6152-1.1016,3.8701-2.2236,2.5654-3.2705
			c0.6338-0.0615,1.4297-0.1377,2.0625-0.2432c0.627-0.1221,1.0947-0.2656,1.085-0.4355c-0.0234-0.5059,0.1055-1.0742,0.6152-1.6465
			c0.2539-0.2871,0.6035-0.5762,1.0752-0.8574c0.4727-0.2813,1.0713-0.5518,1.792-0.8516c1.1699-0.3633,3.2305-0.3066,3.582-0.5801
			c0.5449-0.4346-1.8867-0.3809-1.3369-0.8145c-9.0938,1.3887-18.3076,2.5684-28.2021,3.1289
			c-1.625,0.3564-8.1406,0.8633-15.0786,1.1816c-6.9292,0.3262-14.2563,0.5498-17.2842,0.5566l-0.542,0.0352
			c-3.2891,0.0605-7.2729,0.332-9.9658,0.9355c-1.2153,0.332-2.4443,0.7715-3.6567,1.1758c0.647,0.1475,1.2476,0.2988,1.7725,0.4551
			c-1.3169,0.0654-2.6343,0.1309-3.085,0.375c-2.6611,0.7285-0.9199,1.166,0.3345,1.8691c0.8491,0.291-0.0459,0.8906,1.23,1.1582
			c-0.8589,0.0449-1.2925,0.0586-2.1489,0.123c-0.0181,0.3223,2.5913-0.3711,2.1323,0.2109
			c-0.8574-0.0742-1.7246,0.2012-2.5742,0.2676c0.207,0.2109,0.9482,0.1797,1.6421,0.166c0.6963-0.0059,1.3379-0.0098,1.3262,0.2109
			c-0.2173,0.0684-0.8525-0.0391-1.439-0.0938c-0.582-0.0449-1.1128-0.0332-1.1226,0.2461
			c-0.0024,0.1133,0.8442,0.0469,1.2705,0.0234c-2.5625,0.3984-3.8242,1.0488-1.3149,1.4277
			C2.0591,87.5117,0.8413,87.3848,0,87.5371c0.002,0.0039,0.0063,0.0059,0.0093,0.0078c0.436-0.0195,1.2095,0.0254,1.6084-0.002
			l-1.4751,0.1035c0.0991,0.0684,0.2085,0.1348,0.3218,0.2031c0.3838,0.0332,0.7651,0.0547,1.1475,0.0273l-0.9775,0.0684
			c0.2939,0.1543,0.6211,0.3008,0.9712,0.4336c1.249,0.2461,2.4771,0.6621,3.0962,0.6172
			C9.8057,88.8672,15.0088,88.8047,20.1992,88.6367"/>
	</g>
</g>
<g>
	<defs>
		<rect id="SVGID_5_" y="68" width="78" height="17"/>
	</defs>
	<clipPath id="SVGID_6_">
		<use xlink:href="#SVGID_5_"  overflow="visible"/>
	</clipPath>
	<path clip-path="url(#SVGID_6_)" fill="#30EBD1" d="M19.4507,84.5898c-0.0283-0.2324-0.3335-0.4502,0.0645-0.5752
		c1.2725-0.2734,2.4473,0.4531,3.7197,0.1807l0.0352-0.376c1.0371,0.1143,2.1333,0.2842,3.2412,0.417
		c1.9805-0.1299,3.9565-0.2939,5.9204-0.4951c-0.0728-0.1328-0.1172-0.2578,0.0723-0.3135c0.8086-0.1328,1.9697-0.042,3.1641-0.0537
		c0.1724-0.0273,0.3438-0.0566,0.5132-0.0859c0.1216-0.085,0.1357-0.2178,0.145-0.2988c0.5381-0.0078,1.0205,0.0068,1.4692,0.0293
		c5.7075-0.9795,11.4995-2.1172,17.7271-3.457c1.2842-0.4551,2.5596-0.918,3.8242-1.1875c1.8936-0.291,4.3877-0.3633,6.2725-0.5137
		c-0.5918-1.25,3.7266-2.5215,2.4697-3.708c0.6104-0.0703,1.377-0.1553,1.9873-0.2764c0.6025-0.1377,1.0527-0.3018,1.0449-0.4922
		c-0.0234-0.5732,0.1016-1.2178,0.5908-1.8682c0.2451-0.3242,0.5811-0.6504,1.0361-0.9707c0.4551-0.3184,1.0322-0.625,1.7266-0.9648
		c1.125-0.4111,3.1094-0.3477,3.4473-0.6572c0.5264-0.4932-1.8164-0.4316-1.2861-0.9229
		c-8.7568,1.5723-17.6289,2.9111-27.1572,3.5449c-1.5654,0.4043-7.8398,0.9785-14.5205,1.3398
		c-6.6729,0.3711-13.7285,0.623-16.644,0.6318l-0.5225,0.0391c-3.167,0.0674-7.0034,0.376-9.5962,1.0615
		c-1.1704,0.375-2.354,0.8721-3.522,1.3301c0.6235,0.1689,1.2021,0.3418,1.7075,0.5166c-1.2681,0.0752-2.5371,0.1494-2.9707,0.4258
		c-2.563,0.8252-0.8862,1.3223,0.3218,2.1191c0.8179,0.3281-0.0439,1.0088,1.1846,1.3135
		c-0.8271,0.0498-1.2446,0.0664-2.0693,0.1396c-0.0176,0.3633,2.4951-0.4219,2.0532,0.2363
		c-0.8257-0.083-1.6606,0.2305-2.4785,0.3047c0.1992,0.2373,0.9131,0.2021,1.5806,0.1895c0.6709-0.0068,1.2891-0.0146,1.2773,0.2402
		c-0.209,0.0732-0.8213-0.0488-1.3857-0.1094c-0.5601-0.0498-1.0713-0.0381-1.0806,0.2783
		c-0.0024,0.1299,0.8125,0.0557,1.2231,0.0283c-2.4673,0.4512-3.6826,1.1895-1.2661,1.6172C1.9829,83.3135,0.8105,83.1699,0,83.3428
		c0.002,0.0039,0.0059,0.0059,0.0088,0.0098c0.4199-0.0244,1.165,0.0273,1.5488-0.0059l-1.4204,0.1182
		c0.0957,0.0791,0.2007,0.1553,0.3101,0.2324c0.3696,0.0371,0.7368,0.0605,1.1045,0.0293l-0.9409,0.0781
		c0.2827,0.1768,0.5981,0.3428,0.9351,0.4922c1.2026,0.2783,2.3853,0.751,2.9814,0.6992
		C9.4424,84.8486,14.4531,84.7803,19.4507,84.5898"/>
</g>
<g>
	<defs>
		<rect id="SVGID_7_" y="90" width="112" height="25"/>
	</defs>
	<clipPath id="SVGID_8_">
		<use xlink:href="#SVGID_7_"  overflow="visible"/>
	</clipPath>
	<path clip-path="url(#SVGID_8_)" fill="#FFFFFF" d="M27.9292,114.3965c-0.0405-0.3418-0.479-0.6621,0.0928-0.8457
		c1.8267-0.4023,3.5137,0.667,5.3408,0.2656l0.0508-0.5527c1.4888,0.168,3.063,0.418,4.6538,0.6133
		c2.8438-0.1914,5.6816-0.4326,8.501-0.7285c-0.1045-0.1953-0.168-0.3789,0.1035-0.4609c1.1611-0.1953,2.8291-0.0615,4.5439-0.0791
		c0.2471-0.04,0.4932-0.083,0.7363-0.126c0.1748-0.125,0.1953-0.3203,0.209-0.4395c0.7725-0.0117,1.4648,0.0098,2.1094,0.043
		c8.1953-1.4404,16.5117-3.1133,25.4541-5.084c1.8438-0.6689,3.6748-1.3496,5.4912-1.7461
		c2.7188-0.4277,6.2998-0.5342,9.0068-0.7549c-0.8496-1.8389,5.3506-3.709,3.5459-5.4531c0.877-0.1035,1.9775-0.2285,2.8535-0.4063
		c0.8652-0.2031,1.5117-0.4443,1.501-0.7246c-0.0342-0.8428,0.1455-1.79,0.8477-2.7471c0.3525-0.4766,0.835-0.9561,1.4883-1.4277
		c0.6533-0.4678,1.4814-0.9189,2.4785-1.4189c1.6162-0.6045,4.4648-0.5107,4.9502-0.9658c0.7559-0.7256-2.6084-0.6348-1.8467-1.3574
		c-12.5742,2.3125-25.3135,4.2813-38.9951,5.2129c-2.248,0.5947-11.2568,1.4395-20.8496,1.9707
		c-9.582,0.5459-19.7129,0.916-23.8994,0.9287l-0.75,0.0576c-4.5474,0.0996-10.0562,0.5527-13.7793,1.5615
		c-1.6807,0.5508-3.3799,1.2822-5.0571,1.9561c0.8955,0.248,1.7261,0.502,2.4517,0.7598c-1.8208,0.1104-3.6431,0.2197-4.2656,0.626
		c-3.6802,1.2129-1.2725,1.9443,0.4624,3.1162c1.1743,0.4824-0.0635,1.4834,1.7007,1.9316
		c-1.1875,0.0732-1.7871,0.0977-2.9712,0.2051c-0.0254,0.5342,3.5825-0.6201,2.9482,0.3477
		c-1.1855-0.1221-2.3848,0.3389-3.5591,0.4482c0.2861,0.3486,1.311,0.2969,2.2695,0.2783c0.9634-0.0098,1.8511-0.0215,1.834,0.3535
		c-0.2998,0.1074-1.1792-0.0723-1.9897-0.1611c-0.8042-0.0732-1.5381-0.0557-1.5513,0.4092
		c-0.0039,0.1914,1.1665,0.082,1.7563,0.042c-3.543,0.6631-5.2881,1.749-1.8184,2.3779c-1.1309,0.0977-2.814-0.1133-3.978,0.1406
		c0.0029,0.0059,0.0083,0.0088,0.0127,0.0146c0.603-0.0361,1.6729,0.04,2.2241-0.0088l-2.04,0.1738
		c0.1377,0.1162,0.2886,0.2285,0.4453,0.3418c0.5308,0.0547,1.0581,0.0889,1.5859,0.043l-1.3511,0.1152
		c0.4063,0.2598,0.8589,0.5039,1.3428,0.7236c1.7271,0.4092,3.4248,1.1045,4.2813,1.0283
		C13.5581,114.7773,20.7534,114.6768,27.9292,114.3965"/>
</g>
</svg>
