<?xml version="1.0" encoding="utf-8"?>
<!-- Generator: Adobe Illustrator 16.0.0, SVG Export Plug-In . SVG Version: 6.00 Build 0)  -->
<!DOCTYPE svg PUBLIC "-//W3C//DTD SVG 1.1//EN" "http://www.w3.org/Graphics/SVG/1.1/DTD/svg11.dtd">
<svg version="1.1" id="Слой_1" xmlns="http://www.w3.org/2000/svg" xmlns:xlink="http://www.w3.org/1999/xlink" x="0px" y="0px"
	 width="210.211px" height="206.633px" viewBox="0 0 210.211 206.633" enable-background="new 0 0 210.211 206.633"
	 xml:space="preserve">
<g>
	<g>
		<g>
			<g>
				<g>
					<defs>
						<rect id="SVGID_1_" width="13" height="12.778"/>
					</defs>
					<clipPath id="SVGID_2_">
						<use xlink:href="#SVGID_1_"  overflow="visible"/>
					</clipPath>
					<path clip-path="url(#SVGID_2_)" d="M6.605,0.003c3.308-0.016,6.04,2.47,6.363,5.777c0.397,4.07-3.043,7.43-7.117,6.953
						c-1.396-0.163-2.604-0.73-3.63-1.686c-0.376-0.351-0.43-0.73-0.151-1.017c0.274-0.282,0.627-0.245,1.003,0.105
						c2.836,2.645,7.428,1.389,8.491-2.323c0.882-3.074-1.216-6.198-4.396-6.544c-1.58-0.172-2.935,0.326-4.112,1.375
						c-0.162,0.145-0.417,0.277-0.614,0.26C2.262,2.888,2.049,2.69,1.945,2.517C1.81,2.288,1.904,2.037,2.099,1.846
						c1.01-0.991,2.214-1.589,3.614-1.789C5.876,0.034,6.04,0.015,6.204,0.004C6.338-0.004,6.472,0.003,6.605,0.003"/>
				</g>
			</g>
		</g>
	</g>
	<g>
		<g>
			<g>
				<g>
					<defs>
						<rect id="SVGID_3_" width="13" height="12.778"/>
					</defs>
					<clipPath id="SVGID_4_">
						<use xlink:href="#SVGID_3_"  overflow="visible"/>
					</clipPath>
					<path clip-path="url(#SVGID_4_)" d="M4.207,5.763c0-0.296-0.006-0.551,0.002-0.805c0.008-0.252,0.111-0.32,0.335-0.194
						c0.842,0.475,1.678,0.959,2.515,1.444c0.202,0.118,0.195,0.251-0.005,0.367C6.226,7.054,5.398,7.534,4.566,8.006
						C4.315,8.147,4.213,8.077,4.208,7.783C4.203,7.546,4.207,7.31,4.207,7.033C4.083,7.027,3.975,7.017,3.866,7.017
						C2.785,7.015,1.704,7.016,0.623,7.015C0.148,7.015,0,6.864,0,6.387s0.145-0.623,0.627-0.624c1.05-0.001,2.101,0,3.151,0
						C3.9,5.763,4.023,5.763,4.207,5.763"/>
				</g>
			</g>
		</g>
	</g>
</g>
<g>
	<g>
		<g>
			<g>
				<g>
					<g>
						<defs>
							<rect id="SVGID_5_" x="13" width="10" height="15.692"/>
						</defs>
						<clipPath id="SVGID_6_">
							<use xlink:href="#SVGID_5_"  overflow="visible"/>
						</clipPath>
						<polyline clip-path="url(#SVGID_6_)" fill="none" stroke="#010101" stroke-width="3.0471" stroke-miterlimit="10" points="
							14.077,1.078 20.845,7.847 14.077,14.615 						"/>
					</g>
				</g>
			</g>
		</g>
	</g>
</g>
<g>
	<g>
		<g>
			<g>
				<g>
					<g>
						<defs>
							<rect id="SVGID_7_" x="23" width="7" height="10.985"/>
						</defs>
						<clipPath id="SVGID_8_">
							<use xlink:href="#SVGID_7_"  overflow="visible"/>
						</clipPath>
						<polyline clip-path="url(#SVGID_8_)" fill="none" stroke="#FFFFFF" stroke-width="2.133" stroke-miterlimit="10" points="
							23.754,0.755 28.491,5.493 23.754,10.23 						"/>
					</g>
				</g>
			</g>
		</g>
	</g>
</g>
<g>
	<g>
		<g>
			<g>
				<g>
					<g>
						<defs>
							<rect id="SVGID_9_" x="34" width="7" height="10.985"/>
						</defs>
						<clipPath id="SVGID_10_">
							<use xlink:href="#SVGID_9_"  overflow="visible"/>
						</clipPath>
						<polyline clip-path="url(#SVGID_10_)" fill="none" stroke="#000000" stroke-width="2.133" stroke-miterlimit="10" points="
							34.754,0.755 39.491,5.493 34.754,10.23 						"/>
					</g>
				</g>
			</g>
		</g>
	</g>
</g>
<g>
	<g>
		<g>
			<defs>
				<rect id="SVGID_11_" x="42" width="9" height="19.262"/>
			</defs>
			<clipPath id="SVGID_12_">
				<use xlink:href="#SVGID_11_"  overflow="visible"/>
			</clipPath>
			<path clip-path="url(#SVGID_12_)" fill="#FFFFFF" d="M50.997,0c-0.004,0.082-0.011,0.164-0.011,0.245
				c0,0.964-0.003,1.929,0.004,2.893c0.001,0.15-0.044,0.188-0.19,0.187c-0.538-0.006-1.077-0.004-1.615,0.005
				c-0.178,0.003-0.357,0.032-0.533,0.065c-0.34,0.065-0.586,0.34-0.601,0.723c-0.026,0.697-0.023,1.395-0.035,2.092
				c-0.002,0.128,0.085,0.104,0.157,0.104c0.877,0.001,1.755,0,2.632,0.001c0.06,0,0.12,0.005,0.196,0.008
				c-0.117,1.108-0.231,2.198-0.348,3.306H48.02v9.633h-3.604V9.639h-2.402c-0.004-0.06-0.01-0.108-0.01-0.157c0-1,0.002-2-0.003-3
				c-0.001-0.141,0.046-0.17,0.176-0.169c0.672,0.005,1.344,0.002,2.016,0.002c0.22,0,0.218,0,0.221-0.213
				c0.009-0.882,0.002-1.765,0.034-2.646c0.023-0.649,0.159-1.28,0.46-1.866c0.33-0.644,0.844-1.082,1.526-1.298
				c0.378-0.12,0.777-0.172,1.168-0.254C47.656,0.025,47.71,0.012,47.765,0H50.997z"/>
		</g>
	</g>
</g>
<g>
	<g>
		<g>
			<defs>
				<rect id="SVGID_13_" x="56" width="22" height="12.553"/>
			</defs>
			<clipPath id="SVGID_14_">
				<use xlink:href="#SVGID_13_"  overflow="visible"/>
			</clipPath>
			<path clip-path="url(#SVGID_14_)" fill="#FFFFFF" d="M56,0.911c0.127-0.205,0.315-0.303,0.552-0.316
				c0.114-0.007,0.229-0.017,0.343-0.018c0.931-0.006,1.862-0.009,2.793-0.014c0.479-0.002,0.794,0.209,1.006,0.652
				c0.556,1.16,1.133,2.311,1.725,3.453c0.248,0.477,0.565,0.915,0.994,1.255c0.1,0.079,0.212,0.149,0.33,0.195
				c0.266,0.104,0.467,0.016,0.604-0.23c0.207-0.369,0.223-0.781,0.27-1.184c0.109-0.938,0.096-1.869-0.095-2.799
				c-0.114-0.555-0.45-0.853-0.987-0.963c-0.274-0.057-0.292-0.127-0.099-0.335c0.227-0.245,0.503-0.407,0.832-0.456
				c1.239-0.185,2.48-0.211,3.721-0.017C68.6,0.23,68.83,0.441,68.886,1.165c0.042,0.555-0.005,1.116-0.011,1.675
				c-0.008,0.744-0.025,1.489-0.018,2.233c0.002,0.217,0.049,0.444,0.126,0.647c0.164,0.438,0.501,0.502,0.855,0.208
				c0.579-0.48,0.966-1.108,1.365-1.729c0.604-0.942,1.096-1.942,1.514-2.979c0.223-0.553,0.321-0.611,0.908-0.616
				c1.152-0.009,2.306-0.027,3.459-0.034c0.176-0.001,0.359,0.02,0.527,0.069c0.329,0.097,0.431,0.283,0.373,0.62
				c-0.09,0.519-0.331,0.98-0.625,1.401c-0.749,1.073-1.527,2.126-2.293,3.189c-0.17,0.238-0.347,0.475-0.494,0.728
				c-0.25,0.432-0.21,0.818,0.138,1.177c0.504,0.519,1.032,1.014,1.542,1.526c0.556,0.559,1.089,1.14,1.493,1.823
				c0.083,0.139,0.149,0.293,0.193,0.449c0.155,0.556-0.114,0.856-0.653,0.91c-0.482,0.048-0.973,0.039-1.459,0.051
				c-0.63,0.016-1.26,0.04-1.89,0.04c-0.536,0-1.022-0.194-1.417-0.537c-0.436-0.378-0.821-0.815-1.228-1.228
				c-0.296-0.3-0.587-0.605-0.888-0.901c-0.08-0.079-0.182-0.14-0.283-0.192c-0.266-0.137-0.461-0.106-0.686,0.096
				c-0.391,0.352-0.483,0.83-0.543,1.317c-0.025,0.213-0.023,0.429-0.037,0.644c-0.028,0.437-0.237,0.686-0.671,0.721
				c-1.89,0.154-3.682-0.071-5.306-1.194c-1.08-0.747-1.955-1.662-2.733-2.701c-1.663-2.218-2.943-4.65-4.058-7.176
				C56.059,1.338,56.029,1.275,56,1.212C56,1.112,56,1.012,56,0.911"/>
		</g>
	</g>
</g>
<g>
	<g>
		<g>
			<g>
				<g>
					<g>
						<defs>
							<rect id="SVGID_15_" y="20" width="7" height="10.985"/>
						</defs>
						<clipPath id="SVGID_16_">
							<use xlink:href="#SVGID_15_"  overflow="visible"/>
						</clipPath>
						<polyline clip-path="url(#SVGID_16_)" fill="none" stroke="#8D8D8D" stroke-width="2.133" stroke-miterlimit="10" points="
							0.754,20.755 5.491,25.493 0.754,30.23 						"/>
					</g>
				</g>
			</g>
		</g>
	</g>
</g>
<g>
	<g>
		<g>
			<g>
				<g>
					<g>
						<defs>
							<rect id="SVGID_17_" x="10" y="20" width="7" height="10.985"/>
						</defs>
						<clipPath id="SVGID_18_">
							<use xlink:href="#SVGID_17_"  overflow="visible"/>
						</clipPath>
						<polyline clip-path="url(#SVGID_18_)" fill="none" stroke="#000000" stroke-width="2.133" stroke-miterlimit="10" points="
							16.246,30.23 11.509,25.493 16.246,20.755 						"/>
					</g>
				</g>
			</g>
		</g>
	</g>
</g>
<g>
	<g>
		<g>
			<g>
				<g>
					<g>
						<defs>
							<rect id="SVGID_19_" x="20" y="20" width="7" height="10.985"/>
						</defs>
						<clipPath id="SVGID_20_">
							<use xlink:href="#SVGID_19_"  overflow="visible"/>
						</clipPath>
						<polyline clip-path="url(#SVGID_20_)" fill="none" stroke="#8D8D8D" stroke-width="2.133" stroke-miterlimit="10" points="
							26.246,30.23 21.509,25.493 26.246,20.755 						"/>
					</g>
				</g>
			</g>
		</g>
	</g>
</g>
<g>
	<defs>
		<rect id="SVGID_21_" y="36" width="19" height="25.508"/>
	</defs>
	<clipPath id="SVGID_22_">
		<use xlink:href="#SVGID_21_"  overflow="visible"/>
	</clipPath>
	<path clip-path="url(#SVGID_22_)" fill="#231F20" d="M0,45.726c0-4.427,2.982-8.34,7.185-9.432
		c5.221-1.355,10.688,2.125,11.635,7.417c0.582,3.256-0.249,6.147-2.345,8.674c-1.049,1.263-2.166,2.47-3.239,3.713
		c-1.261,1.459-2.304,3.058-3.046,4.843c-0.133,0.322-0.326,0.563-0.69,0.566c-0.364,0.002-0.561-0.233-0.695-0.558
		c-0.917-2.225-2.351-4.099-3.933-5.885c-1.095-1.235-2.192-2.48-3.165-3.812C0.518,49.628,0.013,47.741,0,45.726 M9.489,50.515
		c2.747,0.004,5.006-2.227,5.015-4.953c0.008-2.783-2.215-5.042-4.986-5.066c-2.738-0.023-5.017,2.238-5.022,4.985
		C4.49,48.277,6.704,50.509,9.489,50.515"/>
</g>
<g>
	<defs>
		<rect id="SVGID_23_" x="22.354" y="36" width="15.293" height="24"/>
	</defs>
	<clipPath id="SVGID_24_">
		<use xlink:href="#SVGID_23_"  overflow="visible"/>
	</clipPath>
	<polyline clip-path="url(#SVGID_24_)" fill="none" stroke="#000" stroke-width="5" stroke-miterlimit="10" points="
		35.999,58.352 25.647,48 35.999,37.647 	"/>
</g>

<g>
	<g>
		<g>
			<g>
				<g>
					<g>
						<g>
							<defs>
								<rect id="SVGID_25_" x="29.5" y="18.9" width="10" height="15.7"/>
							</defs>
							<clipPath id="SVGID_26_">
								<use xlink:href="#SVGID_3_"  style="overflow:visible;"/>
							</clipPath>
							<polyline  fill="none" stroke="#ffffff" stroke-width="3.0471" stroke-miterlimit="10" points="30.6,19.9 37.3,26.7 30.6,33.5 							"/>
						</g>
					</g>
				</g>
			</g>
		</g>
	</g>
</g>

</svg>
