<?xml version="1.0" encoding="utf-8"?>
<!-- Generator: Adobe Illustrator 15.0.0, SVG Export Plug-In . SVG Version: 6.00 Build 0)  -->
<!DOCTYPE svg PUBLIC "-//W3C//DTD SVG 1.1//EN" "http://www.w3.org/Graphics/SVG/1.1/DTD/svg11.dtd">
<svg version="1.1" id="Слой_1" xmlns="http://www.w3.org/2000/svg" xmlns:xlink="http://www.w3.org/1999/xlink" x="0px" y="0px"
	 width="231px" height="165.41406px" viewBox="0.00024 0 231 165.41406" enable-background="new 0.00024 0 231 165.41406"
	 xml:space="preserve">
<g>
	<g>
		<defs>
			<rect id="SVGID_1_" x="0.00024" y="125" width="231" height="40.41406"/>
		</defs>
		<clipPath id="SVGID_2_">
			<use xlink:href="#SVGID_1_"  overflow="visible"/>
		</clipPath>
		<path clip-path="url(#SVGID_2_)" fill="#F4F4F4" d="M115.50024,165.41406c63.78906,0,115.5-9.04688,115.5-20.20703
			S179.28931,125,115.50024,125s-115.5,9.04688-115.5,20.20703S51.71118,165.41406,115.50024,165.41406"/>
	</g>
</g>
<g>
	<g>
		<defs>
			<rect id="SVGID_3_" x="36.00024" width="165" height="153.72168"/>
		</defs>
		<clipPath id="SVGID_4_">
			<use xlink:href="#SVGID_3_"  overflow="visible"/>
		</clipPath>
		<path clip-path="url(#SVGID_4_)" d="M71.53931,84.28516c-0.97656,10.94727,12.3418,4.05469,12.3418,4.05469
			s77.35254-34.63672,65.83008-45.31592c-11.45215-10.61523-29.44336-14.9624-38.73438-15.20068
			c-4.06445-0.10449-10.13281-3.69385-8.25781-6.81445c2.41211-4.0127,13.90039-7.16797,16.80762-0.26611
			c2.65332,6.30029,6.24121,7.57813,14.74219,6.25244c9.92676-1.54785,8.81641-13.05664,8.00488-15.14844
			c-0.8125-2.0918-3.38379-1.52979-2.10352,0.62207c1.28125,2.15137-2.05859,9.36475-8.10742,6.90479
			c-7.71973-3.13965-13.00586-22.75342-43.01953-13.27539C38.30688,22.11963,72.51782,73.33789,71.53931,84.28516"/>
	</g>
	<g>
		<defs>
			<rect id="SVGID_5_" x="36.00024" width="165" height="153.72168"/>
		</defs>
		<clipPath id="SVGID_6_">
			<use xlink:href="#SVGID_5_"  overflow="visible"/>
		</clipPath>
		<path clip-path="url(#SVGID_6_)" fill="#010101" d="M75.73267,100.05859c-11.21191-25.6792-0.67773-55.06396,23.52734-65.63232
			c24.20605-10.56885,52.91797,1.68066,64.12988,27.35986c11.21191,25.67969,0.67773,55.06445-23.52832,65.63281
			C115.65649,137.98828,86.94458,125.73828,75.73267,100.05859"/>
	</g>
	<g>
		<defs>
			<rect id="SVGID_7_" x="36.00024" width="165" height="153.72168"/>
		</defs>
		<clipPath id="SVGID_8_">
			<use xlink:href="#SVGID_7_"  overflow="visible"/>
		</clipPath>
		<path clip-path="url(#SVGID_8_)" fill="#FFFFFF" d="M80.59009,81.53564c-7.74512-17.73779,0.63672-38.51807,18.71875-46.41309
			c18.08398-7.89551,39.02051,0.0835,46.76563,17.82178c7.74414,17.73779-0.63672,38.51855-18.71973,46.41309
			C109.27173,107.25293,88.33423,99.27344,80.59009,81.53564"/>
	</g>
	<g>
		<defs>
			<rect id="SVGID_9_" x="36.00024" width="165" height="153.72168"/>
		</defs>
		<clipPath id="SVGID_10_">
			<use xlink:href="#SVGID_9_"  overflow="visible"/>
		</clipPath>
		<path clip-path="url(#SVGID_10_)" fill="#010101" d="M98.70435,119.19141c10.06543-6.6377,22.05566,14.79492,12.96094,10.23633
			c-6.25977-3.13672-9.62891,21.40039-11.84473,22.14258c-9.12891,3.05859-20.32422,2.82422-20.05664-0.49805
			c0.7666-9.49414,18.07129,1.43066,19.41992-1.54492C107.85767,130.40039,98.70435,119.19141,98.70435,119.19141"/>
	</g>
	<g>
		<defs>
			<rect id="SVGID_11_" x="36.00024" width="165" height="153.72168"/>
		</defs>
		<clipPath id="SVGID_12_">
			<use xlink:href="#SVGID_11_"  overflow="visible"/>
		</clipPath>
		<path clip-path="url(#SVGID_12_)" fill="#010101" d="M167.47778,81.27441c-11.49902,2.0293-5.39258,25.05371-1.27832,15.87793
			c2.83008-6.31445,17.5918,8.32617,19.69531,7.37891c8.66895-3.89941,16.92969-11.45508,14.75195-13.58984
			c-6.2207-6.09766-12.70703,12.92773-15.48828,11.75C167.27466,95.11523,167.47778,81.27441,167.47778,81.27441"/>
	</g>
	<g>
		<defs>
			<rect id="SVGID_13_" x="36.00024" width="165" height="153.72168"/>
		</defs>
		<clipPath id="SVGID_14_">
			<use xlink:href="#SVGID_13_"  overflow="visible"/>
		</clipPath>
		<path clip-path="url(#SVGID_14_)" fill="#010101" d="M153.44751,48.53955l-7.63281-8.47803c0,0,6.17676,5.91992,7.78711,3.00684
			c0.94336-1.70654-0.34473-24.70068-1.12988-25.12061c-0.78516-0.42041-1.62012-5.28857-3.10645-4.53809
			c-2.12891,1.07422-2.95508-1.26514-0.5791-1.49512c2.37695-0.22998,3.08789,3.15479,4.00684,1.65967
			s-0.43262-9.59424-0.72266-10.88965c-0.29102-1.29541,1.30762-1.86377,1.30273-0.20898s0.67969,7.875,1.16309,7.74512
			c0.48438-0.12939-0.53906-8.13623-0.50977-9.54492c0.0293-1.40918,2.03223-0.3623,1.48828,0.84814
			c-0.54492,1.21094-0.04785,9.76465,0.29883,9.06982c0.3457-0.69531,0.51758-5.75732,0.36719-7.31445
			s2.21777-1.86914,1.38281,0.61035c-0.83594,2.47998-1.01855,8.28711-0.63965,7.91992
			c0.37793-0.36768,0.24512-2.58789,0.70215-4.7002c0.45801-2.11182,2.83105-1.51465,1.62109,0.50488
			c-1.21094,2.01953-1.1709,2.42969-1.94531,6.39209s-3.12988,2.70166-2.77344,6.38916
			c0.69043,7.12842,2.31348,20.76123,3.69336,29.22656c0.95703,5.86963,4.52051,10.54346,4.52051,10.54346L153.44751,48.53955z"/>
	</g>
	<g>
		<defs>
			<rect id="SVGID_15_" x="36.00024" width="165" height="153.72168"/>
		</defs>
		<clipPath id="SVGID_16_">
			<use xlink:href="#SVGID_15_"  overflow="visible"/>
		</clipPath>
		<path clip-path="url(#SVGID_16_)" fill="#010101" d="M76.53735,89.19922l-5.38867-11.12598c0,0,1.18262,9.42285-0.71875,8.9873
			C68.52954,86.625,51.9436,71.72168,52.04907,70.8374c0.10742-0.88428-3.39844-4.36279-1.93164-5.14893
			c2.10254-1.12646,0.66211-3.146-0.89063-1.33252c-1.55273,1.81396,0.80859,4.33936-0.94238,4.2334
			c-1.75195-0.10596-7.60742-5.8623-8.50098-6.84375c-0.89355-0.98193-2.27734,0.00146-0.91992,0.94727
			c1.35938,0.94531,6.05859,5.07715,5.67383,5.39893c-0.38281,0.32178-6.35156-5.11279-7.52148-5.89795
			s-1.46387,1.45654-0.16016,1.70557c1.30469,0.24902,8.02246,5.56738,7.25391,5.45166
			c-0.76758-0.11572-5.01074-2.88135-6.19922-3.89844c-1.1875-1.01709-2.80371,0.74268-0.29297,1.48242
			c2.50977,0.73975,7.36914,3.9248,6.85156,4.02295c-0.51855,0.09863-2.26074-1.28418-4.25195-2.12256
			c-1.99219-0.83789-2.86621,1.44824-0.51758,1.6167s2.66113,0.43604,6.35059,2.07666
			c3.68848,1.64111,4.00879-1.01172,6.82324,1.39795c4.87109,4.16943,9.5332,11.32617,16.4082,17.06348
			c2.16016,1.80273,10.67578,16.24219,10.67578,16.24219L76.53735,89.19922z"/>
	</g>
	<g>
		<defs>
			<rect id="SVGID_17_" x="36.00024" width="165" height="153.72168"/>
		</defs>
		<clipPath id="SVGID_18_">
			<use xlink:href="#SVGID_17_"  overflow="visible"/>
		</clipPath>
		<path clip-path="url(#SVGID_18_)" d="M120.40552,92.57422c-0.06348-0.14648,2.30957-0.2793,4.82715-1.37793
			c2.51758-1.09961,4.3418-2.99414,4.40527-2.84863c0.06348,0.14453-1.65723,2.27539-4.1748,3.375
			C122.94458,92.82227,120.46899,92.71875,120.40552,92.57422"/>
	</g>
	<g>
		<defs>
			<rect id="SVGID_19_" x="36.00024" width="165" height="153.72168"/>
		</defs>
		<clipPath id="SVGID_20_">
			<use xlink:href="#SVGID_19_"  overflow="visible"/>
		</clipPath>
		<path clip-path="url(#SVGID_20_)" fill="#010101" d="M89.07642,81.47656c-0.83789-1.46387,14.36719-3.92578,27.79102-9.69141
			c13.11426-5.63184,24.44238-14.61768,24.78516-12.14063c1.12891,8.15869-1.61914,21.44092-13.72559,28.4043
			C109.16626,98.83789,93.65845,89.49219,89.07642,81.47656"/>
	</g>
	<g>
		<defs>
			<rect id="SVGID_21_" x="36.00024" width="165" height="153.72168"/>
		</defs>
		<clipPath id="SVGID_22_">
			<use xlink:href="#SVGID_21_"  overflow="visible"/>
		</clipPath>
		<path clip-path="url(#SVGID_22_)" fill="#FFFFFF" d="M93.28735,79.63721c7.54883-2.31104,13.88672-3.11133,24.40039-7.9165
			c13.55957-6.19727,20.36328-10.9917,20.36328-10.9917c1.05469,4.43018-2.23047,8.76221-2.23047,8.76221
			c0.1748,0.01758-8.2959,5.70459-17.31055,9.55859c-8.53906,3.65137-17.64453,5.47949-17.64453,5.47949
			C96.45044,84.48828,93.28735,79.63721,93.28735,79.63721"/>
	</g>
	<g>
		<defs>
			<rect id="SVGID_23_" x="36.00024" width="165" height="153.72168"/>
		</defs>
		<clipPath id="SVGID_24_">
			<use xlink:href="#SVGID_23_"  overflow="visible"/>
		</clipPath>
		<path clip-path="url(#SVGID_24_)" fill="#FFFFFF" d="M134.51782,82.39063c0,0.00098,0,0.00098-0.00098,0.00195
			c-1.03906,1.26758-2.84082,3.75195-9.73926,7.08398c-8.01367,3.87109-11.88086,2.95508-11.91797,2.94727c0,0,0-0.00098,0-0.00195
			c-1.125-3.56055,0.28906-6.11328,0.29688-6.12891l0,0c0.38281-0.05762,4.91699-1.24512,9.33789-3.10742
			c4.18945-1.76416,7.83301-4.19824,7.85742-4.21436c0-0.00049,0.00098,0,0.00098,0
			C132.7522,79.55078,134.49731,82.3584,134.51782,82.39063"/>
	</g>
	<g>
		<defs>
			<rect id="SVGID_25_" x="36.00024" width="165" height="153.72168"/>
		</defs>
		<clipPath id="SVGID_26_">
			<use xlink:href="#SVGID_25_"  overflow="visible"/>
		</clipPath>
		<path clip-path="url(#SVGID_26_)" fill="#010101" d="M106.02759,58.84326c-2.36328-5.41406,0.23828-11.7749,5.81152-14.2085
			c5.57324-2.43311,12.00684-0.01709,14.37012,5.39697c2.36328,5.41357-0.23828,11.77441-5.81055,14.20801
			C114.82544,66.67285,108.39087,64.25684,106.02759,58.84326"/>
	</g>
	<g>
		<defs>
			<rect id="SVGID_27_" x="36.00024" width="165" height="153.72168"/>
		</defs>
		<clipPath id="SVGID_28_">
			<use xlink:href="#SVGID_27_"  overflow="visible"/>
		</clipPath>
		<path clip-path="url(#SVGID_28_)" fill="#010101" d="M94.27563,63.97412c-1.19727-2.74463,0.12109-5.96973,2.94629-7.20361
			c2.8252-1.2334,6.08691-0.0083,7.28613,2.73633c1.19824,2.74463-0.12109,5.96924-2.94629,7.20313
			C98.73657,67.94336,95.47485,66.71875,94.27563,63.97412"/>
	</g>
	<g>
		<defs>
			<rect id="SVGID_29_" x="36.00024" width="165" height="153.72168"/>
		</defs>
		<clipPath id="SVGID_30_">
			<use xlink:href="#SVGID_29_"  overflow="visible"/>
		</clipPath>
		<path clip-path="url(#SVGID_30_)" fill="#FFFFFF" d="M103.18384,63.61963c-0.12695-0.29053,0.00586-0.62842,0.2959-0.75537
			c0.29004-0.12646,0.62793,0.00586,0.75488,0.29639c0.12695,0.29004-0.00586,0.62793-0.2959,0.75488
			C103.64868,64.04199,103.31079,63.90967,103.18384,63.61963"/>
	</g>
	<g>
		<defs>
			<rect id="SVGID_31_" x="36.00024" width="165" height="153.72168"/>
		</defs>
		<clipPath id="SVGID_32_">
			<use xlink:href="#SVGID_31_"  overflow="visible"/>
		</clipPath>
		<path clip-path="url(#SVGID_32_)" fill="#FFFFFF" d="M124.49243,57.62988c-0.14258-0.32617,0.00586-0.70654,0.33203-0.84912
			c0.32715-0.14258,0.70703,0.00684,0.84961,0.33301c0.14258,0.32666-0.00586,0.70703-0.33301,0.84961
			C125.01489,58.10547,124.63501,57.95654,124.49243,57.62988"/>
	</g>
	<g>
		<defs>
			<rect id="SVGID_33_" x="36.00024" width="165" height="153.72168"/>
		</defs>
		<clipPath id="SVGID_34_">
			<use xlink:href="#SVGID_33_"  overflow="visible"/>
		</clipPath>
		<path clip-path="url(#SVGID_34_)" fill="#010101" d="M127.78833,45.24316c1.33301-0.17139-8.79297-4.01953-13.64551-4.65723
			c-4.85352-0.6377-7.07813,0.04102-8.42188,1.80029s0.59473,3.37646,0.90332,2.06885
			C108.50513,36.48779,127.78833,45.24316,127.78833,45.24316"/>
	</g>
	<g>
		<defs>
			<rect id="SVGID_35_" x="36.00024" width="165" height="153.72168"/>
		</defs>
		<clipPath id="SVGID_36_">
			<use xlink:href="#SVGID_35_"  overflow="visible"/>
		</clipPath>
		<path clip-path="url(#SVGID_36_)" fill="#010101" d="M91.75903,60.20361c-0.48535,0.83887-0.5127,0.09277,0.42676-1.44775
			c0.93945-1.54102,2.44336-4.07324,4.19238-5.73389c2.77246-2.63428,5.72949-1.44287,2.5127-0.7085
			C95.67212,53.04785,91.75903,60.20361,91.75903,60.20361"/>
	</g>
	<g>
		<defs>
			<rect id="SVGID_37_" x="36.00024" width="165" height="153.72168"/>
		</defs>
		<clipPath id="SVGID_38_">
			<use xlink:href="#SVGID_37_"  overflow="visible"/>
		</clipPath>
		<path clip-path="url(#SVGID_38_)" fill="#FFFFFF" d="M109.48267,50.19482c-0.64648-0.5249-1.28711-0.78369-2.1543-0.31104
			c-0.80469,0.43896-0.88281,0.99609-0.80859,1.66309c0.09766,0.89307,0.68164,1.45508,1.64844,1.88379
			c1.20898,0.53564,2.95703,0.79541,2.95703,0.79541c0.10938-0.31152,1.47656-1.79199,1.75391-2.84814
			c0.33887-1.29346-0.34766-3.2168-1.80859-2.84326C109.60767,48.90771,109.48267,50.19482,109.48267,50.19482"/>
	</g>
	<g>
		<defs>
			<rect id="SVGID_39_" x="36.00024" width="165" height="153.72168"/>
		</defs>
		<clipPath id="SVGID_40_">
			<use xlink:href="#SVGID_39_"  overflow="visible"/>
		</clipPath>
		<path clip-path="url(#SVGID_40_)" fill="#FFFFFF" d="M96.28931,59.43262c-0.375-0.3042-0.74609-0.4541-1.24902-0.18018
			c-0.4668,0.25488-0.51172,0.57764-0.46973,0.96436c0.05762,0.51758,0.39648,0.84375,0.95703,1.09229
			c0.70117,0.31104,1.71484,0.46094,1.71484,0.46094c0.0625-0.18018,0.85547-1.03857,1.01563-1.65137
			c0.19727-0.75-0.20117-1.86523-1.04883-1.64844S96.28931,59.43262,96.28931,59.43262"/>
	</g>
</g>
</svg>
