<?xml version="1.0" encoding="utf-8"?>
<!-- Generator: Adobe Illustrator 15.0.0, SVG Export Plug-In . SVG Version: 6.00 Build 0)  -->
<!DOCTYPE svg PUBLIC "-//W3C//DTD SVG 1.1//EN" "http://www.w3.org/Graphics/SVG/1.1/DTD/svg11.dtd">
<svg version="1.1" id="Слой_1" xmlns="http://www.w3.org/2000/svg" xmlns:xlink="http://www.w3.org/1999/xlink" x="0px" y="0px"
	 width="143px" height="302.3374px" viewBox="0 0 143 302.3374" enable-background="new 0 0 143 302.3374" xml:space="preserve">
<g>
	<defs>
		<rect id="SVGID_1_" width="143" height="145.15332"/>
	</defs>
	<clipPath id="SVGID_2_">
		<use xlink:href="#SVGID_1_"  overflow="visible"/>
	</clipPath>
	<path clip-path="url(#SVGID_2_)" d="M114.31104,83.13477c0,25.19141-19.25,45.61328-42.99609,45.61328
		s-42.99609-20.42188-42.99609-45.61328s19.25-45.61328,42.99609-45.61328S114.31104,57.94336,114.31104,83.13477"/>
	<path clip-path="url(#SVGID_2_)" d="M34.27686,59.95459c0,0,9.86963-14.20801-4.83643-23.55518
		c-14.70605-9.34668-9.84521-22.30762-7.10352-26.54492S39.021-7.4375,55.6123,5.7417
		c17.41943,13.8374,3.86328,26.04688-5.91992,22.55713c-5.6499-2.01514-7.58887-7.10107-2.30566-11.77686
		c5.42139-4.79834-2.99121-12.33789-12.5249-7.91406c-5.30859,2.46338-10.90479,10.78027,0.18701,18.88086
		c11.0918,8.10107,37.51221,2.43018,37.76172,10.03271C73.05957,45.12354,56.18701,39.51611,34.27686,59.95459"/>
	<path clip-path="url(#SVGID_2_)" d="M108.42139,59.95459c0,0-9.86963-14.20801,4.83643-23.55518
		c14.70605-9.34668,9.84521-22.30762,7.10352-26.54492S103.67725-7.4375,87.08643,5.7417
		c-17.41992,13.8374-3.86377,26.04688,5.91943,22.55713c5.6499-2.01514,7.58936-7.10107,2.30566-11.77686
		c-5.4209-4.79834,2.99121-12.33789,12.5249-7.91406c5.30859,2.46338,10.90479,10.78027-0.18701,18.88086
		c-11.0918,8.10107-37.51221,2.43018-37.76172,10.03271C69.63867,45.12354,86.51123,39.51611,108.42139,59.95459"/>
	<path clip-path="url(#SVGID_2_)" fill="#FFFFFF" d="M103.64551,69.62012c0,17.40088-14.38037,31.50732-32.12012,31.50732
		S39.40479,87.021,39.40479,69.62012s14.38086-31.50732,32.12061-31.50732S103.64551,52.21924,103.64551,69.62012"/>
	<path clip-path="url(#SVGID_2_)" d="M67.03418,56.11084c0.93799,2.47852-0.59717,5.35693-3.42969,6.4292
		s-5.88916-0.06787-6.82715-2.5459c-0.93848-2.47852,0.59717-5.35645,3.4292-6.42871
		C63.03906,52.49316,66.0957,53.63281,67.03418,56.11084"/>
	<path clip-path="url(#SVGID_2_)" d="M90.66064,62.45557c-1.70605,5.03125-7.75049,7.5293-13.50049,5.57959
		c-5.75-1.9502-9.02832-7.60986-7.32227-12.64063c1.70654-5.03174,7.75098-7.5293,13.50098-5.57959
		C89.08887,51.76514,92.36719,57.42432,90.66064,62.45557"/>
	<path clip-path="url(#SVGID_2_)" fill="#FFFFFF" d="M87.57861,54.76611c0,1.81494-1.52002,3.28662-3.396,3.28662
		c-1.87549,0-3.396-1.47168-3.396-3.28662s1.52051-3.28662,3.396-3.28662C86.05859,51.47949,87.57861,52.95117,87.57861,54.76611"/>
	<path clip-path="url(#SVGID_2_)" fill="#FFFFFF" d="M65.95605,56.07861c0,1.21533-1.01807,2.20117-2.27441,2.20117
		s-2.27441-0.98584-2.27441-2.20117s1.01807-2.20117,2.27441-2.20117S65.95605,54.86328,65.95605,56.07861"/>
	<path clip-path="url(#SVGID_2_)" fill="#FFFFFF" d="M59.5376,60.74121c0,0.44043-0.36963,0.79834-0.8252,0.79834
		s-0.82471-0.35791-0.82471-0.79834c0-0.44092,0.36914-0.79834,0.82471-0.79834S59.5376,60.30029,59.5376,60.74121"/>
	<path clip-path="url(#SVGID_2_)" fill="#FFFFFF" d="M76.13135,65.19629c0,0.59619-0.49902,1.07861-1.11475,1.07861
		c-0.61523,0-1.11426-0.48242-1.11426-1.07861c0-0.5957,0.49902-1.07861,1.11426-1.07861
		C75.63232,64.11768,76.13135,64.60059,76.13135,65.19629"/>
	<path clip-path="url(#SVGID_2_)" d="M88.35742,71.1084c-3.09277-0.79834-4.70459-1.53467-10.9668,0.93457
		c-4.82373,1.90186-11.06055,4.64209-17.13623,0.43604S54.00781,58.6084,49.56006,60.4917
		c-3.20166,1.35547-1.23438,4.50732,2.00928,6.40283c2.07959,1.21484,3.22461,1.89258,5.76465,5.5127
		c0,0-1.45313-3.10596-4.75977-5.2793c-2.23145-1.4668-6.07568-5.23438-2.52344-6.19238
		c1.55029-0.41797,2.94434,1.86963,4.34619,4.48682s4.08447,8.19092,10.04785,9.44043
		c5.20654,1.09033,8.47852-0.30078,13.94287-2.72656c1.97461-0.87646,5.24609-2.36719,9.50293-0.68506
		c2.52344,0.99658,3.33301-0.03369,3.22168,0.5918c-0.23633,1.32422-0.63574,1.93164-0.43359,2.02539
		c0.2124,0.09766,2.7417-2.75781,0.57617-5.20361c-1.74414-1.97021-0.51367,0.01563-0.14258,0.49854
		C91.79736,70.25488,91.25488,71.85596,88.35742,71.1084"/>
	<path clip-path="url(#SVGID_2_)" d="M70.91992,80.56055c0,0-2.43848,3.06299-6.50586,0.72656
		c-1.28955-0.74072-1.99463-1.31104-2.85059-0.74756s0.08545,0.28516,0.59814,0.30859
		c0.5127,0.02393,3.74121,2.0376,6.07666,1.53613C70.57324,81.8833,71.53662,80.05273,70.91992,80.56055"/>
	<path clip-path="url(#SVGID_2_)" d="M114.07764,89.25684c-0.68652,4.71191,13.05518,6.98389,20.9043,2.71729
		c5.41113-2.94092,9.04199,5.63525,7.75977,10.45508c-0.59277,2.22656-6.77441,4.66846-7.43701,3.58789
		c0,0-3.1958,5.98682-3.48047,10.82129c-0.28418,4.83398-5.12988,3.64844-3.17725-1.14551s5.26025-11.3999,5.39502-13.87549
		c0.13525-2.47607-2.49658-0.31104-3.23242,0.09668c-0.73633,0.40771,0.61523,2.49414-0.61865,3.81641
		s-4.20166,1.85107-3.58398,0.13818c0.61719-1.71289,1.97705-4.0835,1.82568-5.06396
		c-0.15186-0.97998,4.51123-2.00977,5.4707-3.58154c2.32959-3.81641-4.27393-1.37256-8.80664,0.6958
		c-4.53223,2.06885-10.44971-7.04492-14.26025,3.2085c-2.13574,5.74707-6.30225,1.07568-3.70313-8.00146
		C109.73291,84.04932,114.97607,83.08789,114.07764,89.25684"/>
	<path clip-path="url(#SVGID_2_)" d="M28.92236,90.37842c0.68652,4.71191-13.05518,6.98389-20.9043,2.71729
		c-5.41113-2.94092-9.04199,5.63525-7.75977,10.45508c0.59277,2.22656,6.77441,4.66846,7.43652,3.58789
		c0,0,3.19629,5.98682,3.48096,10.82129c0.28418,4.83447,5.12988,3.64844,3.17725-1.14551s-5.25977-11.3999-5.39502-13.87549
		s2.49658-0.31104,3.23242,0.09668c0.73633,0.4082-0.61523,2.49414,0.61865,3.81641s4.20166,1.85107,3.58398,0.13818
		c-0.61719-1.71289-1.97705-4.0835-1.82568-5.06396c0.15186-0.97998-4.51123-2.00977-5.4707-3.58154
		c-2.32959-3.81641,4.27393-1.37256,8.80664,0.69629c4.53223,2.06836,10.44971-7.04492,14.26025,3.20801
		c2.13574,5.74707,6.30225,1.07568,3.70264-8.00146C33.26709,85.1709,28.02393,84.20947,28.92236,90.37842"/>
	<path clip-path="url(#SVGID_2_)" d="M99.42432,115.92188c0,0-9.01123,8.58301-2.61621,24.83105
		c0.99414,2.52686,17.28955-5.28662,17.29199,2.54492c0.00098,2.74072-10.04883,2.19531-18.00977-0.91357
		c-1.93164-0.75439-1.82715-19.4458-7.6626-17.28711C79.94824,128.2334,90.88184,109.81885,99.42432,115.92188"/>
	<path clip-path="url(#SVGID_2_)" d="M43.62646,116.00635c0,0,9.01123,8.58301,2.61621,24.83154
		c-0.99463,2.52686-17.29004-5.28662-17.29248,2.54492c-0.00049,2.74072,10.04932,2.19482,18.01025-0.91357
		c1.93164-0.75439,1.82715-19.4458,7.6626-17.28711C63.10205,128.31787,52.16846,109.90332,43.62646,116.00635"/>
</g>
<g>
	<defs>
		<rect id="SVGID_3_" y="150" width="116" height="152.3374"/>
	</defs>
	<clipPath id="SVGID_4_">
		<use xlink:href="#SVGID_3_"  overflow="visible"/>
	</clipPath>
	<path clip-path="url(#SVGID_4_)" d="M103.95313,249.78467c0,30.0166-21.0625,41.4043-47.04395,41.4043
		s-47.04346-11.3877-47.04346-41.4043c0-30.01611,21.06201-54.34912,47.04346-54.34912S103.95313,219.76855,103.95313,249.78467"/>
	<path clip-path="url(#SVGID_4_)" d="M15.09229,224.86377c0,0,10.81104-27.64648,35.13867-31.87451
		c12.78711-2.22217,24.79492-12.16602,24.6167-17.86816s-2.5542-13.30518-13.06787-13.30518
		c-10.51318,0-12.59229,11.76074-6.47412,12.05762c2.84766,0.13818,6.96289,4.27881,3.26709,9.20703
		c-3.92041,5.22656-11.82031,6.47412-16.98828-2.61377c-5.16748-9.08789-2.43506-23.10596,5.93994-27.20459
		c8.375-4.09814,25.47461-5.91895,31.24365,4.27686c5.1084,9.02881,5.70898,20.05469-0.4751,25.60059
		c-6.55029,5.87402-13.89941,8.55322-11.40479,10.15723s16.22754,8.11719,22.9502,17.67383
		C96.56152,220.52686,61.47705,214.1875,15.09229,224.86377"/>
	<path clip-path="url(#SVGID_4_)" d="M17.70166,275.03613c0,0,3.16748,2.57471,6.16504,6.02979
		c6.43115,7.41357,6.48242,21.09082-2.99707,18.87061c-9.75635-2.28418-14.45166,0.7876-13.41943,1.70068
		s15.89648,0.95361,18.58057,0c1.80908-0.64307,3.6665-8.53516,12.08154-13.53613c4.06982-2.41895,9.0542-0.70654,16.92871-0.62549
		c6.6123,0.06836,12.05664-2.07617,15.61572-0.19775c9.44189,4.98438,9.97266,13.96729,11.32227,14.35938
		c1.85791,0.53955,14.45117,0.70459,15.89648,0c1.44531-0.70508,1.12305-5.92578-12.7998-1.07813
		c-3.09668,1.07813-11.07813-9.29443,8.21875-22.05664c5.81299-3.84473-10.97803-2.03711-9.76563-5.60205
		C88.6543,257.8291,24.11377,270.3457,17.70166,275.03613"/>
	<path clip-path="url(#SVGID_4_)" d="M97.74219,222.77686c0,0,29.48438,22.3667,13.5166,37.96094
		c-3.56396,3.48096-5.96973,0.62988-6.32568,3.30273c-0.35645,2.67285,2.23047-0.19434,3.36328-1.00244
		c3.65283-2.60645,2.73975,2.22754,0.89063,4.29883c-1.48291,1.66211-4.43213,2.67285-6.74902,0.17822
		c-2.31641-2.49463-2.5835-7.12744,0.62402-7.84033s12.02832,1.06299,10.69189-11.40479
		c-1.75342-16.35498-24.23486-28.6001-24.23486-28.6001L97.74219,222.77686z"/>
	<path clip-path="url(#SVGID_4_)" d="M11.43164,235.83105c0,0,0.57275-2.49951-1.56592-6.18262
		c-2.13818-3.68262-18.1748-18.03418-4.2168-33.33105c8.67188-9.50391,21.64746,5.77148,25.33301,2.771
		c2.51709-2.04932-0.52881-5.18457-2.33887-5.30176c-2.53174-0.16309-0.21533-5.36035,3.58643,0.26758
		c0.86475,1.28027,0.55664,2.3833,0.86865,2.69531s1.84863-0.95801,2.51709-4.16553c0.66797-3.20752,1.29199-5.3457,5.3457-3.0293
		c4.05371,2.31689,6.61475,3.86621,7.84033,2.3833c1.38135-1.67041,2.12793,1.40088-0.80176,1.75977
		s-4.7832-0.86621-6.59326-1.91553c-1.77295-1.02783-2.13818-0.62354-2.71729,2.36084
		c-0.5791,2.98486-3.16309,6.01416-5.16748,5.74707c-1.18311-0.15771-1.35156,1.27734-4.5293,0.20752
		c-2.34668-0.78906-6.2666-3.14746-11.58252-5.1377c-13.03711-4.87988-21.146,17.24609-4.46973,32.19434
		c0.8833,0.79199,2.76025-3.69824,2.76025-3.69824l1.0708,12.02832L11.43164,235.83105z"/>
	<path clip-path="url(#SVGID_4_)" fill="#FFFFFF" d="M86.52881,227.16553c0,16.3584-13.26123,23.15381-29.61963,23.15381
		c-16.35791,0-29.61914-6.79541-29.61914-23.15381c0-16.35791,13.26123-29.61914,29.61914-29.61914
		C73.26758,197.54639,86.52881,210.80762,86.52881,227.16553"/>
	<path clip-path="url(#SVGID_4_)" d="M57.20313,208.80029c1.14453,3.56055-1.64941,7.64307-6.24023,9.11914
		c-4.59082,1.47559-9.24023-0.21387-10.38477-3.77441c-1.14453-3.56006,1.64941-7.64307,6.24023-9.11865
		C51.40918,203.55029,56.05859,205.24023,57.20313,208.80029"/>
	<path clip-path="url(#SVGID_4_)" d="M73.20264,216.10889c-1.33691,2.58984-5.12793,3.29199-8.46777,1.56787
		c-3.33936-1.72363-4.96289-5.2207-3.62646-7.81055c1.3374-2.58984,5.12793-3.29199,8.46777-1.56836
		C72.91553,210.02197,74.53906,213.51904,73.20264,216.10889"/>
	<path clip-path="url(#SVGID_4_)" fill="#FFFFFF" d="M55.39453,208.06494c0,1.16846-0.9873,2.11572-2.20508,2.11572
		s-2.20508-0.94727-2.20508-2.11572c0-1.16895,0.9873-2.11621,2.20508-2.11621S55.39453,206.896,55.39453,208.06494"/>
	<path clip-path="url(#SVGID_4_)" fill="#FFFFFF" d="M70.27393,209.82031c0,0.93262-0.78809,1.68848-1.75977,1.68848
		s-1.75928-0.75586-1.75928-1.68848s0.7876-1.68848,1.75928-1.68848S70.27393,208.8877,70.27393,209.82031"/>
	<path clip-path="url(#SVGID_4_)" fill="#FFFFFF" d="M42.96094,215.21045c0,0.31738-0.26807,0.5752-0.59912,0.5752
		c-0.33057,0-0.59912-0.25781-0.59912-0.5752s0.26855-0.57471,0.59912-0.57471
		C42.69287,214.63574,42.96094,214.89307,42.96094,215.21045"/>
	<path clip-path="url(#SVGID_4_)" fill="#FFFFFF" d="M63.84912,215.7124c0,0.25684-0.2168,0.46533-0.48486,0.46533
		s-0.48535-0.2085-0.48535-0.46533c0-0.25732,0.21729-0.46582,0.48535-0.46582S63.84912,215.45508,63.84912,215.7124"/>
	<path clip-path="url(#SVGID_4_)" d="M69.15674,235.64014c-0.41895,1.43018-1.85449,2.26855-3.20605,1.87256
		c-1.35156-0.39648-2.10791-1.87646-1.68848-3.30664c0.41895-1.43018,1.854-2.26855,3.20605-1.87256
		C68.81982,232.72998,69.57568,234.20996,69.15674,235.64014"/>
	<path clip-path="url(#SVGID_4_)" d="M70.74023,233.76855c0.33984-0.10156,1.06494,3.13965-1.66699,4.94482
		c-2.97754,1.96729-6.09766-0.72803-5.83398-1.0166c0.25977-0.28564,2.17041,2.10645,4.99512,0.8623
		C71.47607,237.13135,70.42627,233.86279,70.74023,233.76855"/>
</g>
</svg>
