<?xml version="1.0" encoding="utf-8"?>
<!-- Generator: Adobe Illustrator 15.0.0, SVG Export Plug-In . SVG Version: 6.00 Build 0)  -->
<!DOCTYPE svg PUBLIC "-//W3C//DTD SVG 1.1//EN" "http://www.w3.org/Graphics/SVG/1.1/DTD/svg11.dtd">
<svg version="1.1" id="Слой_1" xmlns="http://www.w3.org/2000/svg" xmlns:xlink="http://www.w3.org/1999/xlink" x="0px" y="0px"
	 width="231px" height="150.41309px" viewBox="0 0 231 150.41309" enable-background="new 0 0 231 150.41309" xml:space="preserve">
<g>
	<defs>
		<rect id="SVGID_1_" y="110" width="231" height="40.41309"/>
	</defs>
	<clipPath id="SVGID_2_">
		<use xlink:href="#SVGID_1_"  overflow="visible"/>
	</clipPath>
	<path clip-path="url(#SVGID_2_)" fill="#F4F4F4" d="M115.5,150.41309c63.78906,0,115.5-9.04688,115.5-20.20605
		C231,119.04688,179.28906,110,115.5,110S-0.00049,119.04688-0.00049,130.20703
		C-0.00049,141.36621,51.71094,150.41309,115.5,150.41309"/>
</g>
<g>
	<defs>
		<rect id="SVGID_3_" x="70" width="144" height="135.86328"/>
	</defs>
	<clipPath id="SVGID_4_">
		<use xlink:href="#SVGID_3_"  overflow="visible"/>
	</clipPath>
	<path clip-path="url(#SVGID_4_)" d="M89.51953,76.4043c0,26.57422,21.52539,48.11523,48.07813,48.11523
		c26.55371,0,48.0791-21.54102,48.0791-48.11523c0-26.57227-21.52539-48.11523-48.0791-48.11523
		C111.04492,28.28906,89.51953,49.83203,89.51953,76.4043"/>
	<path clip-path="url(#SVGID_4_)" d="M185.64648,74.71094c0,0-3.67676-63.24609-55.56836-65.62109
		c-41.31836-1.89258-17.91602,12.44727-8.60938,7.79492c9.30469-4.65234,23.88379-1.24023,16.12891,4.34375
		c-7.75391,5.58203-45.28711-14.41406-58.31445,7.06055c-13.02832,21.47656,4.03223,26.12891,10.23633,19.30469
		c6.20313-6.82422,6.51367-18.30078,15.50879-16.75s-11.53418,16.82813-14.29785,34.7793
		C87.96875,83.57617,185.64648,74.71094,185.64648,74.71094"/>
	<path clip-path="url(#SVGID_4_)" d="M150.11328,59.65234h6.02832c1.81152,0,3.29395-1.48242,3.29395-3.29297v-5.82227
		c0-1.81055-1.48242-3.29297-3.29395-3.29297h-6.02832c-1.81055,0-3.29297,1.48242-3.29297,3.29297v5.82227
		C146.82031,58.16992,148.30273,59.65234,150.11328,59.65234"/>
	<path clip-path="url(#SVGID_4_)" d="M119.79395,65.92578h9.64551c2.89746,0,5.26953-2.37109,5.26953-5.26953V51.3418
		c0-2.89844-2.37207-5.26953-5.26953-5.26953h-9.64551c-2.89844,0-5.26953,2.37109-5.26953,5.26953v9.31445
		C114.52441,63.55469,116.89551,65.92578,119.79395,65.92578"/>
	<path clip-path="url(#SVGID_4_)" d="M184.7002,67.21094c0,0,32.49512-10.13281,17.7832-38.92188
		c-2.34277-4.58594-4.27344,2.16992-9.23633-1.41406c-4.96387-3.58594-2.25781-6.96289-1.27539-7.48047
		s3.92871-1.44727,3.25684,2.11914c-0.67188,3.56836,0.77539,5.74023,2.89551,3.46484s3.46387-3.96289,1.5332-6.65234
		c-1.92969-2.6875-3.03223-0.27539-3.58398,0s-2.41309,0.44727-2.27539-1.25781c0.13867-1.70703,2.34375-4.32617,4.41211-4.1875
		c2.06836,0.13672,5.65234,1.99805,5.72168,5.37695c0.06934,3.37695,2.89844,3.92773,2.37988-1.86133
		c-0.51855-5.79102-1.75977-5.65234-3.55176-6.89453c-1.79199-1.24023,0.55176-3.7207,2.34375-2.20508
		s4.8252,4.6875,2.61914,11.99414c0,0,2.34375-3.85938,1.5166-9.23633s2.75781-1.79297,1.79199,1.79102
		c-0.96484,3.58594-2.5498,8.16992-2.6875,8.99609c0,0,3.12109-0.18359,4.34277-6.375
		c0.83691-4.24609,3.58398,2.61914-2.75781,7.58203s-4.6875,6.48047-3.86035,7.99609
		c0.82715,1.51758,11.20215,30.33984-19.30078,41.91211c-1.09082,0.41406-0.72656,5.67578-1.09082,7.99609
		C184.75781,85.81055,183.37012,60.64063,184.7002,67.21094"/>
	<path clip-path="url(#SVGID_4_)" d="M192.63672,16.54297c-1.72852-6.69727-2.76855-12.59961-2.8125-15.48438
		c-0.01758-1.12109,1.13672-1.44922,1.64648-0.50781c1.3584,2.50977,3.3252,8.2207,5.07129,14.98438
		c2.40039,9.30273,3.47266,17.07031,2.39453,17.34766C197.8584,33.16211,195.03809,25.8457,192.63672,16.54297"/>
	<path clip-path="url(#SVGID_4_)" d="M199.13965,32.74609c0.20117,0.96484,0.27539,1.76367,0.16602,1.78711
		s-0.36133-0.74023-0.5625-1.70508c-0.20215-0.96289-0.27637-1.76367-0.16699-1.78711S198.9375,31.78125,199.13965,32.74609"/>
	<path clip-path="url(#SVGID_4_)" d="M170.72656,102.07031c0,0,5.78223-16.80859,15.05957-18.46289
		s-2.61914,28.87891-13.57227,38.05078c-2.22266,1.86133,26.11328-13.0293,32.46973-1.44727
		c6.35645,11.58008-36.24902,9.13281-38.48242,7.68555s6.35645-12.23633,8.76172-18.02539c0,0-6.29492,19-37.35352,16.54297
		C119.30078,124.9668,153.43359,63.45508,170.72656,102.07031"/>
	<path clip-path="url(#SVGID_4_)" d="M104.60352,101.65625c0,0-5.7832-16.80859-15.06055-18.46289
		c-9.27637-1.6543,2.61914,28.87891,13.57227,38.05078c2.22266,1.86133-26.11328-13.02734-32.46973-1.44727
		c-6.35645,11.58203,36.24902,9.13281,38.4834,7.68555c2.23242-1.44727-6.35742-12.23438-8.76172-18.02539
		c0,0,6.29492,19,37.35352,16.54492C156.0293,124.55273,121.89648,63.04102,104.60352,101.65625"/>
	<path clip-path="url(#SVGID_4_)" fill="#FFFFFF" d="M102.64258,62.61328c0,17.09961,16.90625,30.96094,37.76172,30.96094
		c20.85645,0,37.76367-13.86133,37.76367-30.96094s-16.90723-30.96094-37.76367-30.96094
		C119.54883,31.65234,102.64258,45.51367,102.64258,62.61328"/>
	<path clip-path="url(#SVGID_4_)" fill="#ED157C" d="M94.5332,135.86328h43.70508c3.58398,0,6.70313-4.11914,7.85742-8.20703
		l3.79199-36.87695c0-4.20703-3.44336-7.65039-7.65137-7.65039l-57.69824,1.71875c-4.20801,0-5.37695,3.65039-5.37695,7.85938
		l6.06348,36.03516C85.22461,132.94922,89.01953,135.86328,94.5332,135.86328"/>
	<path clip-path="url(#SVGID_4_)" d="M91.33691,72.96484c0,0-30.18652,7.38281-16.19238,24.89063
		c12.08203,15.11719,20.29492,2.62109,8.16016-2.875c-11.15332-5.05078-3.31641-14.13477,8.03223-19.72266
		C102.14063,69.93945,91.33691,72.96484,91.33691,72.96484"/>
	<path clip-path="url(#SVGID_4_)" fill="#FFFFFF" d="M117.41992,51.51758c0,1.80859,1.4502,3.27539,3.24023,3.27539
		c1.78906,0,3.24023-1.4668,3.24023-3.27539s-1.45117-3.27344-3.24023-3.27344
		C118.87012,48.24414,117.41992,49.70898,117.41992,51.51758"/>
	<path clip-path="url(#SVGID_4_)" fill="#FFFFFF" d="M148.11426,51.51758c0,0.99023,0.79395,1.79297,1.77344,1.79297
		s1.77344-0.80273,1.77344-1.79297s-0.79395-1.79102-1.77344-1.79102S148.11426,50.52734,148.11426,51.51758"/>
	<path clip-path="url(#SVGID_4_)" fill="#FFFFFF" d="M157.59961,55.11914c0,0.33203,0.26563,0.59961,0.59375,0.59961
		c0.32715,0,0.59277-0.26758,0.59277-0.59961c0-0.33008-0.26563-0.59766-0.59277-0.59766
		C157.86523,54.52148,157.59961,54.78906,157.59961,55.11914"/>
	<path clip-path="url(#SVGID_4_)" fill="#FFFFFF" d="M131.74219,57.51172c0,0.50391,0.4043,0.91211,0.90234,0.91211
		c0.5,0,0.9043-0.4082,0.9043-0.91211s-0.4043-0.91211-0.9043-0.91211C132.14648,56.59961,131.74219,57.00781,131.74219,57.51172"/>
	<path clip-path="url(#SVGID_4_)" fill="#ED157C" d="M157.20508,70.74023c0,0,3.73828-3.12109,3.04492-6.11914
		c-0.67285-2.90625,3.14453-7.12695,4.66406-3.38281c1.21484,2.99805-0.48438,3.94141-0.48438,3.94141
		S160.00684,69.33984,157.20508,70.74023"/>
	<path clip-path="url(#SVGID_4_)" d="M119.00586,74.16211c0,0,43.0625,7.35547,49.83984-17.5625
		c0.89453-3.28906,2.54883-1.71289,0.96387,1.82422c-1.58594,3.53711-8.34473,14.46875-24.33301,16.42773
		C128.31055,76.95703,119.00586,74.16211,119.00586,74.16211"/>
	<path clip-path="url(#SVGID_4_)" d="M172.73926,59.35938c0,0-1.42676-4.87109-2.26953-2.79102
		c-0.09766,0.24023-0.21582,0.67578-0.2666,0.82031c-0.24316,0.68359-1.45215-0.45117-1.31934-0.92578
		c0.10352-0.36914,0.19727-0.87695,0.19727-0.87695s0.19434-2.23242-2.44238-1.06445s2.07813-2.45117,3.83105-0.69336
		C172.22168,55.58594,173.2041,59.46289,172.73926,59.35938"/>
	<path clip-path="url(#SVGID_4_)" d="M190.0127,3.5332c0,0-2.64258,2.10938-1.04004,8.88281
		c1.60352,6.77148,2.90723,6.25586,1.04004-0.41406s-0.59082-6.42383,0.24512-6.67578
		C191.09277,5.07422,190.0127,3.5332,190.0127,3.5332"/>
	<path clip-path="url(#SVGID_4_)" d="M145.96191,46.44336l5.86719-2.47656c1.7627-0.74414,3.81543,0.08984,4.55957,1.85352
		l2.39063,5.66602c0.74414,1.76367-0.08984,3.81445-1.85254,4.55859l-5.86816,2.47656
		c-1.7627,0.74414-3.81445-0.08984-4.55859-1.85156l-2.39063-5.66602C143.36523,49.24023,144.19824,47.1875,145.96191,46.44336"/>
	<path clip-path="url(#SVGID_4_)" d="M115.99023,49.71484l9.3877-3.96289c2.82129-1.19141,6.10254,0.14258,7.29395,2.96484
		l3.82617,9.06445c1.19043,2.82227-0.14355,6.10352-2.96484,7.29492l-9.3877,3.96289
		c-2.82129,1.18945-6.10254-0.14453-7.29395-2.96484l-3.82617-9.06641C111.83496,54.1875,113.16895,50.9043,115.99023,49.71484"/>
	<path clip-path="url(#SVGID_4_)" fill="#FFFFFF" d="M115.86035,54.10352c-0.23926-1.89453,1.08887-3.62305,2.96387-3.85938
		s3.58984,1.10938,3.82813,3.00391c0.23828,1.89648-1.08789,3.625-2.96387,3.86133S116.09863,56,115.86035,54.10352"/>
	<path clip-path="url(#SVGID_4_)" fill="#FFFFFF" d="M146.04199,49.82227c-0.40723-0.96289,0.03613-2.07031,0.98926-2.47266
		c0.9541-0.40234,2.05664,0.05273,2.46289,1.01563s-0.03613,2.07031-0.99023,2.47266
		C147.55078,51.24023,146.44922,50.78516,146.04199,49.82227"/>
	<path clip-path="url(#SVGID_4_)" fill="#FFFFFF" d="M156.07227,53.02539c-0.13477-0.32227,0.0127-0.69141,0.33105-0.82617
		c0.31934-0.13477,0.6875,0.01758,0.82324,0.33984c0.13672,0.32227-0.01172,0.69141-0.33008,0.82617
		C156.57715,53.5,156.20898,53.34766,156.07227,53.02539"/>
	<path clip-path="url(#SVGID_4_)" fill="#FFFFFF" d="M132.20313,61.10742c-0.20703-0.49023,0.01758-1.05469,0.50391-1.25781
		c0.48438-0.20508,1.04688,0.02539,1.25391,0.51563c0.20703,0.49219-0.01953,1.05469-0.50391,1.25977
		C132.9707,61.83008,132.40918,61.59766,132.20313,61.10742"/>
</g>
</svg>
